<svg width="40" height="40" fill="none" xmlns="http://www.w3.org/2000/svg"><g clip-path="url(#clip0)"><path d="M32.236 27.555c0-6.805-5.517-12.322-12.322-12.322-6.805 0-12.321 5.517-12.321 12.322 0 6.805 5.516 8.215 12.321 8.215s12.322-1.41 12.322-8.215z" fill="#0097A7"/><path d="M32.236 27.555h.622c0-7.149-5.795-12.944-12.944-12.944-7.149 0-12.943 5.795-12.944 12.944 0 1.784.364 3.264 1.051 4.464a6.885 6.885 0 0 0 2.025 2.211c1.23.87 2.736 1.405 4.409 1.728 1.673.322 3.52.434 5.459.434 3.445-.004 6.608-.343 9.008-1.63 1.197-.645 2.2-1.543 2.885-2.743.688-1.2 1.051-2.68 1.051-4.464h-1.245c0 1.619-.326 2.866-.886 3.845a5.631 5.631 0 0 1-1.665 1.815c-1.03.73-2.365 1.22-3.924 1.52-1.558.301-3.334.413-5.224.412-3.36.005-6.358-.362-8.417-1.48-1.033-.56-1.834-1.288-2.396-2.267-.56-.979-.886-2.226-.886-3.845a11.66 11.66 0 0 1 3.426-8.273 11.66 11.66 0 0 1 8.273-3.426 11.66 11.66 0 0 1 8.273 3.426 11.659 11.659 0 0 1 3.426 8.273h.623z" fill="#54596E"/><path d="M19.291 23.945a3.733 3.733 0 1 1-7.467.001 3.733 3.733 0 0 1 7.467 0z" fill="#fff"/><path d="M19.291 23.945h.622a4.356 4.356 0 1 0-8.712.001 4.356 4.356 0 0 0 8.712 0H18.67c0 .86-.347 1.634-.912 2.2a3.098 3.098 0 0 1-2.2.911 3.099 3.099 0 0 1-2.2-.911 3.097 3.097 0 0 1-.91-2.2c0-.862.346-1.635.91-2.2a3.099 3.099 0 0 1 2.2-.912c.862 0 1.636.347 2.2.912.565.565.912 1.338.912 2.2h.622z" fill="#54596E"/><path d="M28.004 23.945a3.734 3.734 0 1 1-7.467.001 3.734 3.734 0 0 1 7.467 0z" fill="#fff"/><path d="M28.003 23.945h.623a4.357 4.357 0 1 0-8.714.002 4.357 4.357 0 0 0 8.714-.002h-1.245c0 .862-.347 1.636-.911 2.2a3.099 3.099 0 0 1-2.2.912 3.099 3.099 0 0 1-2.2-.911 3.098 3.098 0 0 1-.912-2.2c0-.862.347-1.635.912-2.2a3.099 3.099 0 0 1 2.2-.912c.861 0 1.635.347 2.2.912.564.565.911 1.338.911 2.2h.622zM1.08 28.1h.001c.037-.04.574-.598 1.516-1.138a7.897 7.897 0 0 1 4.856-1.01.622.622 0 1 0 .138-1.238 9.152 9.152 0 0 0-5.718 1.229c-1.087.643-1.68 1.284-1.709 1.315a.622.622 0 1 0 .917.843zM1.58 32.53l-.2-.107.2.109v-.001l-.2-.108.2.109c.005-.01.44-.804 1.36-1.65a7.873 7.873 0 0 1 4.274-2.025.622.622 0 0 0-.176-1.232 9.13 9.13 0 0 0-4.99 2.388C.99 31.002.505 31.903.482 31.944a.622.622 0 0 0 1.098.587zM3.634 36.282l-.23-.044.23.045v-.001l-.23-.044.23.045c.001-.01.18-.898.803-1.98a7.876 7.876 0 0 1 3.471-3.213.622.622 0 1 0-.536-1.123 9.128 9.128 0 0 0-4.047 3.774c-.712 1.26-.905 2.264-.914 2.31a.622.622 0 1 0 1.223.23zM39.836 27.258c-.03-.031-.622-.672-1.71-1.315a9.15 9.15 0 0 0-5.717-1.229.622.622 0 0 0 .139 1.237 7.902 7.902 0 0 1 4.946 1.063c.472.28.836.559 1.078.764.12.103.212.188.27.245l.064.063.013.014a.622.622 0 1 0 .917-.842zM39.517 31.944c-.023-.041-.508-.942-1.564-1.93a9.127 9.127 0 0 0-4.991-2.39.623.623 0 0 0-.176 1.233 7.878 7.878 0 0 1 4.317 2.066c.46.429.794.84 1.011 1.14.109.15.188.272.238.354l.055.091.011.02.002.004.2-.11-.2.108v.002l.2-.11-.2.108a.623.623 0 0 0 1.097-.586zM37.589 36.05c-.01-.045-.201-1.05-.914-2.31a9.13 9.13 0 0 0-4.047-3.773.622.622 0 1 0-.536 1.123 7.877 7.877 0 0 1 3.5 3.264c.31.546.506 1.04.623 1.39.059.176.097.316.121.41l.025.103.005.022v.004l.228-.045-.228.044.228-.044-.228.044a.622.622 0 0 0 1.223-.231z" fill="#54596E"/><path d="M16.802 23.945a1.245 1.245 0 1 1-2.489 0 1.245 1.245 0 0 1 2.49 0zM25.515 23.945a1.245 1.245 0 1 1-2.49 0 1.245 1.245 0 0 1 2.49 0z" fill="#55A6FF"/><path d="M7.652 11.876l2.729-6.832c-2.132-.907-5.068.799-6.66 3.922-1.638 3.216-1.229 6.708.915 7.8 2.144 1.092 5.21-.63 6.848-3.844a9.093 9.093 0 0 0 .96-3.183l-4.792 2.137z" fill="#0097A7"/><path d="M7.652 11.876l.578.231 2.729-6.833a.623.623 0 0 0-.334-.803 3.775 3.775 0 0 0-1.685-.287c-1.105.06-2.21.541-3.208 1.32-.999.78-1.894 1.864-2.565 3.18-.787 1.548-1.137 3.16-1.062 4.606.046.873.247 1.689.618 2.388.37.698.92 1.28 1.63 1.642.595.304 1.251.426 1.906.39 1.106-.06 2.213-.542 3.212-1.322 1-.782 1.896-1.868 2.567-3.184a9.716 9.716 0 0 0 1.025-3.402.623.623 0 0 0-.872-.632l-4.793 2.138.254.568.578.231-.578-.23.253.567 4.793-2.137-.254-.568-.62-.064a8.472 8.472 0 0 1-.895 2.964c-.592 1.162-1.382 2.11-2.224 2.769-.843.66-1.733 1.021-2.51 1.06a2.488 2.488 0 0 1-1.276-.256c-.462-.237-.825-.61-1.097-1.118-.27-.507-.437-1.147-.474-1.869-.064-1.196.23-2.61.928-3.976.591-1.162 1.38-2.108 2.221-2.764.842-.659 1.73-1.019 2.507-1.058.408-.02.785.041 1.133.19l.244-.573-.578-.231-1.66 4.153-1.07 2.68a.622.622 0 0 0 .832.799l-.253-.569z" fill="#54596E"/><path d="M4.505 16.724c-.02.021-.262.272-.509.673-.24.4-.51.955-.48 1.63.017.353.134.734.378 1.07.367.507.971.894 1.847 1.169.88.275 2.053.448 3.647.488a.623.623 0 0 0 .03-1.244c-2.023-.047-3.253-.337-3.905-.67-.327-.164-.508-.33-.609-.47a.737.737 0 0 1-.145-.408c-.02-.267.12-.63.298-.914.087-.142.178-.262.244-.344l.079-.093.019-.02.003-.004-.157-.149.156.15.001-.001-.157-.149.156.15a.623.623 0 0 0-.896-.864z" fill="#54596E"/><path d="M32.229 12.22l-2.73-6.833c2.132-.907 5.069.799 6.66 3.922 1.639 3.216 1.229 6.708-.915 7.8-2.144 1.092-5.21-.629-6.848-3.844a9.101 9.101 0 0 1-.96-3.183l4.793 2.137z" fill="#0097A7"/><path d="M32.228 12.22l.578-.231-2.73-6.833-.577.23.244.574a2.53 2.53 0 0 1 1.132-.19c.778.04 1.666.4 2.508 1.058.84.656 1.63 1.602 2.221 2.764.697 1.366.992 2.78.928 3.976-.037.723-.205 1.363-.475 1.869-.271.508-.635.881-1.096 1.118a2.49 2.49 0 0 1-1.276.256c-.777-.039-1.668-.4-2.51-1.06-.842-.658-1.633-1.606-2.224-2.768a8.485 8.485 0 0 1-.896-2.965l-.62.064-.253.568 4.793 2.138a.62.62 0 0 0 .831-.8l-.578.231.254-.568-4.793-2.137a.622.622 0 0 0-.872.631 9.713 9.713 0 0 0 1.025 3.403c.67 1.316 1.567 2.402 2.567 3.184.999.78 2.106 1.262 3.211 1.323a3.733 3.733 0 0 0 1.906-.39c.711-.362 1.26-.945 1.63-1.643.372-.7.573-1.515.62-2.388.074-1.446-.275-3.059-1.063-4.607-.67-1.315-1.566-2.4-2.564-3.18-.999-.778-2.104-1.26-3.209-1.32a3.775 3.775 0 0 0-1.685.287.623.623 0 0 0-.334.804 21729.648 21729.648 0 0 1 2.73 6.832l.577-.23.254-.569-.254.568z" fill="#54596E"/><path d="M35.101 17.964l.156-.15-.157.149.001.001.156-.15-.157.149c.005.005.194.208.36.488.172.28.301.629.282.887a.738.738 0 0 1-.145.407c-.148.21-.49.484-1.21.71-.715.225-1.786.394-3.304.43a.623.623 0 0 0 .03 1.245c2.126-.055 3.504-.338 4.434-.801.464-.233.818-.52 1.06-.857.244-.335.362-.716.378-1.069.03-.675-.238-1.23-.48-1.63-.246-.4-.488-.651-.508-.673a.623.623 0 0 0-.896.864zM12.922 29.9a8.863 8.863 0 0 0 7.182 3.66 8.862 8.862 0 0 0 7.157-3.626.622.622 0 0 0-1.003-.736 7.617 7.617 0 0 1-6.154 3.118 7.618 7.618 0 0 1-6.175-3.148.623.623 0 0 0-1.007.732z" fill="#54596E"/></g><defs><clipPath id="clip0"><path fill="#fff" d="M0 0h40v40H0z"/></clipPath></defs></svg>