<svg width="40" height="40" fill="none" xmlns="http://www.w3.org/2000/svg"><g clip-path="url(#clip0)"><path d="M32.236 27.555c0-6.805-5.517-12.322-12.322-12.322-6.805 0-12.321 5.517-12.321 12.322 0 6.805 5.516 8.215 12.321 8.215s12.322-1.41 12.322-8.215z" fill="#0097A7"/><path d="M32.236 27.555h.622c0-7.149-5.795-12.944-12.944-12.944-7.149 0-12.943 5.795-12.944 12.944 0 1.784.364 3.264 1.051 4.464a6.885 6.885 0 0 0 2.025 2.211c1.23.87 2.736 1.405 4.409 1.728 1.673.322 3.52.434 5.459.434 3.445-.004 6.608-.343 9.008-1.63 1.197-.645 2.2-1.543 2.885-2.743.688-1.2 1.051-2.68 1.051-4.464h-1.245c0 1.619-.326 2.866-.886 3.845a5.631 5.631 0 0 1-1.665 1.815c-1.03.73-2.365 1.22-3.924 1.52-1.558.301-3.334.413-5.224.412-3.36.005-6.358-.362-8.417-1.48-1.033-.56-1.834-1.288-2.396-2.267-.56-.979-.886-2.226-.886-3.845a11.66 11.66 0 0 1 3.426-8.273 11.66 11.66 0 0 1 8.273-3.426 11.66 11.66 0 0 1 8.273 3.426 11.659 11.659 0 0 1 3.426 8.273h.623z" fill="#54596E"/><path d="M19.291 23.945a3.733 3.733 0 1 1-7.467.001 3.733 3.733 0 0 1 7.467 0z" fill="#fff"/><path d="M19.291 23.945h.622a4.356 4.356 0 1 0-8.712.001 4.356 4.356 0 0 0 8.712 0H18.67c0 .86-.347 1.634-.912 2.2a3.098 3.098 0 0 1-2.2.911 3.099 3.099 0 0 1-2.2-.911 3.097 3.097 0 0 1-.91-2.2c0-.862.346-1.635.91-2.2a3.099 3.099 0 0 1 2.2-.912c.862 0 1.636.347 2.2.912.565.565.912 1.338.912 2.2h.622z" fill="#54596E"/><path d="M28.004 23.945a3.734 3.734 0 1 1-7.467.001 3.734 3.734 0 0 1 7.467 0z" fill="#fff"/><path d="M28.003 23.945h.623a4.357 4.357 0 1 0-8.714.002 4.357 4.357 0 0 0 8.714-.002h-1.245c0 .862-.347 1.636-.911 2.2a3.099 3.099 0 0 1-2.2.912 3.099 3.099 0 0 1-2.2-.911 3.098 3.098 0 0 1-.912-2.2c0-.862.347-1.635.912-2.2a3.099 3.099 0 0 1 2.2-.912c.861 0 1.635.347 2.2.912.564.565.911 1.338.911 2.2h.622zM1.08 28.1h.001c.037-.04.574-.598 1.516-1.138a7.897 7.897 0 0 1 4.856-1.01.622.622 0 1 0 .138-1.238 9.152 9.152 0 0 0-5.718 1.229c-1.087.643-1.68 1.284-1.709 1.315a.622.622 0 1 0 .917.843zM1.58 32.53l-.2-.107.2.109v-.001l-.2-.108.2.109c.005-.01.44-.804 1.36-1.65a7.873 7.873 0 0 1 4.274-2.025.622.622 0 0 0-.176-1.232 9.13 9.13 0 0 0-4.99 2.388C.99 31.002.505 31.903.482 31.944a.622.622 0 0 0 1.098.587zM3.634 36.282l-.23-.044.23.045v-.001l-.23-.044.23.045c.001-.01.18-.898.803-1.98a7.876 7.876 0 0 1 3.471-3.213.622.622 0 1 0-.536-1.123 9.128 9.128 0 0 0-4.047 3.774c-.712 1.26-.905 2.264-.914 2.31a.622.622 0 1 0 1.223.23zM39.836 27.258c-.03-.031-.622-.672-1.71-1.315a9.15 9.15 0 0 0-5.717-1.229.622.622 0 0 0 .139 1.237 7.902 7.902 0 0 1 4.946 1.063c.472.28.836.559 1.078.764.12.103.212.188.27.245l.064.063.013.014a.622.622 0 1 0 .917-.842zM39.517 31.944c-.023-.041-.508-.942-1.564-1.93a9.127 9.127 0 0 0-4.991-2.39.623.623 0 0 0-.176 1.233 7.878 7.878 0 0 1 4.317 2.066c.46.429.794.84 1.011 1.14.109.15.188.272.238.354l.055.091.011.02.002.004.2-.11-.2.108v.002l.2-.11-.2.108a.623.623 0 0 0 1.097-.586zM37.589 36.05c-.01-.045-.201-1.05-.914-2.31a9.13 9.13 0 0 0-4.047-3.773.622.622 0 1 0-.536 1.123 7.877 7.877 0 0 1 3.5 3.264c.31.546.506 1.04.623 1.39.059.176.097.316.121.41l.025.103.005.022v.004l.228-.045-.228.044.228-.044-.228.044a.622.622 0 0 0 1.223-.231z" fill="#54596E"/><path d="M16.802 23.945a1.245 1.245 0 1 1-2.489 0 1.245 1.245 0 0 1 2.49 0zM25.515 23.945a1.245 1.245 0 1 1-2.49 0 1.245 1.245 0 0 1 2.49 0z" fill="#55A6FF"/><path d="M6.509 11.887l1.876-7.115c-2.226-.64-4.933 1.411-6.131 4.705-1.235 3.392-.403 6.808 1.858 7.63 2.26.823 5.094-1.259 6.328-4.65a9.094 9.094 0 0 0 .565-3.276l-4.496 2.706z" fill="#0097A7"/><path d="M6.509 11.886l.602.16L8.987 4.93a.623.623 0 0 0-.43-.757 3.775 3.775 0 0 0-1.707-.079c-1.089.194-2.128.807-3.023 1.7-.896.897-1.653 2.082-2.158 3.47-.593 1.632-.743 3.275-.493 4.701.152.861.451 1.646.905 2.295.452.648 1.068 1.159 1.818 1.431.627.23 1.293.27 1.94.155 1.09-.194 2.129-.808 3.026-1.704.896-.898 1.654-2.085 2.16-3.473a9.71 9.71 0 0 0 .602-3.502.622.622 0 0 0-.943-.52l-4.496 2.705.321.534.602.158-.602-.159.32.534 4.497-2.706-.32-.533-.623.012c.02.952-.145 2-.528 3.051-.446 1.226-1.114 2.264-1.87 3.02-.756.757-1.596 1.224-2.363 1.358-.458.08-.888.049-1.297-.1-.487-.178-.893-.504-1.225-.975-.329-.47-.573-1.085-.699-1.797-.209-1.18-.088-2.62.437-4.06.446-1.225 1.113-2.26 1.868-3.014.755-.756 1.593-1.222 2.36-1.355.402-.07.784-.055 1.147.05l.172-.599-.602-.158-1.14 4.324-.736 2.79a.622.622 0 0 0 .923.692l-.321-.534z" fill="#54596E"/><path d="M3.976 17.082c-.017.024-.226.302-.422.73-.19.426-.39 1.01-.278 1.677.06.347.222.711.505 1.014.427.46 1.073.77 1.976.936.907.166 2.092.195 3.68.04a.622.622 0 0 0-.122-1.238c-2.014.2-3.27.061-3.957-.188-.346-.124-.545-.267-.663-.394a.737.737 0 0 1-.193-.387c-.053-.262.042-.64.184-.944.069-.15.144-.281.2-.37l.067-.102.016-.023.003-.004-.174-.128.173.13.001-.002-.174-.128.173.13a.623.623 0 0 0-.995-.749z" fill="#54596E"/><path d="M33.472 12.248l-1.249-7.25c2.274-.444 4.791 1.834 5.698 5.22.935 3.487-.192 6.817-2.516 7.44-2.324.622-4.965-1.699-5.899-5.184a9.101 9.101 0 0 1-.277-3.313l4.243 3.087z" fill="#0097A7"/><path d="M33.472 12.248l.613-.106-1.25-7.25-.613.105.12.611a2.53 2.53 0 0 1 1.147.05c.753.2 1.547.737 2.233 1.556.686.817 1.261 1.907 1.598 3.166.398 1.48.392 2.925.081 4.082-.187.699-.484 1.29-.853 1.73-.37.44-.804.73-1.305.865a2.49 2.49 0 0 1-1.3-.014c-.753-.2-1.549-.74-2.236-1.56-.687-.819-1.263-1.91-1.6-3.17a8.49 8.49 0 0 1-.26-3.086l-.619-.066-.366.503 4.244 3.087a.62.62 0 0 0 .98-.609l-.614.106.366-.503-4.244-3.087a.622.622 0 0 0-.984.436 9.714 9.714 0 0 0 .295 3.541c.383 1.427 1.034 2.676 1.849 3.648.815.97 1.797 1.673 2.866 1.962.634.17 1.3.188 1.946.014.77-.205 1.429-.661 1.936-1.267.508-.607.875-1.363 1.101-2.207.374-1.4.368-3.05-.08-4.727-.383-1.426-1.034-2.673-1.848-3.644-.815-.968-1.796-1.669-2.864-1.957a3.776 3.776 0 0 0-1.708-.07.623.623 0 0 0-.494.716 21766.34 21766.34 0 0 1 1.25 7.25l.613-.105.366-.503-.366.503z" fill="#54596E"/><path d="M35.087 18.464l.183-.114-.184.113.001.001.183-.114-.184.113c.004.005.147.244.252.552.11.309.163.678.09.927a.737.737 0 0 1-.226.368c-.188.173-.58.37-1.33.442-.747.072-1.83.014-3.322-.266a.623.623 0 0 0-.23 1.224c2.091.388 3.498.398 4.504.138.502-.13.908-.338 1.215-.617.309-.278.502-.626.592-.967.17-.655.023-1.253-.13-1.695-.158-.442-.343-.738-.358-.764a.623.623 0 0 0-1.056.66zM12.922 29.9a8.863 8.863 0 0 0 7.182 3.66 8.862 8.862 0 0 0 7.157-3.626.622.622 0 0 0-1.003-.736 7.617 7.617 0 0 1-6.154 3.118 7.618 7.618 0 0 1-6.175-3.148.623.623 0 0 0-1.007.732z" fill="#54596E"/></g><defs><clipPath id="clip0"><path fill="#fff" d="M0 0h40v40H0z"/></clipPath></defs></svg>