<svg width="40" height="40" fill="none" xmlns="http://www.w3.org/2000/svg"><g clip-path="url(#clip0)"><path d="M32.236 27.555c0-6.805-5.517-12.322-12.322-12.322-6.805 0-12.321 5.517-12.321 12.322 0 6.805 5.516 8.215 12.321 8.215s12.322-1.41 12.322-8.215z" fill="#0097A7"/><path d="M32.236 27.555h.622c0-7.149-5.795-12.944-12.944-12.944-7.149 0-12.943 5.795-12.944 12.944 0 1.784.364 3.264 1.051 4.464a6.885 6.885 0 0 0 2.025 2.211c1.23.87 2.736 1.405 4.409 1.728 1.673.322 3.52.434 5.459.434 3.445-.004 6.608-.343 9.008-1.63 1.197-.645 2.2-1.543 2.885-2.743.688-1.2 1.051-2.68 1.051-4.464h-1.245c0 1.619-.326 2.866-.886 3.845a5.631 5.631 0 0 1-1.665 1.815c-1.03.73-2.365 1.22-3.924 1.52-1.558.301-3.334.413-5.224.412-3.36.005-6.358-.362-8.417-1.48-1.033-.56-1.834-1.288-2.396-2.267-.56-.979-.886-2.226-.886-3.845a11.66 11.66 0 0 1 3.426-8.273 11.66 11.66 0 0 1 8.273-3.426 11.66 11.66 0 0 1 8.273 3.426 11.659 11.659 0 0 1 3.426 8.273h.623z" fill="#54596E"/><path d="M19.291 23.945a3.733 3.733 0 1 1-7.467.001 3.733 3.733 0 0 1 7.467 0z" fill="#fff"/><path d="M19.291 23.945h.622a4.356 4.356 0 1 0-8.712.001 4.356 4.356 0 0 0 8.712 0H18.67c0 .86-.347 1.634-.912 2.2a3.098 3.098 0 0 1-2.2.911 3.099 3.099 0 0 1-2.2-.911 3.097 3.097 0 0 1-.91-2.2c0-.862.346-1.635.91-2.2a3.099 3.099 0 0 1 2.2-.912c.862 0 1.636.347 2.2.912.565.565.912 1.338.912 2.2h.622z" fill="#54596E"/><path d="M28.004 23.945a3.734 3.734 0 1 1-7.467.001 3.734 3.734 0 0 1 7.467 0z" fill="#fff"/><path d="M28.003 23.945h.623a4.357 4.357 0 1 0-8.714.002 4.357 4.357 0 0 0 8.714-.002h-1.245c0 .862-.347 1.636-.911 2.2a3.099 3.099 0 0 1-2.2.912 3.099 3.099 0 0 1-2.2-.911 3.098 3.098 0 0 1-.912-2.2c0-.862.347-1.635.912-2.2a3.099 3.099 0 0 1 2.2-.912c.861 0 1.635.347 2.2.912.564.565.911 1.338.911 2.2h.622zM1.08 28.1h.001c.037-.04.574-.598 1.516-1.138a7.897 7.897 0 0 1 4.856-1.01.622.622 0 1 0 .138-1.238 9.152 9.152 0 0 0-5.718 1.229c-1.087.643-1.68 1.284-1.709 1.315a.622.622 0 1 0 .917.843zM1.58 32.53l-.2-.107.2.109v-.001l-.2-.108.2.109c.005-.01.44-.804 1.36-1.65a7.873 7.873 0 0 1 4.274-2.025.622.622 0 0 0-.176-1.232 9.13 9.13 0 0 0-4.99 2.388C.99 31.002.505 31.903.482 31.944a.622.622 0 0 0 1.098.587zM3.634 36.282l-.23-.044.23.045v-.001l-.23-.044.23.045c.001-.01.18-.898.803-1.98a7.876 7.876 0 0 1 3.471-3.213.622.622 0 1 0-.536-1.123 9.128 9.128 0 0 0-4.047 3.774c-.712 1.26-.905 2.264-.914 2.31a.622.622 0 1 0 1.223.23zM39.836 27.258c-.03-.031-.622-.672-1.71-1.315a9.15 9.15 0 0 0-5.717-1.229.622.622 0 0 0 .139 1.237 7.902 7.902 0 0 1 4.946 1.063c.472.28.836.559 1.078.764.12.103.212.188.27.245l.064.063.013.014a.622.622 0 1 0 .917-.842zM39.517 31.944c-.023-.041-.508-.942-1.564-1.93a9.127 9.127 0 0 0-4.991-2.39.623.623 0 0 0-.176 1.233 7.878 7.878 0 0 1 4.317 2.066c.46.429.794.84 1.011 1.14.109.15.188.272.238.354l.055.091.011.02.002.004.2-.11-.2.108v.002l.2-.11-.2.108a.623.623 0 0 0 1.097-.586zM37.589 36.05c-.01-.045-.201-1.05-.914-2.31a9.13 9.13 0 0 0-4.047-3.773.622.622 0 1 0-.536 1.123 7.877 7.877 0 0 1 3.5 3.264c.31.546.506 1.04.623 1.39.059.176.097.316.121.41l.025.103.005.022v.004l.228-.045-.228.044.228-.044-.228.044a.622.622 0 0 0 1.223-.231z" fill="#54596E"/><path d="M16.802 23.945a1.245 1.245 0 1 1-2.489 0 1.245 1.245 0 0 1 2.49 0zM25.515 23.945a1.245 1.245 0 1 1-2.49 0 1.245 1.245 0 0 1 2.49 0z" fill="#55A6FF"/><path d="M5.349 11.92l.868-7.306C3.923 4.29 1.528 6.697.8 10.126c-.75 3.53.548 6.797 2.902 7.297 2.353.5 4.869-1.955 5.62-5.485a9.093 9.093 0 0 0 .103-3.323L5.349 11.92z" fill="#0097A7"/><path d="M5.349 11.92l.618.073.868-7.306a.623.623 0 0 0-.531-.69 3.775 3.775 0 0 0-1.702.16C3.55 4.5 2.607 5.252 1.845 6.262 1.082 7.274.498 8.552.19 9.997c-.36 1.699-.28 3.347.166 4.724.27.832.676 1.567 1.215 2.147.539.579 1.22.999 2 1.164.653.14 1.318.088 1.942-.116 1.052-.344 1.997-1.097 2.76-2.109.763-1.014 1.348-2.295 1.656-3.74a9.716 9.716 0 0 0 .109-3.551.623.623 0 0 0-1.006-.385l-4.076 3.306.392.483.618.073-.618-.073.392.483 4.076-3.305-.392-.483-.615.099c.152.94.135 2-.098 3.094-.27 1.276-.788 2.397-1.432 3.25-.643.856-1.41 1.436-2.15 1.675a2.488 2.488 0 0 1-1.299.082c-.507-.11-.955-.376-1.348-.796-.392-.42-.719-.994-.942-1.682-.372-1.139-.453-2.582-.133-4.081.27-1.275.788-2.394 1.43-3.245.643-.854 1.408-1.432 2.148-1.67A2.527 2.527 0 0 1 6.13 5.23l.087-.616-.618-.073-.528 4.44-.34 2.866a.622.622 0 0 0 1.01.556l-.392-.483z" fill="#54596E"/><path d="M3.564 17.417c-.014.026-.183.331-.317.781-.13.45-.245 1.055-.042 1.7.107.336.32.673.641.934.487.395 1.17.613 2.087.652.921.038 2.099-.098 3.65-.472a.622.622 0 0 0-.293-1.21c-1.967.478-3.23.516-3.945.365-.36-.075-.577-.189-.71-.298a.737.737 0 0 1-.246-.356c-.089-.253-.048-.64.05-.96.048-.16.105-.3.148-.396l.052-.11.013-.025.002-.004-.19-.103.189.105v-.002l-.19-.103.19.105a.623.623 0 0 0-1.09-.603z" fill="#54596E"/><path d="M34.629 12.295L34.4 4.94c2.313-.122 4.49 2.484 4.916 5.964.44 3.582-1.14 6.723-3.527 7.016-2.388.294-4.68-2.373-5.12-5.954a9.1 9.1 0 0 1 .186-3.32l3.773 3.648z" fill="#0097A7"/><path d="M34.628 12.295l.622-.02-.228-7.353-.622.02.034.62a2.53 2.53 0 0 1 1.129.21c.717.303 1.429.945 1.994 1.851.566.905.984 2.064 1.142 3.358.188 1.521-.019 2.951-.488 4.054-.282.666-.658 1.21-1.085 1.593-.429.385-.898.611-1.412.676a2.49 2.49 0 0 1-1.287-.196c-.717-.302-1.43-.947-1.996-1.855-.567-.906-.985-2.068-1.144-3.362A8.486 8.486 0 0 1 31.46 8.8l-.603-.152-.433.448 3.773 3.647a.62.62 0 0 0 1.054-.466l-.622.019.433-.447L31.288 8.2a.622.622 0 0 0-1.035.295 9.715 9.715 0 0 0-.201 3.548c.18 1.466.651 2.793 1.323 3.87.672 1.074 1.548 1.907 2.566 2.341a3.732 3.732 0 0 0 1.924.285c.792-.096 1.508-.456 2.094-.986.588-.53 1.056-1.227 1.398-2.031.565-1.334.788-2.969.577-4.693-.18-1.465-.65-2.79-1.322-3.865-.672-1.073-1.546-1.903-2.563-2.337a3.776 3.776 0 0 0-1.682-.307.623.623 0 0 0-.589.64l.139 4.47.09 2.884.621-.019.433-.447-.433.447z" fill="#54596E"/><path d="M35.363 18.676l.197-.088-.198.086v.002l.198-.088-.198.086c.003.006.111.262.172.582.066.321.068.694-.039.93a.737.737 0 0 1-.275.333c-.21.146-.626.287-1.38.253-.749-.033-1.813-.24-3.252-.725a.623.623 0 0 0-.397 1.18c2.016.674 3.407.88 4.44.763.515-.06.947-.208 1.29-.442.344-.232.584-.55.72-.875.259-.625.197-1.238.107-1.697-.095-.46-.236-.779-.248-.806a.623.623 0 0 0-1.137.506zM12.922 29.9a8.863 8.863 0 0 0 7.182 3.66 8.862 8.862 0 0 0 7.157-3.626.622.622 0 0 0-1.003-.736 7.617 7.617 0 0 1-6.154 3.118 7.618 7.618 0 0 1-6.175-3.148.623.623 0 0 0-1.007.732z" fill="#54596E"/></g><defs><clipPath id="clip0"><path fill="#fff" d="M0 0h40v40H0z"/></clipPath></defs></svg>