<svg width="40" height="40" fill="none" xmlns="http://www.w3.org/2000/svg"><g clip-path="url(#clip0)"><path d="M32.236 27.555c0-6.805-5.517-12.322-12.322-12.322-6.805 0-12.321 5.517-12.321 12.322 0 6.805 5.516 8.215 12.321 8.215s12.322-1.41 12.322-8.215z" fill="#FF927D"/><path d="M32.236 27.555h.622c0-7.149-5.795-12.944-12.944-12.944-7.149 0-12.943 5.795-12.944 12.944 0 1.784.364 3.264 1.051 4.464a6.885 6.885 0 0 0 2.025 2.211c1.23.87 2.736 1.405 4.409 1.728 1.673.322 3.52.434 5.459.434 3.445-.004 6.608-.343 9.008-1.63 1.197-.645 2.2-1.543 2.885-2.743.688-1.2 1.051-2.68 1.051-4.464h-1.245c0 1.619-.326 2.866-.886 3.845a5.631 5.631 0 0 1-1.665 1.815c-1.03.73-2.365 1.22-3.924 1.52-1.558.301-3.334.413-5.224.412-3.36.005-6.358-.362-8.417-1.48-1.033-.56-1.834-1.288-2.396-2.267-.56-.979-.886-2.226-.886-3.845a11.66 11.66 0 0 1 3.426-8.273 11.66 11.66 0 0 1 8.273-3.426 11.66 11.66 0 0 1 8.273 3.426 11.659 11.659 0 0 1 3.426 8.273h.623z" fill="#54596E"/><path d="M19.291 23.945a3.733 3.733 0 1 1-7.467.001 3.733 3.733 0 0 1 7.467 0z" fill="#fff"/><path d="M19.291 23.945h.622a4.356 4.356 0 1 0-8.712.001 4.356 4.356 0 0 0 8.712 0H18.67c0 .86-.347 1.634-.912 2.2a3.098 3.098 0 0 1-2.2.911 3.099 3.099 0 0 1-2.2-.911 3.097 3.097 0 0 1-.91-2.2c0-.862.346-1.635.91-2.2a3.099 3.099 0 0 1 2.2-.912c.862 0 1.636.347 2.2.912.565.565.912 1.338.912 2.2h.622z" fill="#54596E"/><path d="M28.004 23.945a3.734 3.734 0 1 1-7.467.001 3.734 3.734 0 0 1 7.467 0z" fill="#fff"/><path d="M28.003 23.945h.623a4.357 4.357 0 1 0-8.714.002 4.357 4.357 0 0 0 8.714-.002h-1.245c0 .862-.347 1.636-.911 2.2a3.099 3.099 0 0 1-2.2.912 3.099 3.099 0 0 1-2.2-.911 3.098 3.098 0 0 1-.912-2.2c0-.862.347-1.635.912-2.2a3.099 3.099 0 0 1 2.2-.912c.861 0 1.635.347 2.2.912.564.565.911 1.338.911 2.2h.622zM1.08 28.1h.001c.037-.04.574-.598 1.516-1.138a7.897 7.897 0 0 1 4.856-1.01.622.622 0 1 0 .138-1.238 9.152 9.152 0 0 0-5.718 1.229c-1.087.643-1.68 1.284-1.709 1.315a.622.622 0 1 0 .917.843zM1.58 32.53l-.2-.107.2.109v-.001l-.2-.108.2.109c.005-.01.44-.804 1.36-1.65a7.873 7.873 0 0 1 4.274-2.025.622.622 0 0 0-.176-1.232 9.13 9.13 0 0 0-4.99 2.388C.99 31.002.505 31.903.482 31.944a.622.622 0 0 0 1.098.587zM3.634 36.282l-.23-.044.23.045v-.001l-.23-.044.23.045c.001-.01.18-.898.803-1.98a7.876 7.876 0 0 1 3.471-3.213.622.622 0 1 0-.536-1.123 9.128 9.128 0 0 0-4.047 3.774c-.712 1.26-.905 2.264-.914 2.31a.622.622 0 1 0 1.223.23zM39.836 27.258c-.03-.031-.622-.672-1.71-1.315a9.15 9.15 0 0 0-5.717-1.229.622.622 0 0 0 .139 1.237 7.902 7.902 0 0 1 4.946 1.063c.472.28.836.559 1.078.764.12.103.212.188.27.245l.064.063.013.014a.622.622 0 1 0 .917-.842zM39.517 31.944c-.023-.041-.508-.942-1.564-1.93a9.127 9.127 0 0 0-4.991-2.39.623.623 0 0 0-.176 1.233 7.878 7.878 0 0 1 4.317 2.066c.46.429.794.84 1.011 1.14.109.15.188.272.238.354l.055.091.011.02.002.004.2-.11-.2.108v.002l.2-.11-.2.108a.623.623 0 0 0 1.097-.586zM37.589 36.05c-.01-.045-.201-1.05-.914-2.31a9.13 9.13 0 0 0-4.047-3.773.622.622 0 1 0-.536 1.123 7.877 7.877 0 0 1 3.5 3.264c.31.546.506 1.04.623 1.39.059.176.097.316.121.41l.025.103.005.022v.004l.228-.045-.228.044.228-.044-.228.044a.622.622 0 0 0 1.223-.231z" fill="#54596E"/><path d="M16.802 23.945a1.245 1.245 0 1 1-2.489 0 1.245 1.245 0 0 1 2.49 0zM25.515 23.945a1.245 1.245 0 1 1-2.49 0 1.245 1.245 0 0 1 2.49 0z" fill="#55A6FF"/><path d="M8.712 10.877l3.084-6.68C9.715 3.18 6.693 4.729 4.94 7.766c-1.805 3.125-1.578 6.633.505 7.836 2.084 1.203 5.236-.355 7.04-3.48a9.096 9.096 0 0 0 1.125-3.129l-4.898 1.884z" fill="#FF927D"/><path d="M8.713 10.877l.565.261 3.083-6.68a.623.623 0 0 0-.292-.82 3.775 3.775 0 0 0-1.668-.375c-1.105.002-2.235.425-3.272 1.15C6.09 5.14 5.139 6.176 4.4 7.454 3.534 8.96 3.101 10.551 3.1 12c0 .874.158 1.699.492 2.417.333.717.851 1.327 1.542 1.725.578.335 1.227.49 1.883.49 1.107-.002 2.238-.427 3.277-1.153 1.038-.729 1.99-1.766 2.73-3.045a9.715 9.715 0 0 0 1.201-3.344.623.623 0 0 0-.838-.677l-4.898 1.884.224.581.565.261-.565-.261.223.58 4.898-1.883-.224-.58-.615-.096a8.474 8.474 0 0 1-1.05 2.912c-.651 1.13-1.49 2.036-2.366 2.649-.876.615-1.783.93-2.562.928a2.488 2.488 0 0 1-1.26-.323c-.449-.26-.793-.653-1.037-1.174-.243-.52-.376-1.168-.376-1.89-.001-1.199.367-2.596 1.135-3.923.651-1.13 1.489-2.033 2.363-2.645.875-.613 1.781-.926 2.559-.924.408 0 .781.082 1.122.248l.273-.56-.566-.26-1.874 4.061-1.209 2.62a.622.622 0 0 0 .789.841l-.223-.581z" fill="#54596E"/><path d="M5.316 15.554c-.02.02-.276.258-.543.645-.261.387-.558.927-.564 1.603-.002.353.095.74.32 1.087.341.526.924.944 1.784 1.265.864.321 2.026.555 3.616.678a.622.622 0 0 0 .096-1.24c-2.018-.154-3.23-.508-3.864-.873-.32-.182-.49-.357-.584-.503a.737.737 0 0 1-.124-.414c-.006-.268.153-.623.345-.898a3.28 3.28 0 0 1 .263-.33l.083-.089.02-.02.003-.003-.149-.157.148.159.001-.002-.149-.157.148.159a.623.623 0 0 0-.85-.91z" fill="#54596E"/><path d="M31.023 10.877l-3.083-6.68c2.08-1.017 5.103.532 6.855 3.569 1.805 3.125 1.578 6.633-.505 7.836-2.084 1.203-5.235-.355-7.04-3.48a9.102 9.102 0 0 1-1.125-3.129l4.898 1.884z" fill="#FF927D"/><path d="M31.023 10.877l.565-.26-3.084-6.681-.565.261.274.559a2.53 2.53 0 0 1 1.12-.248c.78-.002 1.686.311 2.56.925.874.611 1.712 1.515 2.363 2.644.767 1.327 1.136 2.724 1.135 3.922 0 .723-.134 1.371-.376 1.891-.245.521-.588.913-1.037 1.174a2.49 2.49 0 0 1-1.26.323c-.779.001-1.687-.313-2.563-.928-.875-.613-1.714-1.519-2.366-2.648a8.485 8.485 0 0 1-1.05-2.913l-.614.095-.224.581 4.898 1.884a.62.62 0 0 0 .789-.841l-.566.26.224-.58-4.898-1.884a.622.622 0 0 0-.838.676c.17 1.1.567 2.245 1.201 3.344.74 1.28 1.691 2.317 2.73 3.046 1.04.726 2.17 1.15 3.277 1.152.656.001 1.305-.155 1.883-.49.691-.397 1.21-1.008 1.542-1.725.334-.717.492-1.542.493-2.416-.002-1.449-.434-3.04-1.302-4.545-.739-1.279-1.69-2.315-2.727-3.042-1.038-.725-2.167-1.147-3.273-1.15-.577 0-1.146.12-1.668.375a.623.623 0 0 0-.292.82 19780.829 19780.829 0 0 1 3.083 6.68l.566-.26.223-.582-.223.581z" fill="#54596E"/><path d="M34.192 16.464l.147-.158-.148.156v.002l.148-.158-.148.156c.005.005.204.198.386.469.185.27.332.612.327.871a.738.738 0 0 1-.123.415c-.137.216-.465.508-1.171.771-.703.263-1.764.487-3.278.603a.623.623 0 0 0 .096 1.241c2.12-.166 3.48-.52 4.385-1.032.451-.256.79-.561 1.015-.91.225-.348.323-.735.32-1.088-.005-.675-.302-1.216-.564-1.603-.267-.387-.522-.625-.543-.645a.623.623 0 0 0-.85.91zM12.922 29.9a8.863 8.863 0 0 0 7.182 3.66 8.862 8.862 0 0 0 7.157-3.626.622.622 0 0 0-1.003-.736 7.617 7.617 0 0 1-6.154 3.118 7.618 7.618 0 0 1-6.175-3.148.623.623 0 0 0-1.007.732z" fill="#54596E"/></g><defs><clipPath id="clip0"><path fill="#fff" d="M0 0h40v40H0z"/></clipPath></defs></svg>