<svg width="331" height="102" fill="none" xmlns="http://www.w3.org/2000/svg"><path d="M100.225 17.965c-3.329-2.612-7.221-4.2-11.626-4.61-4.046-.41-8.297.154-12.599 1.69l-13.828 4.968c-3.995 1.434-6.043 5.839-4.61 9.833l2.817 7.785-9.73-6.811a7.692 7.692 0 0 0-8.4-.256l-7.426 4.507a7.67 7.67 0 0 0-3.636 7.58l1.997 15.313h-.358l-2.254-5.839c-1.383-3.585-5.173-5.582-8.912-4.763-2.458.564-4.967 1.588-7.374 3.022a35.073 35.073 0 0 0-6.249 4.712c-2.92 2.765-5.07 5.736-6.402 8.758C.15 67.285-.31 70.665.201 73.943c.564 3.38 2.049 6.35 4.405 8.86 3.021 3.227 6.197 4.405 8.604 4.815l2.305 6.555c1.075 3.124 4.046 5.122 7.221 5.122.359 0 .768-.052 1.127-.103 2.714-.41 5.48-1.383 8.502-3.021a35.913 35.913 0 0 0 7.58-5.532c2.663-2.51 4.66-5.224 5.992-7.99.41-.153.768-.358 1.126-.563l7.683-4.66c2.663-1.64 4.097-4.712 3.585-7.785l-.205-1.332 2.407-1.485 1.076.82c2.51 1.894 5.89 2.048 8.604.41l6.453-3.893c.41-.051.82-.205 1.178-.307l13.88-5.02c4.301-1.536 7.938-3.84 10.755-6.76 3.072-3.124 5.07-6.863 5.941-11.011.87-4.098.512-8.4-1.025-12.702-1.383-4.302-3.841-7.836-7.17-10.396zm230.572 57.412c-.563-2.458-1.588-4.917-3.073-7.375a33.021 33.021 0 0 0-4.763-6.248c-2.817-2.92-5.736-5.02-8.809-6.3-3.431-1.434-6.812-1.895-10.089-1.331-.461.05-.871.153-1.281.256-.307-3.278-1.383-6.402-3.175-9.424-2.1-3.483-5.122-6.555-8.963-9.014l-12.343-8.04c-1.69-1.127-3.79-1.486-5.787-1.076l-1.076.307c-.102-.307-.205-.563-.307-.87-.819-1.844-2.356-3.33-4.251-4.047l-8.041-3.124a7.622 7.622 0 0 0-7.784 1.332l-.513-1.588c-.717-2.15-2.355-3.892-4.507-4.763l-6.811-2.612c-3.944-1.536-8.4.41-9.936 4.353l-2.766 7.12-2.407-10.807c-.666-2.97-2.97-5.275-5.992-5.89l-8.502-1.741a7.674 7.674 0 0 0-7.784 3.073l-12.753 17.976c-.307-.05-.564-.102-.871-.102l-7.17-.358.871-16.492A7.716 7.716 0 0 0 174.641.5l-8.809-.46a7.73 7.73 0 0 0-5.531 1.945l-.41.41c-1.997-.87-4.251-1.536-6.607-1.946-2.561-.41-5.224-.564-7.836-.359-4.046.256-7.58 1.178-10.499 2.664a20.465 20.465 0 0 0-3.892 2.56 6.19 6.19 0 0 0-1.229-1.075c-1.639-1.178-3.739-1.69-5.737-1.332l-8.706 1.434c-4.2.666-7.017 4.66-6.351 8.81l5.07 30.78c.308 1.997 1.434 3.79 3.125 5.019 1.331.922 2.868 1.434 4.507 1.434.409 0 .819-.051 1.229-.102l8.706-1.434a7.806 7.806 0 0 0 4.098-2.05c.717.206 1.485.36 2.253.513 2.254.41 4.558.666 6.914.666.82 0 1.639-.051 2.458-.103 3.995-.256 7.529-1.178 10.5-2.714.307-.154.614-.359.922-.512a7.845 7.845 0 0 0 4.609 1.844l23.661 1.28h.41c.359 0 .717-.051 1.076-.102l7.119 1.536a7.698 7.698 0 0 0 7.938-3.278l.768-1.127 2.766.564.256 1.331c.563 3.073 2.971 5.48 6.043 6.146l8.041 1.64c.256.153.564.255.82.409l8.041 3.124a7.622 7.622 0 0 0 7.784-1.332l.512 1.588c.717 2.151 2.356 3.892 4.507 4.763l6.812 2.56c.615.257 1.229.36 1.844.462.307.307.717.614 1.075.87l12.343 8.041c3.841 2.51 7.836 3.995 11.882 4.558.717.103 1.434.154 2.203.154.512 2.202 1.434 4.405 2.765 6.812 1.485 2.714 3.38 5.224 5.583 7.528 2.765 2.92 5.736 5.02 8.809 6.3 2.509 1.024 4.968 1.588 7.375 1.588.922 0 1.792-.052 2.663-.205 3.38-.564 6.351-2.049 8.809-4.456 3.688-3.534 4.712-7.272 4.865-9.833 0-.256.052-.564.052-.82l5.838-2.253c3.585-1.434 5.583-5.275 4.712-8.963z" fill="#243555"/><path d="M28.78 89.41c-2.152 1.178-4.149 1.895-5.942 2.151l-2.355-6.709c1.639-.307 3.329-.87 5.07-1.741 1.741-.871 3.226-1.895 4.507-3.124 2.458-2.305 3.124-4.098 1.946-5.327-.614-.666-1.434-.82-2.407-.46-.973.358-2.458 1.075-4.302 2.201-2.049 1.23-3.841 2.203-5.378 2.868a9.86 9.86 0 0 1-4.865.769c-1.69-.154-3.278-1.025-4.763-2.612-1.332-1.383-2.1-2.97-2.407-4.814-.308-1.844 0-3.79.87-5.84.871-2.048 2.407-4.148 4.61-6.196 1.485-1.434 3.124-2.612 4.865-3.688 1.742-1.024 3.483-1.741 5.224-2.15l2.51 6.606c-3.278.87-5.89 2.254-7.939 4.2-1.28 1.229-1.997 2.253-2.253 3.226-.205.922-.051 1.69.512 2.305.563.615 1.332.717 2.305.358.973-.358 2.407-1.075 4.2-2.202a41.028 41.028 0 0 1 5.428-2.868c1.537-.666 3.124-.922 4.866-.768 1.69.154 3.277.973 4.763 2.56A9.128 9.128 0 0 1 40.2 72.92c.307 1.792 0 3.79-.922 5.838-.871 2.1-2.407 4.149-4.559 6.197a26.138 26.138 0 0 1-5.94 4.456zM61.148 57.554L49.88 64.366l1.025 6.453-7.683 4.66-4.353-33.802 7.426-4.507L74.26 56.684l-7.836 4.763-5.275-3.893zm-5.583-4.2l-8.604-6.504 1.742 10.602 6.862-4.097zM64.784 27.234l13.88-5.019c3.226-1.178 6.3-1.587 9.218-1.28 2.92.307 5.48 1.332 7.631 3.022 2.151 1.69 3.79 4.046 4.866 7.016 1.075 2.97 1.332 5.788.768 8.502-.563 2.714-1.895 5.121-3.943 7.221-2.05 2.1-4.661 3.739-7.888 4.917l-13.879 5.02-10.653-29.399zm21.767 17.823c2.51-.922 4.25-2.355 5.275-4.302 1.024-1.997 1.076-4.2.154-6.76-.922-2.51-2.407-4.2-4.405-5.07-2.049-.871-4.302-.871-6.812.05l-5.224 1.896 5.839 16.081 5.173-1.895zM116.614 11.921l8.706-1.434 5.071 30.78-8.707 1.435-5.07-30.78zM139.456 39.782c-2.407-.46-4.404-1.178-5.941-2.1l2.458-6.709c1.434.82 3.125 1.486 5.02 1.895 1.895.461 3.687.615 5.48.461 3.38-.205 5.019-1.178 4.916-2.868-.051-.87-.563-1.536-1.587-1.895-.973-.358-2.561-.717-4.712-1.024-2.356-.359-4.353-.768-5.992-1.23-1.588-.46-3.022-1.33-4.251-2.509-1.229-1.178-1.895-2.868-2.049-5.07-.102-1.895.256-3.636 1.229-5.224.922-1.588 2.407-2.92 4.405-3.944 1.997-1.024 4.507-1.639 7.477-1.844a24.243 24.243 0 0 1 6.095.308c1.997.307 3.79.87 5.378 1.69l-2.305 6.71c-3.073-1.384-5.992-1.998-8.809-1.845-1.742.103-3.022.461-3.79 1.025-.768.563-1.127 1.28-1.076 2.1.052.819.564 1.433 1.537 1.792.973.358 2.509.666 4.66.973 2.408.359 4.405.768 5.993 1.23a9.782 9.782 0 0 1 4.25 2.509c1.23 1.178 1.895 2.868 2.049 5.019a9.117 9.117 0 0 1-1.229 5.173c-.922 1.587-2.407 2.868-4.405 3.943-1.997 1.025-4.507 1.64-7.477 1.844a26.996 26.996 0 0 1-7.324-.41zM165.422 7.721l8.809.461-1.28 24.174 14.852.768-.358 6.966-23.662-1.28 1.639-31.089zM213.77 38.81l-12.958-2.613-3.585 5.429-8.809-1.793 19.718-27.81 8.502 1.742 7.324 33.341-9.014-1.844-1.178-6.453zm-1.23-6.864l-1.946-10.601-5.941 8.962 7.887 1.64zM264.115 29.386l-11.37 29.039-6.761-2.663-6.811-20.486-6.044 15.467-8.041-3.073 11.319-29.04 6.76 2.664 6.812 20.486 6.044-15.467 8.092 3.073zM274.102 34.353l12.343 8.041c2.868 1.844 5.07 4.046 6.555 6.556 1.537 2.51 2.254 5.173 2.202 7.887-.051 2.766-.973 5.48-2.663 8.092-1.741 2.663-3.841 4.558-6.35 5.736-2.51 1.178-5.224 1.588-8.144 1.178-2.919-.358-5.787-1.485-8.655-3.329l-12.292-8.04 17.004-26.12zm-1.127 28.067c2.253 1.434 4.456 1.997 6.658 1.587 2.202-.41 3.995-1.69 5.48-3.943 1.434-2.254 1.946-4.456 1.383-6.607-.512-2.151-1.895-3.944-4.149-5.429l-4.66-3.022-9.321 14.34 4.609 3.074zM288.8 82.752c-1.178-2.151-1.946-4.097-2.202-5.89l6.709-2.407c.308 1.639.871 3.329 1.742 5.07.87 1.742 1.895 3.227 3.175 4.507 2.356 2.459 4.148 3.073 5.326 1.895.666-.614.769-1.434.41-2.407-.358-.973-1.127-2.407-2.253-4.302-1.281-2.049-2.254-3.841-2.92-5.378-.665-1.536-.921-3.175-.819-4.865.154-1.69.973-3.278 2.561-4.814 1.383-1.332 2.97-2.151 4.814-2.459 1.844-.307 3.79-.05 5.839.82 2.048.87 4.148 2.407 6.248 4.558 1.434 1.485 2.663 3.073 3.687 4.865 1.025 1.742 1.793 3.483 2.203 5.173l-6.607 2.561c-.922-3.278-2.305-5.89-4.251-7.887-1.229-1.28-2.305-1.998-3.227-2.203-.921-.204-1.69-.05-2.304.513-.615.563-.717 1.331-.359 2.304.359.973 1.127 2.356 2.254 4.2 1.28 2.049 2.253 3.841 2.919 5.378.666 1.536.922 3.124.819 4.814-.102 1.69-.973 3.278-2.509 4.814-1.332 1.28-2.919 2.1-4.763 2.407-1.793.308-3.79 0-5.839-.87-2.1-.871-4.148-2.356-6.248-4.507-1.741-1.793-3.227-3.74-4.405-5.89z" fill="#fff"/></svg>