<svg width="1016" height="1000" viewBox="0 0 1016 1000" fill="none" xmlns="http://www.w3.org/2000/svg">
<mask id="mask0" mask-type="alpha" maskUnits="userSpaceOnUse" x="0" y="0" width="1016" height="1000">
<rect width="1015.23" height="1000" rx="200" fill="url(#paint0_radial)"/>
</mask>
<g mask="url(#mask0)">
<rect y="-15.2285" width="1015.23" height="1015.23" rx="200" fill="url(#paint1_radial)"/>
<path d="M150.776 4.87571L6.14714 162.652C2.19334 166.966 0 172.604 0 178.456C0 199.785 26.214 209.981 40.6266 194.259L150.776 74.0958C160.684 63.2866 177.725 63.2867 187.634 74.0958L319.981 218.474C329.889 229.284 346.93 229.284 356.838 218.474L489.185 74.0958C499.094 63.2866 516.135 63.2867 526.043 74.0958L658.39 218.474C668.299 229.284 685.339 229.284 695.248 218.474L827.595 74.0958C837.503 63.2866 854.544 63.2867 864.453 74.0958L974.602 194.259C989.014 209.981 1015.23 199.785 1015.23 178.456C1015.23 172.604 1013.04 166.966 1009.08 162.652L864.453 4.87569C854.544 -5.93349 837.503 -5.93347 827.595 4.87571L695.248 149.254C685.339 160.063 668.299 160.063 658.39 149.254L526.043 4.87569C516.135 -5.93349 499.094 -5.93347 489.185 4.87571L356.838 149.254C346.93 160.063 329.889 160.063 319.981 149.254L187.634 4.87569C177.725 -5.93349 160.684 -5.93347 150.776 4.87571Z" fill="#EFA00B" fill-opacity="0.1"/>
<path d="M150.776 258.683L6.14714 416.46C2.19334 420.773 0 426.412 0 432.263C0 453.592 26.214 463.789 40.6266 448.066L150.776 327.903C160.684 317.094 177.725 317.094 187.634 327.903L319.981 472.282C329.889 483.091 346.93 483.091 356.838 472.282L489.185 327.903C499.094 317.094 516.135 317.094 526.043 327.903L658.39 472.282C668.299 483.091 685.339 483.091 695.248 472.282L827.595 327.903C837.503 317.094 854.544 317.094 864.453 327.903L974.602 448.066C989.014 463.789 1015.23 453.592 1015.23 432.263C1015.23 426.412 1013.04 420.773 1009.08 416.46L864.453 258.683C854.544 247.874 837.503 247.874 827.595 258.683L695.248 403.061C685.339 413.871 668.299 413.871 658.39 403.061L526.043 258.683C516.135 247.874 499.094 247.874 489.185 258.683L356.838 403.061C346.93 413.871 329.889 413.871 319.981 403.061L187.634 258.683C177.725 247.874 160.684 247.874 150.776 258.683Z" fill="#EFA00B" fill-opacity="0.1"/>
<path d="M150.776 512.49L6.14714 670.267C2.19334 674.58 0 680.219 0 686.07C0 707.399 26.2141 717.596 40.6266 701.873L150.776 581.71C160.684 570.901 177.725 570.901 187.634 581.71L319.981 726.089C329.889 736.898 346.93 736.898 356.838 726.089L489.185 581.71C499.094 570.901 516.135 570.901 526.043 581.71L658.39 726.089C668.299 736.898 685.339 736.898 695.248 726.089L827.595 581.71C837.503 570.901 854.544 570.901 864.453 581.71L974.602 701.873C989.014 717.596 1015.23 707.399 1015.23 686.07C1015.23 680.219 1013.04 674.58 1009.08 670.267L864.453 512.49C854.544 501.681 837.503 501.681 827.595 512.49L695.248 656.869C685.339 667.678 668.299 667.678 658.39 656.869L526.043 512.49C516.135 501.681 499.094 501.681 489.185 512.49L356.838 656.869C346.93 667.678 329.889 667.678 319.981 656.869L187.634 512.49C177.725 501.681 160.684 501.681 150.776 512.49Z" fill="#EFA00B" fill-opacity="0.1"/>
<path d="M150.776 766.297L6.14714 924.074C2.19334 928.387 0 934.026 0 939.877C0 961.206 26.2141 971.403 40.6266 955.68L150.776 835.517C160.684 824.708 177.725 824.708 187.634 835.517L319.981 979.896C329.889 990.705 346.93 990.705 356.838 979.896L489.185 835.517C499.094 824.708 516.135 824.708 526.043 835.517L658.39 979.896C668.299 990.705 685.339 990.705 695.248 979.896L827.595 835.517C837.503 824.708 854.544 824.708 864.453 835.517L974.602 955.68C989.014 971.403 1015.23 961.206 1015.23 939.877C1015.23 934.026 1013.04 928.387 1009.08 924.074L864.453 766.297C854.544 755.488 837.503 755.488 827.595 766.297L695.248 910.676C685.339 921.485 668.299 921.485 658.39 910.676L526.043 766.297C516.135 755.488 499.094 755.488 489.185 766.297L356.838 910.676C346.93 921.485 329.889 921.485 319.981 910.676L187.634 766.297C177.725 755.488 160.684 755.488 150.776 766.297Z" fill="#EFA00B" fill-opacity="0.1"/>
</g>
<g clip-path="url(#clip0)">
<path d="M720.758 605.634C720.758 489.911 626.95 396.103 511.227 396.103C395.511 396.103 301.702 489.911 301.702 605.634C301.702 721.357 395.511 745.323 511.227 745.323C626.95 745.323 720.758 721.357 720.758 605.634V605.634Z" fill="#0097A7"/>
<path d="M720.759 605.633H731.344C731.332 484.061 632.8 385.523 511.228 385.517C389.662 385.523 291.125 484.061 291.119 605.633C291.107 635.964 297.301 661.142 308.988 681.536C317.726 696.82 329.503 709.281 343.43 719.139C364.351 733.945 389.947 743.021 418.389 748.52C446.848 754 478.269 755.901 511.228 755.901C569.807 755.828 623.602 750.076 664.415 728.186C684.773 717.226 701.818 701.942 713.475 681.536C725.161 661.142 731.35 635.964 731.344 605.633H710.175C710.163 633.16 704.634 654.372 695.109 671.018C687.946 683.516 678.487 693.574 666.795 701.87C649.283 714.295 626.581 722.627 600.065 727.732C573.567 732.848 543.364 734.744 511.228 734.738C454.085 734.81 403.111 728.58 368.093 709.554C350.539 700.053 336.903 687.658 327.347 671.018C317.829 654.366 312.294 633.154 312.282 605.627C312.288 550.657 334.535 500.986 370.552 464.951C406.587 428.934 456.258 406.687 511.228 406.681C566.198 406.687 615.87 428.934 651.905 464.951C687.928 500.986 710.169 550.657 710.175 605.627H720.759V605.633Z" fill="#54596E"/>
<path d="M500.64 544.251C500.64 579.323 472.216 607.746 437.15 607.746C402.084 607.746 373.654 579.323 373.654 544.251C373.654 509.185 402.084 480.761 437.15 480.761C472.216 480.761 500.64 509.185 500.64 544.251Z" fill="white"/>
<path d="M500.64 544.25H511.224C511.218 503.34 478.059 470.181 437.15 470.175C396.234 470.181 363.082 503.34 363.07 544.25C363.082 585.165 396.234 618.324 437.15 618.33C478.059 618.324 511.218 585.165 511.224 544.25H490.061C490.055 558.897 484.157 572.055 474.559 581.665C464.956 591.257 451.792 597.161 437.15 597.167C422.502 597.161 409.344 591.257 399.734 581.665C390.143 572.055 384.239 558.897 384.239 544.25C384.239 529.608 390.143 516.45 399.734 506.84C409.344 497.248 422.502 491.345 437.15 491.339C451.792 491.345 464.956 497.248 474.559 506.84C484.157 516.45 490.055 529.608 490.061 544.25H500.64Z" fill="#54596E"/>
<path d="M648.798 544.251C648.798 579.323 620.374 607.746 585.302 607.746C550.236 607.746 521.812 579.323 521.812 544.251C521.812 509.185 550.236 480.761 585.302 480.761C620.374 480.761 648.798 509.185 648.798 544.251Z" fill="white"/>
<path d="M648.79 544.25H659.375C659.363 503.34 626.21 470.181 585.295 470.175C544.385 470.181 511.226 503.34 511.22 544.25C511.226 585.165 544.385 618.324 585.295 618.33C626.21 618.324 659.363 585.165 659.375 544.25H638.212C638.206 558.897 632.302 572.055 622.71 581.665C613.101 591.257 599.942 597.161 585.295 597.167C570.653 597.161 557.495 591.257 547.885 581.665C538.288 572.055 532.39 558.897 532.384 544.25C532.39 529.608 538.288 516.45 547.885 506.84C557.495 497.248 570.653 491.345 585.295 491.339C599.942 491.345 613.101 497.248 622.71 506.84C632.302 516.45 638.206 529.608 638.212 544.25H648.79Z" fill="#54596E"/>
<path d="M190.964 614.909L190.976 614.897C191.593 614.231 200.737 604.73 216.741 595.55C232.775 586.358 255.513 577.493 283.864 577.493C288.841 577.493 293.994 577.766 299.317 578.359C305.124 579.013 310.362 574.835 311.01 569.028C311.664 563.221 307.479 557.983 301.672 557.329C295.55 556.645 289.61 556.33 283.864 556.33C249.96 556.33 222.905 567.302 204.443 578.22C185.956 589.156 175.88 600.049 175.377 600.588C171.423 604.887 171.702 611.584 176.007 615.539C180.312 619.493 187.009 619.214 190.964 614.909V614.909Z" fill="#54596E"/>
<path d="M199.464 690.241L196.043 688.413L199.452 690.266L199.464 690.241L196.043 688.413L199.452 690.266C199.537 690.096 206.942 676.599 222.583 662.218C238.26 647.812 261.9 632.535 295.253 627.775C301.041 626.946 305.062 621.593 304.239 615.804C303.409 610.015 298.056 605.994 292.267 606.818C253.277 612.365 225.326 630.658 207.396 647.437C189.424 664.246 181.189 679.572 180.802 680.268C178.046 685.421 179.996 691.834 185.149 694.589C190.302 697.338 196.715 695.395 199.464 690.241Z" fill="#54596E"/>
<path d="M234.38 754.029L230.456 753.29L234.374 754.059L234.38 754.029L230.456 753.29L234.374 754.059C234.398 753.865 237.432 738.776 248.041 720.374C258.692 701.929 276.67 680.276 307.068 665.743C312.342 663.224 314.57 656.908 312.051 651.634C309.532 646.36 303.217 644.132 297.943 646.651C262.404 663.617 241.211 689.437 229.13 710.818C217.014 732.236 213.738 749.324 213.58 750.105C212.496 755.846 216.275 761.386 222.015 762.464C227.762 763.548 233.296 759.775 234.38 754.029V754.029Z" fill="#54596E"/>
<path d="M849.996 600.582C849.493 600.049 839.417 589.156 820.931 578.214C802.468 567.302 775.413 556.324 741.509 556.33C735.763 556.33 729.823 556.639 723.701 557.329C717.894 557.983 713.71 563.215 714.364 569.028C715.012 574.835 720.249 579.013 726.056 578.359C731.385 577.766 736.532 577.493 741.509 577.493C770.775 577.493 794.069 586.933 810.164 596.44C818.194 601.181 824.388 605.929 828.5 609.429C830.559 611.179 832.103 612.62 833.096 613.583L834.174 614.654L834.398 614.891L834.41 614.903C838.37 619.208 845.061 619.493 849.366 615.532C853.672 611.584 853.95 604.887 849.996 600.582V600.582Z" fill="#54596E"/>
<path d="M844.576 680.268C844.189 679.566 835.947 664.24 817.975 647.437C800.046 630.651 772.1 612.365 733.104 606.818C727.321 605.994 721.963 610.015 721.133 615.804C720.309 621.587 724.336 626.946 730.119 627.775C763.998 632.613 787.862 648.303 803.527 662.902C811.339 670.192 817.031 677.192 820.718 682.297C822.565 684.846 823.909 686.923 824.769 688.316L825.696 689.866L825.89 690.211L825.92 690.266L829.329 688.407L825.908 690.235L825.92 690.266L829.329 688.407L825.908 690.235C828.663 695.389 835.069 697.338 840.222 694.589C845.375 691.834 847.325 685.422 844.576 680.268V680.268Z" fill="#54596E"/>
<path d="M811.791 750.105C811.633 749.318 808.364 732.23 796.253 710.812C784.167 689.437 762.979 663.611 727.435 646.644C722.16 644.125 715.845 646.36 713.326 651.634C710.807 656.908 713.041 663.224 718.309 665.743C749.185 680.505 767.26 702.619 777.833 721.245C783.095 730.54 786.437 738.927 788.43 744.897C789.423 747.883 790.083 750.262 790.488 751.849L790.906 753.611L790.985 753.992L790.997 754.053L794.872 753.296L790.991 754.029L790.997 754.053L794.872 753.296L790.991 754.029C792.075 759.769 797.609 763.548 803.356 762.464C809.096 761.38 812.875 755.845 811.791 750.105V750.105Z" fill="#54596E"/>
<path d="M458.316 544.249C458.316 555.942 448.839 565.418 437.152 565.418C425.46 565.418 415.983 555.942 415.983 544.249C415.983 532.562 425.46 523.086 437.152 523.086C448.839 523.086 458.316 532.562 458.316 544.249Z" fill="#55A6FF"/>
<path d="M606.466 544.249C606.466 555.942 596.99 565.418 585.297 565.418C573.611 565.418 564.134 555.942 564.134 544.249C564.134 532.562 573.611 523.086 585.297 523.086C596.99 523.086 606.466 532.562 606.466 544.249Z" fill="#55A6FF"/>
<path d="M320.743 322.021C320.743 322.021 358.092 241.104 373.17 208.424C337.782 191.136 286.397 217.482 256.593 269.11C225.905 322.257 229.75 381.92 265.186 402.375C300.615 422.835 354.21 396.331 384.893 343.19C395.047 325.606 401.333 307.337 404.027 289.988L320.743 322.021Z" fill="#0097A7"/>
<path d="M320.747 322.021L330.357 326.459C330.357 326.459 367.7 245.536 382.784 212.856C385.194 207.636 382.989 201.436 377.824 198.911C368.947 194.569 359.265 192.541 349.461 192.547C330.66 192.577 311.452 199.771 293.813 212.099C276.162 224.458 259.988 242.079 247.43 263.817C232.679 289.401 225.316 316.474 225.298 341.101C225.298 355.967 227.992 369.991 233.672 382.198C239.334 394.387 248.144 404.766 259.892 411.536C269.725 417.228 280.752 419.88 291.912 419.862C310.738 419.832 329.963 412.614 347.633 400.261C365.296 387.872 381.494 370.227 394.059 348.476C404.849 329.784 411.583 310.31 414.489 291.611C415.07 287.875 413.617 284.121 410.68 281.747C407.737 279.373 403.759 278.75 400.235 280.106L316.944 312.145L320.747 322.021L330.357 326.459L320.747 322.021L324.544 331.897L407.834 299.864L404.032 289.988L393.574 288.359C391.091 304.357 385.242 321.427 375.729 337.892C364.642 357.105 350.382 372.504 335.486 382.931C320.59 393.388 305.155 398.735 291.912 398.705C284.01 398.687 276.889 396.9 270.476 393.213C262.853 388.786 257.009 382.119 252.855 373.255C248.726 364.414 246.455 353.399 246.455 341.101C246.437 320.731 252.704 296.97 265.759 274.402C276.834 255.201 291.076 239.832 305.942 229.435C320.814 219.008 336.231 213.68 349.455 213.71C356.395 213.716 362.747 215.109 368.529 217.93L373.174 208.424L363.564 203.991C356.019 220.328 342.916 248.734 331.695 273.046C320.469 297.358 311.131 317.588 311.131 317.588C309.327 321.5 310.072 326.114 313.021 329.257C315.97 332.406 320.517 333.447 324.544 331.903L320.747 322.021Z" fill="#54596E"/>
<path d="M262.989 401.552C262.631 401.897 258.296 405.942 253.754 412.518C249.304 419.1 244.254 428.292 244.151 439.785C244.12 445.786 245.773 452.356 249.613 458.272C255.401 467.216 265.314 474.325 279.937 479.78C294.634 485.236 314.398 489.215 341.435 491.31C347.26 491.758 352.353 487.398 352.801 481.573C353.249 475.748 348.889 470.661 343.064 470.213C308.742 467.609 288.118 461.59 277.346 455.378C271.926 452.283 269.008 449.304 267.415 446.828C265.841 444.327 265.35 442.232 265.32 439.785C265.217 435.232 267.912 429.182 271.188 424.52C272.792 422.195 274.439 420.227 275.644 418.895L277.061 417.393L277.4 417.054L277.461 416.999L274.924 414.335L277.437 417.023L277.461 416.999L274.924 414.335L277.437 417.023C281.706 413.033 281.93 406.336 277.945 402.067C273.955 397.792 267.258 397.568 262.989 401.552Z" fill="#54596E"/>
<path d="M700.13 322.021C700.13 322.021 662.787 241.104 647.703 208.424C683.096 191.136 734.481 217.482 764.279 269.11C794.974 322.257 791.122 381.92 755.687 402.375C720.257 422.835 666.662 396.331 635.98 343.19C625.831 325.606 619.54 307.337 616.845 289.988L700.13 322.021Z" fill="#0097A7"/>
<path d="M700.128 322.022L709.738 317.589C709.738 317.589 672.395 236.673 657.305 203.986L647.695 208.425L652.346 217.931C658.129 215.11 664.48 213.723 671.414 213.711C684.651 213.681 700.061 219.009 714.933 229.436C729.799 239.833 744.041 255.202 755.116 274.403C768.165 296.971 774.432 320.732 774.414 341.102C774.42 353.4 772.144 364.415 768.014 373.255C763.86 382.12 758.017 388.787 750.393 393.214H750.399C743.986 396.901 736.859 398.688 728.957 398.706C715.72 398.736 700.279 393.383 685.383 382.932C670.493 372.505 656.227 357.106 645.146 337.899C635.633 321.428 629.784 304.358 627.295 288.36L616.837 289.989L613.041 299.865L696.331 331.898C700.352 333.448 704.906 332.407 707.848 329.258C710.797 326.109 711.542 321.501 709.738 317.589L700.128 322.022L703.931 312.146L620.64 280.113C617.11 278.757 613.138 279.38 610.195 281.754C607.252 284.128 605.805 287.876 606.386 291.612C609.293 310.317 616.026 329.791 626.817 348.483C639.387 370.234 655.573 387.885 673.243 400.268C690.906 412.621 710.137 419.839 728.957 419.875C740.123 419.887 751.15 417.235 760.978 411.549H760.984C772.737 404.779 781.547 394.394 787.203 382.205C792.883 370.004 795.577 355.974 795.584 341.114C795.559 316.481 788.202 289.408 773.445 263.824C760.887 242.086 744.713 224.465 727.068 212.106C709.423 199.778 690.222 192.59 671.414 192.554C661.61 192.548 651.928 194.576 643.051 198.918C637.886 201.443 635.682 207.643 638.086 212.863C645.63 229.2 658.74 257.606 669.961 281.918C681.187 306.23 690.518 326.46 690.518 326.46L700.128 322.022L703.931 312.146L700.128 322.022Z" fill="#54596E"/>
<path d="M754.026 417.023L756.533 414.334L754.002 416.998L754.026 417.023L756.533 414.334L754.002 416.998C754.093 417.077 757.484 420.365 760.566 424.961C763.727 429.557 766.228 435.376 766.137 439.784C766.107 442.231 765.616 444.326 764.042 446.827C761.71 450.508 756.146 455.474 744.126 459.949C732.179 464.411 714.134 468.232 688.393 470.206C682.568 470.66 678.208 475.747 678.656 481.572C679.104 487.403 684.191 491.763 690.022 491.309C726.063 488.481 749.206 482.456 764.593 473.761C772.259 469.401 778.023 464.211 781.844 458.271C785.683 452.355 787.336 445.785 787.306 439.784C787.203 428.291 782.159 419.1 777.702 412.517C773.167 405.947 768.831 401.896 768.474 401.551C764.199 397.561 757.502 397.791 753.512 402.06C749.521 406.335 749.751 413.032 754.026 417.023V417.023Z" fill="#54596E"/>
<path d="M392.33 645.507C419.724 683.208 464.267 707.756 514.459 707.75C564.397 707.756 608.734 683.462 636.164 646.089C639.622 641.378 638.604 634.753 633.893 631.296C629.182 627.838 622.558 628.849 619.1 633.566C595.454 665.738 557.433 686.586 514.459 686.586C471.267 686.586 433.064 665.514 409.454 633.064C406.015 628.334 399.396 627.287 394.667 630.726C389.938 634.16 388.897 640.778 392.33 645.507V645.507Z" fill="#54596E"/>
</g>
<defs>
<radialGradient id="paint0_radial" cx="0" cy="0" r="1" gradientUnits="userSpaceOnUse" gradientTransform="translate(1527.92 -505) rotate(135.433) scale(2144.66 2144.41)">
<stop stop-color="#FED766"/>
<stop offset="1" stop-color="#FFFD98"/>
</radialGradient>
<radialGradient id="paint1_radial" cx="0" cy="0" r="1" gradientUnits="userSpaceOnUse" gradientTransform="translate(1527.92 -527.919) rotate(135) scale(2160.8)">
<stop stop-color="#FED766"/>
<stop offset="1" stop-color="#FFFD98"/>
</radialGradient>
<clipPath id="clip0">
<rect width="680.203" height="680.203" fill="white" transform="translate(172.589 137.056)"/>
</clipPath>
</defs>
</svg>
