<svg width="125" height="146" fill="none" xmlns="http://www.w3.org/2000/svg"><path d="M61.796 78.633H62.757c8.803-.15 15.923-3.245 21.18-9.163 11.566-13.038 9.644-35.39 9.433-37.522C92.62 15.935 85.05 8.275 78.8 4.7 74.144 2.026 68.706.584 62.638.464H62.127c-3.335 0-9.884.54-16.163 4.115-6.309 3.575-14 11.236-14.75 27.369-.21 2.133-2.133 24.484 9.433 37.522 5.227 5.918 12.347 9.013 21.15 9.163zM39.235 32.699c0-.09.03-.18.03-.24.991-21.54 16.283-23.854 22.832-23.854h.36c8.111.18 21.9 3.485 22.832 23.853 0 .09 0 .18.03.24.03.211 2.133 20.64-7.42 31.395-3.785 4.266-8.832 6.368-15.472 6.428h-.3c-6.61-.06-11.687-2.162-15.442-6.428-9.523-10.695-7.48-31.214-7.45-31.394z" fill="#1DA1AF" fill-opacity=".2"/><path d="M124.013 115.705v-.091c0-.24-.03-.48-.03-.751-.18-5.948-.57-19.857-13.609-24.304-.09-.03-.21-.06-.3-.09-13.549-3.454-24.815-11.265-24.935-11.355-1.832-1.292-4.356-.842-5.648.99-1.291 1.833-.84 4.357.992 5.649.51.36 12.467 8.682 27.428 12.527 7 2.494 7.781 9.974 7.991 16.824 0 .27 0 .51.03.751.03 2.704-.15 6.879-.631 9.283-4.867 2.764-23.943 12.317-52.964 12.317-28.9 0-48.097-9.583-52.994-12.347-.48-2.404-.69-6.58-.63-9.283 0-.241.03-.481.03-.751.21-6.85.99-14.33 7.99-16.824 14.962-3.845 26.918-12.197 27.429-12.527 1.833-1.292 2.283-3.816.991-5.648-1.291-1.833-3.815-2.283-5.648-.992-.12.09-11.325 7.901-24.934 11.356-.12.03-.21.06-.3.09C1.231 95.006.84 108.915.66 114.833c0 .271 0 .511-.03.751v.09c-.03 1.563-.06 9.584 1.532 13.609.3.782.842 1.443 1.563 1.893.9.601 22.5 14.36 58.641 14.36 36.14 0 57.741-13.789 58.642-14.36.691-.45 1.262-1.111 1.562-1.893 1.503-3.995 1.472-12.016 1.442-13.578z" fill="#1DA1AF" fill-opacity=".2"/></svg>