<svg width="378" height="143" viewBox="0 0 378 143" fill="none" xmlns="http://www.w3.org/2000/svg">
<rect x="16" y="31" width="48" height="48" rx="4" fill="white" stroke="#243555" stroke-width="2"/>
<path d="M34.3398 46.8672H39.4258C41.7852 46.8672 43.4883 47.2109 44.5352 47.8984C45.5898 48.5859 46.1172 49.6719 46.1172 51.1562C46.1172 52.1562 45.8594 52.9883 45.3438 53.6523C44.8281 54.3164 44.0859 54.7344 43.1172 54.9062V55.0234C44.3203 55.25 45.2031 55.6992 45.7656 56.3711C46.3359 57.0352 46.6211 57.9375 46.6211 59.0781C46.6211 60.6172 46.082 61.8242 45.0039 62.6992C43.9336 63.5664 42.4414 64 40.5273 64H34.3398V46.8672ZM37.1406 53.9453H39.8359C41.0078 53.9453 41.8633 53.7617 42.4023 53.3945C42.9414 53.0195 43.2109 52.3867 43.2109 51.4961C43.2109 50.6914 42.918 50.1094 42.332 49.75C41.7539 49.3906 40.832 49.2109 39.5664 49.2109H37.1406V53.9453ZM37.1406 56.2188V61.6445H40.1172C41.2891 61.6445 42.1719 61.4219 42.7656 60.9766C43.3672 60.5234 43.668 59.8125 43.668 58.8438C43.668 57.9531 43.3633 57.293 42.7539 56.8633C42.1445 56.4336 41.2188 56.2188 39.9766 56.2188H37.1406Z" fill="#243555"/>
<path d="M23.2344 104.562C23.2344 106.854 21.7656 108 18.8281 108H15.5078V96.5781H22.4766V98.1797H17.375V101.219H18.7344C21.7344 101.219 23.2344 102.333 23.2344 104.562ZM17.375 106.43H18.7188C19.6146 106.43 20.2708 106.284 20.6875 105.992C21.1042 105.695 21.3125 105.219 21.3125 104.562C21.3125 103.932 21.1016 103.479 20.6797 103.203C20.263 102.922 19.5339 102.781 18.4922 102.781H17.375V106.43ZM32.9766 103.664C32.9766 105.076 32.6146 106.177 31.8906 106.969C31.1667 107.76 30.1589 108.156 28.8672 108.156C28.0599 108.156 27.3464 107.974 26.7266 107.609C26.1068 107.245 25.6302 106.721 25.2969 106.039C24.9635 105.357 24.7969 104.565 24.7969 103.664C24.7969 102.263 25.1562 101.169 25.875 100.383C26.5938 99.5964 27.6068 99.2031 28.9141 99.2031C30.1641 99.2031 31.1536 99.6068 31.8828 100.414C32.612 101.216 32.9766 102.299 32.9766 103.664ZM26.6875 103.664C26.6875 105.659 27.4245 106.656 28.8984 106.656C30.3568 106.656 31.0859 105.659 31.0859 103.664C31.0859 101.69 30.3516 100.703 28.8828 100.703C28.112 100.703 27.5521 100.958 27.2031 101.469C26.8594 101.979 26.6875 102.711 26.6875 103.664ZM40.0547 106.242L40.1562 105.867C40.3698 105.091 40.5547 104.495 40.7109 104.078L42.6484 99.3594H45.0938V108H43.3984V101.023L43.2578 101.492C43.0234 102.331 42.8255 102.948 42.6641 103.344L40.7734 108H39.3828L37.4922 103.312C37.2318 102.635 36.9922 101.872 36.7734 101.023V108H35.0938V99.3594H37.5234L39.3984 103.938C39.5651 104.359 39.7839 105.128 40.0547 106.242ZM47.2188 102.812C47.2188 100.885 47.5443 99.4036 48.1953 98.3672C48.8516 97.3307 49.8932 96.6641 51.3203 96.3672C52.3984 96.1484 53.6406 95.9349 55.0469 95.7266L55.3047 97.3438C53.5964 97.6042 52.3464 97.8073 51.5547 97.9531C50.737 98.1042 50.1458 98.4401 49.7812 98.9609C49.4219 99.4818 49.2135 100.266 49.1562 101.312H49.2734C49.5703 100.88 49.9583 100.547 50.4375 100.312C50.9167 100.073 51.4297 99.9531 51.9766 99.9531C53.0391 99.9531 53.8672 100.289 54.4609 100.961C55.0547 101.633 55.3516 102.576 55.3516 103.789C55.3516 105.18 54.9896 106.255 54.2656 107.016C53.5469 107.776 52.5495 108.156 51.2734 108.156C50.0078 108.156 49.0156 107.688 48.2969 106.75C47.5781 105.812 47.2188 104.5 47.2188 102.812ZM51.3984 106.656C52.763 106.656 53.4453 105.76 53.4453 103.969C53.4453 102.24 52.8281 101.375 51.5938 101.375C51.2552 101.375 50.9271 101.448 50.6094 101.594C50.2917 101.74 49.9974 101.932 49.7266 102.172C49.4609 102.411 49.2552 102.659 49.1094 102.914C49.1094 104.143 49.3047 105.076 49.6953 105.711C50.0859 106.341 50.6536 106.656 51.3984 106.656ZM62.875 108L62.5078 106.797H62.4453C62.0286 107.323 61.6094 107.682 61.1875 107.875C60.7656 108.062 60.224 108.156 59.5625 108.156C58.7135 108.156 58.0495 107.927 57.5703 107.469C57.0964 107.01 56.8594 106.362 56.8594 105.523C56.8594 104.633 57.1901 103.961 57.8516 103.508C58.513 103.055 59.5208 102.807 60.875 102.766L62.3672 102.719V102.258C62.3672 101.706 62.237 101.294 61.9766 101.023C61.7214 100.747 61.3229 100.609 60.7812 100.609C60.3385 100.609 59.9141 100.674 59.5078 100.805C59.1016 100.935 58.7109 101.089 58.3359 101.266L57.7422 99.9531C58.2109 99.7083 58.724 99.5234 59.2812 99.3984C59.8385 99.2682 60.3646 99.2031 60.8594 99.2031C61.9583 99.2031 62.7865 99.4427 63.3438 99.9219C63.9062 100.401 64.1875 101.154 64.1875 102.18V108H62.875ZM60.1406 106.75C60.8073 106.75 61.3411 106.565 61.7422 106.195C62.1484 105.82 62.3516 105.297 62.3516 104.625V103.875L61.2422 103.922C60.3776 103.953 59.7474 104.099 59.3516 104.359C58.9609 104.615 58.7656 105.008 58.7656 105.539C58.7656 105.924 58.8802 106.224 59.1094 106.438C59.3385 106.646 59.6823 106.75 60.1406 106.75Z" fill="#243555"/>
<rect x="116" y="31" width="48" height="48" rx="4" fill="white" stroke="#243555" stroke-width="2"/>
<path d="M145.543 59.3477C145.543 60.8711 144.992 62.0664 143.891 62.9336C142.789 63.8008 141.27 64.2344 139.332 64.2344C137.395 64.2344 135.809 63.9336 134.574 63.332V60.6836C135.355 61.0508 136.184 61.3398 137.059 61.5508C137.941 61.7617 138.762 61.8672 139.52 61.8672C140.629 61.8672 141.445 61.6562 141.969 61.2344C142.5 60.8125 142.766 60.2461 142.766 59.5352C142.766 58.8945 142.523 58.3516 142.039 57.9062C141.555 57.4609 140.555 56.9336 139.039 56.3242C137.477 55.6914 136.375 54.9688 135.734 54.1562C135.094 53.3438 134.773 52.3672 134.773 51.2266C134.773 49.7969 135.281 48.6719 136.297 47.8516C137.312 47.0312 138.676 46.6211 140.387 46.6211C142.027 46.6211 143.66 46.9805 145.285 47.6992L144.395 49.9844C142.871 49.3438 141.512 49.0234 140.316 49.0234C139.41 49.0234 138.723 49.2227 138.254 49.6211C137.785 50.0117 137.551 50.5312 137.551 51.1797C137.551 51.625 137.645 52.0078 137.832 52.3281C138.02 52.6406 138.328 52.9375 138.758 53.2188C139.188 53.5 139.961 53.8711 141.078 54.332C142.336 54.8555 143.258 55.3438 143.844 55.7969C144.43 56.25 144.859 56.7617 145.133 57.332C145.406 57.9023 145.543 58.5742 145.543 59.3477Z" fill="#243555"/>
<path d="M126.289 108H124.414V98.1797H119.375V108H117.508V96.5781H126.289V108ZM132.883 108.156C131.539 108.156 130.487 107.766 129.727 106.984C128.971 106.198 128.594 105.117 128.594 103.742C128.594 102.331 128.945 101.221 129.648 100.414C130.352 99.6068 131.318 99.2031 132.547 99.2031C133.688 99.2031 134.589 99.5495 135.25 100.242C135.911 100.935 136.242 101.888 136.242 103.102V104.094H130.484C130.51 104.932 130.737 105.578 131.164 106.031C131.591 106.479 132.193 106.703 132.969 106.703C133.479 106.703 133.953 106.656 134.391 106.562C134.833 106.464 135.307 106.302 135.812 106.078V107.57C135.365 107.784 134.911 107.935 134.453 108.023C133.995 108.112 133.471 108.156 132.883 108.156ZM132.547 100.594C131.964 100.594 131.495 100.779 131.141 101.148C130.792 101.518 130.583 102.057 130.516 102.766H134.438C134.427 102.052 134.255 101.513 133.922 101.148C133.589 100.779 133.13 100.594 132.547 100.594ZM141.812 108.156C140.505 108.156 139.51 107.776 138.828 107.016C138.151 106.25 137.812 105.154 137.812 103.727C137.812 102.273 138.167 101.156 138.875 100.375C139.589 99.5938 140.617 99.2031 141.961 99.2031C142.872 99.2031 143.693 99.3724 144.422 99.7109L143.867 101.188C143.091 100.885 142.451 100.734 141.945 100.734C140.451 100.734 139.703 101.727 139.703 103.711C139.703 104.68 139.888 105.409 140.258 105.898C140.633 106.383 141.18 106.625 141.898 106.625C142.716 106.625 143.49 106.422 144.219 106.016V107.617C143.891 107.81 143.539 107.948 143.164 108.031C142.794 108.115 142.344 108.156 141.812 108.156ZM153.914 103.664C153.914 105.076 153.552 106.177 152.828 106.969C152.104 107.76 151.096 108.156 149.805 108.156C148.997 108.156 148.284 107.974 147.664 107.609C147.044 107.245 146.568 106.721 146.234 106.039C145.901 105.357 145.734 104.565 145.734 103.664C145.734 102.263 146.094 101.169 146.812 100.383C147.531 99.5964 148.544 99.2031 149.852 99.2031C151.102 99.2031 152.091 99.6068 152.82 100.414C153.549 101.216 153.914 102.299 153.914 103.664ZM147.625 103.664C147.625 105.659 148.362 106.656 149.836 106.656C151.294 106.656 152.023 105.659 152.023 103.664C152.023 101.69 151.289 100.703 149.82 100.703C149.049 100.703 148.49 100.958 148.141 101.469C147.797 101.979 147.625 102.711 147.625 103.664ZM161.391 99.3594H163.406L159.836 103.523L163.711 108H161.602L157.867 103.617V108H156.031V99.3594H157.867V103.555L161.391 99.3594Z" fill="#243555"/>
<rect x="215" y="31" width="148" height="48" rx="4" fill="white" stroke="#243555" stroke-width="2"/>
<path d="M267.25 59.3477C267.25 60.8711 266.699 62.0664 265.598 62.9336C264.496 63.8008 262.977 64.2344 261.039 64.2344C259.102 64.2344 257.516 63.9336 256.281 63.332V60.6836C257.062 61.0508 257.891 61.3398 258.766 61.5508C259.648 61.7617 260.469 61.8672 261.227 61.8672C262.336 61.8672 263.152 61.6562 263.676 61.2344C264.207 60.8125 264.473 60.2461 264.473 59.5352C264.473 58.8945 264.23 58.3516 263.746 57.9062C263.262 57.4609 262.262 56.9336 260.746 56.3242C259.184 55.6914 258.082 54.9688 257.441 54.1562C256.801 53.3438 256.48 52.3672 256.48 51.2266C256.48 49.7969 256.988 48.6719 258.004 47.8516C259.02 47.0312 260.383 46.6211 262.094 46.6211C263.734 46.6211 265.367 46.9805 266.992 47.6992L266.102 49.9844C264.578 49.3438 263.219 49.0234 262.023 49.0234C261.117 49.0234 260.43 49.2227 259.961 49.6211C259.492 50.0117 259.258 50.5312 259.258 51.1797C259.258 51.625 259.352 52.0078 259.539 52.3281C259.727 52.6406 260.035 52.9375 260.465 53.2188C260.895 53.5 261.668 53.8711 262.785 54.332C264.043 54.8555 264.965 55.3438 265.551 55.7969C266.137 56.25 266.566 56.7617 266.84 57.332C267.113 57.9023 267.25 58.5742 267.25 59.3477ZM276.848 64.2344C275.207 64.2344 273.934 63.6445 273.027 62.4648H272.863C272.973 63.5586 273.027 64.2227 273.027 64.457V69.7656H270.273V51.0391H272.5C272.562 51.2812 272.691 51.8594 272.887 52.7734H273.027C273.887 51.4609 275.176 50.8047 276.895 50.8047C278.512 50.8047 279.77 51.3906 280.668 52.5625C281.574 53.7344 282.027 55.3789 282.027 57.4961C282.027 59.6133 281.566 61.2656 280.645 62.4531C279.73 63.6406 278.465 64.2344 276.848 64.2344ZM276.18 53.0547C275.086 53.0547 274.285 53.375 273.777 54.0156C273.277 54.6562 273.027 55.6797 273.027 57.0859V57.4961C273.027 59.0742 273.277 60.2188 273.777 60.9297C274.277 61.6328 275.094 61.9844 276.227 61.9844C277.18 61.9844 277.914 61.5938 278.43 60.8125C278.945 60.0312 279.203 58.918 279.203 57.4727C279.203 56.0195 278.945 54.9219 278.43 54.1797C277.922 53.4297 277.172 53.0547 276.18 53.0547ZM293.336 64L292.785 62.1953H292.691C292.066 62.9844 291.438 63.5234 290.805 63.8125C290.172 64.0938 289.359 64.2344 288.367 64.2344C287.094 64.2344 286.098 63.8906 285.379 63.2031C284.668 62.5156 284.312 61.543 284.312 60.2852C284.312 58.9492 284.809 57.9414 285.801 57.2617C286.793 56.582 288.305 56.2109 290.336 56.1484L292.574 56.0781V55.3867C292.574 54.5586 292.379 53.9414 291.988 53.5352C291.605 53.1211 291.008 52.9141 290.195 52.9141C289.531 52.9141 288.895 53.0117 288.285 53.207C287.676 53.4023 287.09 53.6328 286.527 53.8984L285.637 51.9297C286.34 51.5625 287.109 51.2852 287.945 51.0977C288.781 50.9023 289.57 50.8047 290.312 50.8047C291.961 50.8047 293.203 51.1641 294.039 51.8828C294.883 52.6016 295.305 53.7305 295.305 55.2695V64H293.336ZM289.234 62.125C290.234 62.125 291.035 61.8477 291.637 61.293C292.246 60.7305 292.551 59.9453 292.551 58.9375V57.8125L290.887 57.8828C289.59 57.9297 288.645 58.1484 288.051 58.5391C287.465 58.9219 287.172 59.5117 287.172 60.3086C287.172 60.8867 287.344 61.3359 287.688 61.6562C288.031 61.9688 288.547 62.125 289.234 62.125ZM304.375 64.2344C302.414 64.2344 300.922 63.6641 299.898 62.5234C298.883 61.375 298.375 59.7305 298.375 57.5898C298.375 55.4102 298.906 53.7344 299.969 52.5625C301.039 51.3906 302.582 50.8047 304.598 50.8047C305.965 50.8047 307.195 51.0586 308.289 51.5664L307.457 53.7812C306.293 53.3281 305.332 53.1016 304.574 53.1016C302.332 53.1016 301.211 54.5898 301.211 57.5664C301.211 59.0195 301.488 60.1133 302.043 60.8477C302.605 61.5742 303.426 61.9375 304.504 61.9375C305.73 61.9375 306.891 61.6328 307.984 61.0234V63.4258C307.492 63.7148 306.965 63.9219 306.402 64.0469C305.848 64.1719 305.172 64.2344 304.375 64.2344ZM316.691 64.2344C314.676 64.2344 313.098 63.6484 311.957 62.4766C310.824 61.2969 310.258 59.6758 310.258 57.6133C310.258 55.4961 310.785 53.832 311.84 52.6211C312.895 51.4102 314.344 50.8047 316.188 50.8047C317.898 50.8047 319.25 51.3242 320.242 52.3633C321.234 53.4023 321.73 54.832 321.73 56.6523V58.1406H313.094C313.133 59.3984 313.473 60.3672 314.113 61.0469C314.754 61.7188 315.656 62.0547 316.82 62.0547C317.586 62.0547 318.297 61.9844 318.953 61.8438C319.617 61.6953 320.328 61.4531 321.086 61.1172V63.3555C320.414 63.6758 319.734 63.9023 319.047 64.0352C318.359 64.168 317.574 64.2344 316.691 64.2344ZM316.188 52.8906C315.312 52.8906 314.609 53.168 314.078 53.7227C313.555 54.2773 313.242 55.0859 313.141 56.1484H319.023C319.008 55.0781 318.75 54.2695 318.25 53.7227C317.75 53.168 317.062 52.8906 316.188 52.8906Z" fill="#243555"/>
<path d="M281.273 108H279.078L274.375 102.211V108H272.508V96.5781H274.375V102.109L279 96.5781H281.047L276.438 102.094L281.273 108ZM286.977 108.156C285.883 108.156 285.034 107.763 284.43 106.977H284.32C284.393 107.706 284.43 108.148 284.43 108.305V111.844H282.594V99.3594H284.078C284.12 99.5208 284.206 99.9062 284.336 100.516H284.43C285.003 99.6406 285.862 99.2031 287.008 99.2031C288.086 99.2031 288.924 99.5938 289.523 100.375C290.128 101.156 290.43 102.253 290.43 103.664C290.43 105.076 290.122 106.177 289.508 106.969C288.898 107.76 288.055 108.156 286.977 108.156ZM286.531 100.703C285.802 100.703 285.268 100.917 284.93 101.344C284.596 101.771 284.43 102.453 284.43 103.391V103.664C284.43 104.716 284.596 105.479 284.93 105.953C285.263 106.422 285.807 106.656 286.562 106.656C287.198 106.656 287.688 106.396 288.031 105.875C288.375 105.354 288.547 104.612 288.547 103.648C288.547 102.68 288.375 101.948 288.031 101.453C287.693 100.953 287.193 100.703 286.531 100.703ZM291.25 99.3594H293.25L295.008 104.258C295.273 104.956 295.451 105.612 295.539 106.227H295.602C295.648 105.94 295.734 105.594 295.859 105.188C295.984 104.776 296.646 102.833 297.844 99.3594H299.828L296.133 109.148C295.461 110.945 294.341 111.844 292.773 111.844C292.367 111.844 291.971 111.799 291.586 111.711V110.258C291.862 110.32 292.177 110.352 292.531 110.352C293.417 110.352 294.039 109.839 294.398 108.812L294.719 108L291.25 99.3594ZM306.727 99.3594V100.797H302.977V108H301.141V99.3594H306.727Z" fill="#243555"/>
</svg>
