<svg width="110" height="135" fill="none" xmlns="http://www.w3.org/2000/svg"><path d="M106.555 8.304a6.262 6.262 0 0 0-6.147-.213c-4.963 2.57-9.847 4.695-19.275 4.695-10.374 0-15.258-2.573-20.92-5.553-6.235-3.28-13.3-7.001-26.766-7.001-9.32 0-15.546 1.783-20.577 3.959C11.946 1.876 9.694.23 7.045.23A6.277 6.277 0 0 0 .768 6.51v121.359a6.277 6.277 0 1 0 12.555 0V76.504c5.33-2.796 10.248-5.13 20.124-5.13 10.37 0 15.258 2.573 20.916 5.552 6.235 3.281 13.295 7.001 26.77 7.001 12.232 0 19.082-3.013 25.046-6.097a6.275 6.275 0 0 0 3.393-5.578V13.665a6.272 6.272 0 0 0-3.017-5.36zm-9.537 60.023c-4 1.77-8.575 3.046-15.886 3.046-10.374 0-15.257-2.574-20.92-5.553-6.235-3.28-13.299-7.001-26.765-7.001-9.035 0-15.17 1.67-20.125 3.758v-44.66c5.332-2.796 10.249-5.13 20.125-5.13 10.37 0 15.258 2.573 20.915 5.552 6.236 3.281 13.295 7.002 26.77 7.002 6.641 0 11.697-.888 15.886-2.193v45.179z" fill="#1DA1AF"/></svg>