<svg width="133" height="133" fill="none" xmlns="http://www.w3.org/2000/svg"><g clip-path="url(#clip0)" fill="#1DA1AF"><path d="M66.601 35.194l-46.906 38.67c0 .054-.014.134-.041.244a1.115 1.115 0 0 0-.042.243v39.157c0 1.414.517 2.639 1.55 3.671 1.034 1.032 2.257 1.552 3.672 1.552h31.324V87.404h20.886v31.328h31.325c1.414 0 2.639-.518 3.671-1.553 1.033-1.031 1.552-2.257 1.552-3.671V74.351c0-.217-.03-.38-.083-.487l-46.908-38.67z"/><path d="M131.455 65.053l-17.864-14.848V16.921c0-.76-.245-1.386-.736-1.876-.487-.49-1.112-.734-1.875-.734H95.317c-.761 0-1.387.245-1.877.734-.489.49-.733 1.116-.733 1.876V32.83L72.802 16.186c-1.738-1.414-3.805-2.12-6.198-2.12-2.393 0-4.46.706-6.2 2.12L1.747 65.053c-.543.434-.841 1.019-.897 1.753-.055.734.135 1.374.57 1.918l5.058 6.037c.436.49 1.007.788 1.714.898.653.055 1.306-.136 1.958-.571l56.452-47.072 56.452 47.072c.436.379 1.006.569 1.713.569h.245c.706-.108 1.276-.41 1.714-.897l5.058-6.036c.435-.545.625-1.185.569-1.92-.056-.732-.355-1.316-.898-1.751z"/></g><defs><clipPath id="clip0"><path fill="#fff" transform="translate(.84 .638)" d="M0 0h131.522v131.522H0z"/></clipPath></defs></svg>