<svg width="126" height="132" fill="none" xmlns="http://www.w3.org/2000/svg"><path d="M125.089 58.256c-.425-2.656-2.934-4.465-5.603-4.041-2.668.423-4.487 2.92-4.061 5.575l.015.087c4.983 29.19-14.757 56.873-44.09 61.832-29.335 4.959-57.154-14.685-62.137-43.875-4.983-29.19 14.758-56.873 44.091-61.832 18.04-3.05 36.401 3.221 48.758 16.651L80.385 39.84c-2.564.85-3.951 3.606-3.098 6.157V46c.854 2.552 3.624 3.932 6.189 3.084l.002-.001 29.359-9.739a4.872 4.872 0 0 0 3.347-4.62V5.507c0-2.69-2.191-4.87-4.893-4.87-2.703 0-4.894 2.18-4.894 4.87v17.787C81.197-.556 41.339.437 17.371 25.514c-23.967 25.076-22.97 64.74 2.23 88.59 25.2 23.851 65.059 22.858 89.027-2.219 13.667-14.3 19.767-34.17 16.461-53.63z" fill="#1DA1AF"/></svg>