<svg width="192" height="140" viewBox="0 0 192 140" fill="none" xmlns="http://www.w3.org/2000/svg">
<path d="M56.6876 39.9924H49.5415V32.8463C49.5415 31.3647 48.6042 30.0451 47.2051 29.557C45.0252 28.7968 42.7363 28.4111 40.402 28.4111C38.0676 28.4111 35.7787 28.7968 33.5989 29.557C32.1997 30.0451 31.2624 31.3647 31.2624 32.8463V39.9924H24.1171C22.6356 39.9924 21.3164 40.9297 20.8283 42.3284C20.0677 44.5078 19.682 46.7971 19.682 49.1319C19.682 51.4667 20.0677 53.756 20.8283 55.9354C21.3164 57.3342 22.636 58.271 24.1171 58.271H31.2633V65.4171C31.2633 66.8987 32.2005 68.2179 33.5993 68.706C35.7787 69.4666 38.068 69.8523 40.4028 69.8523C42.7376 69.8523 45.0268 69.4666 47.2063 68.706C48.605 68.2179 49.5423 66.8987 49.5423 65.4171V58.271H56.6884C58.17 58.271 59.4896 57.3337 59.9777 55.935C60.7379 53.7556 61.1236 51.4667 61.1236 49.1319C61.1236 46.7975 60.7379 44.5087 59.9777 42.3288C59.4888 40.9297 58.1695 39.9924 56.6876 39.9924ZM53.986 51.304H46.0584C44.1347 51.304 42.5749 52.8638 42.5749 54.7875V62.7152C41.1483 62.9418 39.6569 62.9414 38.2303 62.7152V54.7875C38.2303 52.8638 36.6705 51.304 34.7468 51.304H26.8191C26.706 50.5905 26.649 49.8651 26.649 49.1319C26.649 48.3987 26.706 47.6729 26.8191 46.9594H34.7468C36.6705 46.9594 38.2303 45.3996 38.2303 43.4759V35.5487C39.6573 35.322 41.1483 35.322 42.5749 35.5487V43.4759C42.5749 45.3996 44.1347 46.9594 46.0584 46.9594H53.9856C54.0987 47.6729 54.1557 48.3983 54.1557 49.1319C54.1557 49.8651 54.0987 50.5909 53.986 51.304Z" fill="white" fill-opacity="0.2"/>
<path d="M104.231 41.8968C104.234 41.8968 104.238 41.8968 104.242 41.8968C107.519 41.8931 110.168 39.2325 110.16 35.9556C110.152 32.6823 107.496 30.034 104.219 30.0381C100.945 30.0459 98.293 32.7065 98.3012 35.9793C98.3085 39.2522 100.961 41.8968 104.231 41.8968Z" fill="white" fill-opacity="0.2"/>
<path d="M169.526 46.1488C163.359 39.494 153.292 38.7285 146.11 44.3701C144.148 45.9119 141.858 47.2315 139.334 48.3147C136.562 32.2971 129.285 17.5999 118.111 5.55105C111.943 -1.10452 101.877 -1.87089 94.6931 3.77076C88.7506 8.44155 79.8574 11.1206 70.2941 11.1206C60.7284 11.1206 51.8339 8.44155 45.891 3.77035C38.7134 -1.87048 28.6468 -1.10493 22.474 5.55064C7.98135 21.1875 0 41.5444 0 62.8713C0 70.8625 1.11964 78.7766 3.3286 86.3945C4.94332 91.9615 9.23091 96.2963 14.7972 97.9897C16.4545 98.4937 18.1475 98.7409 19.8261 98.7409C23.7924 98.7409 27.6759 97.3618 30.8021 94.741C37.6146 89.0247 45.5501 84.881 54.04 82.5564C52.3122 89.3272 51.4163 96.345 51.4163 103.473C51.4163 111.468 52.5355 119.382 54.7429 126.994C56.3576 132.562 60.6452 136.897 66.2131 138.59C67.8696 139.094 69.5613 139.34 71.2392 139.34C75.2059 139.34 79.0902 137.96 82.2151 135.339C93.2521 126.079 107.278 120.979 121.708 120.979C136.139 120.979 150.165 126.079 161.201 135.339C165.648 139.07 171.63 140.285 177.203 138.59C182.771 136.897 187.059 132.562 188.673 126.994C190.881 119.383 192 111.469 192 103.473C192 82.1425 184.019 61.7848 169.526 46.1488ZM25.5346 88.4608C23.1826 90.4325 20.1384 91.0476 17.1832 90.148C14.2337 89.2509 12.053 87.0502 11.2005 84.1117C9.20714 77.2361 8.19651 70.0896 8.19651 62.8713C8.19651 43.6173 15.4021 25.2391 28.4849 11.123C31.7287 7.62476 37.0343 7.2342 40.8264 10.2145C48.1857 15.9991 58.9264 19.3167 70.2945 19.3167C81.6598 19.3167 92.3993 15.9991 99.7569 10.2157C103.554 7.23461 108.858 7.62517 112.1 11.123C122.427 22.2588 129.063 35.897 131.427 50.7519C128.653 51.3171 125.734 51.64 122.74 51.7007C123.13 50.9068 123.354 50.0163 123.351 49.0712C123.343 45.7984 120.678 43.1497 117.402 43.1616C114.129 43.1693 111.484 45.8336 111.492 49.1106C111.494 49.6614 111.577 50.1921 111.719 50.6978C106.109 49.5192 101.104 47.3533 97.3065 44.3701C90.1256 38.7289 80.059 39.4936 73.8903 46.1488C66.4483 54.1777 60.7284 63.4541 56.9194 73.4653C45.3951 75.7087 34.588 80.8639 25.5346 88.4608ZM180.802 124.711C179.949 127.65 177.769 129.851 174.818 130.748C171.864 131.647 168.82 131.031 166.47 129.059C153.959 118.563 138.062 112.782 121.708 112.782C105.354 112.782 89.458 118.563 76.9472 129.059C74.5969 131.031 71.5547 131.646 68.5978 130.748C65.6483 129.851 63.4672 127.65 62.6152 124.711C60.623 117.841 59.6128 110.695 59.6128 103.472C59.6128 84.215 66.8184 65.836 79.9016 51.7208C81.684 49.7979 84.0901 48.8151 86.5261 48.8151C88.5203 48.8151 90.535 49.4741 92.2427 50.8159C99.604 56.5985 110.344 59.9152 121.708 59.9152C133.072 59.9152 143.812 56.5985 151.173 50.8159C154.967 47.8352 160.273 48.2233 163.514 51.7208C176.598 65.8364 183.803 84.2154 183.803 103.472C183.804 110.695 182.794 117.841 180.802 124.711Z" fill="white" fill-opacity="0.2"/>
<path d="M108.102 80.5917H100.956V73.446C100.956 71.9645 100.019 70.6448 98.62 70.1567C96.4406 69.3965 94.1517 69.0109 91.8169 69.0109C89.4826 69.0109 87.1937 69.3965 85.0138 70.1567C83.6147 70.6448 82.6774 71.9645 82.6774 73.446V80.5921H75.5317C74.0502 80.5921 72.7309 81.5294 72.2428 82.9281C71.4822 85.1076 71.0966 87.3969 71.0966 89.7316C71.0966 92.0664 71.4822 94.3557 72.2428 96.5352C72.7309 97.9339 74.0502 98.8712 75.5317 98.8712H82.6774V106.017C82.6774 107.498 83.6147 108.818 85.0134 109.306C87.1933 110.066 89.4826 110.452 91.8169 110.452C94.1517 110.452 96.441 110.066 98.6204 109.306C100.019 108.818 100.956 107.498 100.956 106.017V98.8712H108.102C109.583 98.8712 110.903 97.9343 111.391 96.5356C112.151 94.3565 112.537 92.0672 112.537 89.7316C112.537 87.3961 112.152 85.1068 111.391 82.9277C110.903 81.5286 109.583 80.5917 108.102 80.5917ZM105.4 91.9037H97.4725C95.5488 91.9037 93.989 93.4635 93.989 95.3872V103.315C92.5624 103.541 91.071 103.541 89.6444 103.315V95.3872C89.6444 93.4635 88.0846 91.9037 86.1609 91.9037H78.2337C78.1206 91.1902 78.0636 90.4648 78.0636 89.7312C78.0636 88.9976 78.1206 88.2723 78.2337 87.5588H86.1609C88.0846 87.5588 89.6444 85.999 89.6444 84.0752V76.148C91.0715 75.9213 92.5624 75.9218 93.989 76.148V84.0756C93.989 85.9994 95.5488 87.5592 97.4725 87.5592H105.4C105.513 88.2727 105.57 88.9981 105.57 89.7316C105.57 90.4652 105.513 91.1902 105.4 91.9037Z" fill="white" fill-opacity="0.2"/>
<path d="M168.837 95.6213C168.841 95.6213 168.849 95.6213 168.853 95.6213C172.13 95.6094 174.775 92.9488 174.767 89.6718C174.755 86.3989 172.095 83.7502 168.818 83.7621C165.544 83.7699 162.896 86.4342 162.908 89.7075C162.915 92.9767 165.568 95.6213 168.837 95.6213Z" fill="white" fill-opacity="0.2"/>
<path d="M142.503 83.8138C139.229 83.8179 136.577 86.474 136.582 89.751C136.586 93.0238 139.242 95.6766 142.519 95.6725C145.792 95.6684 148.444 93.0124 148.44 89.7391C148.436 86.4625 145.78 83.8102 142.503 83.8138Z" fill="white" fill-opacity="0.2"/>
<path d="M155.705 96.9654C155.67 96.9654 155.638 96.9654 155.603 96.9654C152.361 97.0047 149.744 99.6416 149.744 102.895C149.744 106.168 152.4 108.824 155.673 108.824C155.681 108.824 155.689 108.824 155.693 108.824C155.705 108.824 155.717 108.824 155.729 108.824C155.737 108.824 155.745 108.824 155.753 108.824C159.025 108.812 161.67 106.144 161.658 102.871C161.643 99.594 158.978 96.9494 155.705 96.9654Z" fill="white" fill-opacity="0.2"/>
<path d="M155.646 82.4975C155.65 82.4975 155.654 82.4975 155.658 82.4975C158.935 82.4897 161.583 79.8296 161.575 76.5563C161.567 73.2793 158.907 70.6306 155.634 70.6388C152.357 70.6466 149.709 73.3072 149.717 76.5801C149.72 79.8492 152.377 82.4975 155.646 82.4975Z" fill="white" fill-opacity="0.2"/>
<path d="M28.1219 72V72.2C30.6885 72.4333 32.5052 73.3167 33.5719 74.85C34.6719 76.35 35.2219 78.5333 35.2219 81.4C35.2219 84.8667 34.3385 87.2333 32.5719 88.5C30.8052 89.7667 27.8052 90.4 23.5719 90.4C17.2052 90.4 12.3385 90.2667 8.97188 90V55.5C11.9719 55.2333 16.3052 55.1 21.9719 55.1C26.5385 55.1 29.7052 55.7333 31.4719 57C33.2385 58.2333 34.1219 60.6 34.1219 64.1C34.1219 66.6 33.6552 68.5 32.7219 69.8C31.7885 71.0667 30.2552 71.8 28.1219 72ZM16.4219 69.6H22.0219C23.8552 69.6 25.1052 69.3 25.7719 68.7C26.4719 68.1 26.8219 66.9167 26.8219 65.15C26.8219 63.4167 26.4552 62.2667 25.7219 61.7C25.0219 61.1333 23.6385 60.85 21.5719 60.85L16.4219 60.8V69.6ZM16.4219 84.65H22.2219C24.3552 84.65 25.7885 84.35 26.5219 83.75C27.2552 83.1167 27.6219 81.85 27.6219 79.95C27.6219 77.8833 27.2385 76.5 26.4719 75.8C25.7052 75.0667 24.2385 74.6833 22.0719 74.65H16.4219V84.65ZM48.7555 67.6C50.6888 65.6333 53.9721 64.65 58.6055 64.65C63.2388 64.65 66.5055 65.6333 68.4055 67.6C70.3055 69.5667 71.2555 72.9333 71.2555 77.7C71.2555 82.4333 70.3055 85.7833 68.4055 87.75C66.5055 89.6833 63.2388 90.65 58.6055 90.65C53.9721 90.65 50.6888 89.6833 48.7555 87.75C46.8555 85.7833 45.9055 82.4333 45.9055 77.7C45.9055 72.9333 46.8555 69.5667 48.7555 67.6ZM58.6055 70.2C56.6388 70.2 55.3221 70.7 54.6555 71.7C53.9888 72.7 53.6555 74.7 53.6555 77.7C53.6555 80.6333 53.9888 82.6 54.6555 83.6C55.3221 84.6 56.6388 85.1 58.6055 85.1C60.5388 85.1 61.8388 84.6 62.5055 83.6C63.2055 82.6 63.5555 80.6333 63.5555 77.7C63.5555 74.7333 63.2055 72.75 62.5055 71.75C61.8388 70.7167 60.5388 70.2 58.6055 70.2ZM98.1988 54.4H103.099C103.365 56.5 102.732 58.3167 101.199 59.85C99.6988 61.3833 97.6155 62.15 94.9488 62.15C92.2488 62.15 90.1155 61.3833 88.5488 59.85C87.0155 58.3167 86.3988 56.5 86.6988 54.4H91.5988C91.4655 57.1333 92.5822 58.5 94.9488 58.5C97.2488 58.5 98.3322 57.1333 98.1988 54.4ZM106.949 90.05H100.349V77.15C100.349 76.1833 100.432 74.8667 100.599 73.2H100.399C100.032 74.4 99.4155 75.6167 98.5488 76.85L89.2488 90H82.9488V65.35H89.4988V78.5C89.4988 79.4333 89.4155 80.65 89.2488 82.15H89.3988C89.8322 81.05 90.4488 79.9333 91.2488 78.8L100.649 65.35H106.949V90.05ZM141.321 71.05H133.121V90H125.821V71.05H117.621V65.35H141.321V71.05ZM175.906 90.05H169.306V77.15C169.306 76.1833 169.389 74.8667 169.556 73.2H169.356C168.989 74.4 168.373 75.6167 167.506 76.85L158.206 90H151.906V65.35H158.456V78.5C158.456 79.4333 158.373 80.65 158.206 82.15H158.356C158.789 81.05 159.406 79.9333 160.206 78.8L169.606 65.35H175.906V90.05Z" fill="white"/>
</svg>
