<svg width="840" height="110" fill="none" xmlns="http://www.w3.org/2000/svg"><rect x="1" y="61" width="48" height="48" rx="4" stroke="#BDBDBD" stroke-width="2"/><path d="M19.34 76.867h5.086c2.36 0 4.062.344 5.11 1.031 1.054.688 1.581 1.774 1.581 3.258 0 1-.258 1.832-.773 2.496-.516.664-1.258 1.082-2.227 1.254v.117c1.203.227 2.086.676 2.649 1.348.57.664.855 1.567.855 2.707 0 1.54-.539 2.746-1.617 3.621-1.07.867-2.563 1.301-4.477 1.301H19.34V76.867zm2.8 7.078h2.696c1.172 0 2.027-.183 2.566-.55.54-.376.809-1.008.809-1.899 0-.805-.293-1.387-.879-1.746-.578-.36-1.5-.54-2.766-.54h-2.425v4.735zm0 2.274v5.425h2.977c1.172 0 2.055-.222 2.649-.667.601-.454.902-1.165.902-2.133 0-.89-.305-1.551-.914-1.98-.61-.43-1.535-.645-2.777-.645H22.14zM69.234 87.563c0 2.291-1.468 3.437-4.406 3.437h-3.32V79.578h6.969v1.602h-5.102v3.039h1.36c3 0 4.5 1.114 4.5 3.344zm-5.859 1.867h1.344c.896 0 1.552-.146 1.969-.438.416-.297.624-.773.624-1.43 0-.63-.21-1.083-.632-1.359-.417-.281-1.146-.422-2.188-.422h-1.117v3.649zm15.602-2.766c0 1.412-.362 2.513-1.086 3.305-.724.791-1.732 1.187-3.024 1.187-.807 0-1.52-.182-2.14-.547a3.61 3.61 0 0 1-1.43-1.57c-.334-.682-.5-1.474-.5-2.375 0-1.401.36-2.495 1.078-3.281.719-.787 1.732-1.18 3.04-1.18 1.25 0 2.239.404 2.968 1.211.729.802 1.094 1.885 1.094 3.25zm-6.29 0c0 1.995.737 2.992 2.211 2.992 1.459 0 2.188-.997 2.188-2.992 0-1.974-.734-2.96-2.203-2.96-.771 0-1.33.254-1.68.765-.344.51-.516 1.242-.516 2.195zm13.368 2.578l.101-.375a22.2 22.2 0 0 1 .555-1.789l1.937-4.719h2.446V91h-1.696v-6.977l-.14.47c-.235.838-.432 1.455-.594 1.85L86.774 91h-1.391l-1.89-4.688c-.261-.677-.5-1.44-.72-2.289V91h-1.68v-8.64h2.43l1.875 4.578c.167.421.386 1.19.657 2.304zm7.164-3.43c0-1.927.325-3.408.976-4.445.657-1.036 1.698-1.703 3.125-2a71.971 71.971 0 0 1 3.727-.64l.258 1.617c-1.709.26-2.959.463-3.75.61-.818.15-1.41.486-1.774 1.007-.36.52-.568 1.305-.625 2.352h.117a2.97 2.97 0 0 1 1.165-1c.479-.24.992-.36 1.539-.36 1.062 0 1.89.336 2.484 1.008.594.672.891 1.615.891 2.828 0 1.39-.362 2.466-1.086 3.227-.72.76-1.717 1.14-2.993 1.14-1.265 0-2.257-.469-2.976-1.406-.719-.938-1.078-2.25-1.078-3.938zm4.18 3.844c1.364 0 2.046-.896 2.046-2.687 0-1.73-.617-2.594-1.851-2.594-.339 0-.667.073-.985.219a3.583 3.583 0 0 0-.882.578c-.266.24-.472.487-.618.742 0 1.23.196 2.162.586 2.797.39.63.959.945 1.703.945zM108.874 91l-.367-1.203h-.063c-.416.526-.836.885-1.257 1.078-.422.188-.964.281-1.626.281-.848 0-1.513-.229-1.992-.687-.474-.459-.711-1.107-.711-1.946 0-.89.331-1.562.993-2.015.661-.453 1.669-.7 3.023-.742l1.492-.047v-.461c0-.552-.13-.964-.39-1.235-.256-.276-.654-.414-1.196-.414-.442 0-.867.066-1.273.196-.406.13-.797.283-1.172.46l-.594-1.312c.469-.245.982-.43 1.539-.555a6.958 6.958 0 0 1 1.578-.195c1.099 0 1.927.24 2.485.719.562.479.844 1.232.844 2.258V91h-1.313zm-2.734-1.25c.666 0 1.2-.185 1.601-.555.406-.375.61-.898.61-1.57v-.75l-1.11.047c-.864.031-1.495.177-1.89.437-.391.256-.586.649-.586 1.18 0 .385.114.685.343.898.23.209.573.313 1.032.313z" fill="#BDBDBD"/><rect x="133" y="61" width="48" height="48" rx="4" stroke="#BDBDBD" stroke-width="2"/><path d="M162.543 89.348c0 1.523-.551 2.718-1.652 3.586-1.102.867-2.621 1.3-4.559 1.3-1.937 0-3.523-.3-4.758-.902v-2.648c.781.367 1.61.656 2.485.867.882.21 1.703.316 2.461.316 1.109 0 1.925-.21 2.449-.633.531-.421.797-.988.797-1.699 0-.64-.243-1.183-.727-1.629-.484-.445-1.484-.972-3-1.582-1.562-.633-2.664-1.355-3.305-2.168-.64-.812-.961-1.789-.961-2.93 0-1.43.508-2.554 1.524-3.374 1.015-.82 2.379-1.23 4.09-1.23 1.64 0 3.273.359 4.898 1.077l-.89 2.285c-1.524-.64-2.883-.96-4.079-.96-.906 0-1.593.199-2.062.597-.469.39-.703.91-.703 1.559 0 .445.094.828.281 1.148.188.313.496.61.926.89.43.282 1.203.653 2.32 1.114 1.258.524 2.18 1.012 2.766 1.465.586.453 1.015.965 1.289 1.535.273.57.41 1.242.41 2.016zM202.289 91h-1.875v-9.82h-5.039V91h-1.867V79.578h8.781V91zm6.594.156c-1.344 0-2.396-.39-3.156-1.172-.756-.786-1.133-1.867-1.133-3.242 0-1.411.351-2.52 1.054-3.328.704-.807 1.67-1.21 2.899-1.21 1.141 0 2.042.346 2.703 1.038.661.693.992 1.646.992 2.86v.992h-5.758c.026.838.253 1.484.68 1.937.427.448 1.029.672 1.805.672.51 0 .984-.047 1.422-.14.442-.1.916-.26 1.421-.485v1.492a5.621 5.621 0 0 1-1.359.453 8.329 8.329 0 0 1-1.57.133zm-.336-7.562c-.583 0-1.052.185-1.406.554-.349.37-.558.91-.625 1.618h3.922c-.011-.714-.183-1.253-.516-1.618-.333-.37-.792-.554-1.375-.554zm9.265 7.562c-1.307 0-2.302-.38-2.984-1.14-.677-.766-1.016-1.862-1.016-3.29 0-1.453.355-2.57 1.063-3.351.714-.781 1.742-1.172 3.086-1.172.911 0 1.732.17 2.461.508l-.555 1.477c-.776-.303-1.416-.454-1.922-.454-1.494 0-2.242.993-2.242 2.977 0 .969.185 1.698.555 2.187.375.485.922.727 1.64.727.818 0 1.592-.203 2.321-.61v1.602a3.62 3.62 0 0 1-1.055.414c-.37.084-.82.125-1.352.125zm12.102-4.492c0 1.412-.362 2.513-1.086 3.305-.724.791-1.732 1.187-3.023 1.187-.808 0-1.521-.182-2.141-.547a3.614 3.614 0 0 1-1.43-1.57c-.333-.682-.5-1.474-.5-2.375 0-1.401.36-2.495 1.078-3.281.719-.787 1.732-1.18 3.04-1.18 1.25 0 2.239.404 2.968 1.211.729.802 1.094 1.885 1.094 3.25zm-6.289 0c0 1.995.737 2.992 2.211 2.992 1.458 0 2.187-.997 2.187-2.992 0-1.974-.734-2.96-2.203-2.96-.771 0-1.33.254-1.679.765-.344.51-.516 1.242-.516 2.195zm13.766-4.305h2.015l-3.57 4.164L239.711 91h-2.109l-3.735-4.383V91h-1.836v-8.64h1.836v4.195l3.524-4.196z" fill="#BDBDBD"/><rect x="261" y="61" width="148" height="48" rx="4" stroke="#BDBDBD" stroke-width="2"/><path d="M313.25 89.348c0 1.523-.551 2.718-1.652 3.586-1.102.867-2.621 1.3-4.559 1.3-1.937 0-3.523-.3-4.758-.902v-2.648c.781.367 1.61.656 2.485.867.882.21 1.703.316 2.461.316 1.109 0 1.925-.21 2.449-.633.531-.421.797-.988.797-1.699 0-.64-.243-1.183-.727-1.629-.484-.445-1.484-.972-3-1.582-1.562-.633-2.664-1.355-3.305-2.168-.64-.812-.961-1.789-.961-2.93 0-1.43.508-2.554 1.524-3.374 1.016-.82 2.379-1.23 4.09-1.23 1.64 0 3.273.359 4.898 1.077l-.89 2.285c-1.524-.64-2.883-.96-4.079-.96-.906 0-1.593.199-2.062.597-.469.39-.703.91-.703 1.559 0 .445.094.828.281 1.148.188.313.496.61.926.89.43.282 1.203.653 2.32 1.114 1.258.524 2.18 1.012 2.766 1.465.586.453 1.015.965 1.289 1.535.273.57.41 1.242.41 2.016zm9.598 4.886c-1.641 0-2.914-.59-3.821-1.77h-.164c.11 1.095.164 1.759.164 1.993v5.309h-2.754V81.039h2.227c.062.242.191.82.387 1.734h.14c.86-1.312 2.149-1.968 3.868-1.968 1.617 0 2.875.586 3.773 1.757.906 1.172 1.359 2.817 1.359 4.934s-.461 3.77-1.382 4.957c-.915 1.188-2.18 1.781-3.797 1.781zm-.668-11.18c-1.094 0-1.895.321-2.403.962-.5.64-.75 1.664-.75 3.07v.41c0 1.578.25 2.723.75 3.434.5.703 1.317 1.054 2.45 1.054.953 0 1.687-.39 2.203-1.171.515-.782.773-1.895.773-3.34 0-1.454-.258-2.551-.773-3.293-.508-.75-1.258-1.125-2.25-1.125zM339.336 94l-.551-1.805h-.094c-.625.79-1.253 1.328-1.886 1.618-.633.28-1.446.421-2.438.421-1.273 0-2.269-.343-2.988-1.03-.711-.688-1.067-1.661-1.067-2.919 0-1.336.497-2.344 1.489-3.023.992-.68 2.504-1.051 4.535-1.114l2.238-.07v-.691c0-.828-.195-1.446-.586-1.852-.383-.414-.98-.62-1.793-.62-.664 0-1.3.097-1.91.292-.609.195-1.195.426-1.758.691l-.89-1.968a9.405 9.405 0 0 1 2.308-.832 10.417 10.417 0 0 1 2.367-.293c1.649 0 2.891.36 3.727 1.078.844.719 1.266 1.848 1.266 3.386V94h-1.969zm-4.102-1.875c1 0 1.801-.277 2.403-.832.609-.563.914-1.348.914-2.356v-1.124l-1.664.07c-1.297.047-2.242.265-2.836.656-.586.383-.879.973-.879 1.77 0 .578.172 1.027.516 1.347.343.313.859.469 1.546.469zm15.141 2.11c-1.961 0-3.453-.57-4.477-1.712-1.015-1.148-1.523-2.792-1.523-4.933 0-2.18.531-3.856 1.594-5.028 1.07-1.171 2.613-1.757 4.629-1.757 1.367 0 2.597.254 3.691.761l-.832 2.215c-1.164-.453-2.125-.68-2.883-.68-2.242 0-3.363 1.489-3.363 4.465 0 1.453.277 2.547.832 3.282.562.726 1.383 1.09 2.461 1.09a7.041 7.041 0 0 0 3.48-.915v2.403a5.424 5.424 0 0 1-1.582.62c-.554.126-1.23.188-2.027.188zm12.316 0c-2.015 0-3.593-.587-4.734-1.758-1.133-1.18-1.699-2.801-1.699-4.864 0-2.117.527-3.781 1.582-4.992 1.055-1.21 2.504-1.816 4.348-1.816 1.71 0 3.062.52 4.054 1.558.992 1.04 1.488 2.469 1.488 4.29v1.488h-8.636c.039 1.257.379 2.226 1.019 2.906.641.672 1.543 1.008 2.707 1.008.766 0 1.477-.07 2.133-.211.664-.149 1.375-.39 2.133-.727v2.239a8.468 8.468 0 0 1-2.039.68c-.688.132-1.473.198-2.356.198zm-.503-11.344c-.876 0-1.579.277-2.11.832-.523.554-.836 1.363-.937 2.425h5.882c-.015-1.07-.273-1.879-.773-2.425-.5-.555-1.188-.832-2.062-.832zM430.273 91h-2.195l-4.703-5.79V91h-1.867V79.578h1.867v5.531L428 79.58h2.047l-4.609 5.515L430.273 91zm5.704.156c-1.094 0-1.943-.393-2.547-1.18h-.11c.073.73.11 1.172.11 1.329v3.539h-1.836V82.359h1.484c.042.162.128.547.258 1.157h.094c.573-.875 1.432-1.313 2.578-1.313 1.078 0 1.916.39 2.515 1.172.605.781.907 1.878.907 3.29 0 1.41-.308 2.512-.922 3.304-.61.791-1.453 1.187-2.531 1.187zm-.446-7.453c-.729 0-1.263.214-1.601.64-.334.428-.5 1.11-.5 2.048v.273c0 1.052.166 1.815.5 2.29.333.468.877.702 1.632.702.636 0 1.126-.26 1.469-.781.344-.52.516-1.263.516-2.227 0-.968-.172-1.7-.516-2.195-.338-.5-.838-.75-1.5-.75zm4.719-1.344h2l1.758 4.899c.265.698.443 1.354.531 1.969h.063c.046-.287.132-.633.257-1.04.125-.411.787-2.354 1.985-5.828h1.984l-3.695 9.79c-.672 1.796-1.792 2.695-3.36 2.695-.406 0-.802-.044-1.187-.133v-1.453a4.3 4.3 0 0 0 .945.094c.886 0 1.508-.514 1.867-1.54l.321-.812-3.469-8.64zm15.477 0v1.438h-3.75V91h-1.836v-8.64h5.586zM733.289 91h-1.875v-9.82h-5.039V91h-1.867V79.578h8.781V91zm6.594.156c-1.344 0-2.396-.39-3.156-1.172-.756-.786-1.133-1.867-1.133-3.242 0-1.411.351-2.52 1.054-3.328.704-.807 1.67-1.21 2.899-1.21 1.141 0 2.042.346 2.703 1.038.661.693.992 1.646.992 2.86v.992h-5.758c.026.838.253 1.484.68 1.937.427.448 1.029.672 1.805.672.51 0 .984-.047 1.422-.14.442-.1.916-.26 1.421-.485v1.492a5.621 5.621 0 0 1-1.359.453 8.329 8.329 0 0 1-1.57.133zm-.336-7.562c-.583 0-1.052.185-1.406.554-.349.37-.558.91-.625 1.618h3.922c-.011-.714-.183-1.253-.516-1.618-.333-.37-.792-.554-1.375-.554zm10.164 7.562c-1.094 0-1.943-.393-2.547-1.18h-.109c.073.73.109 1.172.109 1.329v3.539h-1.836V82.359h1.484c.042.162.128.547.258 1.157h.094c.573-.875 1.432-1.313 2.578-1.313 1.078 0 1.917.39 2.516 1.172.604.781.906 1.878.906 3.29 0 1.41-.307 2.512-.922 3.304-.609.791-1.453 1.187-2.531 1.187zm-.445-7.453c-.73 0-1.263.214-1.602.64-.333.428-.5 1.11-.5 2.048v.273c0 1.052.167 1.815.5 2.29.333.468.878.702 1.633.702.635 0 1.125-.26 1.469-.781.343-.52.515-1.263.515-2.227 0-.968-.172-1.7-.515-2.195-.339-.5-.839-.75-1.5-.75zm9.804 7.453c-1.343 0-2.396-.39-3.156-1.172-.755-.786-1.133-1.867-1.133-3.242 0-1.411.352-2.52 1.055-3.328.703-.807 1.669-1.21 2.898-1.21 1.141 0 2.042.346 2.704 1.038.661.693.992 1.646.992 2.86v.992h-5.758c.026.838.252 1.484.68 1.937.427.448 1.028.672 1.804.672.511 0 .985-.047 1.422-.14a7.65 7.65 0 0 0 1.422-.485v1.492a5.636 5.636 0 0 1-1.359.453 8.34 8.34 0 0 1-1.571.133zm-.336-7.562c-.583 0-1.052.185-1.406.554-.349.37-.557.91-.625 1.618h3.922c-.01-.714-.182-1.253-.516-1.618-.333-.37-.791-.554-1.375-.554zm10.743 5.648l.101-.375c.214-.776.399-1.372.555-1.789l1.937-4.719h2.446V91h-1.696v-6.977l-.14.47c-.235.838-.433 1.455-.594 1.85L770.195 91h-1.39l-1.891-4.688c-.26-.677-.5-1.44-.719-2.289V91h-1.679v-8.64h2.429l1.875 4.578c.167.421.386 1.19.657 2.304zm11.437 1.914c-1.344 0-2.396-.39-3.156-1.172-.755-.786-1.133-1.867-1.133-3.242 0-1.411.352-2.52 1.055-3.328.703-.807 1.669-1.21 2.898-1.21 1.141 0 2.042.346 2.703 1.038.662.693.992 1.646.992 2.86v.992h-5.757c.026.838.252 1.484.679 1.937.427.448 1.029.672 1.805.672.51 0 .984-.047 1.422-.14a7.65 7.65 0 0 0 1.422-.485v1.492a5.629 5.629 0 0 1-1.36.453 8.321 8.321 0 0 1-1.57.133zm-.336-7.562c-.583 0-1.052.185-1.406.554-.349.37-.557.91-.625 1.618h3.922c-.011-.714-.183-1.253-.516-1.618-.333-.37-.792-.554-1.375-.554zm18.024 5.984h1.242v4.461h-1.727V91h-11.758v-8.64h1.836v7.187h3.367v-7.188h1.836v7.188h3.36v-7.188h1.844v7.22zm6.593 1.578c-1.343 0-2.396-.39-3.156-1.172-.755-.786-1.133-1.867-1.133-3.242 0-1.411.352-2.52 1.055-3.328.703-.807 1.669-1.21 2.898-1.21 1.141 0 2.042.346 2.703 1.038.662.693.993 1.646.993 2.86v.992h-5.758c.026.838.252 1.484.68 1.937.427.448 1.028.672 1.804.672.511 0 .985-.047 1.422-.14a7.65 7.65 0 0 0 1.422-.485v1.492a5.636 5.636 0 0 1-1.359.453 8.34 8.34 0 0 1-1.571.133zm-.336-7.562c-.583 0-1.052.185-1.406.554-.349.37-.557.91-.625 1.618h3.922c-.01-.714-.182-1.253-.516-1.618-.333-.37-.791-.554-1.375-.554zm7.618-1.235v3.47h4.07v-3.47h1.836V91h-1.836v-3.727h-4.07V91h-1.836v-8.64h1.836zm10.296 0v4.43c0 .516-.041 1.273-.125 2.273l4.336-6.703h2.243V91h-1.766v-4.352c0-.24.013-.627.039-1.164.031-.536.057-.927.078-1.171L823.258 91h-2.242v-8.64h1.757zm12.844 8.797c-1.344 0-2.396-.39-3.156-1.172-.755-.786-1.133-1.867-1.133-3.242 0-1.411.352-2.52 1.055-3.328.703-.807 1.669-1.21 2.898-1.21 1.141 0 2.042.346 2.703 1.038.662.693.993 1.646.993 2.86v.992h-5.758c.026.838.252 1.484.679 1.937.428.448 1.029.672 1.805.672.511 0 .985-.047 1.422-.14a7.65 7.65 0 0 0 1.422-.485v1.492a5.636 5.636 0 0 1-1.359.453 8.34 8.34 0 0 1-1.571.133zm-.336-7.562c-.583 0-1.052.185-1.406.554-.349.37-.557.91-.625 1.618h3.922c-.011-.714-.182-1.253-.516-1.618-.333-.37-.791-.554-1.375-.554z" fill="#BDBDBD"/><rect x="604" y="1" width="48" height="48" rx="4" stroke="#BDBDBD" stroke-width="2"/><path stroke="#BDBDBD" stroke-width="2" d="M628.111 16.111V35M628.929 15.707l-7.222 7.222M634.737 22.93l-7.222-7.223"/><rect x="604" y="61" width="48" height="48" rx="4" stroke="#BDBDBD" stroke-width="2"/><path stroke="#BDBDBD" stroke-width="2" d="M628.333 93.889V75M627.515 94.293l7.222-7.222M621.707 87.07l7.222 7.223"/><rect x="544" y="61" width="48" height="48" rx="4" stroke="#BDBDBD" stroke-width="2"/><path stroke="#BDBDBD" stroke-width="2" d="M559.111 84.889H578M558.707 84.071l7.222 7.222M565.929 78.263l-7.222 7.222"/><rect x="664" y="61" width="48" height="48" rx="4" stroke="#BDBDBD" stroke-width="2"/><path stroke="#BDBDBD" stroke-width="2" d="M696.889 85.111H678M697.293 85.929l-7.222-7.222M690.071 91.737l7.222-7.222"/></svg>