<svg width="840" height="110" viewBox="0 0 840 110" fill="none" xmlns="http://www.w3.org/2000/svg">
<rect x="1" y="61" width="48" height="48" rx="4" stroke="#BDBDBD" stroke-width="2"/>
<path d="M19.3398 76.8672H24.4258C26.7852 76.8672 28.4883 77.2109 29.5352 77.8984C30.5898 78.5859 31.1172 79.6719 31.1172 81.1562C31.1172 82.1562 30.8594 82.9883 30.3438 83.6523C29.8281 84.3164 29.0859 84.7344 28.1172 84.9062V85.0234C29.3203 85.25 30.2031 85.6992 30.7656 86.3711C31.3359 87.0352 31.6211 87.9375 31.6211 89.0781C31.6211 90.6172 31.082 91.8242 30.0039 92.6992C28.9336 93.5664 27.4414 94 25.5273 94H19.3398V76.8672ZM22.1406 83.9453H24.8359C26.0078 83.9453 26.8633 83.7617 27.4023 83.3945C27.9414 83.0195 28.2109 82.3867 28.2109 81.4961C28.2109 80.6914 27.918 80.1094 27.332 79.75C26.7539 79.3906 25.832 79.2109 24.5664 79.2109H22.1406V83.9453ZM22.1406 86.2188V91.6445H25.1172C26.2891 91.6445 27.1719 91.4219 27.7656 90.9766C28.3672 90.5234 28.668 89.8125 28.668 88.8438C28.668 87.9531 28.3633 87.293 27.7539 86.8633C27.1445 86.4336 26.2188 86.2188 24.9766 86.2188H22.1406Z" fill="#BDBDBD"/>
<path d="M69.2344 87.5625C69.2344 89.8542 67.7656 91 64.8281 91H61.5078V79.5781H68.4766V81.1797H63.375V84.2188H64.7344C67.7344 84.2188 69.2344 85.3333 69.2344 87.5625ZM63.375 89.4297H64.7188C65.6146 89.4297 66.2708 89.2839 66.6875 88.9922C67.1042 88.6953 67.3125 88.2188 67.3125 87.5625C67.3125 86.9323 67.1016 86.4792 66.6797 86.2031C66.263 85.9219 65.5339 85.7812 64.4922 85.7812H63.375V89.4297ZM78.9766 86.6641C78.9766 88.0755 78.6146 89.1771 77.8906 89.9688C77.1667 90.7604 76.1589 91.1562 74.8672 91.1562C74.0599 91.1562 73.3464 90.974 72.7266 90.6094C72.1068 90.2448 71.6302 89.7214 71.2969 89.0391C70.9635 88.3568 70.7969 87.5651 70.7969 86.6641C70.7969 85.263 71.1562 84.1693 71.875 83.3828C72.5938 82.5964 73.6068 82.2031 74.9141 82.2031C76.1641 82.2031 77.1536 82.6068 77.8828 83.4141C78.612 84.2161 78.9766 85.2995 78.9766 86.6641ZM72.6875 86.6641C72.6875 88.6589 73.4245 89.6562 74.8984 89.6562C76.3568 89.6562 77.0859 88.6589 77.0859 86.6641C77.0859 84.6901 76.3516 83.7031 74.8828 83.7031C74.112 83.7031 73.5521 83.9583 73.2031 84.4688C72.8594 84.9792 72.6875 85.7109 72.6875 86.6641ZM86.0547 89.2422L86.1562 88.8672C86.3698 88.0911 86.5547 87.4948 86.7109 87.0781L88.6484 82.3594H91.0938V91H89.3984V84.0234L89.2578 84.4922C89.0234 85.3307 88.8255 85.9479 88.6641 86.3438L86.7734 91H85.3828L83.4922 86.3125C83.2318 85.6354 82.9922 84.8724 82.7734 84.0234V91H81.0938V82.3594H83.5234L85.3984 86.9375C85.5651 87.3594 85.7839 88.1276 86.0547 89.2422ZM93.2188 85.8125C93.2188 83.8854 93.5443 82.4036 94.1953 81.3672C94.8516 80.3307 95.8932 79.6641 97.3203 79.3672C98.3984 79.1484 99.6406 78.9349 101.047 78.7266L101.305 80.3438C99.5964 80.6042 98.3464 80.8073 97.5547 80.9531C96.737 81.1042 96.1458 81.4401 95.7812 81.9609C95.4219 82.4818 95.2135 83.2656 95.1562 84.3125H95.2734C95.5703 83.8802 95.9583 83.5469 96.4375 83.3125C96.9167 83.0729 97.4297 82.9531 97.9766 82.9531C99.0391 82.9531 99.8672 83.2891 100.461 83.9609C101.055 84.6328 101.352 85.5755 101.352 86.7891C101.352 88.1797 100.99 89.2552 100.266 90.0156C99.5469 90.776 98.5495 91.1562 97.2734 91.1562C96.0078 91.1562 95.0156 90.6875 94.2969 89.75C93.5781 88.8125 93.2188 87.5 93.2188 85.8125ZM97.3984 89.6562C98.763 89.6562 99.4453 88.7604 99.4453 86.9688C99.4453 85.2396 98.8281 84.375 97.5938 84.375C97.2552 84.375 96.9271 84.4479 96.6094 84.5938C96.2917 84.7396 95.9974 84.9323 95.7266 85.1719C95.4609 85.4115 95.2552 85.6589 95.1094 85.9141C95.1094 87.1432 95.3047 88.0755 95.6953 88.7109C96.0859 89.3411 96.6536 89.6562 97.3984 89.6562ZM108.875 91L108.508 89.7969H108.445C108.029 90.3229 107.609 90.6823 107.188 90.875C106.766 91.0625 106.224 91.1562 105.562 91.1562C104.714 91.1562 104.049 90.9271 103.57 90.4688C103.096 90.0104 102.859 89.362 102.859 88.5234C102.859 87.6328 103.19 86.9609 103.852 86.5078C104.513 86.0547 105.521 85.8073 106.875 85.7656L108.367 85.7188V85.2578C108.367 84.7057 108.237 84.2943 107.977 84.0234C107.721 83.7474 107.323 83.6094 106.781 83.6094C106.339 83.6094 105.914 83.6745 105.508 83.8047C105.102 83.9349 104.711 84.0885 104.336 84.2656L103.742 82.9531C104.211 82.7083 104.724 82.5234 105.281 82.3984C105.839 82.2682 106.365 82.2031 106.859 82.2031C107.958 82.2031 108.786 82.4427 109.344 82.9219C109.906 83.401 110.188 84.1536 110.188 85.1797V91H108.875ZM106.141 89.75C106.807 89.75 107.341 89.5651 107.742 89.1953C108.148 88.8203 108.352 88.2969 108.352 87.625V86.875L107.242 86.9219C106.378 86.9531 105.747 87.099 105.352 87.3594C104.961 87.6146 104.766 88.0078 104.766 88.5391C104.766 88.9245 104.88 89.224 105.109 89.4375C105.339 89.6458 105.682 89.75 106.141 89.75Z" fill="#BDBDBD"/>
<rect x="133" y="61" width="48" height="48" rx="4" stroke="#BDBDBD" stroke-width="2"/>
<path d="M162.543 89.3477C162.543 90.8711 161.992 92.0664 160.891 92.9336C159.789 93.8008 158.27 94.2344 156.332 94.2344C154.395 94.2344 152.809 93.9336 151.574 93.332V90.6836C152.355 91.0508 153.184 91.3398 154.059 91.5508C154.941 91.7617 155.762 91.8672 156.52 91.8672C157.629 91.8672 158.445 91.6562 158.969 91.2344C159.5 90.8125 159.766 90.2461 159.766 89.5352C159.766 88.8945 159.523 88.3516 159.039 87.9062C158.555 87.4609 157.555 86.9336 156.039 86.3242C154.477 85.6914 153.375 84.9688 152.734 84.1562C152.094 83.3438 151.773 82.3672 151.773 81.2266C151.773 79.7969 152.281 78.6719 153.297 77.8516C154.312 77.0312 155.676 76.6211 157.387 76.6211C159.027 76.6211 160.66 76.9805 162.285 77.6992L161.395 79.9844C159.871 79.3438 158.512 79.0234 157.316 79.0234C156.41 79.0234 155.723 79.2227 155.254 79.6211C154.785 80.0117 154.551 80.5312 154.551 81.1797C154.551 81.625 154.645 82.0078 154.832 82.3281C155.02 82.6406 155.328 82.9375 155.758 83.2188C156.188 83.5 156.961 83.8711 158.078 84.332C159.336 84.8555 160.258 85.3438 160.844 85.7969C161.43 86.25 161.859 86.7617 162.133 87.332C162.406 87.9023 162.543 88.5742 162.543 89.3477Z" fill="#BDBDBD"/>
<path d="M202.289 91H200.414V81.1797H195.375V91H193.508V79.5781H202.289V91ZM208.883 91.1562C207.539 91.1562 206.487 90.7656 205.727 89.9844C204.971 89.1979 204.594 88.1172 204.594 86.7422C204.594 85.3307 204.945 84.2214 205.648 83.4141C206.352 82.6068 207.318 82.2031 208.547 82.2031C209.688 82.2031 210.589 82.5495 211.25 83.2422C211.911 83.9349 212.242 84.888 212.242 86.1016V87.0938H206.484C206.51 87.9323 206.737 88.5781 207.164 89.0312C207.591 89.4792 208.193 89.7031 208.969 89.7031C209.479 89.7031 209.953 89.6562 210.391 89.5625C210.833 89.4635 211.307 89.3021 211.812 89.0781V90.5703C211.365 90.7839 210.911 90.9349 210.453 91.0234C209.995 91.112 209.471 91.1562 208.883 91.1562ZM208.547 83.5938C207.964 83.5938 207.495 83.7786 207.141 84.1484C206.792 84.5182 206.583 85.0573 206.516 85.7656H210.438C210.427 85.0521 210.255 84.513 209.922 84.1484C209.589 83.7786 209.13 83.5938 208.547 83.5938ZM217.812 91.1562C216.505 91.1562 215.51 90.776 214.828 90.0156C214.151 89.25 213.812 88.1536 213.812 86.7266C213.812 85.2734 214.167 84.1562 214.875 83.375C215.589 82.5938 216.617 82.2031 217.961 82.2031C218.872 82.2031 219.693 82.3724 220.422 82.7109L219.867 84.1875C219.091 83.8854 218.451 83.7344 217.945 83.7344C216.451 83.7344 215.703 84.7266 215.703 86.7109C215.703 87.6797 215.888 88.4089 216.258 88.8984C216.633 89.3828 217.18 89.625 217.898 89.625C218.716 89.625 219.49 89.4219 220.219 89.0156V90.6172C219.891 90.8099 219.539 90.9479 219.164 91.0312C218.794 91.1146 218.344 91.1562 217.812 91.1562ZM229.914 86.6641C229.914 88.0755 229.552 89.1771 228.828 89.9688C228.104 90.7604 227.096 91.1562 225.805 91.1562C224.997 91.1562 224.284 90.974 223.664 90.6094C223.044 90.2448 222.568 89.7214 222.234 89.0391C221.901 88.3568 221.734 87.5651 221.734 86.6641C221.734 85.263 222.094 84.1693 222.812 83.3828C223.531 82.5964 224.544 82.2031 225.852 82.2031C227.102 82.2031 228.091 82.6068 228.82 83.4141C229.549 84.2161 229.914 85.2995 229.914 86.6641ZM223.625 86.6641C223.625 88.6589 224.362 89.6562 225.836 89.6562C227.294 89.6562 228.023 88.6589 228.023 86.6641C228.023 84.6901 227.289 83.7031 225.82 83.7031C225.049 83.7031 224.49 83.9583 224.141 84.4688C223.797 84.9792 223.625 85.7109 223.625 86.6641ZM237.391 82.3594H239.406L235.836 86.5234L239.711 91H237.602L233.867 86.6172V91H232.031V82.3594H233.867V86.5547L237.391 82.3594Z" fill="#BDBDBD"/>
<rect x="261" y="61" width="148" height="48" rx="4" stroke="#BDBDBD" stroke-width="2"/>
<path d="M313.25 89.3477C313.25 90.8711 312.699 92.0664 311.598 92.9336C310.496 93.8008 308.977 94.2344 307.039 94.2344C305.102 94.2344 303.516 93.9336 302.281 93.332V90.6836C303.062 91.0508 303.891 91.3398 304.766 91.5508C305.648 91.7617 306.469 91.8672 307.227 91.8672C308.336 91.8672 309.152 91.6562 309.676 91.2344C310.207 90.8125 310.473 90.2461 310.473 89.5352C310.473 88.8945 310.23 88.3516 309.746 87.9062C309.262 87.4609 308.262 86.9336 306.746 86.3242C305.184 85.6914 304.082 84.9688 303.441 84.1562C302.801 83.3438 302.48 82.3672 302.48 81.2266C302.48 79.7969 302.988 78.6719 304.004 77.8516C305.02 77.0312 306.383 76.6211 308.094 76.6211C309.734 76.6211 311.367 76.9805 312.992 77.6992L312.102 79.9844C310.578 79.3438 309.219 79.0234 308.023 79.0234C307.117 79.0234 306.43 79.2227 305.961 79.6211C305.492 80.0117 305.258 80.5312 305.258 81.1797C305.258 81.625 305.352 82.0078 305.539 82.3281C305.727 82.6406 306.035 82.9375 306.465 83.2188C306.895 83.5 307.668 83.8711 308.785 84.332C310.043 84.8555 310.965 85.3438 311.551 85.7969C312.137 86.25 312.566 86.7617 312.84 87.332C313.113 87.9023 313.25 88.5742 313.25 89.3477ZM322.848 94.2344C321.207 94.2344 319.934 93.6445 319.027 92.4648H318.863C318.973 93.5586 319.027 94.2227 319.027 94.457V99.7656H316.273V81.0391H318.5C318.562 81.2812 318.691 81.8594 318.887 82.7734H319.027C319.887 81.4609 321.176 80.8047 322.895 80.8047C324.512 80.8047 325.77 81.3906 326.668 82.5625C327.574 83.7344 328.027 85.3789 328.027 87.4961C328.027 89.6133 327.566 91.2656 326.645 92.4531C325.73 93.6406 324.465 94.2344 322.848 94.2344ZM322.18 83.0547C321.086 83.0547 320.285 83.375 319.777 84.0156C319.277 84.6562 319.027 85.6797 319.027 87.0859V87.4961C319.027 89.0742 319.277 90.2188 319.777 90.9297C320.277 91.6328 321.094 91.9844 322.227 91.9844C323.18 91.9844 323.914 91.5938 324.43 90.8125C324.945 90.0312 325.203 88.918 325.203 87.4727C325.203 86.0195 324.945 84.9219 324.43 84.1797C323.922 83.4297 323.172 83.0547 322.18 83.0547ZM339.336 94L338.785 92.1953H338.691C338.066 92.9844 337.438 93.5234 336.805 93.8125C336.172 94.0938 335.359 94.2344 334.367 94.2344C333.094 94.2344 332.098 93.8906 331.379 93.2031C330.668 92.5156 330.312 91.543 330.312 90.2852C330.312 88.9492 330.809 87.9414 331.801 87.2617C332.793 86.582 334.305 86.2109 336.336 86.1484L338.574 86.0781V85.3867C338.574 84.5586 338.379 83.9414 337.988 83.5352C337.605 83.1211 337.008 82.9141 336.195 82.9141C335.531 82.9141 334.895 83.0117 334.285 83.207C333.676 83.4023 333.09 83.6328 332.527 83.8984L331.637 81.9297C332.34 81.5625 333.109 81.2852 333.945 81.0977C334.781 80.9023 335.57 80.8047 336.312 80.8047C337.961 80.8047 339.203 81.1641 340.039 81.8828C340.883 82.6016 341.305 83.7305 341.305 85.2695V94H339.336ZM335.234 92.125C336.234 92.125 337.035 91.8477 337.637 91.293C338.246 90.7305 338.551 89.9453 338.551 88.9375V87.8125L336.887 87.8828C335.59 87.9297 334.645 88.1484 334.051 88.5391C333.465 88.9219 333.172 89.5117 333.172 90.3086C333.172 90.8867 333.344 91.3359 333.688 91.6562C334.031 91.9688 334.547 92.125 335.234 92.125ZM350.375 94.2344C348.414 94.2344 346.922 93.6641 345.898 92.5234C344.883 91.375 344.375 89.7305 344.375 87.5898C344.375 85.4102 344.906 83.7344 345.969 82.5625C347.039 81.3906 348.582 80.8047 350.598 80.8047C351.965 80.8047 353.195 81.0586 354.289 81.5664L353.457 83.7812C352.293 83.3281 351.332 83.1016 350.574 83.1016C348.332 83.1016 347.211 84.5898 347.211 87.5664C347.211 89.0195 347.488 90.1133 348.043 90.8477C348.605 91.5742 349.426 91.9375 350.504 91.9375C351.73 91.9375 352.891 91.6328 353.984 91.0234V93.4258C353.492 93.7148 352.965 93.9219 352.402 94.0469C351.848 94.1719 351.172 94.2344 350.375 94.2344ZM362.691 94.2344C360.676 94.2344 359.098 93.6484 357.957 92.4766C356.824 91.2969 356.258 89.6758 356.258 87.6133C356.258 85.4961 356.785 83.832 357.84 82.6211C358.895 81.4102 360.344 80.8047 362.188 80.8047C363.898 80.8047 365.25 81.3242 366.242 82.3633C367.234 83.4023 367.73 84.832 367.73 86.6523V88.1406H359.094C359.133 89.3984 359.473 90.3672 360.113 91.0469C360.754 91.7188 361.656 92.0547 362.82 92.0547C363.586 92.0547 364.297 91.9844 364.953 91.8438C365.617 91.6953 366.328 91.4531 367.086 91.1172V93.3555C366.414 93.6758 365.734 93.9023 365.047 94.0352C364.359 94.168 363.574 94.2344 362.691 94.2344ZM362.188 82.8906C361.312 82.8906 360.609 83.168 360.078 83.7227C359.555 84.2773 359.242 85.0859 359.141 86.1484H365.023C365.008 85.0781 364.75 84.2695 364.25 83.7227C363.75 83.168 363.062 82.8906 362.188 82.8906Z" fill="#BDBDBD"/>
<path d="M430.273 91H428.078L423.375 85.2109V91H421.508V79.5781H423.375V85.1094L428 79.5781H430.047L425.438 85.0938L430.273 91ZM435.977 91.1562C434.883 91.1562 434.034 90.763 433.43 89.9766H433.32C433.393 90.7057 433.43 91.1484 433.43 91.3047V94.8438H431.594V82.3594H433.078C433.12 82.5208 433.206 82.9062 433.336 83.5156H433.43C434.003 82.6406 434.862 82.2031 436.008 82.2031C437.086 82.2031 437.924 82.5938 438.523 83.375C439.128 84.1562 439.43 85.2526 439.43 86.6641C439.43 88.0755 439.122 89.1771 438.508 89.9688C437.898 90.7604 437.055 91.1562 435.977 91.1562ZM435.531 83.7031C434.802 83.7031 434.268 83.9167 433.93 84.3438C433.596 84.7708 433.43 85.4531 433.43 86.3906V86.6641C433.43 87.7161 433.596 88.4792 433.93 88.9531C434.263 89.4219 434.807 89.6562 435.562 89.6562C436.198 89.6562 436.688 89.3958 437.031 88.875C437.375 88.3542 437.547 87.612 437.547 86.6484C437.547 85.6797 437.375 84.9479 437.031 84.4531C436.693 83.9531 436.193 83.7031 435.531 83.7031ZM440.25 82.3594H442.25L444.008 87.2578C444.273 87.9557 444.451 88.612 444.539 89.2266H444.602C444.648 88.9401 444.734 88.5938 444.859 88.1875C444.984 87.776 445.646 85.8333 446.844 82.3594H448.828L445.133 92.1484C444.461 93.9453 443.341 94.8438 441.773 94.8438C441.367 94.8438 440.971 94.7995 440.586 94.7109V93.2578C440.862 93.3203 441.177 93.3516 441.531 93.3516C442.417 93.3516 443.039 92.8385 443.398 91.8125L443.719 91L440.25 82.3594ZM455.727 82.3594V83.7969H451.977V91H450.141V82.3594H455.727Z" fill="#BDBDBD"/>
<path d="M733.289 91H731.414V81.1797H726.375V91H724.508V79.5781H733.289V91ZM739.883 91.1562C738.539 91.1562 737.487 90.7656 736.727 89.9844C735.971 89.1979 735.594 88.1172 735.594 86.7422C735.594 85.3307 735.945 84.2214 736.648 83.4141C737.352 82.6068 738.318 82.2031 739.547 82.2031C740.688 82.2031 741.589 82.5495 742.25 83.2422C742.911 83.9349 743.242 84.888 743.242 86.1016V87.0938H737.484C737.51 87.9323 737.737 88.5781 738.164 89.0312C738.591 89.4792 739.193 89.7031 739.969 89.7031C740.479 89.7031 740.953 89.6562 741.391 89.5625C741.833 89.4635 742.307 89.3021 742.812 89.0781V90.5703C742.365 90.7839 741.911 90.9349 741.453 91.0234C740.995 91.112 740.471 91.1562 739.883 91.1562ZM739.547 83.5938C738.964 83.5938 738.495 83.7786 738.141 84.1484C737.792 84.5182 737.583 85.0573 737.516 85.7656H741.438C741.427 85.0521 741.255 84.513 740.922 84.1484C740.589 83.7786 740.13 83.5938 739.547 83.5938ZM749.711 91.1562C748.617 91.1562 747.768 90.763 747.164 89.9766H747.055C747.128 90.7057 747.164 91.1484 747.164 91.3047V94.8438H745.328V82.3594H746.812C746.854 82.5208 746.94 82.9062 747.07 83.5156H747.164C747.737 82.6406 748.596 82.2031 749.742 82.2031C750.82 82.2031 751.659 82.5938 752.258 83.375C752.862 84.1562 753.164 85.2526 753.164 86.6641C753.164 88.0755 752.857 89.1771 752.242 89.9688C751.633 90.7604 750.789 91.1562 749.711 91.1562ZM749.266 83.7031C748.536 83.7031 748.003 83.9167 747.664 84.3438C747.331 84.7708 747.164 85.4531 747.164 86.3906V86.6641C747.164 87.7161 747.331 88.4792 747.664 88.9531C747.997 89.4219 748.542 89.6562 749.297 89.6562C749.932 89.6562 750.422 89.3958 750.766 88.875C751.109 88.3542 751.281 87.612 751.281 86.6484C751.281 85.6797 751.109 84.9479 750.766 84.4531C750.427 83.9531 749.927 83.7031 749.266 83.7031ZM759.07 91.1562C757.727 91.1562 756.674 90.7656 755.914 89.9844C755.159 89.1979 754.781 88.1172 754.781 86.7422C754.781 85.3307 755.133 84.2214 755.836 83.4141C756.539 82.6068 757.505 82.2031 758.734 82.2031C759.875 82.2031 760.776 82.5495 761.438 83.2422C762.099 83.9349 762.43 84.888 762.43 86.1016V87.0938H756.672C756.698 87.9323 756.924 88.5781 757.352 89.0312C757.779 89.4792 758.38 89.7031 759.156 89.7031C759.667 89.7031 760.141 89.6562 760.578 89.5625C761.021 89.4635 761.495 89.3021 762 89.0781V90.5703C761.552 90.7839 761.099 90.9349 760.641 91.0234C760.182 91.112 759.659 91.1562 759.07 91.1562ZM758.734 83.5938C758.151 83.5938 757.682 83.7786 757.328 84.1484C756.979 84.5182 756.771 85.0573 756.703 85.7656H760.625C760.615 85.0521 760.443 84.513 760.109 84.1484C759.776 83.7786 759.318 83.5938 758.734 83.5938ZM769.477 89.2422L769.578 88.8672C769.792 88.0911 769.977 87.4948 770.133 87.0781L772.07 82.3594H774.516V91H772.82V84.0234L772.68 84.4922C772.445 85.3307 772.247 85.9479 772.086 86.3438L770.195 91H768.805L766.914 86.3125C766.654 85.6354 766.414 84.8724 766.195 84.0234V91H764.516V82.3594H766.945L768.82 86.9375C768.987 87.3594 769.206 88.1276 769.477 89.2422ZM780.914 91.1562C779.57 91.1562 778.518 90.7656 777.758 89.9844C777.003 89.1979 776.625 88.1172 776.625 86.7422C776.625 85.3307 776.977 84.2214 777.68 83.4141C778.383 82.6068 779.349 82.2031 780.578 82.2031C781.719 82.2031 782.62 82.5495 783.281 83.2422C783.943 83.9349 784.273 84.888 784.273 86.1016V87.0938H778.516C778.542 87.9323 778.768 88.5781 779.195 89.0312C779.622 89.4792 780.224 89.7031 781 89.7031C781.51 89.7031 781.984 89.6562 782.422 89.5625C782.865 89.4635 783.339 89.3021 783.844 89.0781V90.5703C783.396 90.7839 782.943 90.9349 782.484 91.0234C782.026 91.112 781.503 91.1562 780.914 91.1562ZM780.578 83.5938C779.995 83.5938 779.526 83.7786 779.172 84.1484C778.823 84.5182 778.615 85.0573 778.547 85.7656H782.469C782.458 85.0521 782.286 84.513 781.953 84.1484C781.62 83.7786 781.161 83.5938 780.578 83.5938ZM798.602 89.5781H799.844V94.0391H798.117V91H786.359V82.3594H788.195V89.5469H791.562V82.3594H793.398V89.5469H796.758V82.3594H798.602V89.5781ZM805.195 91.1562C803.852 91.1562 802.799 90.7656 802.039 89.9844C801.284 89.1979 800.906 88.1172 800.906 86.7422C800.906 85.3307 801.258 84.2214 801.961 83.4141C802.664 82.6068 803.63 82.2031 804.859 82.2031C806 82.2031 806.901 82.5495 807.562 83.2422C808.224 83.9349 808.555 84.888 808.555 86.1016V87.0938H802.797C802.823 87.9323 803.049 88.5781 803.477 89.0312C803.904 89.4792 804.505 89.7031 805.281 89.7031C805.792 89.7031 806.266 89.6562 806.703 89.5625C807.146 89.4635 807.62 89.3021 808.125 89.0781V90.5703C807.677 90.7839 807.224 90.9349 806.766 91.0234C806.307 91.112 805.784 91.1562 805.195 91.1562ZM804.859 83.5938C804.276 83.5938 803.807 83.7786 803.453 84.1484C803.104 84.5182 802.896 85.0573 802.828 85.7656H806.75C806.74 85.0521 806.568 84.513 806.234 84.1484C805.901 83.7786 805.443 83.5938 804.859 83.5938ZM812.477 82.3594V85.8281H816.547V82.3594H818.383V91H816.547V87.2734H812.477V91H810.641V82.3594H812.477ZM822.773 82.3594V86.7891C822.773 87.3047 822.732 88.0625 822.648 89.0625L826.984 82.3594H829.227V91H827.461V86.6484C827.461 86.4089 827.474 86.0208 827.5 85.4844C827.531 84.9479 827.557 84.5573 827.578 84.3125L823.258 91H821.016V82.3594H822.773ZM835.617 91.1562C834.273 91.1562 833.221 90.7656 832.461 89.9844C831.706 89.1979 831.328 88.1172 831.328 86.7422C831.328 85.3307 831.68 84.2214 832.383 83.4141C833.086 82.6068 834.052 82.2031 835.281 82.2031C836.422 82.2031 837.323 82.5495 837.984 83.2422C838.646 83.9349 838.977 84.888 838.977 86.1016V87.0938H833.219C833.245 87.9323 833.471 88.5781 833.898 89.0312C834.326 89.4792 834.927 89.7031 835.703 89.7031C836.214 89.7031 836.688 89.6562 837.125 89.5625C837.568 89.4635 838.042 89.3021 838.547 89.0781V90.5703C838.099 90.7839 837.646 90.9349 837.188 91.0234C836.729 91.112 836.206 91.1562 835.617 91.1562ZM835.281 83.5938C834.698 83.5938 834.229 83.7786 833.875 84.1484C833.526 84.5182 833.318 85.0573 833.25 85.7656H837.172C837.161 85.0521 836.99 84.513 836.656 84.1484C836.323 83.7786 835.865 83.5938 835.281 83.5938Z" fill="#BDBDBD"/>
<rect x="604" y="1" width="48" height="48" rx="4" stroke="#BDBDBD" stroke-width="2"/>
<line x1="628.111" y1="16.1111" x2="628.111" y2="35" stroke="#BDBDBD" stroke-width="2"/>
<line x1="628.929" y1="15.7071" x2="621.707" y2="22.9293" stroke="#BDBDBD" stroke-width="2"/>
<line x1="634.737" y1="22.9295" x2="627.515" y2="15.7073" stroke="#BDBDBD" stroke-width="2"/>
<rect x="604" y="61" width="48" height="48" rx="4" stroke="#BDBDBD" stroke-width="2"/>
<line x1="628.333" y1="93.8889" x2="628.333" y2="75" stroke="#BDBDBD" stroke-width="2"/>
<line x1="627.515" y1="94.2929" x2="634.737" y2="87.0707" stroke="#BDBDBD" stroke-width="2"/>
<line x1="621.707" y1="87.0705" x2="628.929" y2="94.2927" stroke="#BDBDBD" stroke-width="2"/>
<rect x="544" y="61" width="48" height="48" rx="4" stroke="#BDBDBD" stroke-width="2"/>
<line x1="559.111" y1="84.8889" x2="578" y2="84.8889" stroke="#BDBDBD" stroke-width="2"/>
<line x1="558.707" y1="84.0707" x2="565.929" y2="91.2929" stroke="#BDBDBD" stroke-width="2"/>
<line x1="565.929" y1="78.2628" x2="558.707" y2="85.485" stroke="#BDBDBD" stroke-width="2"/>
<rect x="664" y="61" width="48" height="48" rx="4" stroke="#BDBDBD" stroke-width="2"/>
<line x1="696.889" y1="85.1111" x2="678" y2="85.1111" stroke="#BDBDBD" stroke-width="2"/>
<line x1="697.293" y1="85.9293" x2="690.071" y2="78.7071" stroke="#BDBDBD" stroke-width="2"/>
<line x1="690.071" y1="91.7372" x2="697.293" y2="84.515" stroke="#BDBDBD" stroke-width="2"/>
</svg>
