<svg width="100" height="100" fill="none" xmlns="http://www.w3.org/2000/svg"><path fill="url(#paint0_radial)" d="M0 0h100v100H0z"/><path d="M16.667 0L0 18.182V25L16.667 6.818 33.333 25 50 6.818 66.667 25 83.333 6.818 100 25v-6.818L83.333 0 66.667 18.182 50 0 33.333 18.182 16.667 0zM16.667 25L0 43.182V50l16.667-18.182L33.333 50 50 31.818 66.667 50l16.666-18.182L100 50v-6.818L83.333 25 66.667 43.182 50 25 33.333 43.182 16.667 25zM16.667 50L0 68.182V75l16.667-18.182L33.333 75 50 56.818 66.667 75l16.666-18.182L100 75v-6.818L83.333 50 66.667 68.182 50 50 33.333 68.182 16.667 50zM16.667 75L0 93.182V100l16.667-18.182L33.333 100 50 81.818 66.667 100l16.666-18.182L100 100v-6.818L83.333 75 66.667 93.182 50 75 33.333 93.182 16.667 75z" fill="#EFA00B" fill-opacity=".1"/><defs><radialGradient id="paint0_radial" cx="0" cy="0" r="1" gradientUnits="userSpaceOnUse" gradientTransform="rotate(135 85.709 5.92) scale(212.839)"><stop stop-color="#FED766"/><stop offset="1" stop-color="#FFFD98"/></radialGradient></defs></svg>