<svg width="100" height="100" viewBox="0 0 100 100" fill="none" xmlns="http://www.w3.org/2000/svg">
<rect width="100" height="100" fill="url(#paint0_radial)"/>
<path d="M16.6667 0L0 18.1818V25L16.6667 6.81818L33.3333 25L50 6.81818L66.6667 25L83.3333 6.81818L100 25V18.1818L83.3333 0L66.6667 18.1818L50 0L33.3333 18.1818L16.6667 0Z" fill="#EFA00B" fill-opacity="0.1"/>
<path d="M16.6667 25L0 43.1818V50L16.6667 31.8182L33.3333 50L50 31.8182L66.6667 50L83.3333 31.8182L100 50V43.1818L83.3333 25L66.6667 43.1818L50 25L33.3333 43.1818L16.6667 25Z" fill="#EFA00B" fill-opacity="0.1"/>
<path d="M16.6667 50L0 68.1818V75L16.6667 56.8182L33.3333 75L50 56.8182L66.6667 75L83.3333 56.8182L100 75V68.1818L83.3333 50L66.6667 68.1818L50 50L33.3333 68.1818L16.6667 50Z" fill="#EFA00B" fill-opacity="0.1"/>
<path d="M16.6667 75L0 93.1818V100L16.6667 81.8182L33.3333 100L50 81.8182L66.6667 100L83.3333 81.8182L100 100V93.1818L83.3333 75L66.6667 93.1818L50 75L33.3333 93.1818L16.6667 75Z" fill="#EFA00B" fill-opacity="0.1"/>
<defs>
<radialGradient id="paint0_radial" cx="0" cy="0" r="1" gradientUnits="userSpaceOnUse" gradientTransform="translate(150.5 -50.5) rotate(135) scale(212.839)">
<stop stop-color="#FED766"/>
<stop offset="1" stop-color="#FFFD98"/>
</radialGradient>
</defs>
</svg>
