<svg width="100" height="100" fill="none" xmlns="http://www.w3.org/2000/svg"><path fill="url(#paint0_radial)" d="M0 0h100v100H0z"/><path fill-rule="evenodd" clip-rule="evenodd" d="M26.213 30.728c-4.687-4.686-12.284-4.686-16.97 0L5 26.485c7.03-7.03 18.426-7.03 25.456 0L38.94 18l-8.485 8.485c4.686 4.686 12.284 4.686 16.97 0l4.242 4.243c-7.029 7.03-18.426 7.03-25.455 0l-8.485 8.485 8.485-8.485zm42.427 0l4.243-4.243c4.686 4.686 12.284 4.686 16.97 0L81.368 18l12.728 12.728c-7.03 7.03-18.426 7.03-25.456 0zm4.242-4.243c-7.03-7.03-18.426-7.03-25.456 0l12.728 12.728-8.484-8.485c4.686-4.686 12.283-4.686 16.97 0l4.242-4.243zM26.213 51.728c-4.687-4.686-12.284-4.686-16.97 0L5 47.485c7.03-7.03 18.426-7.03 25.456 0L38.94 39l-8.485 8.485c4.686 4.686 12.284 4.686 16.97 0l4.242 4.243c-7.029 7.03-18.426 7.03-25.455 0l-8.485 8.485 8.485-8.485zm42.427 0l4.243-4.243c4.686 4.686 12.284 4.686 16.97 0L81.368 39l12.728 12.728c-7.03 7.03-18.426 7.03-25.456 0zm4.242-4.243c-7.03-7.03-18.426-7.03-25.456 0l12.728 12.728-8.484-8.485c4.686-4.686 12.283-4.686 16.97 0l4.242-4.243zM26.213 72.728c-4.687-4.686-12.284-4.686-16.97 0L5 68.485c7.03-7.03 18.426-7.03 25.456 0L38.94 60l-8.485 8.485c4.686 4.686 12.284 4.686 16.97 0l4.242 4.243c-7.029 7.03-18.426 7.03-25.455 0l-8.485 8.485 8.485-8.485zm42.427 0l4.243-4.243c4.686 4.686 12.284 4.686 16.97 0L81.368 60l12.728 12.728c-7.03 7.03-18.426 7.03-25.456 0zm4.242-4.243c-7.03-7.03-18.426-7.03-25.456 0l12.728 12.728-8.484-8.485c4.686-4.686 12.283-4.686 16.97 0l4.242-4.243z" fill="#E8FEFB"/><defs><radialGradient id="paint0_radial" cx="0" cy="0" r="1" gradientUnits="userSpaceOnUse" gradientTransform="rotate(90 25 25) scale(302.5)"><stop stop-color="#EBFFFC"/><stop offset="1" stop-color="#81D2C7"/></radialGradient></defs></svg>