<svg width="1087" height="126" viewBox="0 0 1087 126" fill="none" xmlns="http://www.w3.org/2000/svg">
<path d="M3.81671 40.88C3.81671 30.2 6.93671 21.62 13.1767 15.14C19.4167 8.65999 27.9367 5.41999 38.7367 5.41999C49.6567 5.41999 60.8167 6.49999 72.2167 8.65999L68.6167 37.46C56.7367 34.7 48.5767 33.32 44.1367 33.32C38.4967 33.32 35.6767 35.6 35.6767 40.16C35.6767 41.96 36.9967 43.7 39.6367 45.38C42.3967 47.06 45.6967 48.86 49.5367 50.78C53.3767 52.58 57.2167 54.8 61.0567 57.44C64.8967 59.96 68.1367 63.62 70.7767 68.42C73.5367 73.22 74.9167 78.74 74.9167 84.98C74.9167 96.38 71.8567 105.2 65.7367 111.44C59.6167 117.68 50.9167 120.8 39.6367 120.8C28.4767 120.8 17.5567 119.06 6.87671 115.58L8.85671 88.76C21.6967 92.48 30.6367 94.34 35.6767 94.34C40.7167 94.34 43.2367 92.12 43.2367 87.68C43.2367 85.4 41.8567 83.3 39.0967 81.38C36.4567 79.46 33.2167 77.54 29.3767 75.62C25.5367 73.7 21.6367 71.48 17.6767 68.96C13.8367 66.44 10.5367 62.78 7.77671 57.98C5.13671 53.18 3.81671 47.48 3.81671 40.88ZM189.353 119H159.293L155.873 101.36H134.633L131.213 119H102.593L123.113 7.21999H168.833L189.353 119ZM152.453 80.3L146.153 40.34H144.893L138.593 80.3H152.453ZM305.282 60.68C305.282 99.56 289.922 119 259.202 119H222.122V7.21999H259.922C276.362 7.21999 288.002 11.84 294.842 21.08C301.802 30.2 305.282 43.4 305.282 60.68ZM258.662 93.08C265.022 93.08 269.102 90.86 270.902 86.42C272.822 81.86 273.782 74.3 273.782 63.74C273.782 53.06 272.762 45.5 270.722 41.06C268.802 36.62 264.602 34.4 258.122 34.4H252.722V93.08H258.662ZM433.861 119H403.261V7.21999H433.861V119ZM469.918 40.88C469.918 30.2 473.038 21.62 479.278 15.14C485.518 8.65999 494.038 5.41999 504.838 5.41999C515.758 5.41999 526.918 6.49999 538.318 8.65999L534.718 37.46C522.838 34.7 514.678 33.32 510.238 33.32C504.598 33.32 501.778 35.6 501.778 40.16C501.778 41.96 503.098 43.7 505.738 45.38C508.498 47.06 511.798 48.86 515.638 50.78C519.478 52.58 523.318 54.8 527.158 57.44C530.998 59.96 534.238 63.62 536.878 68.42C539.638 73.22 541.018 78.74 541.018 84.98C541.018 96.38 537.958 105.2 531.838 111.44C525.718 117.68 517.018 120.8 505.738 120.8C494.578 120.8 483.658 119.06 472.978 115.58L474.958 88.76C487.798 92.48 496.738 94.34 501.778 94.34C506.818 94.34 509.338 92.12 509.338 87.68C509.338 85.4 507.958 83.3 505.198 81.38C502.558 79.46 499.318 77.54 495.478 75.62C491.638 73.7 487.738 71.48 483.778 68.96C479.938 66.44 476.638 62.78 473.878 57.98C471.238 53.18 469.918 47.48 469.918 40.88ZM632.055 119H575.175V7.21999H605.955V93.98H633.855L632.055 119ZM744.07 119H714.01L710.59 101.36H689.35L685.93 119H657.31L677.83 7.21999H723.55L744.07 119ZM707.17 80.3L700.87 40.34H699.61L693.31 80.3H707.17ZM858.378 119H828.858L805.638 66.98H804.198V119H776.838V7.21999H807.258L829.398 60.86H830.838V7.21999H858.378V119ZM980.781 60.68C980.781 99.56 965.421 119 934.701 119H897.621V7.21999H935.421C951.861 7.21999 963.501 11.84 970.341 21.08C977.301 30.2 980.781 43.4 980.781 60.68ZM934.161 93.08C940.521 93.08 944.601 90.86 946.401 86.42C948.321 81.86 949.281 74.3 949.281 63.74C949.281 53.06 948.261 45.5 946.221 41.06C944.301 36.62 940.101 34.4 933.621 34.4H928.221V93.08H934.161ZM1010.73 40.88C1010.73 30.2 1013.85 21.62 1020.09 15.14C1026.33 8.65999 1034.85 5.41999 1045.65 5.41999C1056.57 5.41999 1067.73 6.49999 1079.13 8.65999L1075.53 37.46C1063.65 34.7 1055.49 33.32 1051.05 33.32C1045.41 33.32 1042.59 35.6 1042.59 40.16C1042.59 41.96 1043.91 43.7 1046.55 45.38C1049.31 47.06 1052.61 48.86 1056.45 50.78C1060.29 52.58 1064.13 54.8 1067.97 57.44C1071.81 59.96 1075.05 63.62 1077.69 68.42C1080.45 73.22 1081.83 78.74 1081.83 84.98C1081.83 96.38 1078.77 105.2 1072.65 111.44C1066.53 117.68 1057.83 120.8 1046.55 120.8C1035.39 120.8 1024.47 119.06 1013.79 115.58L1015.77 88.76C1028.61 92.48 1037.55 94.34 1042.59 94.34C1047.63 94.34 1050.15 92.12 1050.15 87.68C1050.15 85.4 1048.77 83.3 1046.01 81.38C1043.37 79.46 1040.13 77.54 1036.29 75.62C1032.45 73.7 1028.55 71.48 1024.59 68.96C1020.75 66.44 1017.45 62.78 1014.69 57.98C1012.05 53.18 1010.73 47.48 1010.73 40.88Z" fill="#0097A7"/>
<path d="M13.1767 15.14L16.7783 18.6082L16.7783 18.6082L13.1767 15.14ZM72.2167 8.65999L77.1781 9.28017L77.7604 4.62143L73.1475 3.7474L72.2167 8.65999ZM68.6167 37.46L67.4852 42.3303L72.8899 43.5859L73.5781 38.0802L68.6167 37.46ZM39.6367 45.38L36.9523 49.5983L36.9944 49.6251L37.037 49.651L39.6367 45.38ZM49.5367 50.78L47.3006 55.2521L47.3572 55.2804L47.4145 55.3073L49.5367 50.78ZM61.0567 57.44L58.2241 61.5602L58.2684 61.5907L58.3134 61.6202L61.0567 57.44ZM70.7767 68.42L66.3956 70.8296L66.4185 70.8712L66.4422 70.9124L70.7767 68.42ZM65.7367 111.44L62.167 107.939L62.167 107.939L65.7367 111.44ZM6.87671 115.58L1.89028 115.212L1.60176 119.12L5.32765 120.334L6.87671 115.58ZM8.85671 88.76L10.2481 83.9575L4.32435 82.2413L3.87028 88.3919L8.85671 88.76ZM39.0967 81.38L36.1558 85.4237L36.1983 85.4546L36.2414 85.4845L39.0967 81.38ZM29.3767 75.62L31.6128 71.1479L31.6128 71.1479L29.3767 75.62ZM17.6767 68.96L14.9334 73.1402L14.9627 73.1595L14.9923 73.1783L17.6767 68.96ZM7.77671 57.98L3.39563 60.3896L3.41851 60.4312L3.44218 60.4724L7.77671 57.98ZM8.81671 40.88C8.81671 31.2349 11.6001 23.9856 16.7783 18.6082L9.57511 11.6718C2.27333 19.2544 -1.18329 29.1651 -1.18329 40.88H8.81671ZM16.7783 18.6082C21.89 13.2999 29.0022 10.42 38.7367 10.42V0.419992C26.8713 0.419992 16.9434 4.02012 9.57511 11.6718L16.7783 18.6082ZM38.7367 10.42C49.3256 10.42 60.1737 11.4671 71.2859 13.5726L73.1475 3.7474C61.4597 1.53286 49.9878 0.419992 38.7367 0.419992V10.42ZM67.2553 8.03982L63.6553 36.8398L73.5781 38.0802L77.1781 9.28017L67.2553 8.03982ZM69.7482 32.5897C57.9273 29.8434 49.2323 28.32 44.1367 28.32V38.32C47.9211 38.32 55.5461 39.5566 67.4852 42.3303L69.7482 32.5897ZM44.1367 28.32C40.7732 28.32 37.3235 28.9787 34.6481 31.1418C31.7694 33.4693 30.6767 36.7947 30.6767 40.16H40.6767C40.6767 39.5263 40.7754 39.2009 40.828 39.0733C40.868 38.9763 40.895 38.9507 40.9353 38.9181C41.0799 38.8013 41.8603 38.32 44.1367 38.32V28.32ZM30.6767 40.16C30.6767 44.6338 33.9356 47.6786 36.9523 49.5983L42.3211 41.1617C41.3032 40.5139 40.8326 40.0335 40.6502 39.7931C40.5053 39.6021 40.6767 39.7518 40.6767 40.16H30.6767ZM37.037 49.651C39.9465 51.422 43.3742 53.2889 47.3006 55.2521L51.7728 46.3079C48.0192 44.4311 44.847 42.698 42.2364 41.109L37.037 49.651ZM47.4145 55.3073C50.9841 56.9805 54.5875 59.0601 58.2241 61.5602L63.8894 53.3198C59.8459 50.5399 55.7693 48.1795 51.6589 46.2527L47.4145 55.3073ZM58.3134 61.6202C61.3513 63.6138 64.0734 66.6074 66.3956 70.8296L75.1578 66.0104C72.2 60.6326 68.4421 56.3062 63.8 53.2598L58.3134 61.6202ZM66.4422 70.9124C68.713 74.8616 69.9167 79.5014 69.9167 84.98H79.9167C79.9167 77.9786 78.3604 71.5784 75.1112 65.9276L66.4422 70.9124ZM69.9167 84.98C69.9167 95.4843 67.1165 102.892 62.167 107.939L69.3064 114.941C76.5969 107.508 79.9167 97.2757 79.9167 84.98H69.9167ZM62.167 107.939C57.2396 112.963 49.9828 115.8 39.6367 115.8V125.8C51.8506 125.8 61.9938 122.397 69.3064 114.941L62.167 107.939ZM39.6367 115.8C29.0063 115.8 18.6089 114.144 8.42576 110.826L5.32765 120.334C16.5045 123.976 27.9472 125.8 39.6367 125.8V115.8ZM11.8631 115.948L13.8431 89.1281L3.87028 88.3919L1.89028 115.212L11.8631 115.948ZM7.46533 93.5625C20.2494 97.2663 29.8319 99.34 35.6767 99.34V89.34C31.4415 89.34 23.144 87.6937 10.2481 83.9575L7.46533 93.5625ZM35.6767 99.34C38.8226 99.34 42.1159 98.6609 44.6519 96.4268C47.3088 94.0862 48.2367 90.8468 48.2367 87.68H38.2367C38.2367 88.3292 38.1433 88.6776 38.0878 88.8243C38.0614 88.8941 38.0425 88.9217 38.041 88.9238C38.0404 88.9248 38.0427 88.9222 38.0416 88.9232C38.0394 88.9251 38.0138 88.9477 37.947 88.983C37.8783 89.0193 37.7601 89.0721 37.5754 89.1263C37.1948 89.2381 36.5858 89.34 35.6767 89.34V99.34ZM48.2367 87.68C48.2367 83.085 45.381 79.6608 41.952 77.2755L36.2414 85.4845C37.2645 86.1963 37.7801 86.771 38.0232 87.1409C38.2342 87.4619 38.2367 87.6145 38.2367 87.68H48.2367ZM42.0376 77.3363C39.118 75.213 35.6271 73.155 31.6128 71.1479L27.1406 80.0921C30.8063 81.925 33.7954 83.707 36.1558 85.4237L42.0376 77.3363ZM31.6128 71.1479C27.9399 69.3114 24.1893 67.1779 20.3611 64.7417L14.9923 73.1783C19.0841 75.7821 23.1335 78.0886 27.1406 80.0921L31.6128 71.1479ZM20.42 64.7798C17.3568 62.7695 14.5599 59.7462 12.1112 55.4876L3.44218 60.4724C6.51351 65.8138 10.3167 70.1105 14.9334 73.1402L20.42 64.7798ZM12.1578 55.5704C9.99925 51.6458 8.81671 46.8093 8.81671 40.88H-1.18329C-1.18329 48.1507 0.274159 54.7142 3.39563 60.3896L12.1578 55.5704ZM189.353 119V124H195.355L194.271 118.097L189.353 119ZM159.293 119L154.385 119.952L155.169 124H159.293V119ZM155.873 101.36L160.782 100.408L159.997 96.36H155.873V101.36ZM134.633 101.36V96.36H130.509L129.725 100.408L134.633 101.36ZM131.213 119V124H135.337L136.122 119.952L131.213 119ZM102.593 119L97.6753 118.097L96.5917 124H102.593V119ZM123.113 7.21999V2.21999H118.947L118.195 6.3172L123.113 7.21999ZM168.833 7.21999L173.751 6.3172L172.999 2.21999H168.833V7.21999ZM152.453 80.3V85.3H158.303L157.392 79.5213L152.453 80.3ZM146.153 40.34L151.092 39.5613L150.427 35.34H146.153V40.34ZM144.893 40.34V35.34H140.62L139.954 39.5613L144.893 40.34ZM138.593 80.3L133.654 79.5213L132.743 85.3H138.593V80.3ZM189.353 114H159.293V124H189.353V114ZM164.202 118.048L160.782 100.408L150.965 102.312L154.385 119.952L164.202 118.048ZM155.873 96.36H134.633V106.36H155.873V96.36ZM129.725 100.408L126.305 118.048L136.122 119.952L139.542 102.312L129.725 100.408ZM131.213 114H102.593V124H131.213V114ZM107.511 119.903L128.031 8.12278L118.195 6.3172L97.6753 118.097L107.511 119.903ZM123.113 12.22H168.833V2.21999H123.113V12.22ZM163.915 8.12278L184.435 119.903L194.271 118.097L173.751 6.3172L163.915 8.12278ZM157.392 79.5213L151.092 39.5613L141.214 41.1187L147.514 81.0787L157.392 79.5213ZM146.153 35.34H144.893V45.34H146.153V35.34ZM139.954 39.5613L133.654 79.5213L143.532 81.0787L149.832 41.1187L139.954 39.5613ZM138.593 85.3H152.453V75.3H138.593V85.3ZM222.122 119H217.122V124H222.122V119ZM222.122 7.21999V2.21999H217.122V7.21999H222.122ZM294.842 21.08L290.823 24.0549L290.845 24.0843L290.867 24.1134L294.842 21.08ZM270.902 86.42L266.293 84.4797L266.28 84.5105L266.268 84.5415L270.902 86.42ZM270.722 41.06L266.132 43.0446L266.155 43.0963L266.178 43.1475L270.722 41.06ZM252.722 34.4V29.4H247.722V34.4H252.722ZM252.722 93.08H247.722V98.08H252.722V93.08ZM300.282 60.68C300.282 79.5965 296.522 92.8609 289.838 101.32C283.332 109.555 273.436 114 259.202 114V124C275.687 124 288.831 118.725 297.685 107.52C306.361 96.5391 310.282 80.6435 310.282 60.68H300.282ZM259.202 114H222.122V124H259.202V114ZM227.122 119V7.21999H217.122V119H227.122ZM222.122 12.22H259.922V2.21999H222.122V12.22ZM259.922 12.22C275.498 12.22 285.285 16.5746 290.823 24.0549L298.86 18.1051C290.718 7.10543 277.225 2.21999 259.922 2.21999V12.22ZM290.867 24.1134C296.9 32.0194 300.282 43.9685 300.282 60.68H310.282C310.282 42.8315 306.703 28.3806 298.816 18.0466L290.867 24.1134ZM258.662 98.08C262.383 98.08 265.887 97.4361 268.881 95.8069C271.972 94.1254 274.215 91.5541 275.535 88.2985L266.268 84.5415C265.788 85.7259 265.091 86.4846 264.102 87.0231C263.016 87.6139 261.301 88.08 258.662 88.08V98.08ZM275.51 88.3603C277.846 82.8118 278.782 74.3811 278.782 63.74H268.782C268.782 74.2189 267.797 80.9082 266.293 84.4797L275.51 88.3603ZM278.782 63.74C278.782 52.996 277.794 44.477 275.265 38.9725L266.178 43.1475C267.729 46.523 268.782 53.124 268.782 63.74H278.782ZM275.311 39.0754C273.908 35.8315 271.594 33.2969 268.468 31.6445C265.434 30.0409 261.894 29.4 258.122 29.4V39.4C260.829 39.4 262.629 39.8691 263.795 40.4855C264.869 41.0531 265.615 41.8485 266.132 43.0446L275.311 39.0754ZM258.122 29.4H252.722V39.4H258.122V29.4ZM247.722 34.4V93.08H257.722V34.4H247.722ZM252.722 98.08H258.662V88.08H252.722V98.08ZM433.861 119V124H438.861V119H433.861ZM403.261 119H398.261V124H403.261V119ZM403.261 7.21999V2.21999H398.261V7.21999H403.261ZM433.861 7.21999H438.861V2.21999H433.861V7.21999ZM433.861 114H403.261V124H433.861V114ZM408.261 119V7.21999H398.261V119H408.261ZM403.261 12.22H433.861V2.21999H403.261V12.22ZM428.861 7.21999V119H438.861V7.21999H428.861ZM479.278 15.14L482.88 18.6082L482.88 18.6082L479.278 15.14ZM538.318 8.65999L543.28 9.28017L543.862 4.62143L539.249 3.7474L538.318 8.65999ZM534.718 37.46L533.587 42.3303L538.991 43.5859L539.68 38.0802L534.718 37.46ZM505.738 45.38L503.054 49.5983L503.096 49.6251L503.139 49.651L505.738 45.38ZM515.638 50.78L513.402 55.2521L513.459 55.2804L513.516 55.3073L515.638 50.78ZM527.158 57.44L524.326 61.5602L524.37 61.5907L524.415 61.6202L527.158 57.44ZM536.878 68.42L532.497 70.8296L532.52 70.8712L532.544 70.9124L536.878 68.42ZM531.838 111.44L528.269 107.939L528.269 107.939L531.838 111.44ZM472.978 115.58L467.992 115.212L467.703 119.12L471.429 120.334L472.978 115.58ZM474.958 88.76L476.35 83.9575L470.426 82.2413L469.972 88.3919L474.958 88.76ZM505.198 81.38L502.257 85.4237L502.3 85.4546L502.343 85.4845L505.198 81.38ZM495.478 75.62L497.714 71.1479L497.714 71.1479L495.478 75.62ZM483.778 68.96L481.035 73.1402L481.064 73.1595L481.094 73.1783L483.778 68.96ZM473.878 57.98L469.497 60.3896L469.52 60.4312L469.544 60.4724L473.878 57.98ZM474.918 40.88C474.918 31.2349 477.702 23.9856 482.88 18.6082L475.677 11.6718C468.375 19.2544 464.918 29.1651 464.918 40.88H474.918ZM482.88 18.6082C487.992 13.2999 495.104 10.42 504.838 10.42V0.419992C492.973 0.419992 483.045 4.02012 475.677 11.6718L482.88 18.6082ZM504.838 10.42C515.427 10.42 526.275 11.4671 537.387 13.5726L539.249 3.7474C527.561 1.53286 516.089 0.419992 504.838 0.419992V10.42ZM533.357 8.03982L529.757 36.8398L539.68 38.0802L543.28 9.28017L533.357 8.03982ZM535.85 32.5897C524.029 29.8434 515.334 28.32 510.238 28.32V38.32C514.023 38.32 521.648 39.5566 533.587 42.3303L535.85 32.5897ZM510.238 28.32C506.875 28.32 503.425 28.9787 500.75 31.1418C497.871 33.4693 496.778 36.7947 496.778 40.16H506.778C506.778 39.5263 506.877 39.2009 506.93 39.0733C506.97 38.9763 506.997 38.9507 507.037 38.9181C507.181 38.8013 507.962 38.32 510.238 38.32V28.32ZM496.778 40.16C496.778 44.6338 500.037 47.6786 503.054 49.5983L508.423 41.1617C507.405 40.5139 506.934 40.0335 506.752 39.7931C506.607 39.6021 506.778 39.7518 506.778 40.16H496.778ZM503.139 49.651C506.048 51.422 509.476 53.2889 513.402 55.2521L517.874 46.3079C514.121 44.4311 510.949 42.698 508.338 41.109L503.139 49.651ZM513.516 55.3073C517.086 56.9805 520.689 59.0601 524.326 61.5602L529.991 53.3198C525.947 50.5399 521.871 48.1795 517.76 46.2527L513.516 55.3073ZM524.415 61.6202C527.453 63.6138 530.175 66.6074 532.497 70.8296L541.259 66.0104C538.302 60.6326 534.544 56.3062 529.902 53.2598L524.415 61.6202ZM532.544 70.9124C534.815 74.8616 536.018 79.5014 536.018 84.98H546.018C546.018 77.9786 544.462 71.5784 541.213 65.9276L532.544 70.9124ZM536.018 84.98C536.018 95.4843 533.218 102.892 528.269 107.939L535.408 114.941C542.698 107.508 546.018 97.2757 546.018 84.98H536.018ZM528.269 107.939C523.341 112.963 516.084 115.8 505.738 115.8V125.8C517.952 125.8 528.095 122.397 535.408 114.941L528.269 107.939ZM505.738 115.8C495.108 115.8 484.71 114.144 474.527 110.826L471.429 120.334C482.606 123.976 494.049 125.8 505.738 125.8V115.8ZM477.965 115.948L479.945 89.1281L469.972 88.3919L467.992 115.212L477.965 115.948ZM473.567 93.5625C486.351 97.2663 495.933 99.34 501.778 99.34V89.34C497.543 89.34 489.246 87.6937 476.35 83.9575L473.567 93.5625ZM501.778 99.34C504.924 99.34 508.217 98.6609 510.753 96.4268C513.41 94.0862 514.338 90.8468 514.338 87.68H504.338C504.338 88.3292 504.245 88.6776 504.189 88.8243C504.163 88.8941 504.144 88.9217 504.143 88.9238C504.142 88.9248 504.144 88.9222 504.143 88.9232C504.141 88.9251 504.115 88.9477 504.049 88.983C503.98 89.0193 503.862 89.0721 503.677 89.1263C503.296 89.2381 502.687 89.34 501.778 89.34V99.34ZM514.338 87.68C514.338 83.085 511.483 79.6608 508.054 77.2755L502.343 85.4845C503.366 86.1963 503.882 86.771 504.125 87.1409C504.336 87.4619 504.338 87.6145 504.338 87.68H514.338ZM508.139 77.3363C505.22 75.213 501.729 73.155 497.714 71.1479L493.242 80.0921C496.908 81.925 499.897 83.707 502.257 85.4237L508.139 77.3363ZM497.714 71.1479C494.041 69.3114 490.291 67.1779 486.463 64.7417L481.094 73.1783C485.186 75.7821 489.235 78.0886 493.242 80.0921L497.714 71.1479ZM486.522 64.7798C483.458 62.7695 480.661 59.7462 478.213 55.4876L469.544 60.4724C472.615 65.8138 476.418 70.1105 481.035 73.1402L486.522 64.7798ZM478.259 55.5704C476.101 51.6458 474.918 46.8093 474.918 40.88H464.918C464.918 48.1507 466.376 54.7142 469.497 60.3896L478.259 55.5704ZM632.055 119V124H636.708L637.042 119.359L632.055 119ZM575.175 119H570.175V124H575.175V119ZM575.175 7.21999V2.21999H570.175V7.21999H575.175ZM605.955 7.21999H610.955V2.21999H605.955V7.21999ZM605.955 93.98H600.955V98.98H605.955V93.98ZM633.855 93.98L638.842 94.3388L639.227 88.98H633.855V93.98ZM632.055 114H575.175V124H632.055V114ZM580.175 119V7.21999H570.175V119H580.175ZM575.175 12.22H605.955V2.21999H575.175V12.22ZM600.955 7.21999V93.98H610.955V7.21999H600.955ZM605.955 98.98H633.855V88.98H605.955V98.98ZM628.868 93.6212L627.068 118.641L637.042 119.359L638.842 94.3388L628.868 93.6212ZM744.07 119V124H750.071L748.987 118.097L744.07 119ZM714.01 119L709.101 119.952L709.886 124H714.01V119ZM710.59 101.36L715.498 100.408L714.713 96.36H710.59V101.36ZM689.35 101.36V96.36H685.226L684.441 100.408L689.35 101.36ZM685.93 119V124H690.053L690.838 119.952L685.93 119ZM657.31 119L652.392 118.097L651.308 124H657.31V119ZM677.83 7.21999V2.21999H673.664L672.912 6.3172L677.83 7.21999ZM723.55 7.21999L728.467 6.3172L727.715 2.21999H723.55V7.21999ZM707.17 80.3V85.3H713.02L712.109 79.5213L707.17 80.3ZM700.87 40.34L705.809 39.5613L705.143 35.34H700.87V40.34ZM699.61 40.34V35.34H695.336L694.671 39.5613L699.61 40.34ZM693.31 80.3L688.371 79.5213L687.459 85.3H693.31V80.3ZM744.07 114H714.01V124H744.07V114ZM718.918 118.048L715.498 100.408L705.681 102.312L709.101 119.952L718.918 118.048ZM710.59 96.36H689.35V106.36H710.59V96.36ZM684.441 100.408L681.021 118.048L690.838 119.952L694.258 102.312L684.441 100.408ZM685.93 114H657.31V124H685.93V114ZM662.227 119.903L682.747 8.12278L672.912 6.3172L652.392 118.097L662.227 119.903ZM677.83 12.22H723.55V2.21999H677.83V12.22ZM718.632 8.12278L739.152 119.903L748.987 118.097L728.467 6.3172L718.632 8.12278ZM712.109 79.5213L705.809 39.5613L695.931 41.1187L702.231 81.0787L712.109 79.5213ZM700.87 35.34H699.61V45.34H700.87V35.34ZM694.671 39.5613L688.371 79.5213L698.249 81.0787L704.549 41.1187L694.671 39.5613ZM693.31 85.3H707.17V75.3H693.31V85.3ZM858.378 119V124H863.378V119H858.378ZM828.858 119L824.292 121.038L825.614 124H828.858V119ZM805.638 66.98L810.204 64.942L808.882 61.98H805.638V66.98ZM804.198 66.98V61.98H799.198V66.98H804.198ZM804.198 119V124H809.198V119H804.198ZM776.838 119H771.838V124H776.838V119ZM776.838 7.21999V2.21999H771.838V7.21999H776.838ZM807.258 7.21999L811.88 5.31234L810.603 2.21999H807.258V7.21999ZM829.398 60.86L824.776 62.7676L826.053 65.86H829.398V60.86ZM830.838 60.86V65.86H835.838V60.86H830.838ZM830.838 7.21999V2.21999H825.838V7.21999H830.838ZM858.378 7.21999H863.378V2.21999H858.378V7.21999ZM858.378 114H828.858V124H858.378V114ZM833.424 116.962L810.204 64.942L801.072 69.018L824.292 121.038L833.424 116.962ZM805.638 61.98H804.198V71.98H805.638V61.98ZM799.198 66.98V119H809.198V66.98H799.198ZM804.198 114H776.838V124H804.198V114ZM781.838 119V7.21999H771.838V119H781.838ZM776.838 12.22H807.258V2.21999H776.838V12.22ZM802.636 9.12764L824.776 62.7676L834.02 58.9523L811.88 5.31234L802.636 9.12764ZM829.398 65.86H830.838V55.86H829.398V65.86ZM835.838 60.86V7.21999H825.838V60.86H835.838ZM830.838 12.22H858.378V2.21999H830.838V12.22ZM853.378 7.21999V119H863.378V7.21999H853.378ZM897.621 119H892.621V124H897.621V119ZM897.621 7.21999V2.21999H892.621V7.21999H897.621ZM970.341 21.08L966.322 24.0549L966.344 24.0843L966.366 24.1134L970.341 21.08ZM946.401 86.42L941.793 84.4797L941.78 84.5105L941.767 84.5415L946.401 86.42ZM946.221 41.06L941.632 43.0446L941.654 43.0963L941.677 43.1475L946.221 41.06ZM928.221 34.4V29.4H923.221V34.4H928.221ZM928.221 93.08H923.221V98.08H928.221V93.08ZM975.781 60.68C975.781 79.5965 972.022 92.8609 965.338 101.32C958.831 109.555 948.936 114 934.701 114V124C951.186 124 964.331 118.725 973.184 107.52C981.86 96.5391 985.781 80.6435 985.781 60.68H975.781ZM934.701 114H897.621V124H934.701V114ZM902.621 119V7.21999H892.621V119H902.621ZM897.621 12.22H935.421V2.21999H897.621V12.22ZM935.421 12.22C950.998 12.22 960.785 16.5746 966.322 24.0549L974.36 18.1051C966.217 7.10543 952.724 2.21999 935.421 2.21999V12.22ZM966.366 24.1134C972.4 32.0194 975.781 43.9685 975.781 60.68H985.781C985.781 42.8315 982.202 28.3806 974.316 18.0466L966.366 24.1134ZM934.161 98.08C937.882 98.08 941.386 97.4361 944.381 95.8069C947.471 94.1254 949.715 91.5541 951.035 88.2985L941.767 84.5415C941.287 85.7259 940.591 86.4846 939.601 87.0231C938.515 87.6139 936.8 88.08 934.161 88.08V98.08ZM951.009 88.3603C953.345 82.8118 954.281 74.3811 954.281 63.74H944.281C944.281 74.2189 943.296 80.9082 941.793 84.4797L951.009 88.3603ZM954.281 63.74C954.281 52.996 953.293 44.477 950.764 38.9725L941.677 43.1475C943.228 46.523 944.281 53.124 944.281 63.74H954.281ZM950.81 39.0754C949.407 35.8315 947.093 33.2969 943.967 31.6445C940.933 30.0409 937.393 29.4 933.621 29.4V39.4C936.329 39.4 938.128 39.8691 939.294 40.4855C940.368 41.0531 941.114 41.8485 941.632 43.0446L950.81 39.0754ZM933.621 29.4H928.221V39.4H933.621V29.4ZM923.221 34.4V93.08H933.221V34.4H923.221ZM928.221 98.08H934.161V88.08H928.221V98.08ZM1020.09 15.14L1023.69 18.6082L1023.69 18.6082L1020.09 15.14ZM1079.13 8.65999L1084.09 9.28017L1084.67 4.62143L1080.06 3.7474L1079.13 8.65999ZM1075.53 37.46L1074.4 42.3303L1079.8 43.5859L1080.49 38.0802L1075.53 37.46ZM1046.55 45.38L1043.86 49.5983L1043.9 49.6251L1043.95 49.651L1046.55 45.38ZM1056.45 50.78L1054.21 55.2521L1054.27 55.2804L1054.32 55.3073L1056.45 50.78ZM1067.97 57.44L1065.13 61.5602L1065.18 61.5907L1065.22 61.6202L1067.97 57.44ZM1077.69 68.42L1073.31 70.8296L1073.33 70.8712L1073.35 70.9124L1077.69 68.42ZM1072.65 111.44L1069.08 107.939L1069.08 107.939L1072.65 111.44ZM1013.79 115.58L1008.8 115.212L1008.51 119.12L1012.24 120.334L1013.79 115.58ZM1015.77 88.76L1017.16 83.9575L1011.23 82.2413L1010.78 88.3919L1015.77 88.76ZM1046.01 81.38L1043.07 85.4237L1043.11 85.4546L1043.15 85.4845L1046.01 81.38ZM1036.29 75.62L1038.52 71.1479L1038.52 71.1479L1036.29 75.62ZM1024.59 68.96L1021.84 73.1402L1021.87 73.1595L1021.9 73.1783L1024.59 68.96ZM1014.69 57.98L1010.31 60.3896L1010.33 60.4312L1010.35 60.4724L1014.69 57.98ZM1015.73 40.88C1015.73 31.2349 1018.51 23.9856 1023.69 18.6082L1016.49 11.6718C1009.18 19.2544 1005.73 29.1651 1005.73 40.88H1015.73ZM1023.69 18.6082C1028.8 13.2999 1035.91 10.42 1045.65 10.42V0.419992C1033.78 0.419992 1023.85 4.02012 1016.49 11.6718L1023.69 18.6082ZM1045.65 10.42C1056.24 10.42 1067.08 11.4671 1078.2 13.5726L1080.06 3.7474C1068.37 1.53286 1056.9 0.419992 1045.65 0.419992V10.42ZM1074.17 8.03982L1070.57 36.8398L1080.49 38.0802L1084.09 9.28017L1074.17 8.03982ZM1076.66 32.5897C1064.84 29.8434 1056.14 28.32 1051.05 28.32V38.32C1054.83 38.32 1062.46 39.5566 1074.4 42.3303L1076.66 32.5897ZM1051.05 28.32C1047.68 28.32 1044.23 28.9787 1041.56 31.1418C1038.68 33.4693 1037.59 36.7947 1037.59 40.16H1047.59C1047.59 39.5263 1047.69 39.2009 1047.74 39.0733C1047.78 38.9763 1047.81 38.9507 1047.85 38.9181C1047.99 38.8013 1048.77 38.32 1051.05 38.32V28.32ZM1037.59 40.16C1037.59 44.6338 1040.85 47.6786 1043.86 49.5983L1049.23 41.1617C1048.21 40.5139 1047.74 40.0335 1047.56 39.7931C1047.42 39.6021 1047.59 39.7518 1047.59 40.16H1037.59ZM1043.95 49.651C1046.86 51.422 1050.28 53.2889 1054.21 55.2521L1058.68 46.3079C1054.93 44.4311 1051.76 42.698 1049.15 41.109L1043.95 49.651ZM1054.32 55.3073C1057.89 56.9805 1061.5 59.0601 1065.13 61.5602L1070.8 53.3198C1066.76 50.5399 1062.68 48.1795 1058.57 46.2527L1054.32 55.3073ZM1065.22 61.6202C1068.26 63.6138 1070.98 66.6074 1073.31 70.8296L1082.07 66.0104C1079.11 60.6326 1075.35 56.3062 1070.71 53.2598L1065.22 61.6202ZM1073.35 70.9124C1075.62 74.8616 1076.83 79.5014 1076.83 84.98H1086.83C1086.83 77.9786 1085.27 71.5784 1082.02 65.9276L1073.35 70.9124ZM1076.83 84.98C1076.83 95.4843 1074.03 102.892 1069.08 107.939L1076.22 114.941C1083.51 107.508 1086.83 97.2757 1086.83 84.98H1076.83ZM1069.08 107.939C1064.15 112.963 1056.89 115.8 1046.55 115.8V125.8C1058.76 125.8 1068.9 122.397 1076.22 114.941L1069.08 107.939ZM1046.55 115.8C1035.92 115.8 1025.52 114.144 1015.34 110.826L1012.24 120.334C1023.41 123.976 1034.86 125.8 1046.55 125.8V115.8ZM1018.77 115.948L1020.75 89.1281L1010.78 88.3919L1008.8 115.212L1018.77 115.948ZM1014.38 93.5625C1027.16 97.2663 1036.74 99.34 1042.59 99.34V89.34C1038.35 89.34 1030.05 87.6937 1017.16 83.9575L1014.38 93.5625ZM1042.59 99.34C1045.73 99.34 1049.03 98.6609 1051.56 96.4268C1054.22 94.0862 1055.15 90.8468 1055.15 87.68H1045.15C1045.15 88.3292 1045.05 88.6776 1045 88.8243C1044.97 88.8941 1044.95 88.9217 1044.95 88.9238C1044.95 88.9248 1044.95 88.9222 1044.95 88.9232C1044.95 88.9251 1044.92 88.9477 1044.86 88.983C1044.79 89.0193 1044.67 89.0721 1044.49 89.1263C1044.1 89.2381 1043.5 89.34 1042.59 89.34V99.34ZM1055.15 87.68C1055.15 83.085 1052.29 79.6608 1048.86 77.2755L1043.15 85.4845C1044.17 86.1963 1044.69 86.771 1044.93 87.1409C1045.14 87.4619 1045.15 87.6145 1045.15 87.68H1055.15ZM1048.95 77.3363C1046.03 75.213 1042.54 73.155 1038.52 71.1479L1034.05 80.0921C1037.72 81.925 1040.71 83.707 1043.07 85.4237L1048.95 77.3363ZM1038.52 71.1479C1034.85 69.3114 1031.1 67.1779 1027.27 64.7417L1021.9 73.1783C1025.99 75.7821 1030.04 78.0886 1034.05 80.0921L1038.52 71.1479ZM1027.33 64.7798C1024.27 62.7695 1021.47 59.7462 1019.02 55.4876L1010.35 60.4724C1013.42 65.8138 1017.23 70.1105 1021.84 73.1402L1027.33 64.7798ZM1019.07 55.5704C1016.91 51.6458 1015.73 46.8093 1015.73 40.88H1005.73C1005.73 48.1507 1007.18 54.7142 1010.31 60.3896L1019.07 55.5704Z" fill="white"/>
</svg>
