<svg width="40" height="40" viewBox="0 0 40 40" fill="none" xmlns="http://www.w3.org/2000/svg">
<path d="M18.0306 27.6806L17.5049 32.4079C17.4789 32.6431 17.5545 32.8791 17.7124 33.0557C17.8703 33.2323 18.0966 33.3332 18.3333 33.3332H21.6667C21.9035 33.3332 22.1298 33.2323 22.2877 33.0557C22.4455 32.8792 22.5212 32.6431 22.4951 32.4079L21.9694 27.6806C22.8231 27.0596 23.3334 26.0774 23.3334 24.9999C23.3334 23.1615 21.8384 21.6665 20 21.6665C18.1616 21.6665 16.6666 23.1615 16.6666 24.9999C16.6666 26.0774 17.1769 27.0596 18.0306 27.6806ZM20 23.3332C20.9187 23.3332 21.6666 24.0811 21.6666 24.9999C21.6666 25.6387 21.3037 26.2108 20.7194 26.494C20.4012 26.6486 20.2148 26.9856 20.2539 27.3363L20.7357 31.6665H19.2644L19.7462 27.3363C19.7852 26.9855 19.5989 26.6486 19.2807 26.494C18.6964 26.2108 18.3334 25.6387 18.3334 24.9999C18.3333 24.0811 19.0812 23.3332 20 23.3332Z" fill="#006064"/>
<path d="M34.1666 15H31.6666V11.6666C31.6666 5.23359 26.4331 0 20 0C13.5669 0 8.33336 5.23359 8.33336 11.6666V15H5.83336C5.37273 15 5 15.3727 5 15.8334V36.6667C5 38.5051 6.49492 40 8.33336 40H31.6667C33.5051 40 35 38.5051 35 36.6666V15.8334C35 15.3727 34.6273 15 34.1666 15ZM10 11.6666C10 6.15234 14.4857 1.66664 20 1.66664C25.5143 1.66664 30 6.15234 30 11.6666V15H28.3334V11.6666C28.3334 7.07187 24.5948 3.33328 20 3.33328C15.4052 3.33328 11.6666 7.07195 11.6666 11.6666V15H10V11.6666ZM26.6666 11.6666V15H13.3334V11.6666C13.3334 7.9907 16.3241 5 20 5C23.6759 5 26.6666 7.9907 26.6666 11.6666ZM33.3334 36.6666C33.3334 37.5854 32.5855 38.3333 31.6667 38.3333H8.33336C7.41461 38.3333 6.66672 37.5854 6.66672 36.6666V16.6666H33.3334V36.6666Z" fill="#006064"/>
</svg>
