<svg width="531" height="52" viewBox="0 0 531 52" fill="none" xmlns="http://www.w3.org/2000/svg">
<path d="M3.5954 17.62C3.5954 13.4667 4.80874 10.13 7.2354 7.61C9.66207 5.09 12.9754 3.83 17.1754 3.83C21.4221 3.83 25.7621 4.25 30.1954 5.09L28.7954 16.29C24.1754 15.2167 21.0021 14.68 19.2754 14.68C17.0821 14.68 15.9854 15.5667 15.9854 17.34C15.9854 18.04 16.4987 18.7167 17.5254 19.37C18.5987 20.0233 19.8821 20.7233 21.3754 21.47C22.8687 22.17 24.3621 23.0333 25.8554 24.06C27.3487 25.04 28.6087 26.4633 29.6354 28.33C30.7087 30.1967 31.2454 32.3433 31.2454 34.77C31.2454 39.2033 30.0554 42.6333 27.6754 45.06C25.2954 47.4867 21.9121 48.7 17.5254 48.7C13.1854 48.7 8.93874 48.0233 4.7854 46.67L5.5554 36.24C10.5487 37.6867 14.0254 38.41 15.9854 38.41C17.9454 38.41 18.9254 37.5467 18.9254 35.82C18.9254 34.9333 18.3887 34.1167 17.3154 33.37C16.2887 32.6233 15.0287 31.8767 13.5354 31.13C12.0421 30.3833 10.5254 29.52 8.9854 28.54C7.49207 27.56 6.20874 26.1367 5.1354 24.27C4.10874 22.4033 3.5954 20.1867 3.5954 17.62ZM86.2484 48H74.5584L73.2284 41.14H64.9684L63.6384 48H52.5084L60.4884 4.53H78.2684L86.2484 48ZM71.8985 32.95L69.4484 17.41H68.9584L66.5084 32.95H71.8985ZM141.832 25.32C141.832 40.44 135.858 48 123.912 48H109.492V4.53H124.192C130.585 4.53 135.112 6.32666 137.772 9.92C140.478 13.4667 141.832 18.6 141.832 25.32ZM123.702 37.92C126.175 37.92 127.762 37.0567 128.462 35.33C129.208 33.5567 129.582 30.6167 129.582 26.51C129.582 22.3567 129.185 19.4167 128.392 17.69C127.645 15.9633 126.012 15.1 123.492 15.1H121.392V37.92H123.702ZM212.835 48H200.935V4.53H212.835V48ZM237.357 17.62C237.357 13.4667 238.57 10.13 240.997 7.61C243.424 5.09 246.737 3.83 250.937 3.83C255.184 3.83 259.524 4.25 263.957 5.09L262.557 16.29C257.937 15.2167 254.764 14.68 253.037 14.68C250.844 14.68 249.747 15.5667 249.747 17.34C249.747 18.04 250.26 18.7167 251.287 19.37C252.36 20.0233 253.644 20.7233 255.137 21.47C256.63 22.17 258.124 23.0333 259.617 24.06C261.11 25.04 262.37 26.4633 263.397 28.33C264.47 30.1967 265.007 32.3433 265.007 34.77C265.007 39.2033 263.817 42.6333 261.437 45.06C259.057 47.4867 255.674 48.7 251.287 48.7C246.947 48.7 242.7 48.0233 238.547 46.67L239.317 36.24C244.31 37.6867 247.787 38.41 249.747 38.41C251.707 38.41 252.687 37.5467 252.687 35.82C252.687 34.9333 252.15 34.1167 251.077 33.37C250.05 32.6233 248.79 31.8767 247.297 31.13C245.804 30.3833 244.287 29.52 242.747 28.54C241.254 27.56 239.97 26.1367 238.897 24.27C237.87 22.4033 237.357 20.1867 237.357 17.62ZM310.91 48H288.79V4.53H300.76V38.27H311.61L310.91 48ZM364.971 48H353.281L351.951 41.14H343.691L342.361 48H331.231L339.211 4.53H356.991L364.971 48ZM350.621 32.95L348.171 17.41H347.681L345.231 32.95H350.621ZM419.925 48H408.445L399.415 27.77H398.855V48H388.215V4.53H400.045L408.655 25.39H409.215V4.53H419.925V48ZM478.026 25.32C478.026 40.44 472.053 48 460.106 48H445.686V4.53H460.386C466.779 4.53 471.306 6.32666 473.966 9.92C476.673 13.4667 478.026 18.6 478.026 25.32ZM459.896 37.92C462.369 37.92 463.956 37.0567 464.656 35.33C465.403 33.5567 465.776 30.6167 465.776 26.51C465.776 22.3567 465.379 19.4167 464.586 17.69C463.839 15.9633 462.206 15.1 459.686 15.1H457.586V37.92H459.896ZM500.172 17.62C500.172 13.4667 501.385 10.13 503.812 7.61C506.238 5.09 509.552 3.83 513.752 3.83C517.998 3.83 522.338 4.25 526.772 5.09L525.372 16.29C520.752 15.2167 517.578 14.68 515.852 14.68C513.658 14.68 512.562 15.5667 512.562 17.34C512.562 18.04 513.075 18.7167 514.102 19.37C515.175 20.0233 516.458 20.7233 517.952 21.47C519.445 22.17 520.938 23.0333 522.432 24.06C523.925 25.04 525.185 26.4633 526.212 28.33C527.285 30.1967 527.822 32.3433 527.822 34.77C527.822 39.2033 526.632 42.6333 524.252 45.06C521.872 47.4867 518.488 48.7 514.102 48.7C509.762 48.7 505.515 48.0233 501.362 46.67L502.132 36.24C507.125 37.6867 510.602 38.41 512.562 38.41C514.522 38.41 515.502 37.5467 515.502 35.82C515.502 34.9333 514.965 34.1167 513.892 33.37C512.865 32.6233 511.605 31.8767 510.112 31.13C508.618 30.3833 507.102 29.52 505.562 28.54C504.068 27.56 502.785 26.1367 501.712 24.27C500.685 22.4033 500.172 20.1867 500.172 17.62Z" fill="#0097A7"/>
<path d="M7.2354 7.61L9.39636 9.69092L7.2354 7.61ZM30.1954 5.09L33.1722 5.4621L33.5216 2.66686L30.7539 2.14244L30.1954 5.09ZM28.7954 16.29L28.1165 19.2122L31.3593 19.9656L31.7722 16.6621L28.7954 16.29ZM17.5254 19.37L15.9148 21.901L15.94 21.917L15.9656 21.9326L17.5254 19.37ZM21.3754 21.47L20.0338 24.1533L20.0677 24.1703L20.1021 24.1864L21.3754 21.47ZM25.8554 24.06L24.1558 26.5321L24.1824 26.5504L24.2094 26.5681L25.8554 24.06ZM29.6354 28.33L27.0068 29.7758L27.0205 29.8007L27.0347 29.8254L29.6354 28.33ZM27.6754 45.06L25.5336 42.9594L25.5336 42.9594L27.6754 45.06ZM4.7854 46.67L1.79354 46.4491L1.62044 48.794L3.85597 49.5224L4.7854 46.67ZM5.5554 36.24L6.39023 33.3585L2.83599 32.3288L2.56355 36.0191L5.5554 36.24ZM17.3154 33.37L15.5509 35.7962L15.5764 35.8147L15.6022 35.8327L17.3154 33.37ZM13.5354 31.13L14.877 28.4467L14.877 28.4467L13.5354 31.13ZM8.9854 28.54L7.33943 31.0481L7.35702 31.0597L7.37477 31.071L8.9854 28.54ZM5.1354 24.27L2.50676 25.7158L2.52048 25.7407L2.53468 25.7654L5.1354 24.27ZM6.5954 17.62C6.5954 14.0876 7.60676 11.5494 9.39636 9.69092L5.07444 5.52907C2.01071 8.71064 0.595403 12.8457 0.595403 17.62H6.5954ZM9.39636 9.69092C11.1461 7.87392 13.6147 6.83 17.1754 6.83V0.829997C12.3361 0.829997 8.17807 2.30607 5.07444 5.52907L9.39636 9.69092ZM17.1754 6.83C21.2234 6.83 25.3763 7.23028 29.6369 8.03755L30.7539 2.14244C26.1478 1.26972 21.6207 0.829997 17.1754 0.829997V6.83ZM27.2186 4.71789L25.8186 15.9179L31.7722 16.6621L33.1722 5.4621L27.2186 4.71789ZM29.4743 13.3678C24.8898 12.3027 21.3954 11.68 19.2754 11.68V17.68C20.6087 17.68 23.461 18.1306 28.1165 19.2122L29.4743 13.3678ZM19.2754 11.68C17.8526 11.68 16.2293 11.9549 14.9217 13.0121C13.4922 14.1679 12.9854 15.8021 12.9854 17.34H18.9854C18.9854 17.2004 19.0074 17.2158 18.9646 17.3197C18.9427 17.3728 18.9081 17.4382 18.8572 17.5069C18.8061 17.5757 18.7493 17.6333 18.6941 17.6779C18.5827 17.7679 18.5269 17.7671 18.6167 17.7429C18.7127 17.717 18.9194 17.68 19.2754 17.68V11.68ZM12.9854 17.34C12.9854 19.6443 14.6621 21.1038 15.9148 21.901L19.136 16.839C18.9793 16.7393 18.8759 16.6599 18.8125 16.6052C18.7486 16.5499 18.7401 16.5325 18.7605 16.5593C18.782 16.5877 18.84 16.6715 18.8926 16.8125C18.9472 16.9589 18.9854 17.1397 18.9854 17.34H12.9854ZM15.9656 21.9326C17.1286 22.6405 18.4886 23.3807 20.0338 24.1533L22.717 18.7867C21.2756 18.066 20.0689 17.4061 19.0852 16.8074L15.9656 21.9326ZM20.1021 24.1864C21.4332 24.8103 22.7846 25.5894 24.1558 26.5321L27.555 21.5879C25.9396 20.4773 24.3043 19.5297 22.6487 18.7536L20.1021 24.1864ZM24.2094 26.5681C25.2215 27.2323 26.1708 28.2558 27.0068 29.7758L32.2641 26.8842C31.0467 24.6709 29.476 22.8477 27.5014 21.5519L24.2094 26.5681ZM27.0347 29.8254C27.8145 31.1816 28.2454 32.8002 28.2454 34.77H34.2454C34.2454 31.8865 33.603 29.2117 32.2361 26.8346L27.0347 29.8254ZM28.2454 34.77C28.2454 38.6659 27.2113 41.2488 25.5336 42.9594L29.8172 47.1606C32.8995 44.0179 34.2454 39.7408 34.2454 34.77H28.2454ZM25.5336 42.9594C23.8691 44.6565 21.3517 45.7 17.5254 45.7V51.7C22.4724 51.7 26.7217 50.3169 29.8172 47.1606L25.5336 42.9594ZM17.5254 45.7C13.5031 45.7 9.57004 45.0738 5.71483 43.8176L3.85597 49.5224C8.30743 50.9729 12.8677 51.7 17.5254 51.7V45.7ZM7.77726 46.8909L8.54726 36.4609L2.56355 36.0191L1.79354 46.4491L7.77726 46.8909ZM4.72057 39.1215C9.68034 40.5584 13.5425 41.41 15.9854 41.41V35.41C14.5083 35.41 11.4171 34.8149 6.39023 33.3585L4.72057 39.1215ZM15.9854 41.41C17.3409 41.41 18.9179 41.1197 20.1735 40.0136C21.5017 38.8435 21.9254 37.2514 21.9254 35.82H15.9254C15.9254 35.9752 15.9026 35.9792 15.9358 35.8914C15.9532 35.8455 15.9834 35.7815 16.0324 35.7095C16.0819 35.6369 16.1415 35.5694 16.2073 35.5114C16.3433 35.3916 16.4455 35.364 16.4264 35.3697C16.3975 35.3781 16.2649 35.41 15.9854 35.41V41.41ZM21.9254 35.82C21.9254 33.5443 20.5033 31.9332 19.0286 30.9073L15.6022 35.8327C15.7581 35.9411 15.8628 36.0303 15.9299 36.0954C15.9967 36.1603 16.018 36.1934 16.0158 36.19C16.0123 36.1847 15.9869 36.1441 15.9634 36.0696C15.9393 35.993 15.9254 35.9063 15.9254 35.82H21.9254ZM19.0799 30.9438C17.8855 30.0751 16.475 29.2457 14.877 28.4467L12.1938 33.8133C13.5825 34.5076 14.6919 35.1715 15.5509 35.7962L19.0799 30.9438ZM14.877 28.4467C13.484 27.7502 12.057 26.9387 10.596 26.009L7.37477 31.071C8.99382 32.1013 10.6002 33.0165 12.1938 33.8133L14.877 28.4467ZM10.6314 26.0319C9.6041 25.3577 8.62265 24.3164 7.73612 22.7746L2.53468 25.7654C3.79482 27.9569 5.38004 29.7623 7.33943 31.0481L10.6314 26.0319ZM7.76405 22.8242C7.02626 21.4828 6.5954 19.7842 6.5954 17.62H0.595403C0.595403 20.5891 1.19121 23.3239 2.50676 25.7158L7.76405 22.8242ZM86.2484 48V51H89.8493L89.1991 47.4583L86.2484 48ZM74.5584 48L71.6133 48.571L72.0842 51H74.5584V48ZM73.2284 41.14L76.1736 40.569L75.7027 38.14H73.2284V41.14ZM64.9684 41.14V38.14H62.4942L62.0233 40.569L64.9684 41.14ZM63.6384 48V51H66.1127L66.5836 48.571L63.6384 48ZM52.5084 48L49.5578 47.4583L48.9076 51H52.5084V48ZM60.4884 4.53V1.53H57.989L57.5378 3.98832L60.4884 4.53ZM78.2684 4.53L81.2191 3.98832L80.7679 1.53H78.2684V4.53ZM71.8985 32.95V35.95H75.4085L74.8618 32.4828L71.8985 32.95ZM69.4484 17.41L72.4118 16.9428L72.0125 14.41H69.4484V17.41ZM68.9584 17.41V14.41H66.3944L65.9951 16.9428L68.9584 17.41ZM66.5084 32.95L63.5451 32.4828L62.9984 35.95H66.5084V32.95ZM86.2484 45H74.5584V51H86.2484V45ZM77.5036 47.429L76.1736 40.569L70.2833 41.711L71.6133 48.571L77.5036 47.429ZM73.2284 38.14H64.9684V44.14H73.2284V38.14ZM62.0233 40.569L60.6933 47.429L66.5836 48.571L67.9136 41.711L62.0233 40.569ZM63.6384 45H52.5084V51H63.6384V45ZM55.4591 48.5417L63.4391 5.07167L57.5378 3.98832L49.5578 47.4583L55.4591 48.5417ZM60.4884 7.53H78.2684V1.53H60.4884V7.53ZM75.3178 5.07167L83.2978 48.5417L89.1991 47.4583L81.2191 3.98832L75.3178 5.07167ZM74.8618 32.4828L72.4118 16.9428L66.4851 17.8772L68.9351 33.4172L74.8618 32.4828ZM69.4484 14.41H68.9584V20.41H69.4484V14.41ZM65.9951 16.9428L63.5451 32.4828L69.4718 33.4172L71.9218 17.8772L65.9951 16.9428ZM66.5084 35.95H71.8985V29.95H66.5084V35.95ZM109.492 48H106.492V51H109.492V48ZM109.492 4.53V1.53H106.492V4.53H109.492ZM137.772 9.92L135.361 11.7049L135.374 11.7226L135.387 11.74L137.772 9.92ZM128.462 35.33L125.697 34.1658L125.689 34.1843L125.682 34.2029L128.462 35.33ZM128.392 17.69L125.638 18.8807L125.652 18.9118L125.666 18.9425L128.392 17.69ZM121.392 15.1V12.1H118.392V15.1H121.392ZM121.392 37.92H118.392V40.92H121.392V37.92ZM138.832 25.32C138.832 32.5659 137.387 37.4465 134.998 40.4701C132.715 43.359 129.21 45 123.912 45V51C130.56 51 136.015 48.861 139.706 44.1899C143.29 39.6535 144.832 33.1941 144.832 25.32H138.832ZM123.912 45H109.492V51H123.912V45ZM112.492 48V4.53H106.492V48H112.492ZM109.492 7.53H124.192V1.53H109.492V7.53ZM124.192 7.53C130.067 7.53 133.482 9.1674 135.361 11.7049L140.183 8.13506C136.741 3.48592 131.103 1.53 124.192 1.53V7.53ZM135.387 11.74C137.538 14.5583 138.832 18.9411 138.832 25.32H144.832C144.832 18.2589 143.419 12.375 140.157 8.09998L135.387 11.74ZM123.702 40.92C125.263 40.92 126.815 40.6508 128.181 39.9077C129.604 39.1331 130.64 37.9418 131.242 36.4571L125.682 34.2029C125.583 34.4449 125.476 34.5486 125.313 34.6373C125.092 34.7575 124.614 34.92 123.702 34.92V40.92ZM131.227 36.4942C132.223 34.1277 132.582 30.6653 132.582 26.51H126.582C126.582 30.568 126.194 32.9856 125.697 34.1658L131.227 36.4942ZM132.582 26.51C132.582 22.3183 132.205 18.8029 131.118 16.4375L125.666 18.9425C126.166 20.0305 126.582 22.395 126.582 26.51H132.582ZM131.145 16.4993C130.506 15.0215 129.441 13.8523 128.009 13.0952C126.632 12.3674 125.071 12.1 123.492 12.1V18.1C124.432 18.1 124.949 18.2643 125.205 18.3998C125.406 18.506 125.531 18.6318 125.638 18.8807L131.145 16.4993ZM123.492 12.1H121.392V18.1H123.492V12.1ZM118.392 15.1V37.92H124.392V15.1H118.392ZM121.392 40.92H123.702V34.92H121.392V40.92ZM212.835 48V51H215.835V48H212.835ZM200.935 48H197.935V51H200.935V48ZM200.935 4.53V1.53H197.935V4.53H200.935ZM212.835 4.53H215.835V1.53H212.835V4.53ZM212.835 45H200.935V51H212.835V45ZM203.935 48V4.53H197.935V48H203.935ZM200.935 7.53H212.835V1.53H200.935V7.53ZM209.835 4.53V48H215.835V4.53H209.835ZM240.997 7.61L243.158 9.69092L240.997 7.61ZM263.957 5.09L266.934 5.4621L267.283 2.66686L264.516 2.14244L263.957 5.09ZM262.557 16.29L261.878 19.2122L265.121 19.9656L265.534 16.6621L262.557 16.29ZM251.287 19.37L249.676 21.901L249.702 21.917L249.727 21.9326L251.287 19.37ZM255.137 21.47L253.795 24.1533L253.829 24.1703L253.864 24.1864L255.137 21.47ZM259.617 24.06L257.918 26.5321L257.944 26.5504L257.971 26.5681L259.617 24.06ZM263.397 28.33L260.768 29.7758L260.782 29.8007L260.796 29.8254L263.397 28.33ZM261.437 45.06L259.295 42.9594L259.295 42.9594L261.437 45.06ZM238.547 46.67L235.555 46.4491L235.382 48.794L237.618 49.5224L238.547 46.67ZM239.317 36.24L240.152 33.3585L236.598 32.3288L236.325 36.0191L239.317 36.24ZM251.077 33.37L249.313 35.7962L249.338 35.8147L249.364 35.8327L251.077 33.37ZM247.297 31.13L248.639 28.4467L248.639 28.4467L247.297 31.13ZM242.747 28.54L241.101 31.0481L241.119 31.0597L241.136 31.071L242.747 28.54ZM238.897 24.27L236.268 25.7158L236.282 25.7407L236.296 25.7654L238.897 24.27ZM240.357 17.62C240.357 14.0876 241.368 11.5494 243.158 9.69092L238.836 5.52907C235.772 8.71064 234.357 12.8457 234.357 17.62H240.357ZM243.158 9.69092C244.908 7.87392 247.376 6.83 250.937 6.83V0.829997C246.098 0.829997 241.94 2.30607 238.836 5.52907L243.158 9.69092ZM250.937 6.83C254.985 6.83 259.138 7.23028 263.399 8.03755L264.516 2.14244C259.91 1.26972 255.382 0.829997 250.937 0.829997V6.83ZM260.98 4.71789L259.58 15.9179L265.534 16.6621L266.934 5.4621L260.98 4.71789ZM263.236 13.3678C258.651 12.3027 255.157 11.68 253.037 11.68V17.68C254.37 17.68 257.223 18.1306 261.878 19.2122L263.236 13.3678ZM253.037 11.68C251.614 11.68 249.991 11.9549 248.683 13.0121C247.254 14.1679 246.747 15.8021 246.747 17.34H252.747C252.747 17.2004 252.769 17.2158 252.726 17.3197C252.704 17.3728 252.67 17.4382 252.619 17.5069C252.568 17.5757 252.511 17.6333 252.456 17.6779C252.344 17.7679 252.289 17.7671 252.378 17.7429C252.474 17.717 252.681 17.68 253.037 17.68V11.68ZM246.747 17.34C246.747 19.6443 248.424 21.1038 249.676 21.901L252.898 16.839C252.741 16.7393 252.638 16.6599 252.574 16.6052C252.51 16.5499 252.502 16.5325 252.522 16.5593C252.544 16.5877 252.602 16.6715 252.654 16.8125C252.709 16.9589 252.747 17.1397 252.747 17.34H246.747ZM249.727 21.9326C250.89 22.6405 252.25 23.3807 253.795 24.1533L256.479 18.7867C255.037 18.066 253.831 17.4061 252.847 16.8074L249.727 21.9326ZM253.864 24.1864C255.195 24.8103 256.546 25.5894 257.918 26.5321L261.317 21.5879C259.701 20.4773 258.066 19.5297 256.41 18.7536L253.864 24.1864ZM257.971 26.5681C258.983 27.2323 259.932 28.2558 260.768 29.7758L266.026 26.8842C264.808 24.6709 263.238 22.8477 261.263 21.5519L257.971 26.5681ZM260.796 29.8254C261.576 31.1816 262.007 32.8002 262.007 34.77H268.007C268.007 31.8865 267.365 29.2117 265.998 26.8346L260.796 29.8254ZM262.007 34.77C262.007 38.6659 260.973 41.2488 259.295 42.9594L263.579 47.1606C266.661 44.0179 268.007 39.7408 268.007 34.77H262.007ZM259.295 42.9594C257.631 44.6565 255.113 45.7 251.287 45.7V51.7C256.234 51.7 260.483 50.3169 263.579 47.1606L259.295 42.9594ZM251.287 45.7C247.265 45.7 243.332 45.0738 239.477 43.8176L237.618 49.5224C242.069 50.9729 246.629 51.7 251.287 51.7V45.7ZM241.539 46.8909L242.309 36.4609L236.325 36.0191L235.555 46.4491L241.539 46.8909ZM238.482 39.1215C243.442 40.5584 247.304 41.41 249.747 41.41V35.41C248.27 35.41 245.179 34.8149 240.152 33.3585L238.482 39.1215ZM249.747 41.41C251.103 41.41 252.68 41.1197 253.935 40.0136C255.263 38.8435 255.687 37.2514 255.687 35.82H249.687C249.687 35.9752 249.664 35.9792 249.698 35.8914C249.715 35.8455 249.745 35.7815 249.794 35.7095C249.844 35.6369 249.903 35.5694 249.969 35.5114C250.105 35.3916 250.207 35.364 250.188 35.3697C250.159 35.3781 250.027 35.41 249.747 35.41V41.41ZM255.687 35.82C255.687 33.5443 254.265 31.9332 252.79 30.9073L249.364 35.8327C249.52 35.9411 249.625 36.0303 249.692 36.0954C249.758 36.1603 249.78 36.1934 249.778 36.19C249.774 36.1847 249.749 36.1441 249.725 36.0696C249.701 35.993 249.687 35.9063 249.687 35.82H255.687ZM252.842 30.9438C251.647 30.0751 250.237 29.2457 248.639 28.4467L245.955 33.8133C247.344 34.5076 248.454 35.1715 249.313 35.7962L252.842 30.9438ZM248.639 28.4467C247.246 27.7502 245.819 26.9387 244.358 26.009L241.136 31.071C242.756 32.1013 244.362 33.0165 245.955 33.8133L248.639 28.4467ZM244.393 26.0319C243.366 25.3577 242.384 24.3164 241.498 22.7746L236.296 25.7654C237.557 27.9569 239.142 29.7623 241.101 31.0481L244.393 26.0319ZM241.526 22.8242C240.788 21.4828 240.357 19.7842 240.357 17.62H234.357C234.357 20.5891 234.953 23.3239 236.268 25.7158L241.526 22.8242ZM310.91 48V51H313.702L313.902 48.2153L310.91 48ZM288.79 48H285.79V51H288.79V48ZM288.79 4.53V1.53H285.79V4.53H288.79ZM300.76 4.53H303.76V1.53H300.76V4.53ZM300.76 38.27H297.76V41.27H300.76V38.27ZM311.61 38.27L314.602 38.4853L314.834 35.27H311.61V38.27ZM310.91 45H288.79V51H310.91V45ZM291.79 48V4.53H285.79V48H291.79ZM288.79 7.53H300.76V1.53H288.79V7.53ZM297.76 4.53V38.27H303.76V4.53H297.76ZM300.76 41.27H311.61V35.27H300.76V41.27ZM308.618 38.0547L307.918 47.7847L313.902 48.2153L314.602 38.4853L308.618 38.0547ZM364.971 48V51H368.572L367.922 47.4583L364.971 48ZM353.281 48L350.336 48.571L350.807 51H353.281V48ZM351.951 41.14L354.897 40.569L354.426 38.14H351.951V41.14ZM343.691 41.14V38.14H341.217L340.746 40.569L343.691 41.14ZM342.361 48V51H344.836L345.307 48.571L342.361 48ZM331.231 48L328.281 47.4583L327.631 51H331.231V48ZM339.211 4.53V1.53H336.712L336.261 3.98832L339.211 4.53ZM356.991 4.53L359.942 3.98832L359.491 1.53H356.991V4.53ZM350.621 32.95V35.95H354.132L353.585 32.4828L350.621 32.95ZM348.171 17.41L351.135 16.9428L350.736 14.41H348.171V17.41ZM347.681 17.41V14.41H345.117L344.718 16.9428L347.681 17.41ZM345.231 32.95L342.268 32.4828L341.721 35.95H345.231V32.95ZM364.971 45H353.281V51H364.971V45ZM356.227 47.429L354.897 40.569L349.006 41.711L350.336 48.571L356.227 47.429ZM351.951 38.14H343.691V44.14H351.951V38.14ZM340.746 40.569L339.416 47.429L345.307 48.571L346.637 41.711L340.746 40.569ZM342.361 45H331.231V51H342.361V45ZM334.182 48.5417L342.162 5.07167L336.261 3.98832L328.281 47.4583L334.182 48.5417ZM339.211 7.53H356.991V1.53H339.211V7.53ZM354.041 5.07167L362.021 48.5417L367.922 47.4583L359.942 3.98832L354.041 5.07167ZM353.585 32.4828L351.135 16.9428L345.208 17.8772L347.658 33.4172L353.585 32.4828ZM348.171 14.41H347.681V20.41H348.171V14.41ZM344.718 16.9428L342.268 32.4828L348.195 33.4172L350.645 17.8772L344.718 16.9428ZM345.231 35.95H350.621V29.95H345.231V35.95ZM419.925 48V51H422.925V48H419.925ZM408.445 48L405.705 49.2228L406.499 51H408.445V48ZM399.415 27.77L402.154 26.5472L401.361 24.77H399.415V27.77ZM398.855 27.77V24.77H395.855V27.77H398.855ZM398.855 48V51H401.855V48H398.855ZM388.215 48H385.215V51H388.215V48ZM388.215 4.53V1.53H385.215V4.53H388.215ZM400.045 4.53L402.818 3.38541L402.052 1.53H400.045V4.53ZM408.655 25.39L405.882 26.5346L406.648 28.39H408.655V25.39ZM409.215 25.39V28.39H412.215V25.39H409.215ZM409.215 4.53V1.53H406.215V4.53H409.215ZM419.925 4.53H422.925V1.53H419.925V4.53ZM419.925 45H408.445V51H419.925V45ZM411.184 46.7772L402.154 26.5472L396.675 28.9928L405.705 49.2228L411.184 46.7772ZM399.415 24.77H398.855V30.77H399.415V24.77ZM395.855 27.77V48H401.855V27.77H395.855ZM398.855 45H388.215V51H398.855V45ZM391.215 48V4.53H385.215V48H391.215ZM388.215 7.53H400.045V1.53H388.215V7.53ZM397.272 5.67459L405.882 26.5346L411.428 24.2454L402.818 3.38541L397.272 5.67459ZM408.655 28.39H409.215V22.39H408.655V28.39ZM412.215 25.39V4.53H406.215V25.39H412.215ZM409.215 7.53H419.925V1.53H409.215V7.53ZM416.925 4.53V48H422.925V4.53H416.925ZM445.686 48H442.686V51H445.686V48ZM445.686 4.53V1.53H442.686V4.53H445.686ZM473.966 9.92L471.555 11.7049L471.568 11.7226L471.581 11.74L473.966 9.92ZM464.656 35.33L461.891 34.1658L461.883 34.1843L461.876 34.2029L464.656 35.33ZM464.586 17.69L461.832 18.8807L461.846 18.9118L461.86 18.9425L464.586 17.69ZM457.586 15.1V12.1H454.586V15.1H457.586ZM457.586 37.92H454.586V40.92H457.586V37.92ZM475.026 25.32C475.026 32.5659 473.581 37.4465 471.192 40.4701C468.909 43.359 465.404 45 460.106 45V51C466.754 51 472.209 48.861 475.9 44.1899C479.484 39.6535 481.026 33.1941 481.026 25.32H475.026ZM460.106 45H445.686V51H460.106V45ZM448.686 48V4.53H442.686V48H448.686ZM445.686 7.53H460.386V1.53H445.686V7.53ZM460.386 7.53C466.261 7.53 469.676 9.1674 471.555 11.7049L476.377 8.13506C472.936 3.48592 467.297 1.53 460.386 1.53V7.53ZM471.581 11.74C473.732 14.5583 475.026 18.9411 475.026 25.32H481.026C481.026 18.2589 479.613 12.375 476.351 8.09998L471.581 11.74ZM459.896 40.92C461.457 40.92 463.009 40.6508 464.375 39.9077C465.798 39.1331 466.834 37.9418 467.436 36.4571L461.876 34.2029C461.778 34.4449 461.67 34.5486 461.507 34.6373C461.286 34.7575 460.808 34.92 459.896 34.92V40.92ZM467.421 36.4942C468.417 34.1277 468.776 30.6653 468.776 26.51H462.776C462.776 30.568 462.388 32.9856 461.891 34.1658L467.421 36.4942ZM468.776 26.51C468.776 22.3183 468.399 18.8029 467.312 16.4375L461.86 18.9425C462.36 20.0305 462.776 22.395 462.776 26.51H468.776ZM467.339 16.4993C466.7 15.0215 465.635 13.8523 464.203 13.0952C462.826 12.3674 461.265 12.1 459.686 12.1V18.1C460.627 18.1 461.143 18.2643 461.399 18.3998C461.6 18.506 461.725 18.6318 461.832 18.8807L467.339 16.4993ZM459.686 12.1H457.586V18.1H459.686V12.1ZM454.586 15.1V37.92H460.586V15.1H454.586ZM457.586 40.92H459.896V34.92H457.586V40.92ZM503.812 7.61L505.973 9.69092L503.812 7.61ZM526.772 5.09L529.748 5.4621L530.098 2.66686L527.33 2.14244L526.772 5.09ZM525.372 16.29L524.693 19.2122L527.935 19.9656L528.348 16.6621L525.372 16.29ZM514.102 19.37L512.491 21.901L512.516 21.917L512.542 21.9326L514.102 19.37ZM517.952 21.47L516.61 24.1533L516.644 24.1703L516.678 24.1864L517.952 21.47ZM522.432 24.06L520.732 26.5321L520.759 26.5504L520.786 26.5681L522.432 24.06ZM526.212 28.33L523.583 29.7758L523.597 29.8007L523.611 29.8254L526.212 28.33ZM524.252 45.06L522.11 42.9594L522.11 42.9594L524.252 45.06ZM501.362 46.67L498.37 46.4491L498.197 48.794L500.432 49.5224L501.362 46.67ZM502.132 36.24L502.966 33.3585L499.412 32.3288L499.14 36.0191L502.132 36.24ZM513.892 33.37L512.127 35.7962L512.153 35.8147L512.178 35.8327L513.892 33.37ZM510.112 31.13L511.453 28.4467L511.453 28.4467L510.112 31.13ZM505.562 28.54L503.916 31.0481L503.933 31.0597L503.951 31.071L505.562 28.54ZM501.712 24.27L499.083 25.7158L499.097 25.7407L499.111 25.7654L501.712 24.27ZM503.172 17.62C503.172 14.0876 504.183 11.5494 505.973 9.69092L501.651 5.52907C498.587 8.71064 497.172 12.8457 497.172 17.62H503.172ZM505.973 9.69092C507.722 7.87392 510.191 6.83 513.752 6.83V0.829997C508.912 0.829997 504.754 2.30607 501.651 5.52907L505.973 9.69092ZM513.752 6.83C517.8 6.83 521.952 7.23028 526.213 8.03755L527.33 2.14244C522.724 1.26972 518.197 0.829997 513.752 0.829997V6.83ZM523.795 4.71789L522.395 15.9179L528.348 16.6621L529.748 5.4621L523.795 4.71789ZM526.05 13.3678C521.466 12.3027 517.972 11.68 515.852 11.68V17.68C517.185 17.68 520.037 18.1306 524.693 19.2122L526.05 13.3678ZM515.852 11.68C514.429 11.68 512.806 11.9549 511.498 13.0121C510.068 14.1679 509.562 15.8021 509.562 17.34H515.562C515.562 17.2004 515.584 17.2158 515.541 17.3197C515.519 17.3728 515.484 17.4382 515.433 17.5069C515.382 17.5757 515.325 17.6333 515.27 17.6779C515.159 17.7679 515.103 17.7671 515.193 17.7429C515.289 17.717 515.496 17.68 515.852 17.68V11.68ZM509.562 17.34C509.562 19.6443 511.238 21.1038 512.491 21.901L515.712 16.839C515.555 16.7393 515.452 16.6599 515.389 16.6052C515.325 16.5499 515.316 16.5325 515.337 16.5593C515.358 16.5877 515.416 16.6715 515.469 16.8125C515.523 16.9589 515.562 17.1397 515.562 17.34H509.562ZM512.542 21.9326C513.705 22.6405 515.065 23.3807 516.61 24.1533L519.293 18.7867C517.852 18.066 516.645 17.4061 515.661 16.8074L512.542 21.9326ZM516.678 24.1864C518.009 24.8103 519.361 25.5894 520.732 26.5321L524.131 21.5879C522.516 20.4773 520.88 19.5297 519.225 18.7536L516.678 24.1864ZM520.786 26.5681C521.798 27.2323 522.747 28.2558 523.583 29.7758L528.84 26.8842C527.623 24.6709 526.052 22.8477 524.078 21.5519L520.786 26.5681ZM523.611 29.8254C524.391 31.1816 524.822 32.8002 524.822 34.77H530.822C530.822 31.8865 530.179 29.2117 528.812 26.8346L523.611 29.8254ZM524.822 34.77C524.822 38.6659 523.787 41.2488 522.11 42.9594L526.393 47.1606C529.476 44.0179 530.822 39.7408 530.822 34.77H524.822ZM522.11 42.9594C520.445 44.6565 517.928 45.7 514.102 45.7V51.7C519.049 51.7 523.298 50.3169 526.393 47.1606L522.11 42.9594ZM514.102 45.7C510.079 45.7 506.146 45.0738 502.291 43.8176L500.432 49.5224C504.884 50.9729 509.444 51.7 514.102 51.7V45.7ZM504.353 46.8909L505.123 36.4609L499.14 36.0191L498.37 46.4491L504.353 46.8909ZM501.297 39.1215C506.257 40.5584 510.119 41.41 512.562 41.41V35.41C511.084 35.41 507.993 34.8149 502.966 33.3585L501.297 39.1215ZM512.562 41.41C513.917 41.41 515.494 41.1197 516.75 40.0136C518.078 38.8435 518.502 37.2514 518.502 35.82H512.502C512.502 35.9752 512.479 35.9792 512.512 35.8914C512.529 35.8455 512.56 35.7815 512.609 35.7095C512.658 35.6369 512.718 35.5694 512.783 35.5114C512.92 35.3916 513.022 35.364 513.003 35.3697C512.974 35.3781 512.841 35.41 512.562 35.41V41.41ZM518.502 35.82C518.502 33.5443 517.079 31.9332 515.605 30.9073L512.178 35.8327C512.334 35.9411 512.439 36.0303 512.506 36.0954C512.573 36.1603 512.594 36.1934 512.592 36.19C512.588 36.1847 512.563 36.1441 512.54 36.0696C512.515 35.993 512.502 35.9063 512.502 35.82H518.502ZM515.656 30.9438C514.462 30.0751 513.051 29.2457 511.453 28.4467L508.77 33.8133C510.159 34.5076 511.268 35.1715 512.127 35.7962L515.656 30.9438ZM511.453 28.4467C510.06 27.7502 508.633 26.9387 507.172 26.009L503.951 31.071C505.57 32.1013 507.176 33.0165 508.77 33.8133L511.453 28.4467ZM507.208 26.0319C506.18 25.3577 505.199 24.3164 504.312 22.7746L499.111 25.7654C500.371 27.9569 501.956 29.7623 503.916 31.0481L507.208 26.0319ZM504.34 22.8242C503.602 21.4828 503.172 19.7842 503.172 17.62H497.172C497.172 20.5891 497.767 23.3239 499.083 25.7158L504.34 22.8242Z" fill="white"/>
</svg>
