<svg width="192" height="140" viewBox="0 0 192 140" fill="none" xmlns="http://www.w3.org/2000/svg">
<path d="M56.6877 39.9924H49.5416V32.8463C49.5416 31.3647 48.6043 30.0451 47.2052 29.557C45.0253 28.7968 42.7365 28.4111 40.4021 28.4111C38.0677 28.4111 35.7788 28.7968 33.599 29.557C32.1998 30.0451 31.2626 31.3647 31.2626 32.8463V39.9924H24.1173C22.6357 39.9924 21.3165 40.9297 20.8284 42.3284C20.0678 44.5078 19.6821 46.7971 19.6821 49.1319C19.6821 51.4667 20.0678 53.756 20.8284 55.9354C21.3165 57.3342 22.6362 58.271 24.1173 58.271H31.2634V65.4171C31.2634 66.8987 32.2007 68.2179 33.5994 68.706C35.7788 69.4666 38.0681 69.8523 40.4029 69.8523C42.7377 69.8523 45.027 69.4666 47.2064 68.706C48.6052 68.2179 49.5424 66.8987 49.5424 65.4171V58.271H56.6886C58.1701 58.271 59.4897 57.3337 59.9778 55.935C60.738 53.7556 61.1237 51.4667 61.1237 49.1319C61.1237 46.7975 60.738 44.5087 59.9778 42.3288C59.4889 40.9297 58.1697 39.9924 56.6877 39.9924ZM53.9862 51.304H46.0585C44.1348 51.304 42.575 52.8638 42.575 54.7875V62.7152C41.1484 62.9418 39.657 62.9414 38.2304 62.7152V54.7875C38.2304 52.8638 36.6706 51.304 34.7469 51.304H26.8192C26.7061 50.5905 26.6492 49.8651 26.6492 49.1319C26.6492 48.3987 26.7061 47.6729 26.8192 46.9594H34.7469C36.6706 46.9594 38.2304 45.3996 38.2304 43.4759V35.5487C39.6574 35.322 41.1484 35.322 42.575 35.5487V43.4759C42.575 45.3996 44.1348 46.9594 46.0585 46.9594H53.9858C54.0989 47.6729 54.1558 48.3983 54.1558 49.1319C54.1558 49.8651 54.0989 50.5909 53.9862 51.304Z" fill="white"/>
<path d="M104.231 41.8968C104.234 41.8968 104.238 41.8968 104.242 41.8968C107.519 41.8931 110.168 39.2325 110.16 35.9556C110.152 32.6823 107.496 30.034 104.219 30.0381C100.945 30.0459 98.2931 32.7065 98.3013 35.9793C98.3087 39.2522 100.961 41.8968 104.231 41.8968Z" fill="white"/>
<path d="M169.526 46.1488C163.359 39.494 153.292 38.7285 146.11 44.3701C144.148 45.9119 141.858 47.2315 139.334 48.3147C136.562 32.2971 129.285 17.5999 118.111 5.55105C111.943 -1.10452 101.877 -1.87089 94.6931 3.77076C88.7506 8.44155 79.8574 11.1206 70.2941 11.1206C60.7284 11.1206 51.8339 8.44155 45.891 3.77035C38.7134 -1.87048 28.6468 -1.10493 22.474 5.55064C7.98135 21.1875 0 41.5444 0 62.8713C0 70.8625 1.11964 78.7766 3.3286 86.3945C4.94332 91.9615 9.23091 96.2962 14.7972 97.9896C16.4545 98.4937 18.1475 98.7409 19.8261 98.7409C23.7924 98.7409 27.6759 97.3618 30.8021 94.741C37.6146 89.0247 45.5501 84.881 54.04 82.5564C52.3122 89.3272 51.4163 96.345 51.4163 103.473C51.4163 111.468 52.5355 119.382 54.7429 126.994C56.3576 132.562 60.6452 136.897 66.2131 138.59C67.8696 139.094 69.5613 139.34 71.2392 139.34C75.2059 139.34 79.0902 137.96 82.2151 135.339C93.2521 126.079 107.278 120.979 121.708 120.979C136.139 120.979 150.165 126.079 161.201 135.339C165.648 139.07 171.63 140.285 177.203 138.59C182.771 136.897 187.059 132.562 188.673 126.994C190.881 119.383 192 111.469 192 103.473C192 82.1425 184.019 61.7848 169.526 46.1488ZM25.5346 88.4608C23.1826 90.4325 20.1384 91.0476 17.1832 90.148C14.2337 89.2509 12.053 87.0502 11.2005 84.1117C9.20714 77.2361 8.19651 70.0896 8.19651 62.8713C8.19651 43.6173 15.4021 25.2391 28.4849 11.123C31.7287 7.62476 37.0343 7.2342 40.8264 10.2144C48.1857 15.9991 58.9264 19.3167 70.2945 19.3167C81.6598 19.3167 92.3993 15.9991 99.7569 10.2157C103.554 7.23461 108.858 7.62517 112.1 11.123C122.427 22.2588 129.063 35.897 131.427 50.7519C128.653 51.3171 125.734 51.64 122.74 51.7007C123.13 50.9068 123.354 50.0163 123.351 49.0712C123.343 45.7984 120.678 43.1497 117.402 43.1616C114.129 43.1693 111.484 45.8336 111.492 49.1106C111.494 49.6614 111.577 50.1921 111.719 50.6978C106.109 49.5192 101.104 47.3532 97.3065 44.3701C90.1256 38.7289 80.059 39.4936 73.8903 46.1488C66.4483 54.1777 60.7284 63.4541 56.9194 73.4653C45.3951 75.7087 34.588 80.8639 25.5346 88.4608ZM180.802 124.711C179.949 127.65 177.769 129.851 174.818 130.748C171.864 131.647 168.82 131.031 166.47 129.059C153.959 118.563 138.062 112.782 121.708 112.782C105.354 112.782 89.458 118.563 76.9472 129.059C74.5969 131.031 71.5547 131.646 68.5978 130.748C65.6483 129.851 63.4672 127.65 62.6152 124.711C60.623 117.841 59.6128 110.695 59.6128 103.472C59.6128 84.215 66.8184 65.836 79.9016 51.7208C81.684 49.7979 84.0901 48.8151 86.5261 48.8151C88.5203 48.8151 90.535 49.4741 92.2427 50.8159C99.604 56.5985 110.344 59.9152 121.708 59.9152C133.072 59.9152 143.812 56.5985 151.173 50.8159C154.967 47.8352 160.273 48.2233 163.514 51.7208C176.598 65.8364 183.803 84.2154 183.803 103.472C183.804 110.695 182.794 117.841 180.802 124.711Z" fill="white"/>
<path d="M108.102 80.5916H100.956V73.4459C100.956 71.9644 100.019 70.6447 98.6202 70.1566C96.4407 69.3964 94.1518 69.0107 91.817 69.0107C89.4827 69.0107 87.1938 69.3964 85.0139 70.1566C83.6148 70.6447 82.6775 71.9644 82.6775 73.4459V80.592H75.5318C74.0503 80.592 72.7311 81.5293 72.243 82.928C71.4823 85.1075 71.0967 87.3967 71.0967 89.7315C71.0967 92.0663 71.4823 94.3556 72.243 96.535C72.7311 97.9338 74.0503 98.871 75.5318 98.871H82.6775V106.017C82.6775 107.498 83.6148 108.818 85.0135 109.306C87.1934 110.066 89.4827 110.452 91.817 110.452C94.1518 110.452 96.4411 110.066 98.6206 109.306C100.019 108.818 100.956 107.498 100.956 106.017V98.871H108.102C109.583 98.871 110.903 97.9342 111.391 96.5354C112.151 94.3564 112.537 92.0671 112.537 89.7315C112.537 87.3959 112.152 85.1066 111.391 82.9276C110.903 81.5285 109.583 80.5916 108.102 80.5916ZM105.4 91.9036H97.4726C95.5489 91.9036 93.9891 93.4634 93.9891 95.3871V103.314C92.5625 103.541 91.0712 103.541 89.6446 103.314V95.3871C89.6446 93.4634 88.0848 91.9036 86.161 91.9036H78.2338C78.1207 91.1901 78.0637 90.4647 78.0637 89.7311C78.0637 88.9975 78.1207 88.2721 78.2338 87.5586H86.161C88.0848 87.5586 89.6446 85.9988 89.6446 84.0751V76.1479C91.0716 75.9212 92.5625 75.9216 93.9891 76.1479V84.0755C93.9891 85.9992 95.5489 87.559 97.4726 87.559H105.4C105.513 88.2725 105.57 88.9979 105.57 89.7315C105.57 90.4651 105.513 91.1901 105.4 91.9036Z" fill="white"/>
<path d="M168.837 95.6209C168.841 95.6209 168.849 95.6209 168.853 95.6209C172.13 95.609 174.775 92.9484 174.767 89.6715C174.755 86.3986 172.095 83.7499 168.818 83.7618C165.544 83.7695 162.896 86.4338 162.908 89.7071C162.915 92.9763 165.568 95.6209 168.837 95.6209Z" fill="white"/>
<path d="M142.503 83.8135C139.229 83.8176 136.577 86.4737 136.582 89.7506C136.586 93.0235 139.242 95.6763 142.519 95.6722C145.792 95.6681 148.444 93.012 148.44 89.7387C148.436 86.4622 145.78 83.8098 142.503 83.8135Z" fill="white"/>
<path d="M155.705 96.9659C155.67 96.9659 155.638 96.9659 155.603 96.9659C152.361 97.0052 149.744 99.6421 149.744 102.895C149.744 106.168 152.4 108.825 155.673 108.825C155.681 108.825 155.689 108.825 155.693 108.825C155.705 108.825 155.717 108.825 155.729 108.825C155.737 108.825 155.745 108.825 155.753 108.825C159.025 108.813 161.67 106.144 161.658 102.871C161.643 99.5945 158.978 96.9499 155.705 96.9659Z" fill="white"/>
<path d="M155.646 82.4974C155.65 82.4974 155.654 82.4974 155.658 82.4974C158.935 82.4896 161.583 79.8294 161.575 76.5562C161.567 73.2792 158.907 70.6305 155.634 70.6387C152.357 70.6465 149.709 73.3071 149.717 76.5799C149.72 79.8491 152.377 82.4974 155.646 82.4974Z" fill="white"/>
</svg>
