<svg width="35" height="35" viewBox="0 0 35 35" fill="none" xmlns="http://www.w3.org/2000/svg">
<path d="M17.5 8.42603C12.4963 8.42603 8.42596 12.4964 8.42596 17.5001C8.42596 22.5038 12.4963 26.5742 17.5 26.5742C22.5037 26.5742 26.5741 22.5038 26.5741 17.5001C26.5741 12.4964 22.5037 8.42603 17.5 8.42603ZM17.5 25.2779C13.2112 25.2779 9.72225 21.7889 9.72225 17.5001C9.72225 13.2113 13.2112 9.72232 17.5 9.72232C21.7888 9.72232 25.2778 13.2113 25.2778 17.5001C25.2778 21.7889 21.7888 25.2779 17.5 25.2779Z" fill="#006064"/>
<path d="M33.1982 13.6111H31.8902C31.5564 12.3719 31.0657 11.1857 30.4254 10.0742L31.3496 9.14991C31.6899 8.80963 31.8772 8.35657 31.8772 7.87565C31.8772 7.39407 31.6899 6.94167 31.3496 6.60074L28.3986 3.64972C27.7181 2.96982 26.5313 2.96852 25.8494 3.64972L24.9252 4.57398C23.813 3.93426 22.6275 3.44361 21.3889 3.10981V1.80185C21.3889 0.808241 20.5806 0 19.587 0H15.413C14.4194 0 13.6111 0.808241 13.6111 1.80185V3.10981C12.3725 3.44361 11.187 3.93426 10.0742 4.57463L9.14991 3.65037C8.4687 2.96852 7.2813 2.96982 6.60074 3.65037L3.64972 6.60139C3.30944 6.94167 3.12213 7.39472 3.12213 7.8763C3.12213 8.35722 3.30944 8.80963 3.64972 9.15056L4.57398 10.0748C3.93426 11.1857 3.44296 12.3719 3.10981 13.6111H1.80185C0.808241 13.6111 0 14.4194 0 15.413V19.5864C0 20.5806 0.808241 21.3889 1.80185 21.3889H3.10981C3.44361 22.6275 3.93426 23.813 4.57463 24.9258L3.65037 25.8501C3.31009 26.1904 3.12278 26.6434 3.12278 27.1244C3.12278 27.6059 3.31009 28.0583 3.65037 28.3993L6.60139 31.3503C7.28195 32.0315 8.46935 32.0321 9.15056 31.3503L10.0748 30.426C11.1877 31.0657 12.3731 31.557 13.6118 31.8908V33.1988C13.6118 34.1924 14.42 35.0006 15.4136 35.0006H19.587C20.5806 35.0006 21.3889 34.1924 21.3889 33.1988V31.8908C22.6275 31.557 23.813 31.0664 24.9258 30.426L25.8501 31.3503C26.5319 32.0321 27.7181 32.0308 28.3993 31.3503L31.3503 28.3993C31.6906 28.059 31.8779 27.6059 31.8779 27.1244C31.8779 26.6434 31.6906 26.191 31.3503 25.8501L30.426 24.9258C31.0657 23.813 31.557 22.6275 31.8908 21.3889H33.1988C34.1924 21.3889 35.0006 20.5806 35.0006 19.587V15.413C35 14.4194 34.1918 13.6111 33.1982 13.6111ZM33.7037 19.587C33.7037 19.8657 33.4769 20.0926 33.1982 20.0926H30.87L30.7533 20.5936C30.4157 22.0435 29.8466 23.4195 29.0597 24.6841L28.7875 25.1209L30.4331 26.7666C30.6308 26.9643 30.6308 27.2851 30.4331 27.4821L27.4821 30.4331C27.2851 30.6302 26.9643 30.6315 26.7666 30.4331L25.1209 28.7875L24.6841 29.0597C23.4202 29.8466 22.0442 30.4163 20.5936 30.7533L20.0926 30.87V33.1982C20.0926 33.4769 19.8657 33.7037 19.587 33.7037H15.413C15.1343 33.7037 14.9074 33.4769 14.9074 33.1982V30.87L14.4064 30.7533C12.9565 30.4157 11.5805 29.8466 10.3159 29.0597L9.87907 28.7875L8.23343 30.4331C8.03509 30.6315 7.71426 30.6302 7.51787 30.4331L4.56685 27.4821C4.36917 27.2844 4.36917 26.9636 4.56685 26.7666L6.2125 25.1209L5.94028 24.6841C5.15343 23.4202 4.5837 22.0442 4.24667 20.5936L4.13 20.0926H1.80185C1.52315 20.0926 1.2963 19.8657 1.2963 19.587V15.413C1.2963 15.1343 1.52315 14.9074 1.80185 14.9074H4.13L4.24667 14.4064C4.58435 12.9558 5.15343 11.5798 5.94028 10.3159L6.2125 9.87907L4.56685 8.23343C4.36917 8.03574 4.36917 7.71491 4.56685 7.51787L7.51787 4.56685C7.71491 4.36981 8.03574 4.36852 8.23343 4.56685L9.87907 6.2125L10.3159 5.94028C11.5798 5.15343 12.9558 4.5837 14.4064 4.24667L14.9074 4.13V1.80185C14.9074 1.52315 15.1343 1.2963 15.413 1.2963H19.5864C19.8657 1.2963 20.0926 1.52315 20.0926 1.80185V4.13L20.5936 4.24667C22.0435 4.58435 23.4195 5.15343 24.6841 5.94028L25.1209 6.2125L26.7666 4.56685C26.9649 4.36852 27.2857 4.36981 27.4821 4.56685L30.4331 7.51787C30.6308 7.71556 30.6308 8.03639 30.4331 8.23343L28.7875 9.87907L29.0597 10.3159C29.8466 11.5792 30.4163 12.9552 30.7533 14.4064L30.87 14.9074H33.1982C33.4769 14.9074 33.7037 15.1343 33.7037 15.413V19.587Z" fill="#006064"/>
<path d="M17.5 11.0186C13.9261 11.0186 11.0185 13.9261 11.0185 17.5C11.0185 21.0739 13.9261 23.9815 17.5 23.9815C21.0739 23.9815 23.9815 21.0739 23.9815 17.5C23.9815 13.9261 21.0739 11.0186 17.5 11.0186ZM17.5 22.6852C14.641 22.6852 12.3148 20.359 12.3148 17.5C12.3148 14.6411 14.641 12.3149 17.5 12.3149C20.359 12.3149 22.6852 14.6411 22.6852 17.5C22.6852 20.359 20.359 22.6852 17.5 22.6852Z" fill="#006064"/>
</svg>
