<svg width="59" height="59" viewBox="0 0 59 59" fill="none" xmlns="http://www.w3.org/2000/svg">
<g clip-path="url(#clip0)">
<path d="M11.9199 57.607C11.7013 57.607 11.4827 57.5394 11.299 57.4053C10.9737 57.1688 10.811 56.7685 10.8797 56.3725L14.144 37.344L0.318893 23.8695C0.031639 23.5886 -0.0718568 23.1693 0.0517045 22.7881C0.176322 22.4058 0.506875 22.127 0.905017 22.0689L20.0095 19.2925L28.5542 1.98016C28.7317 1.61898 29.0992 1.39087 29.5005 1.39087C29.9029 1.39087 30.2704 1.61898 30.4467 1.98016L38.9904 19.2925L58.096 22.0689C58.4941 22.127 58.8236 22.4047 58.9493 22.7881C59.0728 23.1693 58.9704 23.5897 58.6821 23.8695L44.8569 37.3462L48.1202 56.3735C48.1878 56.7696 48.0252 57.1698 47.701 57.4064C47.3757 57.6451 46.9438 57.6757 46.5879 57.4866L29.5005 48.5036L12.411 57.4866C12.2568 57.5669 12.0878 57.607 11.9199 57.607Z" fill="white"/>
</g>
<defs>
<clipPath id="clip0">
<rect width="59" height="59" fill="white"/>
</clipPath>
</defs>
</svg>
