<svg width="75" height="75" viewBox="0 0 75 75" fill="none" xmlns="http://www.w3.org/2000/svg">
<rect x="1.5" y="1.5" width="72" height="72" stroke="#4C75A3" stroke-width="3"/>
<g clip-path="url(#clip0)">
<path fill-rule="evenodd" clip-rule="evenodd" d="M53.7533 41.2474C55.4782 42.8262 57.2988 44.3117 58.8458 46.0497C59.5292 46.822 60.1762 47.619 60.6712 48.5154C61.3725 49.7895 60.7373 51.1917 59.5186 51.2678L51.9431 51.2646C49.9893 51.4166 48.4306 50.6791 47.12 49.4268C46.0712 48.4252 45.0999 47.3592 44.0914 46.3239C43.6779 45.9007 43.2451 45.5025 42.7281 45.1878C41.694 44.5585 40.7963 44.7512 40.2054 45.7623C39.6035 46.7908 39.467 47.9296 39.4078 49.0758C39.3267 50.7482 38.7875 51.1878 36.9956 51.2644C33.1662 51.4337 29.5318 50.8906 26.1557 49.0795C23.1791 47.4829 20.8709 45.229 18.8619 42.6773C14.9503 37.7086 11.9548 32.2488 9.2625 26.636C8.65649 25.3714 9.09968 24.6926 10.588 24.6686C13.0593 24.6236 15.5303 24.6268 18.0046 24.6654C19.009 24.6792 19.6739 25.2193 20.0618 26.1089C21.3988 29.1911 23.0349 32.1235 25.0885 34.8416C25.6354 35.5653 26.1931 36.2889 26.9872 36.7983C27.8657 37.3623 28.5346 37.1753 28.9479 36.2579C29.2101 35.6761 29.3249 35.0495 29.3841 34.4265C29.5798 32.2829 29.6056 30.143 29.2622 28.0069C29.0514 26.6738 28.2505 25.8108 26.8315 25.5585C26.1075 25.4299 26.2153 25.1773 26.5659 24.7899C27.1748 24.1216 27.7475 23.7057 28.8891 23.7057H37.4506C38.7984 23.955 39.0977 24.5227 39.2823 25.7941L39.2896 34.7098C39.2749 35.202 39.5519 36.6626 40.4975 36.9884C41.2544 37.2203 41.7533 36.6527 42.2074 36.2028C44.2573 34.1631 45.7202 31.7527 47.0272 29.2567C47.6073 28.1592 48.106 27.0195 48.5893 25.8806C48.9474 25.0356 49.5094 24.6198 50.5247 24.6382L58.7647 24.6451C59.009 24.6451 59.2562 24.6484 59.4928 24.6864C60.8813 24.9082 61.2618 25.4682 60.833 26.7393C60.1573 28.7336 58.8426 30.3956 57.5571 32.0652C56.183 33.8478 54.7133 35.5693 53.3506 37.3624C52.0986 38.9999 52.198 39.8252 53.7533 41.2474Z" fill="#4C75A3"/>
</g>
<defs>
<clipPath id="clip0">
<rect width="52" height="48.75" fill="white" transform="translate(9 13.125)"/>
</clipPath>
</defs>
</svg>
