<svg width="60" height="60" viewBox="0 0 60 60" fill="none" xmlns="http://www.w3.org/2000/svg">
<path d="M32.9871 56.1012C32.7469 56.1012 32.5075 56.0307 32.3012 55.8911C28.1027 53.0529 24.4538 50.3323 20.9251 47.7014C17.508 45.1536 13.9777 42.5214 9.95731 39.7912H1.22449C0.548204 39.7912 0 39.2428 0 38.5667V21.4333C0 20.7571 0.548204 20.2088 1.22449 20.2088H9.9578C18.2289 14.5931 32.114 4.24668 32.255 4.1415C32.6264 3.86452 33.1222 3.82117 33.5361 4.0286C33.9501 4.2364 34.2115 4.65995 34.2115 5.12305V54.8768C34.2115 55.3297 33.9615 55.7458 33.5613 55.9582C33.3811 56.054 33.1838 56.1012 32.9871 56.1012ZM2.44898 37.3423H10.3331C10.5775 37.3423 10.8164 37.4155 11.0189 37.5524C15.2151 40.3893 18.862 43.1084 22.3889 45.7381C25.3469 47.9437 28.3904 50.2128 31.7625 52.5535V7.55648C27.5451 10.6772 17.4622 18.0919 11.0193 22.4477C10.8169 22.5846 10.578 22.6579 10.3335 22.6579H2.44898V37.3423Z" fill="white"/>
<path d="M40.5036 33.6899C40.002 33.2334 40.0594 32.4577 40.5153 31.9582C41.0837 31.3355 41.338 30.7395 41.338 30.0004C41.338 29.2614 41.0456 28.5659 40.5148 28.0422C40.0333 27.5672 40.0282 26.792 40.5031 26.3105C40.978 25.8292 41.7535 25.8239 42.2348 26.2989C43.2357 27.2863 43.787 28.6009 43.787 30.0004C43.787 31.3999 43.2672 32.7468 42.2353 33.7015C41.7265 34.1723 40.9916 34.1338 40.5036 33.6899Z" fill="white"/>
<path d="M47.1076 39.7138C46.7917 39.7138 46.4759 39.5923 46.2362 39.3496C45.7611 38.8682 45.766 38.093 46.2474 37.6178C48.3091 35.5822 49.4444 32.8769 49.4444 30.0004C49.4444 27.1236 48.3089 24.4184 46.2471 22.3832C45.7658 21.9081 45.7608 21.1327 46.2359 20.6514C46.7112 20.17 47.4862 20.1651 47.9677 20.6401C50.4993 23.1392 51.8934 26.4634 51.8934 30.0002C51.8934 33.5369 50.4993 36.8611 47.9679 39.3604C47.7293 39.5962 47.4184 39.7138 47.1076 39.7138Z" fill="white"/>
<path d="M52.8395 45.3725C52.5236 45.3725 52.2076 45.2509 51.9681 45.0082C51.493 44.527 51.4979 43.7517 51.9793 43.2766C55.5722 39.7294 57.5509 35.0145 57.5509 30.0004C57.5509 24.9865 55.5722 20.2714 51.9789 16.7236C51.4977 16.2484 51.4928 15.4732 51.9679 14.9918C52.443 14.5106 53.2183 14.5057 53.6996 14.9808C57.7624 18.9924 59.9999 24.3264 59.9999 30.0004C59.9999 35.6746 57.7624 41.0083 53.6998 45.0194C53.4613 45.255 53.1503 45.3725 52.8395 45.3725Z" fill="white"/>
</svg>
