<svg width="36" height="36" viewBox="0 0 36 36" fill="none" xmlns="http://www.w3.org/2000/svg">
<rect width="36" height="36" rx="18" fill="#FFF3E0"/>
<path d="M17.6775 9.8225V25.192L14.0099 21.5246C13.6888 21.2033 13.1679 21.2033 12.8468 21.5246C12.5255 21.8459 12.5255 22.3668 12.8468 22.6876L17.9184 27.759C18.2395 28.0803 18.7604 28.0803 19.0814 27.759L24.1531 22.6876C24.3138 22.527 24.3941 22.3165 24.3941 22.1061C24.3941 21.8957 24.3138 21.6852 24.1531 21.5246C23.832 21.2033 23.3112 21.2033 22.9902 21.5246L19.3223 25.192V9.8225C19.3223 9.36831 18.9541 9 18.4999 9C18.0457 9 17.6775 9.36826 17.6775 9.8225Z" fill="#006064"/>
</svg>
