<svg width="39" height="39" fill="none" xmlns="http://www.w3.org/2000/svg"><path d="M36.894 2.168a7.206 7.206 0 0 0-10.18 0v.003L3.354 25.53a.652.652 0 0 0-.15.245.566.566 0 0 0-.02.054L.02 38.243a.654.654 0 0 0 .798.798l12.413-3.161c.02-.005.036-.015.054-.021a.647.647 0 0 0 .246-.149L36.89 12.35l.004-.003a7.205 7.205 0 0 0 0-10.18zm-.925.925a5.898 5.898 0 0 1 .438 7.84l-8.278-8.278a5.897 5.897 0 0 1 7.84.438zm-8.791.467l8.328 8.323-2.346 2.347-8.328-8.328 2.346-2.342zM2.355 34.382a4.624 4.624 0 0 1 2.325 2.325l-3.118.793.793-3.118zm3.6 1.998a5.931 5.931 0 0 0-3.272-3.272l1.484-5.84 7.626 7.628-5.838 1.484zm7.114-2.061l-8.328-8.326L23.907 6.827l8.327 8.329L13.07 34.319z" fill="#fff"/></svg>