<svg width="50" height="50" viewBox="0 0 50 50" fill="none" xmlns="http://www.w3.org/2000/svg">
<path d="M23.3332 28.3334H26.6665C27.1268 28.3334 27.4999 27.9602 27.4999 27.5V24.1667C27.4999 23.7065 27.1268 23.3334 26.6665 23.3334H23.3332C22.873 23.3334 22.4999 23.7065 22.4999 24.1667V27.5C22.4999 27.9602 22.873 28.3334 23.3332 28.3334ZM24.1665 25H25.8332V26.6667H24.1665V25Z" fill="#006064"/>
<path d="M24.9999 45C27.7611 45 29.9999 42.7612 29.9999 40C29.9999 37.2388 27.7611 35 24.9999 35C22.2386 35 19.9999 37.2388 19.9999 40C20.0027 42.7604 22.2395 44.9972 24.9999 45ZM24.9999 36.6667C26.8407 36.6667 28.3332 38.1592 28.3332 40C28.3332 41.8408 26.8407 43.3333 24.9999 43.3333C23.1591 43.3333 21.6665 41.8408 21.6665 40C21.6665 38.1592 23.1591 36.6667 24.9999 36.6667Z" fill="#006064"/>
<path d="M13.3335 23.3333H8.33346C7.87325 23.3333 7.50012 23.7065 7.50012 24.1667V26.6667H5.83346C5.37325 26.6667 5.00012 27.0398 5.00012 27.5V49.1667C5.00012 49.6269 5.37325 50 5.83346 50H43.3335C43.7937 50 44.1668 49.6269 44.1668 49.1667V23.3333C44.1668 22.8731 43.7937 22.5 43.3335 22.5H41.1053L42.295 18.3333H42.5001C43.8807 18.3333 45.0001 17.2139 45.0001 15.8333V2.5C45.0001 1.11938 43.8807 0 42.5001 0H27.5001C26.1195 0 25.0001 1.11938 25.0001 2.5V15.8333C25.0001 17.2139 26.1195 18.3333 27.5001 18.3333H27.7052L28.1809 20H20.0001C19.5399 20 19.1668 20.3731 19.1668 20.8333V22.5H16.6668C16.2066 22.5 15.8335 22.8731 15.8335 23.3333V26.6667H14.1668V24.1667C14.1668 23.7065 13.7937 23.3333 13.3335 23.3333ZM9.16679 25H12.5001V26.6667H9.16679V25ZM6.66679 48.3333V31.6667H19.4842C16.6843 33.5148 14.9997 36.6451 14.9997 40C14.9997 43.3549 16.6843 46.4852 19.4842 48.3333H6.66679ZM33.3335 40C33.3335 44.6025 29.6026 48.3333 25.0001 48.3333C20.3977 48.3333 16.6668 44.6025 16.6668 40C16.6668 35.3975 20.3977 31.6667 25.0001 31.6667C29.6005 31.6715 33.3286 35.3996 33.3335 40ZM30.5161 48.3333C33.316 46.4852 35.0005 43.3549 35.0005 40C35.0005 36.6451 33.316 33.5148 30.5161 31.6667H42.5001V48.3333H30.5161ZM42.5001 30H30.8335V24.1667H42.5001V30ZM26.6668 15.8333V2.5C26.6668 2.03979 27.0399 1.66667 27.5001 1.66667H42.5001C42.9603 1.66667 43.3335 2.03979 43.3335 2.5V15.8333C43.3335 16.2935 42.9603 16.6667 42.5001 16.6667H27.5001C27.0399 16.6667 26.6668 16.2935 26.6668 15.8333ZM29.4386 18.3333H40.5616L39.3719 22.5H30.8335V20.8333C30.8335 20.3731 30.4603 20 30.0001 20H29.9167L29.4386 18.3333ZM20.8335 21.6667H29.1668V30H20.8335V21.6667ZM16.6668 28.3333C17.127 28.3333 17.5001 27.9602 17.5001 27.5V24.1667H19.1668V30H6.66679V28.3333H16.6668Z" fill="#006064"/>
<path d="M30.8333 14.9999H39.1666C40.5472 14.9999 41.6666 13.8805 41.6666 12.4999V5.83325C41.6666 4.45264 40.5472 3.33325 39.1666 3.33325H30.8333C29.4526 3.33325 28.3333 4.45264 28.3333 5.83325V12.4999C28.3333 13.8805 29.4526 14.9999 30.8333 14.9999ZM29.9999 5.83325C29.9999 5.37305 30.373 4.99992 30.8333 4.99992H39.1666C39.6268 4.99992 39.9999 5.37305 39.9999 5.83325V12.4999C39.9999 12.9601 39.6268 13.3333 39.1666 13.3333H30.8333C30.373 13.3333 29.9999 12.9601 29.9999 12.4999V5.83325Z" fill="#006064"/>
<path d="M39.1669 33.3334H40.8335V35H39.1669V33.3334Z" fill="#006064"/>
<path d="M34.9999 11.6667C36.3805 11.6667 37.4999 10.5474 37.4999 9.16675C37.4999 7.78613 36.3805 6.66675 34.9999 6.66675C33.6193 6.66675 32.4999 7.78613 32.4999 9.16675C32.4999 10.5474 33.6193 11.6667 34.9999 11.6667ZM34.9999 8.33341C35.4601 8.33341 35.8332 8.70654 35.8332 9.16675C35.8332 9.62695 35.4601 10.0001 34.9999 10.0001C34.5397 10.0001 34.1665 9.62695 34.1665 9.16675C34.1665 8.70654 34.5397 8.33341 34.9999 8.33341Z" fill="#006064"/>
</svg>
