<svg width="40" height="40" viewBox="0 0 40 40" fill="none" xmlns="http://www.w3.org/2000/svg">
<path d="M32.5829 0H30.6123H7.75514H0.408203V40H6.12249H33.0613H39.5919V7.00898L32.5829 0ZM28.9796 1.63265V13.0612H9.38779V1.63265H28.9796ZM7.75514 38.3673V22.8571H31.4286V38.3673H7.75514ZM37.9592 38.3673H33.0613V21.2245H6.12249V38.3673H2.04086V1.63265H7.75514V14.6939H30.6123V1.63265H31.907L37.9592 7.6849V38.3673Z" fill="white"/>
<path d="M11.0204 26.9388H16.7347C17.1861 26.9388 17.551 26.5739 17.551 26.1225C17.551 25.6711 17.1861 25.3062 16.7347 25.3062H11.0204C10.569 25.3062 10.2041 25.6711 10.2041 26.1225C10.2041 26.5739 10.569 26.9388 11.0204 26.9388Z" fill="white"/>
<path d="M19.1837 28.5715H11.0204C10.569 28.5715 10.2041 28.9364 10.2041 29.3879C10.2041 29.8393 10.569 30.2042 11.0204 30.2042H19.1837C19.6351 30.2042 20 29.8393 20 29.3879C20 28.9364 19.6351 28.5715 19.1837 28.5715Z" fill="white"/>
<path d="M21.0531 28.8081C20.9054 28.9624 20.8164 29.1754 20.8164 29.3877C20.8164 29.5999 20.9054 29.8122 21.0531 29.9673C21.2074 30.1142 21.4115 30.204 21.6327 30.204C21.845 30.204 22.0572 30.1142 22.2123 29.9673C22.3593 29.8122 22.4491 29.5999 22.4491 29.3877C22.4491 29.1754 22.3593 28.9624 22.2123 28.8081C21.9103 28.506 21.3552 28.506 21.0531 28.8081Z" fill="white"/>
<path d="M27.3469 3.26538H22.449V11.4286H27.3469V3.26538ZM25.7143 9.79599H24.0816V4.89803H25.7143V9.79599Z" fill="white"/>
</svg>
