<svg width="400" height="250" viewBox="0 0 400 250" fill="none" xmlns="http://www.w3.org/2000/svg">
<rect y="9" width="400" height="240" fill="#FFF3E0"/>
<rect x="200" y="99" width="50" height="50" fill="url(#paint0_radial)"/>
<path fill-rule="evenodd" clip-rule="evenodd" d="M213.106 114.364L213.106 114.364L213.106 114.364C210.763 112.021 206.964 112.021 204.621 114.364L202.5 112.243C206.015 108.728 211.713 108.728 215.228 112.242L219.47 108L219.47 108L215.228 112.242L215.228 112.243L215.228 112.243C217.571 114.586 221.37 114.586 223.713 112.243L225.834 114.364C222.32 117.879 216.621 117.879 213.106 114.364L208.864 118.606L208.864 118.606L213.106 114.364ZM234.32 114.364L236.441 112.243C238.785 114.586 242.583 114.586 244.926 112.243L240.684 108L240.684 108L247.048 114.364C243.533 117.879 237.835 117.879 234.32 114.364ZM236.441 112.243C232.926 108.728 227.228 108.728 223.713 112.243L230.077 118.606L230.077 118.606L225.835 114.364C228.178 112.021 231.977 112.021 234.32 114.364L236.441 112.243Z" fill="#E8FEFB"/>
<path fill-rule="evenodd" clip-rule="evenodd" d="M247.048 124.864C243.533 128.379 237.835 128.379 234.32 124.864L236.441 122.743C238.785 125.086 242.583 125.086 244.926 122.743L240.684 118.5L240.684 118.5L247.048 124.864ZM213.106 124.864L213.106 124.864L213.106 124.864C210.763 122.521 206.964 122.521 204.621 124.864L202.5 122.743C206.015 119.228 211.713 119.228 215.228 122.742L219.47 118.5L219.47 118.5L215.228 122.742L215.228 122.743L215.228 122.743C217.571 125.086 221.37 125.086 223.713 122.743L225.834 124.864C222.32 128.379 216.621 128.379 213.106 124.864L208.864 129.106L208.864 129.106L213.106 124.864ZM236.441 122.743C232.926 119.228 227.228 119.228 223.713 122.743L230.077 129.106L230.077 129.106L225.835 124.864C228.178 122.521 231.977 122.521 234.32 124.864L236.441 122.743Z" fill="#E8FEFB"/>
<path fill-rule="evenodd" clip-rule="evenodd" d="M213.106 135.364L213.106 135.364L213.106 135.364C210.763 133.021 206.964 133.021 204.621 135.364L202.5 133.243C206.015 129.728 211.713 129.728 215.228 133.242L219.47 129L219.47 129L215.228 133.242L215.228 133.243L215.228 133.243C217.571 135.586 221.37 135.586 223.713 133.243L225.834 135.364C222.32 138.879 216.621 138.879 213.106 135.364L208.864 139.606L208.864 139.606L213.106 135.364ZM234.32 135.364L236.441 133.243C238.785 135.586 242.583 135.586 244.926 133.243L240.684 129L240.684 129L247.048 135.364C243.533 138.879 237.835 138.879 234.32 135.364ZM236.441 133.243C232.926 129.728 227.228 129.728 223.713 133.243L230.077 139.606L230.077 139.606L225.835 135.364C228.178 133.021 231.977 133.021 234.32 135.364L236.441 133.243Z" fill="#E8FEFB"/>
<rect x="300" width="50" height="50" fill="url(#paint1_radial)"/>
<path fill-rule="evenodd" clip-rule="evenodd" d="M313.106 15.364L313.106 15.364L313.106 15.3639C310.763 13.0209 306.964 13.0208 304.621 15.3638L302.5 13.2425C306.015 9.72781 311.713 9.72778 315.228 13.2424L319.47 9L319.47 9.00004L315.228 13.2425L315.228 13.2425L315.228 13.2425C317.571 15.5856 321.37 15.5856 323.713 13.2427L325.834 15.364C322.32 18.8787 316.621 18.8787 313.106 15.364L308.864 19.6065L308.864 19.6064L313.106 15.364ZM334.32 15.364L336.441 13.2427C338.785 15.5856 342.583 15.5856 344.926 13.2425L340.684 9.00004L340.684 9L347.048 15.364C343.533 18.8787 337.835 18.8787 334.32 15.364ZM336.441 13.2425C332.926 9.72778 327.228 9.72778 323.713 13.2425L330.077 19.6065L330.077 19.6064L325.835 15.364C328.178 13.0209 331.977 13.0208 334.32 15.3638L336.441 13.2425Z" fill="#E8FEFB"/>
<path fill-rule="evenodd" clip-rule="evenodd" d="M347.048 25.864C343.533 29.3787 337.835 29.3787 334.32 25.864L336.441 23.7427C338.785 26.0856 342.583 26.0856 344.926 23.7425L340.684 19.5L340.684 19.5L347.048 25.864ZM313.106 25.864L313.106 25.864L313.106 25.8639C310.763 23.5209 306.964 23.5208 304.621 25.8638L302.5 23.7425C306.015 20.2278 311.713 20.2278 315.228 23.7424L319.47 19.5L319.47 19.5L315.228 23.7425L315.228 23.7425L315.228 23.7425C317.571 26.0856 321.37 26.0856 323.713 23.7427L325.834 25.864C322.32 29.3787 316.621 29.3787 313.106 25.864L308.864 30.1065L308.864 30.1064L313.106 25.864ZM336.441 23.7425C332.926 20.2278 327.228 20.2278 323.713 23.7425L330.077 30.1065L330.077 30.1064L325.835 25.864C328.178 23.5209 331.977 23.5208 334.32 25.8638L336.441 23.7425Z" fill="#E8FEFB"/>
<path fill-rule="evenodd" clip-rule="evenodd" d="M313.106 36.364L313.106 36.364L313.106 36.3639C310.763 34.0209 306.964 34.0208 304.621 36.3638L302.5 34.2425C306.015 30.7278 311.713 30.7278 315.228 34.2424L319.47 30L319.47 30L315.228 34.2425L315.228 34.2425L315.228 34.2425C317.571 36.5856 321.37 36.5856 323.713 34.2427L325.834 36.364C322.32 39.8787 316.621 39.8787 313.106 36.364L308.864 40.6065L308.864 40.6064L313.106 36.364ZM334.32 36.364L336.441 34.2427C338.785 36.5856 342.583 36.5856 344.926 34.2425L340.684 30L340.684 30L347.048 36.364C343.533 39.8787 337.835 39.8787 334.32 36.364ZM336.441 34.2425C332.926 30.7278 327.228 30.7278 323.713 34.2425L330.077 40.6065L330.077 40.6064L325.835 36.364C328.178 34.0209 331.977 34.0208 334.32 36.3638L336.441 34.2425Z" fill="#E8FEFB"/>
<rect x="250" y="149" width="50" height="50" fill="url(#paint2_radial)"/>
<path fill-rule="evenodd" clip-rule="evenodd" d="M263.106 164.364L263.106 164.364L263.106 164.364C260.763 162.021 256.964 162.021 254.621 164.364L252.5 162.243C256.015 158.728 261.713 158.728 265.228 162.242L269.47 158L269.47 158L265.228 162.242L265.228 162.243L265.228 162.243C267.571 164.586 271.37 164.586 273.713 162.243L275.834 164.364C272.32 167.879 266.621 167.879 263.106 164.364L258.864 168.606L258.864 168.606L263.106 164.364ZM284.32 164.364L286.441 162.243C288.785 164.586 292.583 164.586 294.926 162.243L290.684 158L290.684 158L297.048 164.364C293.533 167.879 287.835 167.879 284.32 164.364ZM286.441 162.243C282.926 158.728 277.228 158.728 273.713 162.243L280.077 168.606L280.077 168.606L275.835 164.364C278.178 162.021 281.977 162.021 284.32 164.364L286.441 162.243Z" fill="#E8FEFB"/>
<path fill-rule="evenodd" clip-rule="evenodd" d="M297.048 174.864C293.533 178.379 287.835 178.379 284.32 174.864L286.441 172.743C288.785 175.086 292.583 175.086 294.926 172.743L290.684 168.5L290.684 168.5L297.048 174.864ZM263.106 174.864L263.106 174.864L263.106 174.864C260.763 172.521 256.964 172.521 254.621 174.864L252.5 172.743C256.015 169.228 261.713 169.228 265.228 172.742L269.47 168.5L269.47 168.5L265.228 172.742L265.228 172.743L265.228 172.743C267.571 175.086 271.37 175.086 273.713 172.743L275.834 174.864C272.32 178.379 266.621 178.379 263.106 174.864L258.864 179.106L258.864 179.106L263.106 174.864ZM286.441 172.743C282.926 169.228 277.228 169.228 273.713 172.743L280.077 179.106L280.077 179.106L275.835 174.864C278.178 172.521 281.977 172.521 284.32 174.864L286.441 172.743Z" fill="#E8FEFB"/>
<path fill-rule="evenodd" clip-rule="evenodd" d="M263.106 185.364L263.106 185.364L263.106 185.364C260.763 183.021 256.964 183.021 254.621 185.364L252.5 183.243C256.015 179.728 261.713 179.728 265.228 183.242L269.47 179L269.47 179L265.228 183.242L265.228 183.243L265.228 183.243C267.571 185.586 271.37 185.586 273.713 183.243L275.834 185.364C272.32 188.879 266.621 188.879 263.106 185.364L258.864 189.606L258.864 189.606L263.106 185.364ZM284.32 185.364L286.441 183.243C288.785 185.586 292.583 185.586 294.926 183.243L290.684 179L290.684 179L297.048 185.364C293.533 188.879 287.835 188.879 284.32 185.364ZM286.441 183.243C282.926 179.728 277.228 179.728 273.713 183.243L280.077 189.606L280.077 189.606L275.835 185.364C278.178 183.021 281.977 183.021 284.32 185.364L286.441 183.243Z" fill="#E8FEFB"/>
<rect x="300" y="199" width="50" height="50" fill="url(#paint3_radial)"/>
<path fill-rule="evenodd" clip-rule="evenodd" d="M313.106 214.364L313.106 214.364L313.106 214.364C310.763 212.021 306.964 212.021 304.621 214.364L302.5 212.243C306.015 208.728 311.713 208.728 315.228 212.242L319.47 208L319.47 208L315.228 212.242L315.228 212.243L315.228 212.243C317.571 214.586 321.37 214.586 323.713 212.243L325.834 214.364C322.32 217.879 316.621 217.879 313.106 214.364L308.864 218.606L308.864 218.606L313.106 214.364ZM334.32 214.364L336.441 212.243C338.785 214.586 342.583 214.586 344.926 212.243L340.684 208L340.684 208L347.048 214.364C343.533 217.879 337.835 217.879 334.32 214.364ZM336.441 212.243C332.926 208.728 327.228 208.728 323.713 212.243L330.077 218.606L330.077 218.606L325.835 214.364C328.178 212.021 331.977 212.021 334.32 214.364L336.441 212.243Z" fill="#E8FEFB"/>
<path fill-rule="evenodd" clip-rule="evenodd" d="M347.048 224.864C343.533 228.379 337.835 228.379 334.32 224.864L336.441 222.743C338.785 225.086 342.583 225.086 344.926 222.743L340.684 218.5L340.684 218.5L347.048 224.864ZM313.106 224.864L313.106 224.864L313.106 224.864C310.763 222.521 306.964 222.521 304.621 224.864L302.5 222.743C306.015 219.228 311.713 219.228 315.228 222.742L319.47 218.5L319.47 218.5L315.228 222.742L315.228 222.743L315.228 222.743C317.571 225.086 321.37 225.086 323.713 222.743L325.834 224.864C322.32 228.379 316.621 228.379 313.106 224.864L308.864 229.106L308.864 229.106L313.106 224.864ZM336.441 222.743C332.926 219.228 327.228 219.228 323.713 222.743L330.077 229.106L330.077 229.106L325.835 224.864C328.178 222.521 331.977 222.521 334.32 224.864L336.441 222.743Z" fill="#E8FEFB"/>
<path fill-rule="evenodd" clip-rule="evenodd" d="M313.106 235.364L313.106 235.364L313.106 235.364C310.763 233.021 306.964 233.021 304.621 235.364L302.5 233.243C306.015 229.728 311.713 229.728 315.228 233.242L319.47 229L319.47 229L315.228 233.242L315.228 233.243L315.228 233.243C317.571 235.586 321.37 235.586 323.713 233.243L325.834 235.364C322.32 238.879 316.621 238.879 313.106 235.364L308.864 239.606L308.864 239.606L313.106 235.364ZM334.32 235.364L336.441 233.243C338.785 235.586 342.583 235.586 344.926 233.243L340.684 229L340.684 229L347.048 235.364C343.533 238.879 337.835 238.879 334.32 235.364ZM336.441 233.243C332.926 229.728 327.228 229.728 323.713 233.243L330.077 239.606L330.077 239.606L325.835 235.364C328.178 233.021 331.977 233.021 334.32 235.364L336.441 233.243Z" fill="#E8FEFB"/>
<rect x="250" y="199" width="50" height="50" fill="url(#paint4_radial)"/>
<path fill-rule="evenodd" clip-rule="evenodd" d="M263.106 214.364L263.106 214.364L263.106 214.364C260.763 212.021 256.964 212.021 254.621 214.364L252.5 212.243C256.015 208.728 261.713 208.728 265.228 212.242L269.47 208L269.47 208L265.228 212.242L265.228 212.243L265.228 212.243C267.571 214.586 271.37 214.586 273.713 212.243L275.834 214.364C272.32 217.879 266.621 217.879 263.106 214.364L258.864 218.606L258.864 218.606L263.106 214.364ZM284.32 214.364L286.441 212.243C288.785 214.586 292.583 214.586 294.926 212.243L290.684 208L290.684 208L297.048 214.364C293.533 217.879 287.835 217.879 284.32 214.364ZM286.441 212.243C282.926 208.728 277.228 208.728 273.713 212.243L280.077 218.606L280.077 218.606L275.835 214.364C278.178 212.021 281.977 212.021 284.32 214.364L286.441 212.243Z" fill="#E8FEFB"/>
<path fill-rule="evenodd" clip-rule="evenodd" d="M297.048 224.864C293.533 228.379 287.835 228.379 284.32 224.864L286.441 222.743C288.785 225.086 292.583 225.086 294.926 222.743L290.684 218.5L290.684 218.5L297.048 224.864ZM263.106 224.864L263.106 224.864L263.106 224.864C260.763 222.521 256.964 222.521 254.621 224.864L252.5 222.743C256.015 219.228 261.713 219.228 265.228 222.742L269.47 218.5L269.47 218.5L265.228 222.742L265.228 222.743L265.228 222.743C267.571 225.086 271.37 225.086 273.713 222.743L275.834 224.864C272.32 228.379 266.621 228.379 263.106 224.864L258.864 229.106L258.864 229.106L263.106 224.864ZM286.441 222.743C282.926 219.228 277.228 219.228 273.713 222.743L280.077 229.106L280.077 229.106L275.835 224.864C278.178 222.521 281.977 222.521 284.32 224.864L286.441 222.743Z" fill="#E8FEFB"/>
<path fill-rule="evenodd" clip-rule="evenodd" d="M263.106 235.364L263.106 235.364L263.106 235.364C260.763 233.021 256.964 233.021 254.621 235.364L252.5 233.243C256.015 229.728 261.713 229.728 265.228 233.242L269.47 229L269.47 229L265.228 233.242L265.228 233.243L265.228 233.243C267.571 235.586 271.37 235.586 273.713 233.243L275.834 235.364C272.32 238.879 266.621 238.879 263.106 235.364L258.864 239.606L258.864 239.606L263.106 235.364ZM284.32 235.364L286.441 233.243C288.785 235.586 292.583 235.586 294.926 233.243L290.684 229L290.684 229L297.048 235.364C293.533 238.879 287.835 238.879 284.32 235.364ZM286.441 233.243C282.926 229.728 277.228 229.728 273.713 233.243L280.077 239.606L280.077 239.606L275.835 235.364C278.178 233.021 281.977 233.021 284.32 235.364L286.441 233.243Z" fill="#E8FEFB"/>
<rect x="300" y="99" width="50" height="50" fill="url(#paint5_radial)"/>
<path fill-rule="evenodd" clip-rule="evenodd" d="M313.106 114.364L313.106 114.364L313.106 114.364C310.763 112.021 306.964 112.021 304.621 114.364L302.5 112.243C306.015 108.728 311.713 108.728 315.228 112.242L319.47 108L319.47 108L315.228 112.242L315.228 112.243L315.228 112.243C317.571 114.586 321.37 114.586 323.713 112.243L325.834 114.364C322.32 117.879 316.621 117.879 313.106 114.364L308.864 118.606L308.864 118.606L313.106 114.364ZM334.32 114.364L336.441 112.243C338.785 114.586 342.583 114.586 344.926 112.243L340.684 108L340.684 108L347.048 114.364C343.533 117.879 337.835 117.879 334.32 114.364ZM336.441 112.243C332.926 108.728 327.228 108.728 323.713 112.243L330.077 118.606L330.077 118.606L325.835 114.364C328.178 112.021 331.977 112.021 334.32 114.364L336.441 112.243Z" fill="#E8FEFB"/>
<path fill-rule="evenodd" clip-rule="evenodd" d="M347.048 124.864C343.533 128.379 337.835 128.379 334.32 124.864L336.441 122.743C338.785 125.086 342.583 125.086 344.926 122.743L340.684 118.5L340.684 118.5L347.048 124.864ZM313.106 124.864L313.106 124.864L313.106 124.864C310.763 122.521 306.964 122.521 304.621 124.864L302.5 122.743C306.015 119.228 311.713 119.228 315.228 122.742L319.47 118.5L319.47 118.5L315.228 122.742L315.228 122.743L315.228 122.743C317.571 125.086 321.37 125.086 323.713 122.743L325.834 124.864C322.32 128.379 316.621 128.379 313.106 124.864L308.864 129.106L308.864 129.106L313.106 124.864ZM336.441 122.743C332.926 119.228 327.228 119.228 323.713 122.743L330.077 129.106L330.077 129.106L325.835 124.864C328.178 122.521 331.977 122.521 334.32 124.864L336.441 122.743Z" fill="#E8FEFB"/>
<path fill-rule="evenodd" clip-rule="evenodd" d="M313.106 135.364L313.106 135.364L313.106 135.364C310.763 133.021 306.964 133.021 304.621 135.364L302.5 133.243C306.015 129.728 311.713 129.728 315.228 133.242L319.47 129L319.47 129L315.228 133.242L315.228 133.243L315.228 133.243C317.571 135.586 321.37 135.586 323.713 133.243L325.834 135.364C322.32 138.879 316.621 138.879 313.106 135.364L308.864 139.606L308.864 139.606L313.106 135.364ZM334.32 135.364L336.441 133.243C338.785 135.586 342.583 135.586 344.926 133.243L340.684 129L340.684 129L347.048 135.364C343.533 138.879 337.835 138.879 334.32 135.364ZM336.441 133.243C332.926 129.728 327.228 129.728 323.713 133.243L330.077 139.606L330.077 139.606L325.835 135.364C328.178 133.021 331.977 133.021 334.32 135.364L336.441 133.243Z" fill="#E8FEFB"/>
<rect x="350" y="99" width="50" height="50" fill="url(#paint6_radial)"/>
<path fill-rule="evenodd" clip-rule="evenodd" d="M363.106 114.364L363.106 114.364L363.106 114.364C360.763 112.021 356.964 112.021 354.621 114.364L352.5 112.243C356.015 108.728 361.713 108.728 365.228 112.242L369.47 108L369.47 108L365.228 112.242L365.228 112.243L365.228 112.243C367.571 114.586 371.37 114.586 373.713 112.243L375.834 114.364C372.32 117.879 366.621 117.879 363.106 114.364L358.864 118.606L358.864 118.606L363.106 114.364ZM384.32 114.364L386.441 112.243C388.785 114.586 392.583 114.586 394.926 112.243L390.684 108L390.684 108L397.048 114.364C393.533 117.879 387.835 117.879 384.32 114.364ZM386.441 112.243C382.926 108.728 377.228 108.728 373.713 112.243L380.077 118.606L380.077 118.606L375.835 114.364C378.178 112.021 381.977 112.021 384.32 114.364L386.441 112.243Z" fill="#E8FEFB"/>
<path fill-rule="evenodd" clip-rule="evenodd" d="M397.048 124.864C393.533 128.379 387.835 128.379 384.32 124.864L386.441 122.743C388.785 125.086 392.583 125.086 394.926 122.743L390.684 118.5L390.684 118.5L397.048 124.864ZM363.106 124.864L363.106 124.864L363.106 124.864C360.763 122.521 356.964 122.521 354.621 124.864L352.5 122.743C356.015 119.228 361.713 119.228 365.228 122.742L369.47 118.5L369.47 118.5L365.228 122.742L365.228 122.743L365.228 122.743C367.571 125.086 371.37 125.086 373.713 122.743L375.834 124.864C372.32 128.379 366.621 128.379 363.106 124.864L358.864 129.106L358.864 129.106L363.106 124.864ZM386.441 122.743C382.926 119.228 377.228 119.228 373.713 122.743L380.077 129.106L380.077 129.106L375.835 124.864C378.178 122.521 381.977 122.521 384.32 124.864L386.441 122.743Z" fill="#E8FEFB"/>
<path fill-rule="evenodd" clip-rule="evenodd" d="M363.106 135.364L363.106 135.364L363.106 135.364C360.763 133.021 356.964 133.021 354.621 135.364L352.5 133.243C356.015 129.728 361.713 129.728 365.228 133.242L369.47 129L369.47 129L365.228 133.242L365.228 133.243L365.228 133.243C367.571 135.586 371.37 135.586 373.713 133.243L375.834 135.364C372.32 138.879 366.621 138.879 363.106 135.364L358.864 139.606L358.864 139.606L363.106 135.364ZM384.32 135.364L386.441 133.243C388.785 135.586 392.583 135.586 394.926 133.243L390.684 129L390.684 129L397.048 135.364C393.533 138.879 387.835 138.879 384.32 135.364ZM386.441 133.243C382.926 129.728 377.228 129.728 373.713 133.243L380.077 139.606L380.077 139.606L375.835 135.364C378.178 133.021 381.977 133.021 384.32 135.364L386.441 133.243Z" fill="#E8FEFB"/>
<rect x="50" y="100" width="50" height="50" fill="url(#paint7_radial)"/>
<path fill-rule="evenodd" clip-rule="evenodd" d="M63.1063 115.364L63.1063 115.364L63.1063 115.364C60.7633 113.021 56.9644 113.021 54.6213 115.364L52.5 113.243C56.0147 109.728 61.7131 109.728 65.2278 113.242L69.4703 109L69.4703 109L65.2279 113.242L65.2279 113.243L65.2279 113.243C67.571 115.586 71.3698 115.586 73.713 113.243L75.8342 115.364C72.3195 118.879 66.6211 118.879 63.1064 115.364L58.864 119.606L58.8639 119.606L63.1063 115.364ZM84.3201 115.364L86.4413 113.243C88.7845 115.586 92.5834 115.586 94.9264 113.243L90.684 109L90.684 109L97.048 115.364C93.5333 118.879 87.8348 118.879 84.3201 115.364ZM86.4412 113.243C82.9264 109.728 77.228 109.728 73.7132 113.243L80.0772 119.606L80.0772 119.606L75.8348 115.364C78.1779 113.021 81.9767 113.021 84.3199 115.364L86.4412 113.243Z" fill="#E8FEFB"/>
<path fill-rule="evenodd" clip-rule="evenodd" d="M97.048 125.864C93.5333 129.379 87.8348 129.379 84.3201 125.864L86.4413 123.743C88.7845 126.086 92.5834 126.086 94.9264 123.743L90.684 119.5L90.684 119.5L97.048 125.864ZM63.1063 125.864L63.1063 125.864L63.1063 125.864C60.7633 123.521 56.9644 123.521 54.6213 125.864L52.5 123.743C56.0147 120.228 61.7131 120.228 65.2278 123.742L69.4703 119.5L69.4703 119.5L65.2279 123.742L65.2279 123.743L65.2279 123.743C67.571 126.086 71.3698 126.086 73.7129 123.743L75.8342 125.864C72.3195 129.379 66.6211 129.379 63.1064 125.864L58.864 130.106L58.8639 130.106L63.1063 125.864ZM86.4412 123.743C82.9264 120.228 77.228 120.228 73.7132 123.743L80.0772 130.106L80.0772 130.106L75.8348 125.864C78.1779 123.521 81.9767 123.521 84.3199 125.864L86.4412 123.743Z" fill="#E8FEFB"/>
<path fill-rule="evenodd" clip-rule="evenodd" d="M63.1063 136.364L63.1063 136.364L63.1063 136.364C60.7633 134.021 56.9644 134.021 54.6213 136.364L52.5 134.243C56.0147 130.728 61.7131 130.728 65.2278 134.242L69.4703 130L69.4703 130L65.2279 134.242L65.2279 134.243L65.2279 134.243C67.571 136.586 71.3698 136.586 73.713 134.243L75.8342 136.364C72.3195 139.879 66.6211 139.879 63.1064 136.364L58.864 140.606L58.8639 140.606L63.1063 136.364ZM84.3201 136.364L86.4413 134.243C88.7845 136.586 92.5834 136.586 94.9264 134.243L90.684 130L90.684 130L97.048 136.364C93.5333 139.879 87.8348 139.879 84.3201 136.364ZM86.4412 134.243C82.9264 130.728 77.228 130.728 73.7132 134.243L80.0772 140.606L80.0772 140.606L75.8348 136.364C78.1779 134.021 81.9767 134.021 84.3199 136.364L86.4412 134.243Z" fill="#E8FEFB"/>
<rect y="50" width="50" height="50" fill="url(#paint8_radial)"/>
<path fill-rule="evenodd" clip-rule="evenodd" d="M13.1063 65.364L13.1063 65.364L13.1063 65.3639C10.7633 63.0209 6.96443 63.0208 4.62128 65.3638L2.5 63.2425C6.01469 59.7278 11.7131 59.7278 15.2278 63.2424L19.4703 59L19.4703 59L15.2279 63.2425L15.2279 63.2425L15.2279 63.2425C17.571 65.5856 21.3698 65.5856 23.713 63.2427L25.8342 65.364C22.3195 68.8787 16.6211 68.8787 13.1064 65.364L8.86396 69.6065L8.86392 69.6064L13.1063 65.364ZM34.3201 65.364L36.4413 63.2427C38.7845 65.5856 42.5834 65.5856 44.9264 63.2425L40.684 59L40.684 59L47.048 65.364C43.5333 68.8787 37.8348 68.8787 34.3201 65.364ZM36.4412 63.2425C32.9264 59.7278 27.228 59.7278 23.7132 63.2425L30.0772 69.6065L30.0772 69.6064L25.8348 65.364C28.1779 63.0209 31.9767 63.0208 34.3199 65.3638L36.4412 63.2425Z" fill="#E8FEFB"/>
<path fill-rule="evenodd" clip-rule="evenodd" d="M47.048 75.864C43.5333 79.3787 37.8348 79.3787 34.3201 75.864L36.4413 73.7427C38.7845 76.0856 42.5834 76.0856 44.9264 73.7425L40.684 69.5L40.684 69.5L47.048 75.864ZM13.1063 75.864L13.1063 75.864L13.1063 75.8639C10.7633 73.5209 6.96443 73.5208 4.62128 75.8638L2.5 73.7425C6.01469 70.2278 11.7131 70.2278 15.2278 73.7424L19.4703 69.5L19.4703 69.5L15.2279 73.7425L15.2279 73.7425L15.2279 73.7425C17.571 76.0856 21.3698 76.0856 23.7129 73.7427L25.8342 75.864C22.3195 79.3787 16.6211 79.3787 13.1064 75.864L8.86396 80.1065L8.86392 80.1064L13.1063 75.864ZM36.4412 73.7425C32.9264 70.2278 27.228 70.2278 23.7132 73.7425L30.0772 80.1065L30.0772 80.1064L25.8348 75.864C28.1779 73.5209 31.9767 73.5208 34.3199 75.8638L36.4412 73.7425Z" fill="#E8FEFB"/>
<path fill-rule="evenodd" clip-rule="evenodd" d="M13.1063 86.364L13.1063 86.364L13.1063 86.3639C10.7633 84.0209 6.96443 84.0208 4.62128 86.3638L2.5 84.2425C6.01469 80.7278 11.7131 80.7278 15.2278 84.2424L19.4703 80L19.4703 80L15.2279 84.2425L15.2279 84.2425L15.2279 84.2425C17.571 86.5856 21.3698 86.5856 23.713 84.2427L25.8342 86.364C22.3195 89.8787 16.6211 89.8787 13.1064 86.364L8.86396 90.6065L8.86392 90.6064L13.1063 86.364ZM34.3201 86.364L36.4413 84.2427C38.7845 86.5856 42.5834 86.5856 44.9264 84.2425L40.684 80L40.684 80L47.048 86.364C43.5333 89.8787 37.8348 89.8787 34.3201 86.364ZM36.4412 84.2425C32.9264 80.7278 27.228 80.7278 23.7132 84.2425L30.0772 90.6065L30.0772 90.6064L25.8348 86.364C28.1779 84.0209 31.9767 84.0208 34.3199 86.3638L36.4412 84.2425Z" fill="#E8FEFB"/>
<rect width="50" height="50" fill="url(#paint9_radial)"/>
<path fill-rule="evenodd" clip-rule="evenodd" d="M13.1063 15.364L13.1063 15.364L13.1063 15.3639C10.7633 13.0209 6.96443 13.0208 4.62128 15.3638L2.5 13.2425C6.01469 9.72781 11.7131 9.72778 15.2278 13.2424L19.4703 9L19.4703 9.00004L15.2279 13.2425L15.2279 13.2425L15.2279 13.2425C17.571 15.5856 21.3698 15.5856 23.713 13.2427L25.8342 15.364C22.3195 18.8787 16.6211 18.8787 13.1064 15.364L8.86396 19.6065L8.86392 19.6064L13.1063 15.364ZM34.3201 15.364L36.4413 13.2427C38.7845 15.5856 42.5834 15.5856 44.9264 13.2425L40.684 9.00004L40.684 9L47.048 15.364C43.5333 18.8787 37.8348 18.8787 34.3201 15.364ZM36.4412 13.2425C32.9264 9.72778 27.228 9.72778 23.7132 13.2425L30.0772 19.6065L30.0772 19.6064L25.8348 15.364C28.1779 13.0209 31.9767 13.0208 34.3199 15.3638L36.4412 13.2425Z" fill="#E8FEFB"/>
<path fill-rule="evenodd" clip-rule="evenodd" d="M47.048 25.864C43.5333 29.3787 37.8348 29.3787 34.3201 25.864L36.4413 23.7427C38.7845 26.0856 42.5834 26.0856 44.9264 23.7425L40.684 19.5L40.684 19.5L47.048 25.864ZM13.1063 25.864L13.1063 25.864L13.1063 25.8639C10.7633 23.5209 6.96443 23.5208 4.62128 25.8638L2.5 23.7425C6.01469 20.2278 11.7131 20.2278 15.2278 23.7424L19.4703 19.5L19.4703 19.5L15.2279 23.7425L15.2279 23.7425L15.2279 23.7425C17.571 26.0856 21.3698 26.0856 23.7129 23.7427L25.8342 25.864C22.3195 29.3787 16.6211 29.3787 13.1064 25.864L8.86396 30.1065L8.86392 30.1064L13.1063 25.864ZM36.4412 23.7425C32.9264 20.2278 27.228 20.2278 23.7132 23.7425L30.0772 30.1065L30.0772 30.1064L25.8348 25.864C28.1779 23.5209 31.9767 23.5208 34.3199 25.8638L36.4412 23.7425Z" fill="#E8FEFB"/>
<path fill-rule="evenodd" clip-rule="evenodd" d="M13.1063 36.364L13.1063 36.364L13.1063 36.3639C10.7633 34.0209 6.96443 34.0208 4.62128 36.3638L2.5 34.2425C6.01469 30.7278 11.7131 30.7278 15.2278 34.2424L19.4703 30L19.4703 30L15.2279 34.2425L15.2279 34.2425L15.2279 34.2425C17.571 36.5856 21.3698 36.5856 23.713 34.2427L25.8342 36.364C22.3195 39.8787 16.6211 39.8787 13.1064 36.364L8.86396 40.6065L8.86392 40.6064L13.1063 36.364ZM34.3201 36.364L36.4413 34.2427C38.7845 36.5856 42.5834 36.5856 44.9264 34.2425L40.684 30L40.684 30L47.048 36.364C43.5333 39.8787 37.8348 39.8787 34.3201 36.364ZM36.4412 34.2425C32.9264 30.7278 27.228 30.7278 23.7132 34.2425L30.0772 40.6065L30.0772 40.6064L25.8348 36.364C28.1779 34.0209 31.9767 34.0208 34.3199 36.3638L36.4412 34.2425Z" fill="#E8FEFB"/>
<rect x="50" y="150" width="50" height="50" fill="url(#paint10_radial)"/>
<path fill-rule="evenodd" clip-rule="evenodd" d="M63.1063 165.364L63.1063 165.364L63.1063 165.364C60.7633 163.021 56.9644 163.021 54.6213 165.364L52.5 163.243C56.0147 159.728 61.7131 159.728 65.2278 163.242L69.4703 159L69.4703 159L65.2279 163.242L65.2279 163.243L65.2279 163.243C67.571 165.586 71.3698 165.586 73.713 163.243L75.8342 165.364C72.3195 168.879 66.6211 168.879 63.1064 165.364L58.864 169.606L58.8639 169.606L63.1063 165.364ZM84.3201 165.364L86.4413 163.243C88.7845 165.586 92.5834 165.586 94.9264 163.243L90.684 159L90.684 159L97.048 165.364C93.5333 168.879 87.8348 168.879 84.3201 165.364ZM86.4412 163.243C82.9264 159.728 77.228 159.728 73.7132 163.243L80.0772 169.606L80.0772 169.606L75.8348 165.364C78.1779 163.021 81.9767 163.021 84.3199 165.364L86.4412 163.243Z" fill="#E8FEFB"/>
<path fill-rule="evenodd" clip-rule="evenodd" d="M97.048 175.864C93.5333 179.379 87.8348 179.379 84.3201 175.864L86.4413 173.743C88.7845 176.086 92.5834 176.086 94.9264 173.743L90.684 169.5L90.684 169.5L97.048 175.864ZM63.1063 175.864L63.1063 175.864L63.1063 175.864C60.7633 173.521 56.9644 173.521 54.6213 175.864L52.5 173.743C56.0147 170.228 61.7131 170.228 65.2278 173.742L69.4703 169.5L69.4703 169.5L65.2279 173.742L65.2279 173.743L65.2279 173.743C67.571 176.086 71.3698 176.086 73.7129 173.743L75.8342 175.864C72.3195 179.379 66.6211 179.379 63.1064 175.864L58.864 180.106L58.8639 180.106L63.1063 175.864ZM86.4412 173.743C82.9264 170.228 77.228 170.228 73.7132 173.743L80.0772 180.106L80.0772 180.106L75.8348 175.864C78.1779 173.521 81.9767 173.521 84.3199 175.864L86.4412 173.743Z" fill="#E8FEFB"/>
<path fill-rule="evenodd" clip-rule="evenodd" d="M63.1063 186.364L63.1063 186.364L63.1063 186.364C60.7633 184.021 56.9644 184.021 54.6213 186.364L52.5 184.243C56.0147 180.728 61.7131 180.728 65.2278 184.242L69.4703 180L69.4703 180L65.2279 184.242L65.2279 184.243L65.2279 184.243C67.571 186.586 71.3698 186.586 73.713 184.243L75.8342 186.364C72.3195 189.879 66.6211 189.879 63.1064 186.364L58.864 190.606L58.8639 190.606L63.1063 186.364ZM84.3201 186.364L86.4413 184.243C88.7845 186.586 92.5834 186.586 94.9264 184.243L90.684 180L90.684 180L97.048 186.364C93.5333 189.879 87.8348 189.879 84.3201 186.364ZM86.4412 184.243C82.9264 180.728 77.228 180.728 73.7132 184.243L80.0772 190.606L80.0772 190.606L75.8348 186.364C78.1779 184.021 81.9767 184.021 84.3199 186.364L86.4412 184.243Z" fill="#E8FEFB"/>
<rect x="150" y="99" width="50" height="50" fill="#FED766"/>
<mask id="mask0" mask-type="alpha" maskUnits="userSpaceOnUse" x="150" y="99" width="50" height="50">
<rect x="150" y="99" width="50" height="50" fill="#C4C4C4"/>
</mask>
<g mask="url(#mask0)">
<rect x="116" y="129.211" width="100" height="5" transform="rotate(-45 116 129.211)" fill="#81D2C7"/>
<rect x="123.071" y="136.282" width="100" height="5" transform="rotate(-45 123.071 136.282)" fill="#81D2C7"/>
<rect x="130.142" y="143.353" width="100" height="5" transform="rotate(-45 130.142 143.353)" fill="#81D2C7"/>
<rect x="137.213" y="150.424" width="100" height="5" transform="rotate(-45 137.213 150.424)" fill="#81D2C7"/>
<rect x="144.284" y="157.495" width="100" height="5" transform="rotate(-45 144.284 157.495)" fill="#81D2C7"/>
<rect x="151.355" y="164.566" width="100" height="5" transform="rotate(-45 151.355 164.566)" fill="#81D2C7"/>
<rect x="158.426" y="171.637" width="100" height="5" transform="rotate(-45 158.426 171.637)" fill="#81D2C7"/>
<rect x="165.498" y="178.708" width="100" height="5" transform="rotate(-45 165.498 178.708)" fill="#81D2C7"/>
</g>
<rect x="200" y="199" width="50" height="50" fill="#FED766"/>
<mask id="mask1" mask-type="alpha" maskUnits="userSpaceOnUse" x="200" y="199" width="50" height="50">
<rect x="200" y="199" width="50" height="50" fill="#C4C4C4"/>
</mask>
<g mask="url(#mask1)">
<rect x="166" y="229.211" width="100" height="5" transform="rotate(-45 166 229.211)" fill="#81D2C7"/>
<rect x="173.071" y="236.282" width="100" height="5" transform="rotate(-45 173.071 236.282)" fill="#81D2C7"/>
<rect x="180.142" y="243.353" width="100" height="5" transform="rotate(-45 180.142 243.353)" fill="#81D2C7"/>
<rect x="187.213" y="250.424" width="100" height="5" transform="rotate(-45 187.213 250.424)" fill="#81D2C7"/>
<rect x="194.284" y="257.495" width="100" height="5" transform="rotate(-45 194.284 257.495)" fill="#81D2C7"/>
<rect x="201.355" y="264.566" width="100" height="5" transform="rotate(-45 201.355 264.566)" fill="#81D2C7"/>
<rect x="208.426" y="271.637" width="100" height="5" transform="rotate(-45 208.426 271.637)" fill="#81D2C7"/>
<rect x="215.498" y="278.708" width="100" height="5" transform="rotate(-45 215.498 278.708)" fill="#81D2C7"/>
</g>
<rect x="50" y="50" width="50" height="50" fill="#FED766"/>
<mask id="mask2" mask-type="alpha" maskUnits="userSpaceOnUse" x="50" y="50" width="50" height="50">
<rect x="50" y="50" width="50" height="50" fill="#C4C4C4"/>
</mask>
<g mask="url(#mask2)">
<rect x="16" y="80.2107" width="100" height="5" transform="rotate(-45 16 80.2107)" fill="#81D2C7"/>
<rect x="23.0713" y="87.2817" width="100" height="5" transform="rotate(-45 23.0713 87.2817)" fill="#81D2C7"/>
<rect x="30.1421" y="94.3528" width="100" height="5" transform="rotate(-45 30.1421 94.3528)" fill="#81D2C7"/>
<rect x="37.2134" y="101.424" width="100" height="5" transform="rotate(-45 37.2134 101.424)" fill="#81D2C7"/>
<rect x="44.2842" y="108.495" width="100" height="5" transform="rotate(-45 44.2842 108.495)" fill="#81D2C7"/>
<rect x="51.3555" y="115.566" width="100" height="5" transform="rotate(-45 51.3555 115.566)" fill="#81D2C7"/>
<rect x="58.4263" y="122.637" width="100" height="5" transform="rotate(-45 58.4263 122.637)" fill="#81D2C7"/>
<rect x="65.4976" y="129.708" width="100" height="5" transform="rotate(-45 65.4976 129.708)" fill="#81D2C7"/>
</g>
<rect x="150" width="50" height="50" fill="#FED766"/>
<mask id="mask3" mask-type="alpha" maskUnits="userSpaceOnUse" x="150" y="0" width="50" height="50">
<rect x="150" width="50" height="50" fill="#C4C4C4"/>
</mask>
<g mask="url(#mask3)">
<rect x="116" y="30.2107" width="100" height="5" transform="rotate(-45 116 30.2107)" fill="#81D2C7"/>
<rect x="123.071" y="37.2817" width="100" height="5" transform="rotate(-45 123.071 37.2817)" fill="#81D2C7"/>
<rect x="130.142" y="44.3528" width="100" height="5" transform="rotate(-45 130.142 44.3528)" fill="#81D2C7"/>
<rect x="137.213" y="51.4238" width="100" height="5" transform="rotate(-45 137.213 51.4238)" fill="#81D2C7"/>
<rect x="144.284" y="58.4949" width="100" height="5" transform="rotate(-45 144.284 58.4949)" fill="#81D2C7"/>
<rect x="151.355" y="65.5659" width="100" height="5" transform="rotate(-45 151.355 65.5659)" fill="#81D2C7"/>
<rect x="158.426" y="72.6372" width="100" height="5" transform="rotate(-45 158.426 72.6372)" fill="#81D2C7"/>
<rect x="165.498" y="79.7083" width="100" height="5" transform="rotate(-45 165.498 79.7083)" fill="#81D2C7"/>
</g>
<rect y="100" width="50" height="50" fill="#FED766"/>
<mask id="mask4" mask-type="alpha" maskUnits="userSpaceOnUse" x="0" y="100" width="50" height="50">
<rect y="100" width="50" height="50" fill="#C4C4C4"/>
</mask>
<g mask="url(#mask4)">
<rect x="-34" y="130.211" width="100" height="5" transform="rotate(-45 -34 130.211)" fill="#81D2C7"/>
<rect x="-26.9287" y="137.282" width="100" height="5" transform="rotate(-45 -26.9287 137.282)" fill="#81D2C7"/>
<rect x="-19.8579" y="144.353" width="100" height="5" transform="rotate(-45 -19.8579 144.353)" fill="#81D2C7"/>
<rect x="-12.7866" y="151.424" width="100" height="5" transform="rotate(-45 -12.7866 151.424)" fill="#81D2C7"/>
<rect x="-5.71582" y="158.495" width="100" height="5" transform="rotate(-45 -5.71582 158.495)" fill="#81D2C7"/>
<rect x="1.35547" y="165.566" width="100" height="5" transform="rotate(-45 1.35547 165.566)" fill="#81D2C7"/>
<rect x="8.42627" y="172.637" width="100" height="5" transform="rotate(-45 8.42627 172.637)" fill="#81D2C7"/>
<rect x="15.4976" y="179.708" width="100" height="5" transform="rotate(-45 15.4976 179.708)" fill="#81D2C7"/>
</g>
<rect y="150" width="50" height="50" fill="#FED766"/>
<mask id="mask5" mask-type="alpha" maskUnits="userSpaceOnUse" x="0" y="150" width="50" height="50">
<rect y="150" width="50" height="50" fill="#C4C4C4"/>
</mask>
<g mask="url(#mask5)">
<rect x="-34" y="180.211" width="100" height="5" transform="rotate(-45 -34 180.211)" fill="#81D2C7"/>
<rect x="-26.9287" y="187.282" width="100" height="5" transform="rotate(-45 -26.9287 187.282)" fill="#81D2C7"/>
<rect x="-19.8579" y="194.353" width="100" height="5" transform="rotate(-45 -19.8579 194.353)" fill="#81D2C7"/>
<rect x="-12.7866" y="201.424" width="100" height="5" transform="rotate(-45 -12.7866 201.424)" fill="#81D2C7"/>
<rect x="-5.71582" y="208.495" width="100" height="5" transform="rotate(-45 -5.71582 208.495)" fill="#81D2C7"/>
<rect x="1.35547" y="215.566" width="100" height="5" transform="rotate(-45 1.35547 215.566)" fill="#81D2C7"/>
<rect x="8.42627" y="222.637" width="100" height="5" transform="rotate(-45 8.42627 222.637)" fill="#81D2C7"/>
<rect x="15.4976" y="229.708" width="100" height="5" transform="rotate(-45 15.4976 229.708)" fill="#81D2C7"/>
</g>
<rect x="100" y="199" width="50" height="50" fill="#FED766"/>
<mask id="mask6" mask-type="alpha" maskUnits="userSpaceOnUse" x="100" y="199" width="50" height="50">
<rect x="100" y="199" width="50" height="50" fill="#C4C4C4"/>
</mask>
<g mask="url(#mask6)">
<rect x="66" y="229.211" width="100" height="5" transform="rotate(-45 66 229.211)" fill="#81D2C7"/>
<rect x="73.0713" y="236.282" width="100" height="5" transform="rotate(-45 73.0713 236.282)" fill="#81D2C7"/>
<rect x="80.1421" y="243.353" width="100" height="5" transform="rotate(-45 80.1421 243.353)" fill="#81D2C7"/>
<rect x="87.2134" y="250.424" width="100" height="5" transform="rotate(-45 87.2134 250.424)" fill="#81D2C7"/>
<rect x="94.2842" y="257.495" width="100" height="5" transform="rotate(-45 94.2842 257.495)" fill="#81D2C7"/>
<rect x="101.355" y="264.566" width="100" height="5" transform="rotate(-45 101.355 264.566)" fill="#81D2C7"/>
<rect x="108.426" y="271.637" width="100" height="5" transform="rotate(-45 108.426 271.637)" fill="#81D2C7"/>
<rect x="115.498" y="278.708" width="100" height="5" transform="rotate(-45 115.498 278.708)" fill="#81D2C7"/>
</g>
<rect x="100" y="199" width="50" height="50" fill="#FED766"/>
<mask id="mask7" mask-type="alpha" maskUnits="userSpaceOnUse" x="100" y="199" width="50" height="50">
<rect x="100" y="199" width="50" height="50" fill="#C4C4C4"/>
</mask>
<g mask="url(#mask7)">
<rect x="66" y="229.211" width="100" height="5" transform="rotate(-45 66 229.211)" fill="#81D2C7"/>
<rect x="73.0713" y="236.282" width="100" height="5" transform="rotate(-45 73.0713 236.282)" fill="#81D2C7"/>
<rect x="80.1421" y="243.353" width="100" height="5" transform="rotate(-45 80.1421 243.353)" fill="#81D2C7"/>
<rect x="87.2134" y="250.424" width="100" height="5" transform="rotate(-45 87.2134 250.424)" fill="#81D2C7"/>
<rect x="94.2842" y="257.495" width="100" height="5" transform="rotate(-45 94.2842 257.495)" fill="#81D2C7"/>
<rect x="101.355" y="264.566" width="100" height="5" transform="rotate(-45 101.355 264.566)" fill="#81D2C7"/>
<rect x="108.426" y="271.637" width="100" height="5" transform="rotate(-45 108.426 271.637)" fill="#81D2C7"/>
<rect x="115.498" y="278.708" width="100" height="5" transform="rotate(-45 115.498 278.708)" fill="#81D2C7"/>
</g>
<rect x="50" y="199" width="50" height="50" fill="#FED766"/>
<mask id="mask8" mask-type="alpha" maskUnits="userSpaceOnUse" x="50" y="199" width="50" height="50">
<rect x="50" y="199" width="50" height="50" fill="#C4C4C4"/>
</mask>
<g mask="url(#mask8)">
<rect x="16" y="229.211" width="100" height="5" transform="rotate(-45 16 229.211)" fill="#81D2C7"/>
<rect x="23.0713" y="236.282" width="100" height="5" transform="rotate(-45 23.0713 236.282)" fill="#81D2C7"/>
<rect x="30.1421" y="243.353" width="100" height="5" transform="rotate(-45 30.1421 243.353)" fill="#81D2C7"/>
<rect x="37.2134" y="250.424" width="100" height="5" transform="rotate(-45 37.2134 250.424)" fill="#81D2C7"/>
<rect x="44.2842" y="257.495" width="100" height="5" transform="rotate(-45 44.2842 257.495)" fill="#81D2C7"/>
<rect x="51.3555" y="264.566" width="100" height="5" transform="rotate(-45 51.3555 264.566)" fill="#81D2C7"/>
<rect x="58.4263" y="271.637" width="100" height="5" transform="rotate(-45 58.4263 271.637)" fill="#81D2C7"/>
<rect x="65.4976" y="278.708" width="100" height="5" transform="rotate(-45 65.4976 278.708)" fill="#81D2C7"/>
</g>
<rect x="200" y="149" width="50" height="50" fill="url(#paint11_radial)"/>
<path d="M208.333 149L200 158.091V161.5L208.333 152.409L216.667 161.5L225 152.409L233.333 161.5L241.667 152.409L250 161.5V158.091L241.667 149L233.333 158.091L225 149L216.667 158.091L208.333 149Z" fill="#EFA00B" fill-opacity="0.1"/>
<path d="M208.333 161.5L200 170.591V174L208.333 164.909L216.667 174L225 164.909L233.333 174L241.667 164.909L250 174V170.591L241.667 161.5L233.333 170.591L225 161.5L216.667 170.591L208.333 161.5Z" fill="#EFA00B" fill-opacity="0.1"/>
<path d="M208.333 174L200 183.091V186.5L208.333 177.409L216.667 186.5L225 177.409L233.333 186.5L241.667 177.409L250 186.5V183.091L241.667 174L233.333 183.091L225 174L216.667 183.091L208.333 174Z" fill="#EFA00B" fill-opacity="0.1"/>
<path d="M208.333 186.5L200 195.591V199L208.333 189.909L216.667 199L225 189.909L233.333 199L241.667 189.909L250 199V195.591L241.667 186.5L233.333 195.591L225 186.5L216.667 195.591L208.333 186.5Z" fill="#EFA00B" fill-opacity="0.1"/>
<rect x="300" y="149" width="50" height="50" fill="url(#paint12_radial)"/>
<path d="M308.333 149L300 158.091V161.5L308.333 152.409L316.667 161.5L325 152.409L333.333 161.5L341.667 152.409L350 161.5V158.091L341.667 149L333.333 158.091L325 149L316.667 158.091L308.333 149Z" fill="#EFA00B" fill-opacity="0.1"/>
<path d="M308.333 161.5L300 170.591V174L308.333 164.909L316.667 174L325 164.909L333.333 174L341.667 164.909L350 174V170.591L341.667 161.5L333.333 170.591L325 161.5L316.667 170.591L308.333 161.5Z" fill="#EFA00B" fill-opacity="0.1"/>
<path d="M308.333 174L300 183.091V186.5L308.333 177.409L316.667 186.5L325 177.409L333.333 186.5L341.667 177.409L350 186.5V183.091L341.667 174L333.333 183.091L325 174L316.667 183.091L308.333 174Z" fill="#EFA00B" fill-opacity="0.1"/>
<path d="M308.333 186.5L300 195.591V199L308.333 189.909L316.667 199L325 189.909L333.333 199L341.667 189.909L350 199V195.591L341.667 186.5L333.333 195.591L325 186.5L316.667 195.591L308.333 186.5Z" fill="#EFA00B" fill-opacity="0.1"/>
<rect x="350" y="149" width="50" height="50" fill="url(#paint13_radial)"/>
<path d="M358.333 149L350 158.091V161.5L358.333 152.409L366.667 161.5L375 152.409L383.333 161.5L391.667 152.409L400 161.5V158.091L391.667 149L383.333 158.091L375 149L366.667 158.091L358.333 149Z" fill="#EFA00B" fill-opacity="0.1"/>
<path d="M358.333 161.5L350 170.591V174L358.333 164.909L366.667 174L375 164.909L383.333 174L391.667 164.909L400 174V170.591L391.667 161.5L383.333 170.591L375 161.5L366.667 170.591L358.333 161.5Z" fill="#EFA00B" fill-opacity="0.1"/>
<path d="M358.333 174L350 183.091V186.5L358.333 177.409L366.667 186.5L375 177.409L383.333 186.5L391.667 177.409L400 186.5V183.091L391.667 174L383.333 183.091L375 174L366.667 183.091L358.333 174Z" fill="#EFA00B" fill-opacity="0.1"/>
<path d="M358.333 186.5L350 195.591V199L358.333 189.909L366.667 199L375 189.909L383.333 199L391.667 189.909L400 199V195.591L391.667 186.5L383.333 195.591L375 186.5L366.667 195.591L358.333 186.5Z" fill="#EFA00B" fill-opacity="0.1"/>
<rect x="350" y="199" width="50" height="50" fill="url(#paint14_radial)"/>
<path d="M358.333 199L350 208.091V211.5L358.333 202.409L366.667 211.5L375 202.409L383.333 211.5L391.667 202.409L400 211.5V208.091L391.667 199L383.333 208.091L375 199L366.667 208.091L358.333 199Z" fill="#EFA00B" fill-opacity="0.1"/>
<path d="M358.333 211.5L350 220.591V224L358.333 214.909L366.667 224L375 214.909L383.333 224L391.667 214.909L400 224V220.591L391.667 211.5L383.333 220.591L375 211.5L366.667 220.591L358.333 211.5Z" fill="#EFA00B" fill-opacity="0.1"/>
<path d="M358.333 224L350 233.091V236.5L358.333 227.409L366.667 236.5L375 227.409L383.333 236.5L391.667 227.409L400 236.5V233.091L391.667 224L383.333 233.091L375 224L366.667 233.091L358.333 224Z" fill="#EFA00B" fill-opacity="0.1"/>
<path d="M358.333 236.5L350 245.591V249L358.333 239.909L366.667 249L375 239.909L383.333 249L391.667 239.909L400 249V245.591L391.667 236.5L383.333 245.591L375 236.5L366.667 245.591L358.333 236.5Z" fill="#EFA00B" fill-opacity="0.1"/>
<rect x="150" y="149" width="50" height="50" fill="url(#paint15_radial)"/>
<path d="M158.333 149L150 158.091V161.5L158.333 152.409L166.667 161.5L175 152.409L183.333 161.5L191.667 152.409L200 161.5V158.091L191.667 149L183.333 158.091L175 149L166.667 158.091L158.333 149Z" fill="#EFA00B" fill-opacity="0.1"/>
<path d="M158.333 161.5L150 170.591V174L158.333 164.909L166.667 174L175 164.909L183.333 174L191.667 164.909L200 174V170.591L191.667 161.5L183.333 170.591L175 161.5L166.667 170.591L158.333 161.5Z" fill="#EFA00B" fill-opacity="0.1"/>
<path d="M158.333 174L150 183.091V186.5L158.333 177.409L166.667 186.5L175 177.409L183.333 186.5L191.667 177.409L200 186.5V183.091L191.667 174L183.333 183.091L175 174L166.667 183.091L158.333 174Z" fill="#EFA00B" fill-opacity="0.1"/>
<path d="M158.333 186.5L150 195.591V199L158.333 189.909L166.667 199L175 189.909L183.333 199L191.667 189.909L200 199V195.591L191.667 186.5L183.333 195.591L175 186.5L166.667 195.591L158.333 186.5Z" fill="#EFA00B" fill-opacity="0.1"/>
<rect x="150" y="199" width="50" height="50" fill="url(#paint16_radial)"/>
<path d="M158.333 199L150 208.091V211.5L158.333 202.409L166.667 211.5L175 202.409L183.333 211.5L191.667 202.409L200 211.5V208.091L191.667 199L183.333 208.091L175 199L166.667 208.091L158.333 199Z" fill="#EFA00B" fill-opacity="0.1"/>
<path d="M158.333 211.5L150 220.591V224L158.333 214.909L166.667 224L175 214.909L183.333 224L191.667 214.909L200 224V220.591L191.667 211.5L183.333 220.591L175 211.5L166.667 220.591L158.333 211.5Z" fill="#EFA00B" fill-opacity="0.1"/>
<path d="M158.333 224L150 233.091V236.5L158.333 227.409L166.667 236.5L175 227.409L183.333 236.5L191.667 227.409L200 236.5V233.091L191.667 224L183.333 233.091L175 224L166.667 233.091L158.333 224Z" fill="#EFA00B" fill-opacity="0.1"/>
<path d="M158.333 236.5L150 245.591V249L158.333 239.909L166.667 249L175 239.909L183.333 249L191.667 239.909L200 249V245.591L191.667 236.5L183.333 245.591L175 236.5L166.667 245.591L158.333 236.5Z" fill="#EFA00B" fill-opacity="0.1"/>
<rect x="100" y="99" width="50" height="50" fill="url(#paint17_radial)"/>
<path d="M108.333 99L100 108.091V111.5L108.333 102.409L116.667 111.5L125 102.409L133.333 111.5L141.667 102.409L150 111.5V108.091L141.667 99L133.333 108.091L125 99L116.667 108.091L108.333 99Z" fill="#EFA00B" fill-opacity="0.1"/>
<path d="M108.333 111.5L100 120.591V124L108.333 114.909L116.667 124L125 114.909L133.333 124L141.667 114.909L150 124V120.591L141.667 111.5L133.333 120.591L125 111.5L116.667 120.591L108.333 111.5Z" fill="#EFA00B" fill-opacity="0.1"/>
<path d="M108.333 124L100 133.091V136.5L108.333 127.409L116.667 136.5L125 127.409L133.333 136.5L141.667 127.409L150 136.5V133.091L141.667 124L133.333 133.091L125 124L116.667 133.091L108.333 124Z" fill="#EFA00B" fill-opacity="0.1"/>
<path d="M108.333 136.5L100 145.591V149L108.333 139.909L116.667 149L125 139.909L133.333 149L141.667 139.909L150 149V145.591L141.667 136.5L133.333 145.591L125 136.5L116.667 145.591L108.333 136.5Z" fill="#EFA00B" fill-opacity="0.1"/>
<rect x="100" y="50" width="50" height="50" fill="url(#paint18_radial)"/>
<path d="M108.333 50L100 59.0909V62.5L108.333 53.4091L116.667 62.5L125 53.4091L133.333 62.5L141.667 53.4091L150 62.5V59.0909L141.667 50L133.333 59.0909L125 50L116.667 59.0909L108.333 50Z" fill="#EFA00B" fill-opacity="0.1"/>
<path d="M108.333 62.5L100 71.5909V75L108.333 65.9091L116.667 75L125 65.9091L133.333 75L141.667 65.9091L150 75V71.5909L141.667 62.5L133.333 71.5909L125 62.5L116.667 71.5909L108.333 62.5Z" fill="#EFA00B" fill-opacity="0.1"/>
<path d="M108.333 75L100 84.0909V87.5L108.333 78.4091L116.667 87.5L125 78.4091L133.333 87.5L141.667 78.4091L150 87.5V84.0909L141.667 75L133.333 84.0909L125 75L116.667 84.0909L108.333 75Z" fill="#EFA00B" fill-opacity="0.1"/>
<path d="M108.333 87.5L100 96.5909V100L108.333 90.9091L116.667 100L125 90.9091L133.333 100L141.667 90.9091L150 100V96.5909L141.667 87.5L133.333 96.5909L125 87.5L116.667 96.5909L108.333 87.5Z" fill="#EFA00B" fill-opacity="0.1"/>
<rect x="50" width="50" height="50" fill="url(#paint19_radial)"/>
<path d="M58.3333 0L50 9.09091V12.5L58.3333 3.40909L66.6667 12.5L75 3.40909L83.3333 12.5L91.6667 3.40909L100 12.5V9.09091L91.6667 0L83.3333 9.09091L75 0L66.6667 9.09091L58.3333 0Z" fill="#EFA00B" fill-opacity="0.1"/>
<path d="M58.3333 12.5L50 21.5909V25L58.3333 15.9091L66.6667 25L75 15.9091L83.3333 25L91.6667 15.9091L100 25V21.5909L91.6667 12.5L83.3333 21.5909L75 12.5L66.6667 21.5909L58.3333 12.5Z" fill="#EFA00B" fill-opacity="0.1"/>
<path d="M58.3333 25L50 34.0909V37.5L58.3333 28.4091L66.6667 37.5L75 28.4091L83.3333 37.5L91.6667 28.4091L100 37.5V34.0909L91.6667 25L83.3333 34.0909L75 25L66.6667 34.0909L58.3333 25Z" fill="#EFA00B" fill-opacity="0.1"/>
<path d="M58.3333 37.5L50 46.5909V50L58.3333 40.9091L66.6667 50L75 40.9091L83.3333 50L91.6667 40.9091L100 50V46.5909L91.6667 37.5L83.3333 46.5909L75 37.5L66.6667 46.5909L58.3333 37.5Z" fill="#EFA00B" fill-opacity="0.1"/>
<rect x="100" width="50" height="50" fill="url(#paint20_radial)"/>
<path d="M108.333 0L100 9.09091V12.5L108.333 3.40909L116.667 12.5L125 3.40909L133.333 12.5L141.667 3.40909L150 12.5V9.09091L141.667 0L133.333 9.09091L125 0L116.667 9.09091L108.333 0Z" fill="#EFA00B" fill-opacity="0.1"/>
<path d="M108.333 12.5L100 21.5909V25L108.333 15.9091L116.667 25L125 15.9091L133.333 25L141.667 15.9091L150 25V21.5909L141.667 12.5L133.333 21.5909L125 12.5L116.667 21.5909L108.333 12.5Z" fill="#EFA00B" fill-opacity="0.1"/>
<path d="M108.333 25L100 34.0909V37.5L108.333 28.4091L116.667 37.5L125 28.4091L133.333 37.5L141.667 28.4091L150 37.5V34.0909L141.667 25L133.333 34.0909L125 25L116.667 34.0909L108.333 25Z" fill="#EFA00B" fill-opacity="0.1"/>
<path d="M108.333 37.5L100 46.5909V50L108.333 40.9091L116.667 50L125 40.9091L133.333 50L141.667 40.9091L150 50V46.5909L141.667 37.5L133.333 46.5909L125 37.5L116.667 46.5909L108.333 37.5Z" fill="#EFA00B" fill-opacity="0.1"/>
<rect x="150" y="50" width="50" height="50" fill="url(#paint21_radial)"/>
<path d="M158.333 50L150 59.0909V62.5L158.333 53.4091L166.667 62.5L175 53.4091L183.333 62.5L191.667 53.4091L200 62.5V59.0909L191.667 50L183.333 59.0909L175 50L166.667 59.0909L158.333 50Z" fill="#EFA00B" fill-opacity="0.1"/>
<path d="M158.333 62.5L150 71.5909V75L158.333 65.9091L166.667 75L175 65.9091L183.333 75L191.667 65.9091L200 75V71.5909L191.667 62.5L183.333 71.5909L175 62.5L166.667 71.5909L158.333 62.5Z" fill="#EFA00B" fill-opacity="0.1"/>
<path d="M158.333 75L150 84.0909V87.5L158.333 78.4091L166.667 87.5L175 78.4091L183.333 87.5L191.667 78.4091L200 87.5V84.0909L191.667 75L183.333 84.0909L175 75L166.667 84.0909L158.333 75Z" fill="#EFA00B" fill-opacity="0.1"/>
<path d="M158.333 87.5L150 96.5909V100L158.333 90.9091L166.667 100L175 90.9091L183.333 100L191.667 90.9091L200 100V96.5909L191.667 87.5L183.333 96.5909L175 87.5L166.667 96.5909L158.333 87.5Z" fill="#EFA00B" fill-opacity="0.1"/>
<rect x="200" y="50" width="50" height="50" fill="url(#paint22_radial)"/>
<path d="M208.333 50L200 59.0909V62.5L208.333 53.4091L216.667 62.5L225 53.4091L233.333 62.5L241.667 53.4091L250 62.5V59.0909L241.667 50L233.333 59.0909L225 50L216.667 59.0909L208.333 50Z" fill="#EFA00B" fill-opacity="0.1"/>
<path d="M208.333 62.5L200 71.5909V75L208.333 65.9091L216.667 75L225 65.9091L233.333 75L241.667 65.9091L250 75V71.5909L241.667 62.5L233.333 71.5909L225 62.5L216.667 71.5909L208.333 62.5Z" fill="#EFA00B" fill-opacity="0.1"/>
<path d="M208.333 75L200 84.0909V87.5L208.333 78.4091L216.667 87.5L225 78.4091L233.333 87.5L241.667 78.4091L250 87.5V84.0909L241.667 75L233.333 84.0909L225 75L216.667 84.0909L208.333 75Z" fill="#EFA00B" fill-opacity="0.1"/>
<path d="M208.333 87.5L200 96.5909V100L208.333 90.9091L216.667 100L225 90.9091L233.333 100L241.667 90.9091L250 100V96.5909L241.667 87.5L233.333 96.5909L225 87.5L216.667 96.5909L208.333 87.5Z" fill="#EFA00B" fill-opacity="0.1"/>
<rect x="200" width="50" height="50" fill="url(#paint23_radial)"/>
<path d="M208.333 0L200 9.09091V12.5L208.333 3.40909L216.667 12.5L225 3.40909L233.333 12.5L241.667 3.40909L250 12.5V9.09091L241.667 0L233.333 9.09091L225 0L216.667 9.09091L208.333 0Z" fill="#EFA00B" fill-opacity="0.1"/>
<path d="M208.333 12.5L200 21.5909V25L208.333 15.9091L216.667 25L225 15.9091L233.333 25L241.667 15.9091L250 25V21.5909L241.667 12.5L233.333 21.5909L225 12.5L216.667 21.5909L208.333 12.5Z" fill="#EFA00B" fill-opacity="0.1"/>
<path d="M208.333 25L200 34.0909V37.5L208.333 28.4091L216.667 37.5L225 28.4091L233.333 37.5L241.667 28.4091L250 37.5V34.0909L241.667 25L233.333 34.0909L225 25L216.667 34.0909L208.333 25Z" fill="#EFA00B" fill-opacity="0.1"/>
<path d="M208.333 37.5L200 46.5909V50L208.333 40.9091L216.667 50L225 40.9091L233.333 50L241.667 40.9091L250 50V46.5909L241.667 37.5L233.333 46.5909L225 37.5L216.667 46.5909L208.333 37.5Z" fill="#EFA00B" fill-opacity="0.1"/>
<rect x="250" y="49" width="50" height="50" fill="url(#paint24_radial)"/>
<path d="M258.333 49L250 58.0909V61.5L258.333 52.4091L266.667 61.5L275 52.4091L283.333 61.5L291.667 52.4091L300 61.5V58.0909L291.667 49L283.333 58.0909L275 49L266.667 58.0909L258.333 49Z" fill="#EFA00B" fill-opacity="0.1"/>
<path d="M258.333 61.5L250 70.5909V74L258.333 64.9091L266.667 74L275 64.9091L283.333 74L291.667 64.9091L300 74V70.5909L291.667 61.5L283.333 70.5909L275 61.5L266.667 70.5909L258.333 61.5Z" fill="#EFA00B" fill-opacity="0.1"/>
<path d="M258.333 74L250 83.0909V86.5L258.333 77.4091L266.667 86.5L275 77.4091L283.333 86.5L291.667 77.4091L300 86.5V83.0909L291.667 74L283.333 83.0909L275 74L266.667 83.0909L258.333 74Z" fill="#EFA00B" fill-opacity="0.1"/>
<path d="M258.333 86.5L250 95.5909V99L258.333 89.9091L266.667 99L275 89.9091L283.333 99L291.667 89.9091L300 99V95.5909L291.667 86.5L283.333 95.5909L275 86.5L266.667 95.5909L258.333 86.5Z" fill="#EFA00B" fill-opacity="0.1"/>
<rect x="250" width="50" height="50" fill="url(#paint25_radial)"/>
<path d="M258.333 0L250 9.09091V12.5L258.333 3.40909L266.667 12.5L275 3.40909L283.333 12.5L291.667 3.40909L300 12.5V9.09091L291.667 0L283.333 9.09091L275 0L266.667 9.09091L258.333 0Z" fill="#EFA00B" fill-opacity="0.1"/>
<path d="M258.333 12.5L250 21.5909V25L258.333 15.9091L266.667 25L275 15.9091L283.333 25L291.667 15.9091L300 25V21.5909L291.667 12.5L283.333 21.5909L275 12.5L266.667 21.5909L258.333 12.5Z" fill="#EFA00B" fill-opacity="0.1"/>
<path d="M258.333 25L250 34.0909V37.5L258.333 28.4091L266.667 37.5L275 28.4091L283.333 37.5L291.667 28.4091L300 37.5V34.0909L291.667 25L283.333 34.0909L275 25L266.667 34.0909L258.333 25Z" fill="#EFA00B" fill-opacity="0.1"/>
<path d="M258.333 37.5L250 46.5909V50L258.333 40.9091L266.667 50L275 40.9091L283.333 50L291.667 40.9091L300 50V46.5909L291.667 37.5L283.333 46.5909L275 37.5L266.667 46.5909L258.333 37.5Z" fill="#EFA00B" fill-opacity="0.1"/>
<rect x="250" y="99" width="50" height="50" fill="url(#paint26_radial)"/>
<path d="M258.333 99L250 108.091V111.5L258.333 102.409L266.667 111.5L275 102.409L283.333 111.5L291.667 102.409L300 111.5V108.091L291.667 99L283.333 108.091L275 99L266.667 108.091L258.333 99Z" fill="#EFA00B" fill-opacity="0.1"/>
<path d="M258.333 111.5L250 120.591V124L258.333 114.909L266.667 124L275 114.909L283.333 124L291.667 114.909L300 124V120.591L291.667 111.5L283.333 120.591L275 111.5L266.667 120.591L258.333 111.5Z" fill="#EFA00B" fill-opacity="0.1"/>
<path d="M258.333 124L250 133.091V136.5L258.333 127.409L266.667 136.5L275 127.409L283.333 136.5L291.667 127.409L300 136.5V133.091L291.667 124L283.333 133.091L275 124L266.667 133.091L258.333 124Z" fill="#EFA00B" fill-opacity="0.1"/>
<path d="M258.333 136.5L250 145.591V149L258.333 139.909L266.667 149L275 139.909L283.333 149L291.667 139.909L300 149V145.591L291.667 136.5L283.333 145.591L275 136.5L266.667 145.591L258.333 136.5Z" fill="#EFA00B" fill-opacity="0.1"/>
<rect x="300" y="50" width="50" height="50" fill="url(#paint27_radial)"/>
<path d="M308.333 50L300 59.0909V62.5L308.333 53.4091L316.667 62.5L325 53.4091L333.333 62.5L341.667 53.4091L350 62.5V59.0909L341.667 50L333.333 59.0909L325 50L316.667 59.0909L308.333 50Z" fill="#EFA00B" fill-opacity="0.1"/>
<path d="M308.333 62.5L300 71.5909V75L308.333 65.9091L316.667 75L325 65.9091L333.333 75L341.667 65.9091L350 75V71.5909L341.667 62.5L333.333 71.5909L325 62.5L316.667 71.5909L308.333 62.5Z" fill="#EFA00B" fill-opacity="0.1"/>
<path d="M308.333 75L300 84.0909V87.5L308.333 78.4091L316.667 87.5L325 78.4091L333.333 87.5L341.667 78.4091L350 87.5V84.0909L341.667 75L333.333 84.0909L325 75L316.667 84.0909L308.333 75Z" fill="#EFA00B" fill-opacity="0.1"/>
<path d="M308.333 87.5L300 96.5909V100L308.333 90.9091L316.667 100L325 90.9091L333.333 100L341.667 90.9091L350 100V96.5909L341.667 87.5L333.333 96.5909L325 87.5L316.667 96.5909L308.333 87.5Z" fill="#EFA00B" fill-opacity="0.1"/>
<rect x="350" y="50" width="50" height="50" fill="url(#paint28_radial)"/>
<path d="M358.333 50L350 59.0909V62.5L358.333 53.4091L366.667 62.5L375 53.4091L383.333 62.5L391.667 53.4091L400 62.5V59.0909L391.667 50L383.333 59.0909L375 50L366.667 59.0909L358.333 50Z" fill="#EFA00B" fill-opacity="0.1"/>
<path d="M358.333 62.5L350 71.5909V75L358.333 65.9091L366.667 75L375 65.9091L383.333 75L391.667 65.9091L400 75V71.5909L391.667 62.5L383.333 71.5909L375 62.5L366.667 71.5909L358.333 62.5Z" fill="#EFA00B" fill-opacity="0.1"/>
<path d="M358.333 75L350 84.0909V87.5L358.333 78.4091L366.667 87.5L375 78.4091L383.333 87.5L391.667 78.4091L400 87.5V84.0909L391.667 75L383.333 84.0909L375 75L366.667 84.0909L358.333 75Z" fill="#EFA00B" fill-opacity="0.1"/>
<path d="M358.333 87.5L350 96.5909V100L358.333 90.9091L366.667 100L375 90.9091L383.333 100L391.667 90.9091L400 100V96.5909L391.667 87.5L383.333 96.5909L375 87.5L366.667 96.5909L358.333 87.5Z" fill="#EFA00B" fill-opacity="0.1"/>
<rect x="350" width="50" height="50" fill="url(#paint29_radial)"/>
<path d="M358.333 0L350 9.09091V12.5L358.333 3.40909L366.667 12.5L375 3.40909L383.333 12.5L391.667 3.40909L400 12.5V9.09091L391.667 0L383.333 9.09091L375 0L366.667 9.09091L358.333 0Z" fill="#EFA00B" fill-opacity="0.1"/>
<path d="M358.333 12.5L350 21.5909V25L358.333 15.9091L366.667 25L375 15.9091L383.333 25L391.667 15.9091L400 25V21.5909L391.667 12.5L383.333 21.5909L375 12.5L366.667 21.5909L358.333 12.5Z" fill="#EFA00B" fill-opacity="0.1"/>
<path d="M358.333 25L350 34.0909V37.5L358.333 28.4091L366.667 37.5L375 28.4091L383.333 37.5L391.667 28.4091L400 37.5V34.0909L391.667 25L383.333 34.0909L375 25L366.667 34.0909L358.333 25Z" fill="#EFA00B" fill-opacity="0.1"/>
<path d="M358.333 37.5L350 46.5909V50L358.333 40.9091L366.667 50L375 40.9091L383.333 50L391.667 40.9091L400 50V46.5909L391.667 37.5L383.333 46.5909L375 37.5L366.667 46.5909L358.333 37.5Z" fill="#EFA00B" fill-opacity="0.1"/>
<rect x="100" y="149" width="50" height="50" fill="url(#paint30_radial)"/>
<path d="M108.333 149L100 158.091V161.5L108.333 152.409L116.667 161.5L125 152.409L133.333 161.5L141.667 152.409L150 161.5V158.091L141.667 149L133.333 158.091L125 149L116.667 158.091L108.333 149Z" fill="#EFA00B" fill-opacity="0.1"/>
<path d="M108.333 161.5L100 170.591V174L108.333 164.909L116.667 174L125 164.909L133.333 174L141.667 164.909L150 174V170.591L141.667 161.5L133.333 170.591L125 161.5L116.667 170.591L108.333 161.5Z" fill="#EFA00B" fill-opacity="0.1"/>
<path d="M108.333 174L100 183.091V186.5L108.333 177.409L116.667 186.5L125 177.409L133.333 186.5L141.667 177.409L150 186.5V183.091L141.667 174L133.333 183.091L125 174L116.667 183.091L108.333 174Z" fill="#EFA00B" fill-opacity="0.1"/>
<path d="M108.333 186.5L100 195.591V199L108.333 189.909L116.667 199L125 189.909L133.333 199L141.667 189.909L150 199V195.591L141.667 186.5L133.333 195.591L125 186.5L116.667 195.591L108.333 186.5Z" fill="#EFA00B" fill-opacity="0.1"/>
<rect y="200" width="50" height="50" fill="url(#paint31_radial)"/>
<path d="M8.33333 200L0 209.091V212.5L8.33333 203.409L16.6667 212.5L25 203.409L33.3333 212.5L41.6667 203.409L50 212.5V209.091L41.6667 200L33.3333 209.091L25 200L16.6667 209.091L8.33333 200Z" fill="#EFA00B" fill-opacity="0.1"/>
<path d="M8.33333 212.5L0 221.591V225L8.33333 215.909L16.6667 225L25 215.909L33.3333 225L41.6667 215.909L50 225V221.591L41.6667 212.5L33.3333 221.591L25 212.5L16.6667 221.591L8.33333 212.5Z" fill="#EFA00B" fill-opacity="0.1"/>
<path d="M8.33333 225L0 234.091V237.5L8.33333 228.409L16.6667 237.5L25 228.409L33.3333 237.5L41.6667 228.409L50 237.5V234.091L41.6667 225L33.3333 234.091L25 225L16.6667 234.091L8.33333 225Z" fill="#EFA00B" fill-opacity="0.1"/>
<path d="M8.33333 237.5L0 246.591V250L8.33333 240.909L16.6667 250L25 240.909L33.3333 250L41.6667 240.909L50 250V246.591L41.6667 237.5L33.3333 246.591L25 237.5L16.6667 246.591L8.33333 237.5Z" fill="#EFA00B" fill-opacity="0.1"/>
<g clip-path="url(#clip0)">
<path d="M187.236 177.555C187.236 170.75 181.719 165.233 174.914 165.233C168.109 165.233 162.593 170.75 162.593 177.555C162.593 184.36 168.109 185.77 174.914 185.77C181.719 185.77 187.236 184.36 187.236 177.555V177.555Z" fill="#0097A7"/>
<path d="M187.236 177.555H187.858C187.857 170.406 182.063 164.611 174.914 164.611C167.765 164.611 161.971 170.406 161.97 177.555C161.97 179.339 162.334 180.819 163.021 182.019C163.535 182.918 164.227 183.65 165.046 184.23C166.277 185.101 167.782 185.634 169.454 185.958C171.128 186.28 172.976 186.392 174.914 186.392C178.359 186.388 181.522 186.049 183.922 184.762C185.119 184.118 186.122 183.219 186.807 182.019C187.495 180.819 187.858 179.339 187.858 177.555H186.613C186.613 179.174 186.287 180.421 185.727 181.4C185.306 182.135 184.75 182.727 184.062 183.214C183.032 183.945 181.697 184.435 180.138 184.735C178.58 185.036 176.804 185.148 174.914 185.147C171.554 185.152 168.556 184.785 166.497 183.666C165.464 183.108 164.663 182.379 164.101 181.4C163.541 180.421 163.215 179.174 163.215 177.555C163.215 174.322 164.523 171.401 166.641 169.282C168.76 167.164 171.681 165.856 174.914 165.856C178.147 165.856 181.068 167.164 183.187 169.282C185.305 171.401 186.613 174.322 186.613 177.555H187.236V177.555Z" fill="#54596E"/>
<path d="M174.291 173.945C174.291 176.008 172.62 177.679 170.558 177.679C168.496 177.679 166.824 176.008 166.824 173.945C166.824 171.883 168.496 170.212 170.558 170.212C172.62 170.212 174.291 171.883 174.291 173.945Z" fill="white"/>
<path d="M174.291 173.945H174.914C174.913 171.54 172.963 169.59 170.558 169.589C168.151 169.59 166.202 171.54 166.201 173.945C166.202 176.351 168.151 178.301 170.558 178.302C172.963 178.301 174.913 176.351 174.914 173.945H173.669C173.669 174.807 173.322 175.581 172.757 176.146C172.193 176.71 171.419 177.057 170.558 177.057C169.696 177.057 168.922 176.71 168.357 176.146C167.793 175.581 167.446 174.807 167.446 173.945C167.446 173.084 167.793 172.311 168.357 171.745C168.922 171.181 169.696 170.834 170.558 170.834C171.419 170.834 172.193 171.181 172.757 171.745C173.322 172.311 173.669 173.084 173.669 173.945H174.291Z" fill="#54596E"/>
<path d="M183.004 173.945C183.004 176.008 181.333 177.679 179.27 177.679C177.208 177.679 175.537 176.008 175.537 173.945C175.537 171.883 177.208 170.212 179.27 170.212C181.333 170.212 183.004 171.883 183.004 173.945Z" fill="white"/>
<path d="M183.004 173.945H183.626C183.625 171.54 181.676 169.59 179.27 169.589C176.864 169.59 174.914 171.54 174.914 173.945C174.914 176.351 176.864 178.301 179.27 178.302C181.676 178.301 183.625 176.351 183.626 173.945H182.381C182.381 174.807 182.034 175.581 181.47 176.146C180.905 176.71 180.131 177.057 179.27 177.057C178.409 177.057 177.635 176.71 177.07 176.146C176.505 175.581 176.158 174.807 176.158 173.945C176.158 173.084 176.505 172.311 177.07 171.745C177.635 171.181 178.409 170.834 179.27 170.834C180.131 170.834 180.905 171.181 181.47 171.745C182.034 172.311 182.381 173.084 182.381 173.945H183.004Z" fill="#54596E"/>
<path d="M156.081 178.101L156.081 178.1C156.118 178.061 156.655 177.502 157.597 176.962C158.54 176.422 159.877 175.9 161.544 175.9C161.837 175.9 162.14 175.916 162.453 175.951C162.794 175.99 163.102 175.744 163.14 175.402C163.179 175.061 162.933 174.753 162.591 174.715C162.231 174.674 161.882 174.656 161.544 174.656C159.55 174.656 157.959 175.301 156.873 175.943C155.786 176.586 155.194 177.227 155.164 177.258C154.932 177.511 154.948 177.905 155.201 178.138C155.454 178.37 155.848 178.354 156.081 178.101V178.101Z" fill="#54596E"/>
<path d="M156.581 182.531L156.379 182.423L156.58 182.532L156.581 182.531L156.379 182.423L156.58 182.532C156.585 182.522 157.02 181.728 157.94 180.883C158.862 180.035 160.252 179.137 162.214 178.857C162.554 178.808 162.79 178.494 162.742 178.153C162.693 177.813 162.378 177.576 162.038 177.625C159.745 177.951 158.102 179.027 157.047 180.013C155.99 181.002 155.506 181.903 155.483 181.944C155.321 182.247 155.436 182.624 155.739 182.786C156.042 182.948 156.419 182.834 156.581 182.531Z" fill="#54596E"/>
<path d="M158.634 186.282L158.403 186.238L158.634 186.283L158.634 186.282L158.403 186.238L158.634 186.283C158.635 186.272 158.813 185.385 159.437 184.303C160.064 183.218 161.121 181.945 162.908 181.09C163.219 180.942 163.35 180.57 163.201 180.26C163.053 179.95 162.682 179.819 162.372 179.967C160.282 180.965 159.036 182.483 158.325 183.741C157.613 185 157.42 186.005 157.411 186.051C157.347 186.389 157.569 186.714 157.907 186.778C158.245 186.841 158.57 186.62 158.634 186.282V186.282Z" fill="#54596E"/>
<path d="M194.836 177.258C194.806 177.227 194.214 176.586 193.127 175.943C192.041 175.301 190.45 174.655 188.456 174.656C188.118 174.656 187.769 174.674 187.409 174.715C187.068 174.753 186.821 175.061 186.86 175.402C186.898 175.744 187.206 175.99 187.548 175.951C187.861 175.916 188.164 175.9 188.456 175.9C190.177 175.9 191.547 176.455 192.494 177.014C192.966 177.293 193.33 177.572 193.572 177.778C193.693 177.881 193.784 177.966 193.842 178.023L193.905 178.086L193.919 178.099L193.919 178.1C194.152 178.353 194.546 178.37 194.799 178.137C195.052 177.905 195.068 177.511 194.836 177.258V177.258Z" fill="#54596E"/>
<path d="M194.517 181.944C194.494 181.903 194.01 181.001 192.953 180.013C191.898 179.026 190.255 177.951 187.962 177.625C187.622 177.576 187.307 177.813 187.258 178.153C187.209 178.493 187.446 178.808 187.786 178.857C189.778 179.142 191.182 180.064 192.103 180.923C192.562 181.352 192.897 181.763 193.114 182.063C193.223 182.213 193.302 182.335 193.352 182.417L193.407 182.508L193.418 182.529L193.42 182.532L193.62 182.423L193.419 182.53L193.42 182.532L193.62 182.423L193.419 182.53C193.581 182.833 193.958 182.948 194.261 182.786C194.564 182.624 194.679 182.247 194.517 181.944V181.944Z" fill="#54596E"/>
<path d="M192.589 186.051C192.58 186.004 192.387 185 191.675 183.74C190.965 182.483 189.719 180.964 187.628 179.967C187.318 179.819 186.947 179.95 186.799 180.26C186.651 180.57 186.782 180.942 187.092 181.09C188.907 181.958 189.97 183.258 190.592 184.354C190.902 184.9 191.098 185.393 191.215 185.745C191.274 185.92 191.312 186.06 191.336 186.153L191.361 186.257L191.366 186.279L191.366 186.283L191.594 186.238L191.366 186.282L191.366 186.283L191.594 186.238L191.366 186.282C191.43 186.619 191.755 186.841 192.093 186.778C192.431 186.714 192.653 186.388 192.589 186.051V186.051Z" fill="#54596E"/>
<path d="M171.802 173.945C171.802 174.633 171.245 175.19 170.558 175.19C169.87 175.19 169.313 174.633 169.313 173.945C169.313 173.258 169.87 172.701 170.558 172.701C171.245 172.701 171.802 173.258 171.802 173.945Z" fill="#55A6FF"/>
<path d="M180.515 173.945C180.515 174.633 179.958 175.19 179.27 175.19C178.583 175.19 178.025 174.633 178.025 173.945C178.025 173.258 178.583 172.701 179.27 172.701C179.958 172.701 180.515 173.258 180.515 173.945Z" fill="#55A6FF"/>
<path d="M163.712 160.877C163.712 160.877 165.909 156.119 166.795 154.197C164.715 153.18 161.693 154.73 159.94 157.765C158.135 160.891 158.362 164.399 160.445 165.602C162.529 166.805 165.681 165.247 167.485 162.122C168.082 161.088 168.452 160.013 168.61 158.993L163.712 160.877Z" fill="#0097A7"/>
<path d="M163.713 160.877L164.278 161.138C164.278 161.138 166.474 156.379 167.361 154.458C167.502 154.151 167.373 153.786 167.069 153.637C166.547 153.382 165.978 153.263 165.401 153.263C164.296 153.265 163.166 153.688 162.129 154.413C161.091 155.14 160.14 156.176 159.401 157.454C158.534 158.959 158.101 160.551 158.1 161.999C158.1 162.873 158.258 163.698 158.592 164.416C158.925 165.133 159.443 165.743 160.134 166.141C160.712 166.476 161.361 166.632 162.017 166.631C163.124 166.629 164.255 166.204 165.294 165.478C166.332 164.749 167.285 163.712 168.024 162.433C168.658 161.334 169.054 160.188 169.225 159.089C169.259 158.869 169.174 158.648 169.001 158.509C168.828 158.369 168.594 158.332 168.387 158.412L163.489 160.296L163.713 160.877L164.278 161.138L163.713 160.877L163.936 161.458L168.834 159.574L168.61 158.993L167.995 158.898C167.849 159.838 167.505 160.842 166.946 161.81C166.294 162.94 165.455 163.846 164.579 164.459C163.703 165.074 162.796 165.388 162.017 165.387C161.552 165.385 161.133 165.28 160.756 165.064C160.308 164.803 159.964 164.411 159.72 163.89C159.477 163.37 159.344 162.722 159.344 161.999C159.343 160.801 159.711 159.404 160.479 158.077C161.13 156.948 161.968 156.044 162.842 155.432C163.717 154.819 164.623 154.506 165.401 154.508C165.809 154.508 166.182 154.59 166.522 154.756L166.796 154.197L166.23 153.936C165.787 154.897 165.016 156.567 164.356 157.997C163.696 159.427 163.147 160.616 163.147 160.616C163.041 160.846 163.085 161.118 163.258 161.303C163.432 161.488 163.699 161.549 163.936 161.458L163.713 160.877Z" fill="#54596E"/>
<path d="M160.316 165.554C160.295 165.574 160.04 165.812 159.773 166.199C159.512 166.586 159.215 167.126 159.209 167.802C159.207 168.155 159.304 168.541 159.53 168.889C159.87 169.415 160.453 169.833 161.313 170.154C162.177 170.475 163.339 170.709 164.929 170.832C165.272 170.858 165.571 170.602 165.598 170.26C165.624 169.917 165.368 169.618 165.025 169.592C163.007 169.438 161.794 169.084 161.161 168.719C160.842 168.537 160.67 168.362 160.577 168.216C160.484 168.069 160.455 167.946 160.453 167.802C160.447 167.534 160.606 167.179 160.798 166.904C160.893 166.768 160.99 166.652 161.061 166.574L161.144 166.485L161.164 166.465L161.167 166.462L161.018 166.306L161.166 166.464L161.167 166.462L161.018 166.306L161.166 166.464C161.417 166.229 161.43 165.835 161.196 165.584C160.961 165.333 160.567 165.32 160.316 165.554Z" fill="#54596E"/>
<path d="M186.023 160.877C186.023 160.877 183.827 156.119 182.94 154.197C185.021 153.18 188.043 154.73 189.795 157.765C191.6 160.891 191.374 164.399 189.29 165.602C187.206 166.805 184.055 165.247 182.25 162.122C181.653 161.088 181.283 160.013 181.125 158.993L186.023 160.877Z" fill="#0097A7"/>
<path d="M186.022 160.877L186.588 160.617C186.588 160.617 184.392 155.858 183.504 153.936L182.939 154.197L183.213 154.756C183.553 154.59 183.926 154.509 184.334 154.508C185.112 154.506 186.019 154.819 186.893 155.433C187.767 156.044 188.605 156.948 189.256 158.077C190.023 159.404 190.392 160.801 190.391 161.999C190.391 162.722 190.257 163.37 190.015 163.89C189.77 164.411 189.427 164.803 188.978 165.064H188.979C188.602 165.281 188.182 165.386 187.718 165.387C186.939 165.388 186.031 165.074 185.155 164.459C184.28 163.846 183.441 162.94 182.789 161.811C182.23 160.842 181.886 159.838 181.739 158.898L181.124 158.993L180.901 159.574L185.799 161.458C186.036 161.549 186.303 161.488 186.476 161.303C186.65 161.118 186.694 160.847 186.588 160.617L186.022 160.877L186.246 160.296L181.348 158.413C181.141 158.333 180.907 158.37 180.734 158.509C180.561 158.649 180.476 158.869 180.51 159.089C180.681 160.189 181.077 161.334 181.711 162.433C182.451 163.712 183.402 164.75 184.441 165.479C185.48 166.205 186.611 166.629 187.718 166.632C188.374 166.632 189.023 166.476 189.601 166.142H189.601C190.292 165.744 190.81 165.133 191.143 164.416C191.477 163.699 191.635 162.874 191.636 162C191.634 160.551 191.202 158.959 190.334 157.455C189.595 156.176 188.644 155.14 187.607 154.413C186.569 153.688 185.44 153.266 184.334 153.264C183.757 153.263 183.188 153.383 182.666 153.638C182.362 153.786 182.233 154.151 182.374 154.458C182.818 155.419 183.589 157.089 184.248 158.519C184.909 159.948 185.457 161.138 185.457 161.138L186.022 160.877L186.246 160.296L186.022 160.877Z" fill="#54596E"/>
<path d="M189.192 166.464L189.339 166.306L189.19 166.462L189.192 166.464L189.339 166.306L189.19 166.462C189.196 166.467 189.395 166.66 189.576 166.931C189.762 167.201 189.909 167.543 189.904 167.802C189.902 167.946 189.873 168.069 189.781 168.216C189.644 168.433 189.317 168.725 188.61 168.988C187.907 169.251 186.846 169.475 185.332 169.591C184.99 169.618 184.733 169.917 184.76 170.26C184.786 170.603 185.085 170.859 185.428 170.832C187.547 170.666 188.908 170.312 189.813 169.8C190.264 169.544 190.603 169.239 190.828 168.889C191.054 168.542 191.151 168.155 191.149 167.802C191.143 167.127 190.846 166.586 190.584 166.199C190.317 165.813 190.063 165.574 190.042 165.554C189.79 165.319 189.396 165.333 189.162 165.584C188.927 165.835 188.94 166.229 189.192 166.464V166.464Z" fill="#54596E"/>
<path d="M167.922 179.9C169.533 182.117 172.152 183.561 175.104 183.56C178.041 183.561 180.648 182.132 182.261 179.934C182.464 179.657 182.405 179.268 182.128 179.064C181.851 178.861 181.461 178.92 181.258 179.198C179.867 181.09 177.631 182.316 175.104 182.316C172.564 182.316 170.318 181.076 168.929 179.168C168.727 178.89 168.338 178.828 168.06 179.031C167.782 179.233 167.72 179.622 167.922 179.9V179.9Z" fill="#54596E"/>
</g>
<defs>
<radialGradient id="paint0_radial" cx="0" cy="0" r="1" gradientUnits="userSpaceOnUse" gradientTransform="translate(225 99) rotate(90) scale(151.25)">
<stop stop-color="#EBFFFC"/>
<stop offset="1" stop-color="#81D2C7"/>
</radialGradient>
<radialGradient id="paint1_radial" cx="0" cy="0" r="1" gradientUnits="userSpaceOnUse" gradientTransform="translate(325) rotate(90) scale(151.25)">
<stop stop-color="#EBFFFC"/>
<stop offset="1" stop-color="#81D2C7"/>
</radialGradient>
<radialGradient id="paint2_radial" cx="0" cy="0" r="1" gradientUnits="userSpaceOnUse" gradientTransform="translate(275 149) rotate(90) scale(151.25)">
<stop stop-color="#EBFFFC"/>
<stop offset="1" stop-color="#81D2C7"/>
</radialGradient>
<radialGradient id="paint3_radial" cx="0" cy="0" r="1" gradientUnits="userSpaceOnUse" gradientTransform="translate(325 199) rotate(90) scale(151.25)">
<stop stop-color="#EBFFFC"/>
<stop offset="1" stop-color="#81D2C7"/>
</radialGradient>
<radialGradient id="paint4_radial" cx="0" cy="0" r="1" gradientUnits="userSpaceOnUse" gradientTransform="translate(275 199) rotate(90) scale(151.25)">
<stop stop-color="#EBFFFC"/>
<stop offset="1" stop-color="#81D2C7"/>
</radialGradient>
<radialGradient id="paint5_radial" cx="0" cy="0" r="1" gradientUnits="userSpaceOnUse" gradientTransform="translate(325 99) rotate(90) scale(151.25)">
<stop stop-color="#EBFFFC"/>
<stop offset="1" stop-color="#81D2C7"/>
</radialGradient>
<radialGradient id="paint6_radial" cx="0" cy="0" r="1" gradientUnits="userSpaceOnUse" gradientTransform="translate(375 99) rotate(90) scale(151.25)">
<stop stop-color="#EBFFFC"/>
<stop offset="1" stop-color="#81D2C7"/>
</radialGradient>
<radialGradient id="paint7_radial" cx="0" cy="0" r="1" gradientUnits="userSpaceOnUse" gradientTransform="translate(75 100) rotate(90) scale(151.25)">
<stop stop-color="#EBFFFC"/>
<stop offset="1" stop-color="#81D2C7"/>
</radialGradient>
<radialGradient id="paint8_radial" cx="0" cy="0" r="1" gradientUnits="userSpaceOnUse" gradientTransform="translate(25 50) rotate(90) scale(151.25)">
<stop stop-color="#EBFFFC"/>
<stop offset="1" stop-color="#81D2C7"/>
</radialGradient>
<radialGradient id="paint9_radial" cx="0" cy="0" r="1" gradientUnits="userSpaceOnUse" gradientTransform="translate(25) rotate(90) scale(151.25)">
<stop stop-color="#EBFFFC"/>
<stop offset="1" stop-color="#81D2C7"/>
</radialGradient>
<radialGradient id="paint10_radial" cx="0" cy="0" r="1" gradientUnits="userSpaceOnUse" gradientTransform="translate(75 150) rotate(90) scale(151.25)">
<stop stop-color="#EBFFFC"/>
<stop offset="1" stop-color="#81D2C7"/>
</radialGradient>
<radialGradient id="paint11_radial" cx="0" cy="0" r="1" gradientUnits="userSpaceOnUse" gradientTransform="translate(275.25 123.75) rotate(135) scale(106.42)">
<stop stop-color="#FED766"/>
<stop offset="1" stop-color="#FFFD98"/>
</radialGradient>
<radialGradient id="paint12_radial" cx="0" cy="0" r="1" gradientUnits="userSpaceOnUse" gradientTransform="translate(375.25 123.75) rotate(135) scale(106.42)">
<stop stop-color="#FED766"/>
<stop offset="1" stop-color="#FFFD98"/>
</radialGradient>
<radialGradient id="paint13_radial" cx="0" cy="0" r="1" gradientUnits="userSpaceOnUse" gradientTransform="translate(425.25 123.75) rotate(135) scale(106.42)">
<stop stop-color="#FED766"/>
<stop offset="1" stop-color="#FFFD98"/>
</radialGradient>
<radialGradient id="paint14_radial" cx="0" cy="0" r="1" gradientUnits="userSpaceOnUse" gradientTransform="translate(425.25 173.75) rotate(135) scale(106.42)">
<stop stop-color="#FED766"/>
<stop offset="1" stop-color="#FFFD98"/>
</radialGradient>
<radialGradient id="paint15_radial" cx="0" cy="0" r="1" gradientUnits="userSpaceOnUse" gradientTransform="translate(225.25 123.75) rotate(135) scale(106.42)">
<stop stop-color="#FED766"/>
<stop offset="1" stop-color="#FFFD98"/>
</radialGradient>
<radialGradient id="paint16_radial" cx="0" cy="0" r="1" gradientUnits="userSpaceOnUse" gradientTransform="translate(225.25 173.75) rotate(135) scale(106.42)">
<stop stop-color="#FED766"/>
<stop offset="1" stop-color="#FFFD98"/>
</radialGradient>
<radialGradient id="paint17_radial" cx="0" cy="0" r="1" gradientUnits="userSpaceOnUse" gradientTransform="translate(175.25 73.75) rotate(135) scale(106.42)">
<stop stop-color="#FED766"/>
<stop offset="1" stop-color="#FFFD98"/>
</radialGradient>
<radialGradient id="paint18_radial" cx="0" cy="0" r="1" gradientUnits="userSpaceOnUse" gradientTransform="translate(175.25 24.75) rotate(135) scale(106.42)">
<stop stop-color="#FED766"/>
<stop offset="1" stop-color="#FFFD98"/>
</radialGradient>
<radialGradient id="paint19_radial" cx="0" cy="0" r="1" gradientUnits="userSpaceOnUse" gradientTransform="translate(125.25 -25.25) rotate(135) scale(106.42)">
<stop stop-color="#FED766"/>
<stop offset="1" stop-color="#FFFD98"/>
</radialGradient>
<radialGradient id="paint20_radial" cx="0" cy="0" r="1" gradientUnits="userSpaceOnUse" gradientTransform="translate(175.25 -25.25) rotate(135) scale(106.42)">
<stop stop-color="#FED766"/>
<stop offset="1" stop-color="#FFFD98"/>
</radialGradient>
<radialGradient id="paint21_radial" cx="0" cy="0" r="1" gradientUnits="userSpaceOnUse" gradientTransform="translate(225.25 24.75) rotate(135) scale(106.42)">
<stop stop-color="#FED766"/>
<stop offset="1" stop-color="#FFFD98"/>
</radialGradient>
<radialGradient id="paint22_radial" cx="0" cy="0" r="1" gradientUnits="userSpaceOnUse" gradientTransform="translate(275.25 24.75) rotate(135) scale(106.42)">
<stop stop-color="#FED766"/>
<stop offset="1" stop-color="#FFFD98"/>
</radialGradient>
<radialGradient id="paint23_radial" cx="0" cy="0" r="1" gradientUnits="userSpaceOnUse" gradientTransform="translate(275.25 -25.25) rotate(135) scale(106.42)">
<stop stop-color="#FED766"/>
<stop offset="1" stop-color="#FFFD98"/>
</radialGradient>
<radialGradient id="paint24_radial" cx="0" cy="0" r="1" gradientUnits="userSpaceOnUse" gradientTransform="translate(325.25 23.75) rotate(135) scale(106.42)">
<stop stop-color="#FED766"/>
<stop offset="1" stop-color="#FFFD98"/>
</radialGradient>
<radialGradient id="paint25_radial" cx="0" cy="0" r="1" gradientUnits="userSpaceOnUse" gradientTransform="translate(325.25 -25.25) rotate(135) scale(106.42)">
<stop stop-color="#FED766"/>
<stop offset="1" stop-color="#FFFD98"/>
</radialGradient>
<radialGradient id="paint26_radial" cx="0" cy="0" r="1" gradientUnits="userSpaceOnUse" gradientTransform="translate(325.25 73.75) rotate(135) scale(106.42)">
<stop stop-color="#FED766"/>
<stop offset="1" stop-color="#FFFD98"/>
</radialGradient>
<radialGradient id="paint27_radial" cx="0" cy="0" r="1" gradientUnits="userSpaceOnUse" gradientTransform="translate(375.25 24.75) rotate(135) scale(106.42)">
<stop stop-color="#FED766"/>
<stop offset="1" stop-color="#FFFD98"/>
</radialGradient>
<radialGradient id="paint28_radial" cx="0" cy="0" r="1" gradientUnits="userSpaceOnUse" gradientTransform="translate(425.25 24.75) rotate(135) scale(106.42)">
<stop stop-color="#FED766"/>
<stop offset="1" stop-color="#FFFD98"/>
</radialGradient>
<radialGradient id="paint29_radial" cx="0" cy="0" r="1" gradientUnits="userSpaceOnUse" gradientTransform="translate(425.25 -25.25) rotate(135) scale(106.42)">
<stop stop-color="#FED766"/>
<stop offset="1" stop-color="#FFFD98"/>
</radialGradient>
<radialGradient id="paint30_radial" cx="0" cy="0" r="1" gradientUnits="userSpaceOnUse" gradientTransform="translate(175.25 123.75) rotate(135) scale(106.42)">
<stop stop-color="#FED766"/>
<stop offset="1" stop-color="#FFFD98"/>
</radialGradient>
<radialGradient id="paint31_radial" cx="0" cy="0" r="1" gradientUnits="userSpaceOnUse" gradientTransform="translate(75.25 174.75) rotate(135) scale(106.42)">
<stop stop-color="#FED766"/>
<stop offset="1" stop-color="#FFFD98"/>
</radialGradient>
<clipPath id="clip0">
<rect width="40" height="40" fill="white" transform="translate(155 150)"/>
</clipPath>
</defs>
</svg>
