<svg width="22" height="19" viewBox="0 0 22 19" fill="none" xmlns="http://www.w3.org/2000/svg">
<g clip-path="url(#clip0)">
<path d="M10.7029 0C14.5084 0 18.2549 1.5136 18.2549 5.134C18.2549 8.47265 13.825 9.75661 12.8737 10.963C12.1594 11.8604 12.398 13.1213 10.4356 13.1213C9.1573 13.1213 8.53288 12.2233 8.53288 11.4017C8.53288 8.3442 13.7345 7.65223 13.7345 5.13461C13.7345 3.74886 12.6667 2.92723 10.8818 2.92723C7.07637 2.92723 8.56235 6.31556 5.68019 6.31556C4.63972 6.31556 3.74658 5.77629 3.74658 4.74985C3.74588 2.23162 7.07496 0 10.7029 0ZM10.5549 14.7882C11.8907 14.7882 12.9929 15.7371 12.9929 16.8944C12.9929 18.0517 11.8928 19.0006 10.5549 19.0006C9.21694 19.0006 8.11613 18.0529 8.11613 16.8944C8.11613 15.7377 9.21694 14.7882 10.5549 14.7882Z" fill="white"/>
</g>
<defs>
<clipPath id="clip0">
<rect width="22" height="19" fill="white"/>
</clipPath>
</defs>
</svg>
