<svg width="100" height="100" viewBox="0 0 100 100" fill="none" xmlns="http://www.w3.org/2000/svg">
<rect width="100" height="100" rx="25" fill="url(#paint0_radial)"/>
<path d="M8.33333 9.09091L0.605493 17.5213C0.216044 17.9461 0 18.5015 0 19.0779C0 21.1788 2.58209 22.1832 4.00172 20.6345L11.7013 12.235C14.371 9.32259 18.9624 9.3226 21.6321 12.235L25 15.9091C29.4805 20.7969 37.1862 20.7969 41.6667 15.9091C46.1471 11.0213 53.8529 11.0213 58.3333 15.9091C62.8138 20.7969 70.5195 20.7969 75 15.9091L78.3679 12.235C81.0376 9.32259 85.629 9.3226 88.2987 12.235L95.9983 20.6345C97.4179 22.1832 100 21.1788 100 19.0779C100 18.5015 99.784 17.9461 99.3945 17.5213L91.6667 9.09091C87.1862 4.20311 79.4805 4.20311 75 9.09091C70.5195 13.9787 62.8138 13.9787 58.3333 9.09091C53.8529 4.20311 46.1471 4.20311 41.6667 9.09091C37.1862 13.9787 29.4805 13.9787 25 9.09091C20.5195 4.20311 12.8138 4.20312 8.33333 9.09091Z" fill="#EFA00B" fill-opacity="0.1"/>
<path d="M8.33333 34.0909L0.605493 42.5213C0.216044 42.9461 0 43.5015 0 44.0779C0 46.1788 2.58209 47.1832 4.00172 45.6345L11.7013 37.235C14.371 34.3226 18.9624 34.3226 21.6321 37.235L25 40.9091C29.4805 45.7969 37.1862 45.7969 41.6667 40.9091C46.1471 36.0213 53.8529 36.0213 58.3333 40.9091C62.8138 45.7969 70.5195 45.7969 75 40.9091L78.3679 37.235C81.0376 34.3226 85.629 34.3226 88.2987 37.235L95.9983 45.6345C97.4179 47.1832 100 46.1788 100 44.0779C100 43.5015 99.784 42.9461 99.3945 42.5213L91.6667 34.0909C87.1862 29.2031 79.4805 29.2031 75 34.0909C70.5195 38.9787 62.8138 38.9787 58.3333 34.0909C53.8529 29.2031 46.1471 29.2031 41.6667 34.0909C37.1862 38.9787 29.4805 38.9787 25 34.0909C20.5195 29.2031 12.8138 29.2031 8.33333 34.0909Z" fill="#EFA00B" fill-opacity="0.1"/>
<path d="M8.33333 59.0909L0.605493 67.5213C0.216044 67.9461 0 68.5015 0 69.0779C0 71.1788 2.58209 72.1832 4.00172 70.6345L11.7013 62.235C14.371 59.3226 18.9624 59.3226 21.6321 62.235L25 65.9091C29.4805 70.7969 37.1862 70.7969 41.6667 65.9091C46.1471 61.0213 53.8529 61.0213 58.3333 65.9091C62.8138 70.7969 70.5195 70.7969 75 65.9091L78.3679 62.235C81.0376 59.3226 85.629 59.3226 88.2987 62.235L95.9983 70.6345C97.4179 72.1832 100 71.1788 100 69.0779C100 68.5015 99.784 67.9461 99.3945 67.5213L91.6667 59.0909C87.1862 54.2031 79.4805 54.2031 75 59.0909C70.5195 63.9787 62.8138 63.9787 58.3333 59.0909C53.8529 54.2031 46.1471 54.2031 41.6667 59.0909C37.1862 63.9787 29.4805 63.9787 25 59.0909C20.5195 54.2031 12.8138 54.2031 8.33333 59.0909Z" fill="#EFA00B" fill-opacity="0.1"/>
<path d="M8.33333 84.0909L0.605493 92.5213C0.216044 92.9461 0 93.5015 0 94.0779C0 96.1788 2.58209 97.1832 4.00172 95.6345L11.7013 87.235C14.371 84.3226 18.9624 84.3226 21.6321 87.235L25 90.9091C29.4805 95.7969 37.1862 95.7969 41.6667 90.9091C46.1471 86.0213 53.8529 86.0213 58.3333 90.9091C62.8138 95.7969 70.5195 95.7969 75 90.9091L78.3679 87.235C81.0376 84.3226 85.629 84.3226 88.2987 87.235L95.9983 95.6345C97.4179 97.1832 100 96.1788 100 94.0779C100 93.5015 99.784 92.9461 99.3945 92.5213L91.6667 84.0909C87.1862 79.2031 79.4805 79.2031 75 84.0909C70.5195 88.9787 62.8138 88.9787 58.3333 84.0909C53.8529 79.2031 46.1471 79.2031 41.6667 84.0909C37.1862 88.9787 29.4805 88.9787 25 84.0909C20.5195 79.2031 12.8138 79.2031 8.33333 84.0909Z" fill="#EFA00B" fill-opacity="0.1"/>
<g clip-path="url(#clip0)">
<path d="M70.9947 61.1549C70.9947 49.7562 61.7546 40.5161 50.3559 40.5161C38.9578 40.5161 29.7177 49.7562 29.7177 61.1549C29.7177 72.5536 38.9578 74.9143 50.3559 74.9143C61.7546 74.9143 70.9947 72.5536 70.9947 61.1549V61.1549Z" fill="#0097A7"/>
<path d="M70.9948 61.1549H72.0374C72.0362 49.1801 62.3309 39.4741 50.356 39.4735C38.3818 39.4741 28.6758 49.1801 28.6752 61.1549C28.674 64.1425 29.2842 66.6225 30.4353 68.6313C31.296 70.1368 32.4561 71.3643 33.8279 72.3353C35.8886 73.7936 38.4098 74.6877 41.2113 75.2292C44.0146 75.769 47.1096 75.9563 50.356 75.9563C56.1261 75.9491 61.4249 75.3825 65.4449 73.2264C67.4502 72.1468 69.1292 70.6414 70.2773 68.6313C71.4285 66.6225 72.038 64.1425 72.0374 61.1549H69.9523C69.9511 63.8663 69.4065 65.9557 68.4683 67.5953C67.7627 68.8264 66.8311 69.8171 65.6793 70.6342C63.9544 71.8581 61.7183 72.6788 59.1065 73.1816C56.4964 73.6856 53.5214 73.8723 50.356 73.8717C44.7274 73.8789 39.7065 73.2651 36.2573 71.3911C34.5282 70.4553 33.185 69.2344 32.2438 67.5953C31.3062 65.9551 30.761 63.8657 30.7598 61.1543C30.7604 55.7398 32.9517 50.8471 36.4994 47.2977C40.0489 43.75 44.9415 41.5587 50.356 41.5581C55.7706 41.5587 60.6632 43.75 64.2127 47.2977C67.7609 50.8471 69.9517 55.7398 69.9523 61.1543H70.9948V61.1549Z" fill="#54596E"/>
<path d="M49.313 55.1087C49.313 58.5633 46.5133 61.3631 43.0593 61.3631C39.6052 61.3631 36.8049 58.5633 36.8049 55.1087C36.8049 51.6547 39.6052 48.855 43.0593 48.855C46.5133 48.855 49.313 51.6547 49.313 55.1087Z" fill="white"/>
<path d="M49.313 55.1086H50.3556C50.355 51.079 47.0889 47.8129 43.0593 47.8123C39.0291 47.8129 35.7636 51.079 35.7624 55.1086C35.7636 59.1388 39.0291 62.4049 43.0593 62.4055C47.0889 62.4049 50.355 59.1388 50.3556 55.1086H48.271C48.2704 56.5514 47.6895 57.8475 46.7441 58.794C45.7981 59.7388 44.5015 60.3203 43.0593 60.3209C41.6165 60.3203 40.3204 59.7388 39.3738 58.794C38.4291 57.8475 37.8475 56.5514 37.8475 55.1086C37.8475 53.6664 38.4291 52.3703 39.3738 51.4237C40.3204 50.479 41.6165 49.8974 43.0593 49.8968C44.5015 49.8974 45.7981 50.479 46.7441 51.4237C47.6895 52.3703 48.2704 53.6664 48.271 55.1086H49.313Z" fill="#54596E"/>
<path d="M63.9066 55.1087C63.9066 58.5633 61.1069 61.3631 57.6523 61.3631C54.1982 61.3631 51.3985 58.5633 51.3985 55.1087C51.3985 51.6547 54.1982 48.855 57.6523 48.855C61.1069 48.855 63.9066 51.6547 63.9066 55.1087Z" fill="white"/>
<path d="M63.9059 55.1086H64.9485C64.9473 51.079 61.6818 47.8129 57.6516 47.8123C53.622 47.8129 50.3559 51.079 50.3553 55.1086C50.3559 59.1388 53.622 62.4049 57.6516 62.4055C61.6818 62.4049 64.9473 59.1388 64.9485 55.1086H62.8639C62.8633 56.5514 62.2818 57.8475 61.337 58.794C60.3905 59.7388 59.0944 60.3203 57.6516 60.3209C56.2094 60.3203 54.9133 59.7388 53.9667 58.794C53.0214 57.8475 52.4404 56.5514 52.4398 55.1086C52.4404 53.6664 53.0214 52.3703 53.9667 51.4237C54.9133 50.479 56.2094 49.8974 57.6516 49.8968C59.0944 49.8974 60.3905 50.479 61.337 51.4237C62.2818 52.3703 62.8633 53.6664 62.8639 55.1086H63.9059Z" fill="#54596E"/>
<path d="M18.8099 62.0685L18.8111 62.0673C18.872 62.0017 19.7726 61.0658 21.349 60.1616C22.9284 59.2562 25.168 58.383 27.9606 58.383C28.4509 58.383 28.9585 58.4099 29.4827 58.4683C30.0547 58.5327 30.5706 58.1212 30.6345 57.5492C30.6989 56.9772 30.2867 56.4613 29.7147 56.3969C29.1117 56.3295 28.5266 56.2985 27.9606 56.2985C24.6211 56.2985 21.9562 57.3792 20.1376 58.4546C18.3167 59.5318 17.3242 60.6048 17.2747 60.6579C16.8852 61.0814 16.9126 61.741 17.3367 62.1305C17.7608 62.52 18.4205 62.4925 18.8099 62.0685V62.0685Z" fill="#54596E"/>
<path d="M19.6472 69.4888L19.3102 69.3086L19.646 69.4911L19.6472 69.4888L19.3102 69.3086L19.646 69.4911C19.6544 69.4744 20.3838 68.145 21.9245 66.7284C23.4687 65.3095 25.7972 63.8046 29.0824 63.3358C29.6526 63.2541 30.0486 62.7269 29.9675 62.1566C29.8858 61.5864 29.3586 61.1904 28.7884 61.2715C24.9478 61.8179 22.1946 63.6197 20.4286 65.2725C18.6583 66.9282 17.8472 68.4378 17.809 68.5064C17.5376 69.014 17.7297 69.6456 18.2372 69.917C18.7448 70.1878 19.3764 69.9963 19.6472 69.4888Z" fill="#54596E"/>
<path d="M23.0865 75.7719L22.7 75.6991L23.0859 75.7749L23.0865 75.7719L22.7 75.6991L23.0859 75.7749C23.0883 75.7558 23.3871 74.2695 24.432 72.4569C25.4812 70.6401 27.252 68.5072 30.2462 67.0757C30.7657 66.8276 30.9852 66.2055 30.7371 65.686C30.489 65.1665 29.8669 64.947 29.3474 65.1951C25.8468 66.8664 23.7593 69.4096 22.5693 71.5157C21.3759 73.6253 21.0532 75.3085 21.0377 75.3854C20.9309 75.9508 21.3031 76.4966 21.8685 76.6028C22.4346 76.7095 22.9797 76.3379 23.0865 75.7719V75.7719Z" fill="#54596E"/>
<path d="M83.7246 60.6573C83.6751 60.6048 82.6826 59.5318 80.8617 58.454C79.0431 57.3792 76.3782 56.2979 73.0387 56.2985C72.4727 56.2985 71.8876 56.3289 71.2846 56.3969C70.7126 56.4613 70.3004 56.9766 70.3648 57.5492C70.4287 58.1212 70.9446 58.5327 71.5166 58.4683C72.0415 58.4099 72.5484 58.383 73.0387 58.383C75.9213 58.383 78.2159 59.3129 79.8012 60.2493C80.5921 60.7163 81.2023 61.1839 81.6072 61.5287C81.81 61.7011 81.9621 61.843 82.06 61.9378L82.1661 62.0434L82.1882 62.0667L82.1894 62.0679C82.5795 62.4919 83.2385 62.52 83.6626 62.1299C84.0867 61.741 84.1141 61.0814 83.7246 60.6573V60.6573Z" fill="#54596E"/>
<path d="M83.1908 68.5064C83.1526 68.4372 82.3408 66.9276 80.5706 65.2725C78.8045 63.6191 76.0519 61.8179 72.2108 61.2715C71.6412 61.1904 71.1133 61.5864 71.0316 62.1566C70.9505 62.7263 71.3471 63.2541 71.9167 63.3358C75.2539 63.8124 77.6045 65.3578 79.1475 66.7958C79.9169 67.5139 80.4775 68.2034 80.8408 68.7062C81.0227 68.9573 81.1551 69.1619 81.2398 69.2991L81.331 69.4518L81.3501 69.4858L81.3531 69.4911L81.6889 69.308L81.3519 69.4882L81.3531 69.4911L81.6889 69.308L81.3519 69.4882C81.6233 69.9957 82.2543 70.1878 82.7619 69.917C83.2695 69.6456 83.4616 69.014 83.1908 68.5064V68.5064Z" fill="#54596E"/>
<path d="M79.9614 75.3853C79.9459 75.3078 79.6238 73.6246 78.4309 71.515C77.2404 69.4095 75.1535 66.8657 71.6523 65.1944C71.1328 64.9463 70.5107 65.1664 70.2626 65.6859C70.0145 66.2054 70.2346 66.8275 70.7535 67.0756C73.7948 68.5297 75.5751 70.708 76.6165 72.5426C77.1349 73.4582 77.4641 74.2843 77.6603 74.8723C77.7581 75.1664 77.8232 75.4008 77.8631 75.5571L77.9043 75.7306L77.912 75.7682L77.9132 75.7742L78.2949 75.6996L77.9126 75.7718L77.9132 75.7742L78.2949 75.6996L77.9126 75.7718C78.0194 76.3372 78.5645 76.7094 79.1306 76.6026C79.696 76.4959 80.0682 75.9507 79.9614 75.3853V75.3853Z" fill="#54596E"/>
<path d="M45.1441 55.1085C45.1441 56.2602 44.2106 57.1937 43.0595 57.1937C41.9078 57.1937 40.9743 56.2602 40.9743 55.1085C40.9743 53.9574 41.9078 53.0239 43.0595 53.0239C44.2106 53.0239 45.1441 53.9574 45.1441 55.1085Z" fill="#55A6FF"/>
<path d="M59.737 55.1085C59.737 56.2602 58.8036 57.1937 57.6518 57.1937C56.5007 57.1937 55.5673 56.2602 55.5673 55.1085C55.5673 53.9574 56.5007 53.0239 57.6518 53.0239C58.8036 53.0239 59.737 53.9574 59.737 55.1085Z" fill="#55A6FF"/>
<path d="M31.5932 33.219C31.5932 33.219 35.2721 25.2487 36.7572 22.0297C33.2716 20.3268 28.2102 22.922 25.2745 28.0073C22.2517 33.2423 22.6304 39.119 26.1208 41.1338C29.6106 43.1492 34.8898 40.5386 37.9119 35.3042C38.9122 33.5721 39.5313 31.7726 39.7967 30.0638L31.5932 33.219Z" fill="#0097A7"/>
<path d="M31.5936 33.219L32.5402 33.6562C32.5402 33.6562 36.2185 25.6853 37.7042 22.4663C37.9416 21.9522 37.7245 21.3414 37.2157 21.0927C36.3413 20.665 35.3876 20.4652 34.422 20.4658C32.57 20.4688 30.6781 21.1774 28.9406 22.3917C27.202 23.6091 25.6089 25.3447 24.3719 27.486C22.9189 30.006 22.1937 32.6727 22.1919 35.0984C22.1919 36.5627 22.4573 37.9441 23.0167 39.1465C23.5744 40.3471 24.4423 41.3695 25.5994 42.0363C26.568 42.5969 27.6541 42.8582 28.7534 42.8564C30.6077 42.8534 32.5014 42.1424 34.2419 40.9257C35.9817 39.7054 37.5772 37.9673 38.8148 35.8249C39.8777 33.9837 40.5409 32.0655 40.8272 30.2237C40.8845 29.8557 40.7413 29.4859 40.452 29.2521C40.1622 29.0183 39.7703 28.9568 39.4232 29.0904L31.2191 32.2462L31.5936 33.219L32.5402 33.6562L31.5936 33.219L31.9676 34.1918L40.1717 31.0366L39.7971 30.0638L38.7671 29.9034C38.5225 31.4792 37.9464 33.1606 37.0094 34.7823C35.9173 36.6748 34.5126 38.1916 33.0454 39.2187C31.5781 40.2487 30.0578 40.7754 28.7534 40.7724C27.975 40.7706 27.2736 40.5947 26.6419 40.2314C25.891 39.7954 25.3154 39.1387 24.9063 38.2655C24.4995 37.3947 24.2758 36.3098 24.2758 35.0984C24.2741 33.092 24.8914 30.7515 26.1773 28.5286C27.2682 26.6372 28.6711 25.1235 30.1353 24.0994C31.6002 23.0723 33.1187 22.5474 34.4214 22.5504C35.1049 22.551 35.7306 22.6882 36.3002 22.9661L36.7577 22.0297L35.8111 21.5931C35.0679 23.2023 33.7772 26.0002 32.672 28.395C31.5662 30.7897 30.6465 32.7824 30.6465 32.7824C30.4687 33.1677 30.5421 33.6222 30.8326 33.9318C31.123 34.2419 31.571 34.3445 31.9676 34.1924L31.5936 33.219Z" fill="#54596E"/>
<path d="M25.9044 41.0529C25.8692 41.0869 25.4422 41.4853 24.9948 42.1331C24.5564 42.7814 24.059 43.6868 24.0489 44.8189C24.0459 45.41 24.2087 46.0571 24.5869 46.6398C25.1571 47.5208 26.1334 48.221 27.5739 48.7584C29.0214 49.2958 30.9682 49.6877 33.6314 49.894C34.2051 49.9382 34.7068 49.5087 34.7509 48.935C34.795 48.3612 34.3656 47.8602 33.7918 47.816C30.4112 47.5596 28.3797 46.9667 27.3186 46.3547C26.7848 46.0499 26.4973 45.7565 26.3404 45.5126C26.1853 45.2662 26.137 45.0598 26.134 44.8189C26.1239 44.3704 26.3893 43.7745 26.712 43.3152C26.8701 43.0862 27.0323 42.8924 27.151 42.7611L27.2906 42.6132L27.324 42.5798L27.3299 42.5745L27.08 42.312L27.3275 42.5768L27.3299 42.5745L27.08 42.312L27.3275 42.5768C27.748 42.1838 27.7701 41.5241 27.3776 41.1036C26.9846 40.6825 26.3249 40.6605 25.9044 41.0529Z" fill="#54596E"/>
<path d="M68.9628 33.219C68.9628 33.219 65.2845 25.2487 63.7987 22.0297C67.285 20.3268 72.3464 22.922 75.2815 28.0073C78.3049 33.2423 77.9256 39.119 74.4352 41.1338C70.9453 43.1492 65.6662 40.5386 62.644 35.3042C61.6444 33.5721 61.0247 31.7726 60.7592 30.0638L68.9628 33.219Z" fill="#0097A7"/>
<path d="M68.9626 33.2192L69.9092 32.7826C69.9092 32.7826 66.2309 24.8123 64.7446 21.5926L63.798 22.0298L64.2561 22.9663C64.8257 22.6883 65.4514 22.5517 66.1343 22.5505C67.4381 22.5476 68.9561 23.0724 70.4209 24.0995C71.8852 25.1236 73.2881 26.6374 74.379 28.5287C75.6643 30.7517 76.2816 33.0921 76.2798 35.0986C76.2804 36.3099 76.0562 37.3949 75.6494 38.2657C75.2402 39.1389 74.6647 39.7956 73.9137 40.2316H73.9143C73.2827 40.5948 72.5807 40.7708 71.8023 40.7725C70.4985 40.7755 68.9775 40.2483 67.5103 39.2188C66.0436 38.1917 64.6384 36.675 63.5469 34.783C62.6099 33.1607 62.0337 31.4793 61.7886 29.9035L60.7585 30.064L60.3845 31.0368L68.5887 34.192C68.9847 34.3446 69.4332 34.2421 69.7231 33.9319C70.0136 33.6218 70.0869 33.1679 69.9092 32.7826L68.9626 33.2192L69.3372 32.2464L61.1331 29.0912C60.7854 28.9576 60.3941 29.019 60.1042 29.2528C59.8143 29.4866 59.6718 29.8558 59.729 30.2238C60.0153 32.0662 60.6786 33.9844 61.7415 35.8256C62.9797 37.9681 64.574 39.7067 66.3144 40.9264C68.0542 42.1432 69.9486 42.8541 71.8023 42.8577C72.9022 42.8589 73.9883 42.5977 74.9563 42.0376H74.9569C76.1146 41.3708 76.9824 40.3479 77.5395 39.1472C78.099 37.9454 78.3644 36.5634 78.365 35.0997C78.3626 32.6734 77.6379 30.0067 76.1844 27.4867C74.9474 25.3455 73.3543 23.6098 71.6162 22.3925C69.8782 21.1781 67.9868 20.4701 66.1343 20.4666C65.1686 20.466 64.2149 20.6658 63.3405 21.0934C62.8318 21.3421 62.6147 21.9529 62.8514 22.467C63.5946 24.0762 64.8859 26.8742 65.9911 29.2689C67.0969 31.6636 68.0161 33.6564 68.0161 33.6564L68.9626 33.2192L69.3372 32.2464L68.9626 33.2192Z" fill="#54596E"/>
<path d="M74.2716 42.5768L74.5186 42.312L74.2692 42.5744L74.2716 42.5768L74.5186 42.312L74.2692 42.5744C74.2782 42.5821 74.6122 42.906 74.9158 43.3587C75.2271 43.8114 75.4735 44.3846 75.4645 44.8188C75.4615 45.0598 75.4132 45.2662 75.2581 45.5125C75.0285 45.8751 74.4804 46.3642 73.2964 46.805C72.1196 47.2446 70.3422 47.6209 67.8067 47.8154C67.233 47.8601 66.8035 48.3611 66.8477 48.9349C66.8918 49.5093 67.3928 49.9387 67.9672 49.894C71.5172 49.6154 73.7969 49.022 75.3124 48.1655C76.0675 47.736 76.6353 47.2249 77.0117 46.6398C77.3898 46.057 77.5527 45.4099 77.5497 44.8188C77.5395 43.6868 77.0427 42.7814 76.6037 42.133C76.157 41.4859 75.7299 41.0869 75.6947 41.0529C75.2737 40.6598 74.614 40.6825 74.2209 41.103C73.8279 41.5241 73.8505 42.1837 74.2716 42.5768V42.5768Z" fill="#54596E"/>
<path d="M38.6445 65.0824C41.3428 68.7959 45.7303 71.2139 50.6742 71.2133C55.5931 71.2139 59.9603 68.8209 62.6622 65.1397C63.0027 64.6756 62.9025 64.0231 62.4385 63.6825C61.9745 63.342 61.322 63.4416 60.9814 63.9062C58.6523 67.0751 54.9072 69.1287 50.6742 69.1287C46.4198 69.1287 42.6568 67.0531 40.3313 63.8567C39.9925 63.3909 39.3406 63.2877 38.8747 63.6265C38.4089 63.9647 38.3063 64.6166 38.6445 65.0824V65.0824Z" fill="#54596E"/>
</g>
<defs>
<radialGradient id="paint0_radial" cx="0" cy="0" r="1" gradientUnits="userSpaceOnUse" gradientTransform="translate(150.5 -50.5) rotate(135) scale(212.839)">
<stop stop-color="#FED766"/>
<stop offset="1" stop-color="#FFFD98"/>
</radialGradient>
<clipPath id="clip0">
<rect width="67" height="67" fill="white" transform="translate(17 15)"/>
</clipPath>
</defs>
</svg>
