<svg width="30" height="30" fill="none" xmlns="http://www.w3.org/2000/svg"><path d="M19.605 0h-9.21C1.99 0 0 1.99 0 10.395v9.21C0 28.01 1.99 30 10.395 30h9.21C28.01 30 30 28.01 30 19.605v-9.21C30 1.99 27.989 0 19.605 0zm4.615 21.404h-2.18c-.826 0-1.08-.656-2.562-2.16-1.292-1.248-1.863-1.418-2.18-1.418-.445 0-.572.127-.572.741v1.97c0 .529-.17.846-1.567.846-2.308 0-4.87-1.397-6.67-4.001-2.71-3.811-3.45-6.67-3.45-7.262 0-.318.127-.614.74-.614H7.96c.55 0 .763.254.974.847 1.08 3.112 2.88 5.843 3.62 5.843.276 0 .403-.127.403-.826v-3.218c-.085-1.482-.868-1.609-.868-2.138 0-.254.212-.508.55-.508h3.43c.466 0 .635.254.635.804v4.34c0 .466.212.636.339.636.275 0 .508-.17 1.016-.678 1.567-1.757 2.69-4.467 2.69-4.467.147-.317.401-.614.952-.614h2.18c.657 0 .805.339.657.805-.276 1.27-2.943 5.038-2.943 5.038-.233.382-.318.551 0 .974.233.318.995.974 1.503 1.567.932 1.059 1.652 1.948 1.842 2.562.212.614-.106.931-.72.931z" fill="#fff"/></svg>