<svg width="25" height="23" fill="none" xmlns="http://www.w3.org/2000/svg"><path d="M4.167 9.61h5.416a.417.417 0 1 0 0-.833H4.167a.417.417 0 1 0 0 .834zM15 11.277H4.167a.417.417 0 1 0 0 .834H15a.417.417 0 1 0 0-.834zM15 13.777H4.167a.417.417 0 1 0 0 .834H15a.417.417 0 1 0 0-.834z" fill="#fff"/><path d="M22.53.057L8.304.027a2.474 2.474 0 0 0-2.47 2.471v2.135L2.47 4.64A2.474 2.474 0 0 0 0 7.111v8.809a2.473 2.473 0 0 0 2.47 2.47H5v4.167a.417.417 0 0 0 .725.28l4.043-4.448 6.928-.028a2.473 2.473 0 0 0 2.47-2.47v-.047l2.192 2.41a.417.417 0 0 0 .725-.28v-4.167h.446A2.473 2.473 0 0 0 25 11.337v-8.81a2.474 2.474 0 0 0-2.47-2.47zM18.333 15.89a1.64 1.64 0 0 1-1.639 1.637l-7.112.03a.417.417 0 0 0-.307.136l-3.442 3.786v-3.506a.417.417 0 0 0-.416-.416H2.47a1.64 1.64 0 0 1-1.638-1.638V7.111a1.64 1.64 0 0 1 1.639-1.638l3.778-.008 10.446-.021a1.64 1.64 0 0 1 1.637 1.637V15.89zm5.834-4.554c0 .903-.735 1.637-1.638 1.637h-.862a.416.416 0 0 0-.417.417v3.506l-2.083-2.292V7.082a2.474 2.474 0 0 0-2.472-2.471l-10.028.02V2.498A1.64 1.64 0 0 1 8.303.86L22.53.89a1.64 1.64 0 0 1 1.638 1.637v8.81z" fill="#fff"/></svg>