<svg width="400" height="240" fill="none" xmlns="http://www.w3.org/2000/svg"><path fill="#FFF3E0" d="M0 0h400v240H0z"/><path d="M95.334 145.65V156h-2.28v-8.7h-3.63v8.7h-2.28v-10.35h8.19zm10.536 8.565l.09 1.68c-.93.1-2.53.15-4.8.15-.69 0-1.24-.185-1.65-.555-.41-.38-.615-.89-.615-1.53v-6.27c0-.64.205-1.145.615-1.515.42-.38.97-.57 1.65-.57 2.27 0 3.87.05 4.8.15l-.09 1.695h-3.99c-.25 0-.43.06-.54.18-.11.12-.165.315-.165.585v1.575h4.125v1.65h-4.125v1.995c0 .28.055.48.165.6.11.12.29.18.54.18h3.99zm10.28-.15l.195 1.695c-.9.28-2.005.42-3.315.42-1.6 0-2.725-.4-3.375-1.2-.65-.8-.975-2.185-.975-4.155 0-1.97.325-3.355.975-4.155.65-.8 1.775-1.2 3.375-1.2 1.16 0 2.195.115 3.105.345l-.195 1.71c-.81-.05-1.78-.075-2.91-.075-.75 0-1.265.24-1.545.72-.27.47-.405 1.355-.405 2.655 0 1.3.135 2.19.405 2.67.28.47.795.705 1.545.705 1.39 0 2.43-.045 3.12-.135zm3.632-7.455c.65-.77 1.805-1.155 3.465-1.155s2.815.385 3.465 1.155c.65.76.975 2.165.975 4.215s-.325 3.46-.975 4.23c-.65.76-1.805 1.14-3.465 1.14s-2.815-.38-3.465-1.14c-.64-.77-.96-2.18-.96-4.23 0-2.05.32-3.455.96-4.215zm5.055 1.425c-.28-.49-.81-.735-1.59-.735s-1.315.245-1.605.735c-.28.49-.42 1.42-.42 2.79s.14 2.3.42 2.79c.29.49.825.735 1.605.735s1.31-.245 1.59-.735c.29-.49.435-1.42.435-2.79s-.145-2.3-.435-2.79zm10.764 2.535v.06c.19.03.365.065.525.105.16.03.31.085.45.165l.39.21c.11.06.22.17.33.33l.285.36c.08.09.17.255.27.495.11.24.195.43.255.57.06.13.145.365.255.705.12.34.21.605.27.795.06.18.16.49.3.93.1.31.175.545.225.705h-2.385c-.56-1.83-.94-2.95-1.14-3.36-.31-.63-.7-1.005-1.17-1.125a2.302 2.302 0 0 0-.615-.075h-.735c.08.37.12.7.12.99V156h-2.28v-10.35h2.28v2.925c0 .39-.04.8-.12 1.23h.705c.71 0 1.22-.27 1.53-.81.32-.54.71-1.605 1.17-3.195l.045-.15h2.325c-.56 1.76-.915 2.805-1.065 3.135-.35.78-.79 1.295-1.32 1.545-.25.11-.55.19-.9.24zM170.917 149.85h1.575c1.43 0 2.425.23 2.985.69.56.45.84 1.27.84 2.46 0 .67-.075 1.215-.225 1.635-.15.42-.4.74-.75.96-.35.21-.74.35-1.17.42-.43.08-.995.12-1.695.12-1.44 0-2.705-.045-3.795-.135h-.06v-10.35c1.12-.07 2.295-.105 3.525-.105 1 0 2.175.035 3.525.105l-.18 1.755h-4.575v2.445zm0 4.53h1.575c.63 0 1.04-.095 1.23-.285.2-.19.3-.585.3-1.185 0-.59-.1-.985-.3-1.185-.19-.21-.6-.315-1.23-.315h-1.575v2.97zm9.092-7.77c.65-.77 1.805-1.155 3.465-1.155s2.815.385 3.465 1.155c.65.76.975 2.165.975 4.215s-.325 3.46-.975 4.23c-.65.76-1.805 1.14-3.465 1.14s-2.815-.38-3.465-1.14c-.64-.77-.96-2.18-.96-4.23 0-2.05.32-3.455.96-4.215zm5.055 1.425c-.28-.49-.81-.735-1.59-.735s-1.315.245-1.605.735c-.28.49-.42 1.42-.42 2.79s.14 2.3.42 2.79c.29.49.825.735 1.605.735s1.31-.245 1.59-.735c.29-.49.435-1.42.435-2.79s-.145-2.3-.435-2.79zm14.007-2.385V156h-2.295v-8.7h-1.32c-.59 0-.905.29-.945.87-.13 1.55-.255 2.73-.375 3.54-.11.81-.28 1.505-.51 2.085-.61 1.7-1.755 2.45-3.435 2.25l-.165-1.77c.39-.07.7-.185.93-.345.24-.16.425-.41.555-.75.2-.53.355-1.17.465-1.92.11-.76.225-1.88.345-3.36.11-1.5.92-2.25 2.43-2.25h4.32zm4.226.96c.65-.77 1.805-1.155 3.465-1.155s2.815.385 3.465 1.155c.65.76.975 2.165.975 4.215s-.325 3.46-.975 4.23c-.65.76-1.805 1.14-3.465 1.14s-2.815-.38-3.465-1.14c-.64-.77-.96-2.18-.96-4.23 0-2.05.32-3.455.96-4.215zm5.055 1.425c-.28-.49-.81-.735-1.59-.735s-1.315.245-1.605.735c-.28.49-.42 1.42-.42 2.79s.14 2.3.42 2.79c.29.49.825.735 1.605.735s1.31-.245 1.59-.735c.29-.49.435-1.42.435-2.79s-.145-2.3-.435-2.79zm13.676-.525h-3.09V156h-2.295v-8.49h-3.09v-1.86h8.475v1.86zm3.326-.9c.65-.77 1.805-1.155 3.465-1.155s2.815.385 3.465 1.155c.65.76.975 2.165.975 4.215s-.325 3.46-.975 4.23c-.65.76-1.805 1.14-3.465 1.14s-2.815-.38-3.465-1.14c-.64-.77-.96-2.18-.96-4.23 0-2.05.32-3.455.96-4.215zm5.055 1.425c-.28-.49-.81-.735-1.59-.735s-1.315.245-1.605.735c-.28.49-.42 1.42-.42 2.79s.14 2.3.42 2.79c.29.49.825.735 1.605.735s1.31-.245 1.59-.735c.29-.49.435-1.42.435-2.79s-.145-2.3-.435-2.79zM270.154 150.6v.06c.77.07 1.315.335 1.635.795.33.45.495 1.105.495 1.965 0 1.04-.265 1.75-.795 2.13-.53.38-1.43.57-2.7.57-1.91 0-3.37-.04-4.38-.12v-10.35c.9-.08 2.2-.12 3.9-.12 1.37 0 2.32.19 2.85.57.53.37.795 1.08.795 2.13 0 .75-.14 1.32-.42 1.71-.28.38-.74.6-1.38.66zm-3.51-.72h1.68c.55 0 .925-.09 1.125-.27.21-.18.315-.535.315-1.065 0-.52-.11-.865-.33-1.035-.21-.17-.625-.255-1.245-.255l-1.545-.015v2.64zm0 4.515h1.74c.64 0 1.07-.09 1.29-.27.22-.19.33-.57.33-1.14 0-.62-.115-1.035-.345-1.245-.23-.22-.67-.335-1.32-.345h-1.695v3zm9.445-7.785c.65-.77 1.805-1.155 3.465-1.155s2.815.385 3.465 1.155c.65.76.975 2.165.975 4.215s-.325 3.46-.975 4.23c-.65.76-1.805 1.14-3.465 1.14s-2.815-.38-3.465-1.14c-.64-.77-.96-2.18-.96-4.23 0-2.05.32-3.455.96-4.215zm5.055 1.425c-.28-.49-.81-.735-1.59-.735s-1.315.245-1.605.735c-.28.49-.42 1.42-.42 2.79s.14 2.3.42 2.79c.29.49.825.735 1.605.735s1.31-.245 1.59-.735c.29-.49.435-1.42.435-2.79s-.145-2.3-.435-2.79zm13.787 10.23l-.18-2.265h-6.855l-.18 2.265h-1.62v-3.915h1.095c.71-1.77 1.16-3.95 1.35-6.54.05-.65.29-1.17.72-1.56.43-.4.995-.6 1.695-.6h4.245v8.7h1.35v3.915h-1.62zm-2.01-3.915v-7.05h-1.335c-.3 0-.52.07-.66.21-.13.13-.205.355-.225.675-.12 1.45-.28 2.64-.48 3.57-.2.93-.495 1.795-.885 2.595h3.585zm12.139-1.065h-3.555l-.75 2.715h-2.34l2.985-9.75a.716.716 0 0 1 .285-.435.84.84 0 0 1 .51-.165h2.16c.43 0 .695.2.795.6l2.985 9.75h-2.325l-.75-2.715zm-.495-1.77l-.87-3.165c-.12-.5-.19-.825-.21-.975h-.405a21.186 21.186 0 0 1-.225.975l-.87 3.165h2.58z" fill="#81D2C7"/><path fill="url(#paint0_radial)" d="M262 71h50v50h-50z"/><path fill-rule="evenodd" clip-rule="evenodd" d="M275.106 86.364a6 6 0 0 0-8.485 0l-2.121-2.121a9 9 0 0 1 12.728 0L281.47 80l-4.242 4.243a6 6 0 0 0 8.485 0l2.121 2.121a9 9 0 0 1-12.728 0l-4.242 4.242 4.242-4.242zm21.214 0l2.121-2.121a6 6 0 0 0 8.485 0L302.684 80l6.364 6.364a9 9 0 0 1-12.728 0zm2.121-2.121a9 9 0 0 0-12.728 0l6.364 6.364-4.242-4.243a6 6 0 0 1 8.485 0l2.121-2.121zM309.048 96.864a9 9 0 0 1-12.728 0l2.121-2.121a6 6 0 0 0 8.485 0l-4.242-4.243 6.364 6.364zm-33.942 0a6 6 0 0 0-8.485 0l-2.121-2.121a9 9 0 0 1 12.728 0l4.242-4.243-4.242 4.243a6 6 0 0 0 8.485 0l2.121 2.121a9 9 0 0 1-12.728 0l-4.242 4.242 4.242-4.242zm23.335-2.121a9 9 0 0 0-12.728 0l6.364 6.363-4.242-4.242a6 6 0 0 1 8.485 0l2.121-2.121zM275.106 107.364a6 6 0 0 0-8.485 0l-2.121-2.121a9 9 0 0 1 12.728-.001L281.47 101l-4.242 4.242v.001a6 6 0 0 0 8.485 0l2.121 2.121a9 9 0 0 1-12.728 0l-4.242 4.242 4.242-4.242zm21.214 0l2.121-2.121a6 6 0 0 0 8.485 0L302.684 101l6.364 6.364a9 9 0 0 1-12.728 0zm2.121-2.121a9 9 0 0 0-12.728 0l6.364 6.363-4.242-4.242a6 6 0 0 1 8.485 0l2.121-2.121z" fill="#E8FEFB"/><path fill="#FED766" d="M175 71h50v50h-50z"/><mask id="a" maskUnits="userSpaceOnUse" x="175" y="71" width="50" height="50"><path fill="#C4C4C4" d="M175 71h50v50h-50z"/></mask><g mask="url(#a)" fill="#81D2C7"><path d="M141 101.211l70.71-70.71 3.536 3.535-70.71 70.71zM148.071 108.282l70.71-70.71 3.536 3.535-70.71 70.71zM155.142 115.353l70.71-70.71 3.536 3.535-70.71 70.71zM162.213 122.424l70.71-70.71 3.536 3.535-70.71 70.71zM169.284 129.495l70.71-70.71 3.536 3.535-70.71 70.71zM176.355 136.566l70.71-70.71 3.536 3.535-70.71 70.71zM183.426 143.637l70.71-70.71 3.536 3.535-70.71 70.71zM190.498 150.708l70.71-70.71 3.536 3.535-70.71 70.71z"/></g><path fill="url(#paint1_radial)" d="M89 71h50v50H89z"/><path d="M97.333 71L89 80.09v3.41l8.333-9.09 8.334 9.09L114 74.41l8.333 9.09 8.334-9.09L139 83.5v-3.41L130.667 71l-8.334 9.09L114 71l-8.333 9.09L97.333 71zM97.333 83.5L89 92.59V96l8.333-9.09 8.334 9.09L114 86.91l8.333 9.09 8.334-9.09L139 96v-3.41l-8.333-9.09-8.334 9.09L114 83.5l-8.333 9.09-8.334-9.09zM97.333 96L89 105.091v3.409l8.333-9.09 8.334 9.09L114 99.41l8.333 9.09 8.334-9.09L139 108.5v-3.409L130.667 96l-8.334 9.091L114 96l-8.333 9.091L97.333 96zM97.333 108.5L89 117.591V121l8.333-9.091 8.334 9.091 8.333-9.091 8.333 9.091 8.334-9.091L139 121v-3.409l-8.333-9.091-8.334 9.091L114 108.5l-8.333 9.091-8.334-9.091z" fill="#EFA00B" fill-opacity=".1"/><defs><radialGradient id="paint0_radial" cx="0" cy="0" r="1" gradientUnits="userSpaceOnUse" gradientTransform="rotate(90 108 179) scale(151.25)"><stop stop-color="#EBFFFC"/><stop offset="1" stop-color="#81D2C7"/></radialGradient><radialGradient id="paint1_radial" cx="0" cy="0" r="1" gradientUnits="userSpaceOnUse" gradientTransform="rotate(135 72.65 56.892) scale(106.42)"><stop stop-color="#FED766"/><stop offset="1" stop-color="#FFFD98"/></radialGradient></defs></svg>