<svg width="378" height="240" viewBox="0 0 378 240" fill="none" xmlns="http://www.w3.org/2000/svg">
<rect width="378" height="240" rx="5" fill="url(#paint0_linear)"/>
<path d="M71.4141 180H69.5391V170.18H64.5V180H62.6328V168.578H71.4141V180ZM80.8906 180H74.4297V168.578H80.8906V170.156H76.2969V173.266H80.6016V174.828H76.2969V178.414H80.8906V180ZM88.2266 170.016C87.1536 170.016 86.3099 170.396 85.6953 171.156C85.0807 171.917 84.7734 172.966 84.7734 174.305C84.7734 175.706 85.0677 176.766 85.6562 177.484C86.25 178.203 87.1068 178.562 88.2266 178.562C88.7109 178.562 89.1797 178.516 89.6328 178.422C90.0859 178.323 90.5573 178.198 91.0469 178.047V179.648C90.151 179.987 89.1354 180.156 88 180.156C86.3281 180.156 85.0443 179.651 84.1484 178.641C83.2526 177.625 82.8047 176.174 82.8047 174.289C82.8047 173.102 83.0208 172.062 83.4531 171.172C83.8906 170.281 84.5208 169.599 85.3438 169.125C86.1667 168.651 87.1328 168.414 88.2422 168.414C89.4089 168.414 90.487 168.659 91.4766 169.148L90.8047 170.703C90.4193 170.521 90.0104 170.362 89.5781 170.227C89.151 170.086 88.7005 170.016 88.2266 170.016ZM103.648 174.273C103.648 176.133 103.182 177.578 102.25 178.609C101.323 179.641 100.008 180.156 98.3047 180.156C96.5807 180.156 95.2552 179.646 94.3281 178.625C93.4062 177.599 92.9453 176.143 92.9453 174.258C92.9453 172.372 93.4089 170.924 94.3359 169.914C95.2682 168.904 96.5964 168.398 98.3203 168.398C100.018 168.398 101.331 168.911 102.258 169.938C103.185 170.964 103.648 172.409 103.648 174.273ZM94.9297 174.273C94.9297 175.68 95.2135 176.747 95.7812 177.477C96.349 178.201 97.1901 178.562 98.3047 178.562C99.4141 178.562 100.25 178.203 100.812 177.484C101.38 176.766 101.664 175.695 101.664 174.273C101.664 172.872 101.383 171.81 100.82 171.086C100.263 170.362 99.4297 170 98.3203 170C97.2005 170 96.3542 170.362 95.7812 171.086C95.2135 171.81 94.9297 172.872 94.9297 174.273ZM114.867 180H112.672L107.969 174.211V180H106.102V168.578H107.969V174.109L112.594 168.578H114.641L110.031 174.094L114.867 180Z" fill="white"/>
<path d="M268.852 168.578H272.242C273.815 168.578 274.951 168.807 275.648 169.266C276.352 169.724 276.703 170.448 276.703 171.438C276.703 172.104 276.531 172.659 276.188 173.102C275.844 173.544 275.349 173.823 274.703 173.938V174.016C275.505 174.167 276.094 174.466 276.469 174.914C276.849 175.357 277.039 175.958 277.039 176.719C277.039 177.745 276.68 178.549 275.961 179.133C275.247 179.711 274.253 180 272.977 180H268.852V168.578ZM270.719 173.297H272.516C273.297 173.297 273.867 173.174 274.227 172.93C274.586 172.68 274.766 172.258 274.766 171.664C274.766 171.128 274.57 170.74 274.18 170.5C273.794 170.26 273.18 170.141 272.336 170.141H270.719V173.297ZM270.719 174.812V178.43H272.703C273.484 178.43 274.073 178.281 274.469 177.984C274.87 177.682 275.07 177.208 275.07 176.562C275.07 175.969 274.867 175.529 274.461 175.242C274.055 174.956 273.438 174.812 272.609 174.812H270.719ZM289.555 174.273C289.555 176.133 289.089 177.578 288.156 178.609C287.229 179.641 285.914 180.156 284.211 180.156C282.487 180.156 281.161 179.646 280.234 178.625C279.312 177.599 278.852 176.143 278.852 174.258C278.852 172.372 279.315 170.924 280.242 169.914C281.174 168.904 282.503 168.398 284.227 168.398C285.924 168.398 287.237 168.911 288.164 169.938C289.091 170.964 289.555 172.409 289.555 174.273ZM280.836 174.273C280.836 175.68 281.12 176.747 281.688 177.477C282.255 178.201 283.096 178.562 284.211 178.562C285.32 178.562 286.156 178.203 286.719 177.484C287.286 176.766 287.57 175.695 287.57 174.273C287.57 172.872 287.289 171.81 286.727 171.086C286.169 170.362 285.336 170 284.227 170C283.107 170 282.26 170.362 281.688 171.086C281.12 171.81 280.836 172.872 280.836 174.273ZM290.594 178.398H291.477C292.232 177.018 292.865 175.469 293.375 173.75C293.885 172.031 294.214 170.307 294.359 168.578H300.258V178.398H301.734V183.148H299.938V180H292.391V183.148H290.594V178.398ZM295.922 170.195C295.807 171.378 295.516 172.75 295.047 174.312C294.578 175.87 294.044 177.232 293.445 178.398H298.391V170.195H295.922ZM310.672 180L309.531 176.828H305.164L304.047 180H302.078L306.352 168.531H308.383L312.656 180H310.672ZM309.039 175.219L307.969 172.109C307.891 171.901 307.781 171.573 307.641 171.125C307.505 170.677 307.411 170.349 307.359 170.141C307.219 170.781 307.013 171.482 306.742 172.242L305.711 175.219H309.039Z" fill="white"/>
<path d="M164.516 176.562C164.516 178.854 163.047 180 160.109 180H156.789V168.578H163.758V170.18H158.656V173.219H160.016C163.016 173.219 164.516 174.333 164.516 176.562ZM158.656 178.43H160C160.896 178.43 161.552 178.284 161.969 177.992C162.385 177.695 162.594 177.219 162.594 176.562C162.594 175.932 162.383 175.479 161.961 175.203C161.544 174.922 160.815 174.781 159.773 174.781H158.656V178.43ZM176.93 174.273C176.93 176.133 176.464 177.578 175.531 178.609C174.604 179.641 173.289 180.156 171.586 180.156C169.862 180.156 168.536 179.646 167.609 178.625C166.688 177.599 166.227 176.143 166.227 174.258C166.227 172.372 166.69 170.924 167.617 169.914C168.549 168.904 169.878 168.398 171.602 168.398C173.299 168.398 174.612 168.911 175.539 169.938C176.466 170.964 176.93 172.409 176.93 174.273ZM168.211 174.273C168.211 175.68 168.495 176.747 169.062 177.477C169.63 178.201 170.471 178.562 171.586 178.562C172.695 178.562 173.531 178.203 174.094 177.484C174.661 176.766 174.945 175.695 174.945 174.273C174.945 172.872 174.664 171.81 174.102 171.086C173.544 170.362 172.711 170 171.602 170C170.482 170 169.635 170.362 169.062 171.086C168.495 171.81 168.211 172.872 168.211 174.273ZM187.953 180H186.086V170.18H182.836C182.424 173.513 182.094 175.781 181.844 176.984C181.599 178.188 181.253 179.026 180.805 179.5C180.357 179.969 179.763 180.195 179.023 180.18C178.643 180.18 178.281 180.115 177.938 179.984V178.43C178.234 178.56 178.523 178.625 178.805 178.625C179.18 178.625 179.471 178.401 179.68 177.953C179.893 177.5 180.125 176.503 180.375 174.961C180.63 173.419 180.932 171.292 181.281 168.578H187.953V180ZM201.117 174.273C201.117 176.133 200.651 177.578 199.719 178.609C198.792 179.641 197.477 180.156 195.773 180.156C194.049 180.156 192.724 179.646 191.797 178.625C190.875 177.599 190.414 176.143 190.414 174.258C190.414 172.372 190.878 170.924 191.805 169.914C192.737 168.904 194.065 168.398 195.789 168.398C197.487 168.398 198.799 168.911 199.727 169.938C200.654 170.964 201.117 172.409 201.117 174.273ZM192.398 174.273C192.398 175.68 192.682 176.747 193.25 177.477C193.818 178.201 194.659 178.562 195.773 178.562C196.883 178.562 197.719 178.203 198.281 177.484C198.849 176.766 199.133 175.695 199.133 174.273C199.133 172.872 198.852 171.81 198.289 171.086C197.732 170.362 196.898 170 195.789 170C194.669 170 193.823 170.362 193.25 171.086C192.682 171.81 192.398 172.872 192.398 174.273ZM207.516 180H205.648V170.18H202.289V168.578H210.875V170.18H207.516V180ZM222.773 174.273C222.773 176.133 222.307 177.578 221.375 178.609C220.448 179.641 219.133 180.156 217.43 180.156C215.706 180.156 214.38 179.646 213.453 178.625C212.531 177.599 212.07 176.143 212.07 174.258C212.07 172.372 212.534 170.924 213.461 169.914C214.393 168.904 215.721 168.398 217.445 168.398C219.143 168.398 220.456 168.911 221.383 169.938C222.31 170.964 222.773 172.409 222.773 174.273ZM214.055 174.273C214.055 175.68 214.339 176.747 214.906 177.477C215.474 178.201 216.315 178.562 217.43 178.562C218.539 178.562 219.375 178.203 219.938 177.484C220.505 176.766 220.789 175.695 220.789 174.273C220.789 172.872 220.508 171.81 219.945 171.086C219.388 170.362 218.555 170 217.445 170C216.326 170 215.479 170.362 214.906 171.086C214.339 171.81 214.055 172.872 214.055 174.273Z" fill="white"/>
<rect x="154" y="85" width="70" height="70" fill="#FED766"/>
<mask id="mask0" mask-type="alpha" maskUnits="userSpaceOnUse" x="154" y="85" width="70" height="70">
<rect x="154" y="85" width="70" height="70" fill="#C4C4C4"/>
</mask>
<g mask="url(#mask0)">
<rect x="106.4" y="127.295" width="140" height="7" transform="rotate(-45 106.4 127.295)" fill="#81D2C7"/>
<rect x="116.299" y="137.194" width="140" height="7" transform="rotate(-45 116.299 137.194)" fill="#81D2C7"/>
<rect x="126.199" y="147.094" width="140" height="7" transform="rotate(-45 126.199 147.094)" fill="#81D2C7"/>
<rect x="136.098" y="156.993" width="140" height="7" transform="rotate(-45 136.098 156.993)" fill="#81D2C7"/>
<rect x="145.998" y="166.893" width="140" height="7" transform="rotate(-45 145.998 166.893)" fill="#81D2C7"/>
<rect x="155.897" y="176.792" width="140" height="7" transform="rotate(-45 155.897 176.792)" fill="#81D2C7"/>
<rect x="165.797" y="186.692" width="140" height="7" transform="rotate(-45 165.797 186.692)" fill="#81D2C7"/>
<rect x="175.696" y="196.591" width="140" height="7" transform="rotate(-45 175.696 196.591)" fill="#81D2C7"/>
</g>
<rect x="53" y="85" width="70" height="70" fill="url(#paint1_radial)"/>
<path d="M64.6667 85L53 97.7273V102.5L64.6667 89.7727L76.3333 102.5L88 89.7727L99.6667 102.5L111.333 89.7727L123 102.5V97.7273L111.333 85L99.6667 97.7273L88 85L76.3333 97.7273L64.6667 85Z" fill="#EFA00B" fill-opacity="0.1"/>
<path d="M64.6667 102.5L53 115.227V120L64.6667 107.273L76.3333 120L88 107.273L99.6667 120L111.333 107.273L123 120V115.227L111.333 102.5L99.6667 115.227L88 102.5L76.3333 115.227L64.6667 102.5Z" fill="#EFA00B" fill-opacity="0.1"/>
<path d="M64.6667 120L53 132.727V137.5L64.6667 124.773L76.3333 137.5L88 124.773L99.6667 137.5L111.333 124.773L123 137.5V132.727L111.333 120L99.6667 132.727L88 120L76.3333 132.727L64.6667 120Z" fill="#EFA00B" fill-opacity="0.1"/>
<path d="M64.6667 137.5L53 150.227V155L64.6667 142.273L76.3333 155L88 142.273L99.6667 155L111.333 142.273L123 155V150.227L111.333 137.5L99.6667 150.227L88 137.5L76.3333 150.227L64.6667 137.5Z" fill="#EFA00B" fill-opacity="0.1"/>
<rect x="255" y="85" width="70" height="70" fill="url(#paint2_radial)"/>
<path fill-rule="evenodd" clip-rule="evenodd" d="M303.048 106.51L306.018 103.54C309.298 106.82 314.617 106.82 317.897 103.54L311.958 97.6002L311.958 97.6001L320.867 106.51C315.947 111.43 307.969 111.43 303.048 106.51ZM273.349 106.51L273.349 106.51L273.349 106.51C270.069 103.229 264.75 103.229 261.47 106.509L258.5 103.54C263.421 98.619 271.398 98.619 276.319 103.539L282.258 97.6001L282.258 97.6002L276.319 103.54L276.319 103.54L276.319 103.54C279.599 106.82 284.918 106.82 288.198 103.54L291.168 106.51C286.247 111.43 278.27 111.43 273.349 106.51L267.41 112.449L267.409 112.449L273.349 106.51ZM306.018 103.54C301.097 98.619 293.119 98.619 288.199 103.54L297.108 112.449L297.108 112.449L291.169 106.51C294.449 103.229 299.767 103.229 303.048 106.509L306.018 103.54Z" fill="#E8FEFB"/>
<path fill-rule="evenodd" clip-rule="evenodd" d="M303.048 121.21L306.018 118.24C309.298 121.52 314.617 121.52 317.897 118.24L311.958 112.3L311.958 112.3L320.867 121.21C315.947 126.13 307.969 126.13 303.048 121.21ZM273.349 121.21L273.349 121.21L273.349 121.21C270.069 117.93 264.75 117.929 261.47 121.21L258.5 118.24C263.421 113.319 271.398 113.319 276.319 118.24L282.258 112.3L282.258 112.3L276.319 118.24L276.319 118.24L276.319 118.24C279.599 121.52 284.918 121.52 288.198 118.24L291.168 121.21C286.247 126.13 278.27 126.13 273.349 121.21L267.41 127.149L267.409 127.149L273.349 121.21ZM306.018 118.24C301.097 113.319 293.119 113.319 288.199 118.24L297.108 127.149L297.108 127.149L291.169 121.21C294.449 117.93 299.767 117.929 303.048 121.21L306.018 118.24Z" fill="#E8FEFB"/>
<path fill-rule="evenodd" clip-rule="evenodd" d="M273.349 135.91L273.349 135.91L273.349 135.91C270.069 132.629 264.75 132.629 261.47 135.909L258.5 132.94C263.421 128.019 271.398 128.019 276.319 132.939L282.258 127L282.258 127L276.319 132.939L276.319 132.94L276.319 132.94C279.599 136.22 284.918 136.22 288.198 132.94L291.168 135.91C286.247 140.83 278.27 140.83 273.349 135.91L267.41 141.849L267.409 141.849L273.349 135.91ZM303.048 135.91L306.018 132.94C309.298 136.22 314.617 136.22 317.897 132.94L311.958 127L311.958 127L320.867 135.91C315.947 140.83 307.969 140.83 303.048 135.91ZM306.018 132.94C301.097 128.019 293.119 128.019 288.199 132.94L297.108 141.849L297.108 141.849L291.169 135.91C294.449 132.629 299.767 132.629 303.048 135.909L306.018 132.94Z" fill="#E8FEFB"/>
<defs>
<linearGradient id="paint0_linear" x1="189" y1="0" x2="189" y2="240" gradientUnits="userSpaceOnUse">
<stop stop-color="#006064"/>
<stop offset="1" stop-color="#243555"/>
</linearGradient>
<radialGradient id="paint1_radial" cx="0" cy="0" r="1" gradientUnits="userSpaceOnUse" gradientTransform="translate(158.35 49.65) rotate(135) scale(148.987)">
<stop stop-color="#FED766"/>
<stop offset="1" stop-color="#FFFD98"/>
</radialGradient>
<radialGradient id="paint2_radial" cx="0" cy="0" r="1" gradientUnits="userSpaceOnUse" gradientTransform="translate(290 85) rotate(90) scale(211.75)">
<stop stop-color="#EBFFFC"/>
<stop offset="1" stop-color="#81D2C7"/>
</radialGradient>
</defs>
</svg>
