<svg width="400" height="240" viewBox="0 0 400 240" fill="none" xmlns="http://www.w3.org/2000/svg">
<rect width="400" height="240" fill="#FFF3E0"/>
<rect x="218.5" y="163.5" width="37" height="37" rx="8.5" transform="rotate(-180 218.5 163.5)" fill="#EBFFFC" stroke="#1DA1AF" stroke-width="3"/>
<line x1="200" y1="152" x2="200" y2="135" stroke="#0097A7" stroke-width="4"/>
<line x1="198.585" y1="153.657" x2="205.656" y2="146.586" stroke="#0097A7" stroke-width="4"/>
<line x1="194.414" y1="146.586" x2="201.485" y2="153.657" stroke="#0097A7" stroke-width="4"/>
<rect x="270.5" y="126.5" width="37" height="37" rx="8.5" transform="rotate(90 270.5 126.5)" fill="#EBFFFC" stroke="#1DA1AF" stroke-width="3"/>
<line x1="259" y1="145" x2="242" y2="145" stroke="#0097A7" stroke-width="4"/>
<line x1="260.657" y1="146.414" x2="253.586" y2="139.343" stroke="#0097A7" stroke-width="4"/>
<line x1="253.586" y1="150.586" x2="260.657" y2="143.515" stroke="#0097A7" stroke-width="4"/>
<rect x="129.5" y="163.5" width="37" height="37" rx="8.5" transform="rotate(-90 129.5 163.5)" fill="#EBFFFC" stroke="#1DA1AF" stroke-width="3"/>
<line x1="141" y1="145" x2="158" y2="145" stroke="#0097A7" stroke-width="4"/>
<line x1="139.343" y1="143.586" x2="146.414" y2="150.657" stroke="#0097A7" stroke-width="4"/>
<line x1="146.414" y1="139.414" x2="139.343" y2="146.485" stroke="#0097A7" stroke-width="4"/>
<rect x="181.5" y="74.5" width="37" height="37" rx="8.5" fill="#EBFFFC" stroke="#1DA1AF" stroke-width="3"/>
<line x1="200" y1="86" x2="200" y2="103" stroke="#0097A7" stroke-width="4"/>
<line x1="201.415" y1="84.3432" x2="194.344" y2="91.4142" stroke="#0097A7" stroke-width="4"/>
<line x1="205.586" y1="91.4142" x2="198.515" y2="84.3431" stroke="#0097A7" stroke-width="4"/>
</svg>
