<svg width="400" height="240" fill="none" xmlns="http://www.w3.org/2000/svg"><path fill="#FFF3E0" d="M0 0h400v240H0z"/><rect x="218.5" y="163.5" width="37" height="37" rx="8.5" transform="rotate(-180 218.5 163.5)" fill="#EBFFFC" stroke="#1DA1AF" stroke-width="3"/><path stroke="#0097A7" stroke-width="4" d="M200 152v-17M198.585 153.657l7.071-7.071M194.414 146.586l7.071 7.071"/><rect x="270.5" y="126.5" width="37" height="37" rx="8.5" transform="rotate(90 270.5 126.5)" fill="#EBFFFC" stroke="#1DA1AF" stroke-width="3"/><path stroke="#0097A7" stroke-width="4" d="M259 145h-17M260.657 146.414l-7.071-7.071M253.586 150.586l7.071-7.071"/><rect x="129.5" y="163.5" width="37" height="37" rx="8.5" transform="rotate(-90 129.5 163.5)" fill="#EBFFFC" stroke="#1DA1AF" stroke-width="3"/><path stroke="#0097A7" stroke-width="4" d="M141 145h17M139.343 143.586l7.071 7.071M146.414 139.414l-7.071 7.071"/><rect x="181.5" y="74.5" width="37" height="37" rx="8.5" fill="#EBFFFC" stroke="#1DA1AF" stroke-width="3"/><path stroke="#0097A7" stroke-width="4" d="M200 86v17M201.415 84.343l-7.071 7.071M205.586 91.414l-7.071-7.071"/></svg>