<svg width="378" height="143" viewBox="0 0 378 143" fill="none" xmlns="http://www.w3.org/2000/svg">
<path d="M141.289 138H139.414V128.18H134.375V138H132.508V126.578H141.289V138ZM147.883 138.156C146.539 138.156 145.487 137.766 144.727 136.984C143.971 136.198 143.594 135.117 143.594 133.742C143.594 132.331 143.945 131.221 144.648 130.414C145.352 129.607 146.318 129.203 147.547 129.203C148.688 129.203 149.589 129.549 150.25 130.242C150.911 130.935 151.242 131.888 151.242 133.102V134.094H145.484C145.51 134.932 145.737 135.578 146.164 136.031C146.591 136.479 147.193 136.703 147.969 136.703C148.479 136.703 148.953 136.656 149.391 136.562C149.833 136.464 150.307 136.302 150.812 136.078V137.57C150.365 137.784 149.911 137.935 149.453 138.023C148.995 138.112 148.471 138.156 147.883 138.156ZM147.547 130.594C146.964 130.594 146.495 130.779 146.141 131.148C145.792 131.518 145.583 132.057 145.516 132.766H149.438C149.427 132.052 149.255 131.513 148.922 131.148C148.589 130.779 148.13 130.594 147.547 130.594ZM157.711 138.156C156.617 138.156 155.768 137.763 155.164 136.977H155.055C155.128 137.706 155.164 138.148 155.164 138.305V141.844H153.328V129.359H154.812C154.854 129.521 154.94 129.906 155.07 130.516H155.164C155.737 129.641 156.596 129.203 157.742 129.203C158.82 129.203 159.659 129.594 160.258 130.375C160.862 131.156 161.164 132.253 161.164 133.664C161.164 135.076 160.857 136.177 160.242 136.969C159.633 137.76 158.789 138.156 157.711 138.156ZM157.266 130.703C156.536 130.703 156.003 130.917 155.664 131.344C155.331 131.771 155.164 132.453 155.164 133.391V133.664C155.164 134.716 155.331 135.479 155.664 135.953C155.997 136.422 156.542 136.656 157.297 136.656C157.932 136.656 158.422 136.396 158.766 135.875C159.109 135.354 159.281 134.612 159.281 133.648C159.281 132.68 159.109 131.948 158.766 131.453C158.427 130.953 157.927 130.703 157.266 130.703ZM167.07 138.156C165.727 138.156 164.674 137.766 163.914 136.984C163.159 136.198 162.781 135.117 162.781 133.742C162.781 132.331 163.133 131.221 163.836 130.414C164.539 129.607 165.505 129.203 166.734 129.203C167.875 129.203 168.776 129.549 169.438 130.242C170.099 130.935 170.43 131.888 170.43 133.102V134.094H164.672C164.698 134.932 164.924 135.578 165.352 136.031C165.779 136.479 166.38 136.703 167.156 136.703C167.667 136.703 168.141 136.656 168.578 136.562C169.021 136.464 169.495 136.302 170 136.078V137.57C169.552 137.784 169.099 137.935 168.641 138.023C168.182 138.112 167.659 138.156 167.07 138.156ZM166.734 130.594C166.151 130.594 165.682 130.779 165.328 131.148C164.979 131.518 164.771 132.057 164.703 132.766H168.625C168.615 132.052 168.443 131.513 168.109 131.148C167.776 130.779 167.318 130.594 166.734 130.594ZM177.477 136.242L177.578 135.867C177.792 135.091 177.977 134.495 178.133 134.078L180.07 129.359H182.516V138H180.82V131.023L180.68 131.492C180.445 132.331 180.247 132.948 180.086 133.344L178.195 138H176.805L174.914 133.312C174.654 132.635 174.414 131.872 174.195 131.023V138H172.516V129.359H174.945L176.82 133.938C176.987 134.359 177.206 135.128 177.477 136.242ZM188.914 138.156C187.57 138.156 186.518 137.766 185.758 136.984C185.003 136.198 184.625 135.117 184.625 133.742C184.625 132.331 184.977 131.221 185.68 130.414C186.383 129.607 187.349 129.203 188.578 129.203C189.719 129.203 190.62 129.549 191.281 130.242C191.943 130.935 192.273 131.888 192.273 133.102V134.094H186.516C186.542 134.932 186.768 135.578 187.195 136.031C187.622 136.479 188.224 136.703 189 136.703C189.51 136.703 189.984 136.656 190.422 136.562C190.865 136.464 191.339 136.302 191.844 136.078V137.57C191.396 137.784 190.943 137.935 190.484 138.023C190.026 138.112 189.503 138.156 188.914 138.156ZM188.578 130.594C187.995 130.594 187.526 130.779 187.172 131.148C186.823 131.518 186.615 132.057 186.547 132.766H190.469C190.458 132.052 190.286 131.513 189.953 131.148C189.62 130.779 189.161 130.594 188.578 130.594ZM206.602 136.578H207.844V141.039H206.117V138H194.359V129.359H196.195V136.547H199.562V129.359H201.398V136.547H204.758V129.359H206.602V136.578ZM213.195 138.156C211.852 138.156 210.799 137.766 210.039 136.984C209.284 136.198 208.906 135.117 208.906 133.742C208.906 132.331 209.258 131.221 209.961 130.414C210.664 129.607 211.63 129.203 212.859 129.203C214 129.203 214.901 129.549 215.562 130.242C216.224 130.935 216.555 131.888 216.555 133.102V134.094H210.797C210.823 134.932 211.049 135.578 211.477 136.031C211.904 136.479 212.505 136.703 213.281 136.703C213.792 136.703 214.266 136.656 214.703 136.562C215.146 136.464 215.62 136.302 216.125 136.078V137.57C215.677 137.784 215.224 137.935 214.766 138.023C214.307 138.112 213.784 138.156 213.195 138.156ZM212.859 130.594C212.276 130.594 211.807 130.779 211.453 131.148C211.104 131.518 210.896 132.057 210.828 132.766H214.75C214.74 132.052 214.568 131.513 214.234 131.148C213.901 130.779 213.443 130.594 212.859 130.594ZM220.477 129.359V132.828H224.547V129.359H226.383V138H224.547V134.273H220.477V138H218.641V129.359H220.477ZM230.773 129.359V133.789C230.773 134.305 230.732 135.062 230.648 136.062L234.984 129.359H237.227V138H235.461V133.648C235.461 133.409 235.474 133.021 235.5 132.484C235.531 131.948 235.557 131.557 235.578 131.312L231.258 138H229.016V129.359H230.773ZM243.617 138.156C242.273 138.156 241.221 137.766 240.461 136.984C239.706 136.198 239.328 135.117 239.328 133.742C239.328 132.331 239.68 131.221 240.383 130.414C241.086 129.607 242.052 129.203 243.281 129.203C244.422 129.203 245.323 129.549 245.984 130.242C246.646 130.935 246.977 131.888 246.977 133.102V134.094H241.219C241.245 134.932 241.471 135.578 241.898 136.031C242.326 136.479 242.927 136.703 243.703 136.703C244.214 136.703 244.688 136.656 245.125 136.562C245.568 136.464 246.042 136.302 246.547 136.078V137.57C246.099 137.784 245.646 137.935 245.188 138.023C244.729 138.112 244.206 138.156 243.617 138.156ZM243.281 130.594C242.698 130.594 242.229 130.779 241.875 131.148C241.526 131.518 241.318 132.057 241.25 132.766H245.172C245.161 132.052 244.99 131.513 244.656 131.148C244.323 130.779 243.865 130.594 243.281 130.594Z" fill="#243555"/>
<rect x="165" y="1" width="48" height="48" rx="4" fill="white" stroke="#243555" stroke-width="2"/>
<line x1="189.111" y1="16.1111" x2="189.111" y2="35" stroke="#243555" stroke-width="2"/>
<line x1="189.929" y1="15.7071" x2="182.707" y2="22.9293" stroke="#243555" stroke-width="2"/>
<line x1="195.737" y1="22.9295" x2="188.515" y2="15.7073" stroke="#243555" stroke-width="2"/>
<rect x="165" y="61" width="48" height="48" rx="4" fill="white" stroke="#243555" stroke-width="2"/>
<line x1="189.333" y1="93.8889" x2="189.333" y2="75" stroke="#243555" stroke-width="2"/>
<line x1="188.515" y1="94.2929" x2="195.737" y2="87.0707" stroke="#243555" stroke-width="2"/>
<line x1="182.707" y1="87.0705" x2="189.929" y2="94.2927" stroke="#243555" stroke-width="2"/>
<rect x="105" y="61" width="48" height="48" rx="4" fill="white" stroke="#243555" stroke-width="2"/>
<line x1="120.111" y1="84.8889" x2="139" y2="84.8889" stroke="#243555" stroke-width="2"/>
<line x1="119.707" y1="84.0707" x2="126.929" y2="91.2929" stroke="#243555" stroke-width="2"/>
<line x1="126.929" y1="78.2628" x2="119.707" y2="85.485" stroke="#243555" stroke-width="2"/>
<rect x="225" y="61" width="48" height="48" rx="4" fill="white" stroke="#243555" stroke-width="2"/>
<line x1="257.889" y1="85.1111" x2="239" y2="85.1111" stroke="#243555" stroke-width="2"/>
<line x1="258.293" y1="85.9293" x2="251.071" y2="78.7071" stroke="#243555" stroke-width="2"/>
<line x1="251.071" y1="91.7372" x2="258.293" y2="84.515" stroke="#243555" stroke-width="2"/>
</svg>
