<svg width="400" height="250" fill="none" xmlns="http://www.w3.org/2000/svg"><path fill="#FFF3E0" d="M0 9h400v240H0z"/><path fill="url(#paint0_radial)" d="M200 99h50v50h-50z"/><path fill-rule="evenodd" clip-rule="evenodd" d="M213.106 114.364a6 6 0 0 0-8.485 0l-2.121-2.121a9 9 0 0 1 12.728-.001L219.47 108l-4.242 4.242v.001a6 6 0 0 0 8.485 0l2.121 2.121a9 9 0 0 1-12.728 0l-4.242 4.242 4.242-4.242zm21.214 0l2.121-2.121a6 6 0 0 0 8.485 0L240.684 108l6.364 6.364a9 9 0 0 1-12.728 0zm2.121-2.121a9 9 0 0 0-12.728 0l6.364 6.363-4.242-4.242a6 6 0 0 1 8.485 0l2.121-2.121zM247.048 124.864a9 9 0 0 1-12.728 0l2.121-2.121a6 6 0 0 0 8.485 0l-4.242-4.243 6.364 6.364zm-33.942 0a6 6 0 0 0-8.485 0l-2.121-2.121a9 9 0 0 1 12.728-.001l4.242-4.242-4.242 4.242v.001a6 6 0 0 0 8.485 0l2.121 2.121a9 9 0 0 1-12.728 0l-4.242 4.242 4.242-4.242zm23.335-2.121a9 9 0 0 0-12.728 0l6.364 6.363-4.242-4.242a6 6 0 0 1 8.485 0l2.121-2.121zM213.106 135.364a6 6 0 0 0-8.485 0l-2.121-2.121a9 9 0 0 1 12.728-.001L219.47 129l-4.242 4.242v.001a6 6 0 0 0 8.485 0l2.121 2.121a9 9 0 0 1-12.728 0l-4.242 4.242 4.242-4.242zm21.214 0l2.121-2.121a6 6 0 0 0 8.485 0L240.684 129l6.364 6.364a9 9 0 0 1-12.728 0zm2.121-2.121a9 9 0 0 0-12.728 0l6.364 6.363-4.242-4.242a6 6 0 0 1 8.485 0l2.121-2.121z" fill="#E8FEFB"/><path fill="url(#paint1_radial)" d="M300 0h50v50h-50z"/><path fill-rule="evenodd" clip-rule="evenodd" d="M313.106 15.364a6 6 0 0 0-8.485 0l-2.121-2.122a9 9 0 0 1 12.728 0L319.47 9l-4.242 4.242a6 6 0 0 0 8.485 0l2.121 2.122a9 9 0 0 1-12.728 0l-4.242 4.242 4.242-4.242zm21.214 0l2.121-2.121a6 6 0 0 0 8.485 0L340.684 9l6.364 6.364a9 9 0 0 1-12.728 0zm2.121-2.122a9 9 0 0 0-12.728 0l6.364 6.364-4.242-4.242a6 6 0 0 1 8.485 0l2.121-2.122zM347.048 25.864a9 9 0 0 1-12.728 0l2.121-2.121a6 6 0 0 0 8.485 0l-4.242-4.243 6.364 6.364zm-33.942 0a6 6 0 0 0-8.485 0l-2.121-2.122a9 9 0 0 1 12.728 0l4.242-4.242-4.242 4.242a6 6 0 0 0 8.485 0l2.121 2.122a9 9 0 0 1-12.728 0l-4.242 4.242 4.242-4.242zm23.335-2.122a9 9 0 0 0-12.728 0l6.364 6.364-4.242-4.242a6 6 0 0 1 8.485 0l2.121-2.122zM313.106 36.364a6 6 0 0 0-8.485 0l-2.121-2.121a9 9 0 0 1 12.728 0L319.47 30l-4.242 4.242a6 6 0 0 0 8.485 0l2.121 2.122a9 9 0 0 1-12.728 0l-4.242 4.242 4.242-4.242zm21.214 0l2.121-2.121a6 6 0 0 0 8.485 0L340.684 30l6.364 6.364a9 9 0 0 1-12.728 0zm2.121-2.121a9 9 0 0 0-12.728 0l6.364 6.363-4.242-4.242a6 6 0 0 1 8.485 0l2.121-2.121z" fill="#E8FEFB"/><path fill="url(#paint2_radial)" d="M250 149h50v50h-50z"/><path fill-rule="evenodd" clip-rule="evenodd" d="M263.106 164.364a6 6 0 0 0-8.485 0l-2.121-2.121a9 9 0 0 1 12.728-.001L269.47 158l-4.242 4.242v.001a6 6 0 0 0 8.485 0l2.121 2.121a9 9 0 0 1-12.728 0l-4.242 4.242 4.242-4.242zm21.214 0l2.121-2.121a6 6 0 0 0 8.485 0L290.684 158l6.364 6.364a9 9 0 0 1-12.728 0zm2.121-2.121a9 9 0 0 0-12.728 0l6.364 6.363-4.242-4.242a6 6 0 0 1 8.485 0l2.121-2.121zM297.048 174.864a9 9 0 0 1-12.728 0l2.121-2.121a6 6 0 0 0 8.485 0l-4.242-4.243 6.364 6.364zm-33.942 0a6 6 0 0 0-8.485 0l-2.121-2.121a9 9 0 0 1 12.728-.001l4.242-4.242-4.242 4.242v.001a6 6 0 0 0 8.485 0l2.121 2.121a9 9 0 0 1-12.728 0l-4.242 4.242 4.242-4.242zm23.335-2.121a9 9 0 0 0-12.728 0l6.364 6.363-4.242-4.242a6 6 0 0 1 8.485 0l2.121-2.121zM263.106 185.364a6 6 0 0 0-8.485 0l-2.121-2.121a9 9 0 0 1 12.728-.001L269.47 179l-4.242 4.242v.001a6 6 0 0 0 8.485 0l2.121 2.121a9 9 0 0 1-12.728 0l-4.242 4.242 4.242-4.242zm21.214 0l2.121-2.121a6 6 0 0 0 8.485 0L290.684 179l6.364 6.364a9 9 0 0 1-12.728 0zm2.121-2.121a9 9 0 0 0-12.728 0l6.364 6.363-4.242-4.242a6 6 0 0 1 8.485 0l2.121-2.121z" fill="#E8FEFB"/><path fill="url(#paint3_radial)" d="M300 199h50v50h-50z"/><path fill-rule="evenodd" clip-rule="evenodd" d="M313.106 214.364a6 6 0 0 0-8.485 0l-2.121-2.121a9 9 0 0 1 12.728-.001L319.47 208l-4.242 4.242v.001a6 6 0 0 0 8.485 0l2.121 2.121a9 9 0 0 1-12.728 0l-4.242 4.242 4.242-4.242zm21.214 0l2.121-2.121a6 6 0 0 0 8.485 0L340.684 208l6.364 6.364a9 9 0 0 1-12.728 0zm2.121-2.121a9 9 0 0 0-12.728 0l6.364 6.363-4.242-4.242a6 6 0 0 1 8.485 0l2.121-2.121zM347.048 224.864a9 9 0 0 1-12.728 0l2.121-2.121a6 6 0 0 0 8.485 0l-4.242-4.243 6.364 6.364zm-33.942 0a6 6 0 0 0-8.485 0l-2.121-2.121a9 9 0 0 1 12.728-.001l4.242-4.242-4.242 4.242v.001a6 6 0 0 0 8.485 0l2.121 2.121a9 9 0 0 1-12.728 0l-4.242 4.242 4.242-4.242zm23.335-2.121a9 9 0 0 0-12.728 0l6.364 6.363-4.242-4.242a6 6 0 0 1 8.485 0l2.121-2.121zM313.106 235.364a6 6 0 0 0-8.485 0l-2.121-2.121a9 9 0 0 1 12.728-.001L319.47 229l-4.242 4.242v.001a6 6 0 0 0 8.485 0l2.121 2.121a9 9 0 0 1-12.728 0l-4.242 4.242 4.242-4.242zm21.214 0l2.121-2.121a6 6 0 0 0 8.485 0L340.684 229l6.364 6.364a9 9 0 0 1-12.728 0zm2.121-2.121a9 9 0 0 0-12.728 0l6.364 6.363-4.242-4.242a6 6 0 0 1 8.485 0l2.121-2.121z" fill="#E8FEFB"/><path fill="url(#paint4_radial)" d="M250 199h50v50h-50z"/><path fill-rule="evenodd" clip-rule="evenodd" d="M263.106 214.364a6 6 0 0 0-8.485 0l-2.121-2.121a9 9 0 0 1 12.728-.001L269.47 208l-4.242 4.242v.001a6 6 0 0 0 8.485 0l2.121 2.121a9 9 0 0 1-12.728 0l-4.242 4.242 4.242-4.242zm21.214 0l2.121-2.121a6 6 0 0 0 8.485 0L290.684 208l6.364 6.364a9 9 0 0 1-12.728 0zm2.121-2.121a9 9 0 0 0-12.728 0l6.364 6.363-4.242-4.242a6 6 0 0 1 8.485 0l2.121-2.121zM297.048 224.864a9 9 0 0 1-12.728 0l2.121-2.121a6 6 0 0 0 8.485 0l-4.242-4.243 6.364 6.364zm-33.942 0a6 6 0 0 0-8.485 0l-2.121-2.121a9 9 0 0 1 12.728-.001l4.242-4.242-4.242 4.242v.001a6 6 0 0 0 8.485 0l2.121 2.121a9 9 0 0 1-12.728 0l-4.242 4.242 4.242-4.242zm23.335-2.121a9 9 0 0 0-12.728 0l6.364 6.363-4.242-4.242a6 6 0 0 1 8.485 0l2.121-2.121zM263.106 235.364a6 6 0 0 0-8.485 0l-2.121-2.121a9 9 0 0 1 12.728-.001L269.47 229l-4.242 4.242v.001a6 6 0 0 0 8.485 0l2.121 2.121a9 9 0 0 1-12.728 0l-4.242 4.242 4.242-4.242zm21.214 0l2.121-2.121a6 6 0 0 0 8.485 0L290.684 229l6.364 6.364a9 9 0 0 1-12.728 0zm2.121-2.121a9 9 0 0 0-12.728 0l6.364 6.363-4.242-4.242a6 6 0 0 1 8.485 0l2.121-2.121z" fill="#E8FEFB"/><path fill="url(#paint5_radial)" d="M300 99h50v50h-50z"/><path fill-rule="evenodd" clip-rule="evenodd" d="M313.106 114.364a6 6 0 0 0-8.485 0l-2.121-2.121a9 9 0 0 1 12.728-.001L319.47 108l-4.242 4.242v.001a6 6 0 0 0 8.485 0l2.121 2.121a9 9 0 0 1-12.728 0l-4.242 4.242 4.242-4.242zm21.214 0l2.121-2.121a6 6 0 0 0 8.485 0L340.684 108l6.364 6.364a9 9 0 0 1-12.728 0zm2.121-2.121a9 9 0 0 0-12.728 0l6.364 6.363-4.242-4.242a6 6 0 0 1 8.485 0l2.121-2.121zM347.048 124.864a9 9 0 0 1-12.728 0l2.121-2.121a6 6 0 0 0 8.485 0l-4.242-4.243 6.364 6.364zm-33.942 0a6 6 0 0 0-8.485 0l-2.121-2.121a9 9 0 0 1 12.728-.001l4.242-4.242-4.242 4.242v.001a6 6 0 0 0 8.485 0l2.121 2.121a9 9 0 0 1-12.728 0l-4.242 4.242 4.242-4.242zm23.335-2.121a9 9 0 0 0-12.728 0l6.364 6.363-4.242-4.242a6 6 0 0 1 8.485 0l2.121-2.121zM313.106 135.364a6 6 0 0 0-8.485 0l-2.121-2.121a9 9 0 0 1 12.728-.001L319.47 129l-4.242 4.242v.001a6 6 0 0 0 8.485 0l2.121 2.121a9 9 0 0 1-12.728 0l-4.242 4.242 4.242-4.242zm21.214 0l2.121-2.121a6 6 0 0 0 8.485 0L340.684 129l6.364 6.364a9 9 0 0 1-12.728 0zm2.121-2.121a9 9 0 0 0-12.728 0l6.364 6.363-4.242-4.242a6 6 0 0 1 8.485 0l2.121-2.121z" fill="#E8FEFB"/><path fill="url(#paint6_radial)" d="M350 99h50v50h-50z"/><path fill-rule="evenodd" clip-rule="evenodd" d="M363.106 114.364a6 6 0 0 0-8.485 0l-2.121-2.121a9 9 0 0 1 12.728-.001L369.47 108l-4.242 4.242v.001a6 6 0 0 0 8.485 0l2.121 2.121a9 9 0 0 1-12.728 0l-4.242 4.242 4.242-4.242zm21.214 0l2.121-2.121a6 6 0 0 0 8.485 0L390.684 108l6.364 6.364a9 9 0 0 1-12.728 0zm2.121-2.121a9 9 0 0 0-12.728 0l6.364 6.363-4.242-4.242a6 6 0 0 1 8.485 0l2.121-2.121zM397.048 124.864a9 9 0 0 1-12.728 0l2.121-2.121a6 6 0 0 0 8.485 0l-4.242-4.243 6.364 6.364zm-33.942 0a6 6 0 0 0-8.485 0l-2.121-2.121a9 9 0 0 1 12.728-.001l4.242-4.242-4.242 4.242v.001a6 6 0 0 0 8.485 0l2.121 2.121a9 9 0 0 1-12.728 0l-4.242 4.242 4.242-4.242zm23.335-2.121a9 9 0 0 0-12.728 0l6.364 6.363-4.242-4.242a6 6 0 0 1 8.485 0l2.121-2.121zM363.106 135.364a6 6 0 0 0-8.485 0l-2.121-2.121a9 9 0 0 1 12.728-.001L369.47 129l-4.242 4.242v.001a6 6 0 0 0 8.485 0l2.121 2.121a9 9 0 0 1-12.728 0l-4.242 4.242 4.242-4.242zm21.214 0l2.121-2.121a6 6 0 0 0 8.485 0L390.684 129l6.364 6.364a9 9 0 0 1-12.728 0zm2.121-2.121a9 9 0 0 0-12.728 0l6.364 6.363-4.242-4.242a6 6 0 0 1 8.485 0l2.121-2.121z" fill="#E8FEFB"/><path fill="url(#paint7_radial)" d="M50 100h50v50H50z"/><path fill-rule="evenodd" clip-rule="evenodd" d="M63.106 115.364a6 6 0 0 0-8.485 0l-2.121-2.121a9 9 0 0 1 12.728-.001L69.47 109l-4.242 4.242v.001a6 6 0 0 0 8.485 0l2.121 2.121a9 9 0 0 1-12.728 0l-4.242 4.242 4.242-4.242zm21.214 0l2.121-2.121a6 6 0 0 0 8.485 0L90.684 109l6.364 6.364a9 9 0 0 1-12.728 0zm2.121-2.121a9 9 0 0 0-12.728 0l6.364 6.363-4.242-4.242a6 6 0 0 1 8.485 0l2.121-2.121zM97.048 125.864a9 9 0 0 1-12.728 0l2.121-2.121a6 6 0 0 0 8.485 0l-4.242-4.243 6.364 6.364zm-33.942 0a6 6 0 0 0-8.485 0l-2.121-2.121a9 9 0 0 1 12.728-.001l4.242-4.242-4.242 4.242v.001a6 6 0 0 0 8.485 0l2.121 2.121a9 9 0 0 1-12.728 0l-4.242 4.242 4.242-4.242zm23.335-2.121a9 9 0 0 0-12.728 0l6.364 6.363-4.242-4.242a6 6 0 0 1 8.485 0l2.121-2.121zM63.106 136.364a6 6 0 0 0-8.485 0l-2.121-2.121a9 9 0 0 1 12.728-.001L69.47 130l-4.242 4.242v.001a6 6 0 0 0 8.485 0l2.121 2.121a9 9 0 0 1-12.728 0l-4.242 4.242 4.242-4.242zm21.214 0l2.121-2.121a6 6 0 0 0 8.485 0L90.684 130l6.364 6.364a9 9 0 0 1-12.728 0zm2.121-2.121a9 9 0 0 0-12.728 0l6.364 6.363-4.242-4.242a6 6 0 0 1 8.485 0l2.121-2.121z" fill="#E8FEFB"/><path fill="url(#paint8_radial)" d="M0 50h50v50H0z"/><path fill-rule="evenodd" clip-rule="evenodd" d="M13.106 65.364a6 6 0 0 0-8.485 0L2.5 63.242a9 9 0 0 1 12.728 0L19.47 59l-4.242 4.242a6 6 0 0 0 8.485 0l2.121 2.122a9 9 0 0 1-12.728 0l-4.242 4.242 4.242-4.242zm21.214 0l2.121-2.121a6 6 0 0 0 8.485 0L40.684 59l6.364 6.364a9 9 0 0 1-12.728 0zm2.121-2.122a9 9 0 0 0-12.728 0l6.364 6.364-4.242-4.242a6 6 0 0 1 8.485 0l2.121-2.122zM47.048 75.864a9 9 0 0 1-12.728 0l2.121-2.121a6 6 0 0 0 8.485 0L40.684 69.5l6.364 6.364zm-33.942 0a6 6 0 0 0-8.485 0L2.5 73.743a9 9 0 0 1 12.728 0L19.47 69.5l-4.242 4.243a6 6 0 0 0 8.485 0l2.121 2.121a9 9 0 0 1-12.728 0l-4.242 4.242 4.242-4.242zm23.335-2.121a9 9 0 0 0-12.728 0l6.364 6.364-4.242-4.243a6 6 0 0 1 8.485 0l2.121-2.121zM13.106 86.364a6 6 0 0 0-8.485 0L2.5 84.243a9 9 0 0 1 12.728 0L19.47 80l-4.242 4.243a6 6 0 0 0 8.485 0l2.121 2.121a9 9 0 0 1-12.728 0l-4.242 4.242 4.242-4.242zm21.214 0l2.121-2.121a6 6 0 0 0 8.485 0L40.684 80l6.364 6.364a9 9 0 0 1-12.728 0zm2.121-2.121a9 9 0 0 0-12.728 0l6.364 6.364-4.242-4.243a6 6 0 0 1 8.485 0l2.121-2.121z" fill="#E8FEFB"/><path fill="url(#paint9_radial)" d="M0 0h50v50H0z"/><path fill-rule="evenodd" clip-rule="evenodd" d="M13.106 15.364a6 6 0 0 0-8.485 0L2.5 13.242a9 9 0 0 1 12.728 0L19.47 9l-4.242 4.242a6 6 0 0 0 8.485 0l2.121 2.122a9 9 0 0 1-12.728 0l-4.242 4.242 4.242-4.242zm21.214 0l2.121-2.121a6 6 0 0 0 8.485 0L40.684 9l6.364 6.364a9 9 0 0 1-12.728 0zm2.121-2.122a9 9 0 0 0-12.728 0l6.364 6.364-4.242-4.242a6 6 0 0 1 8.485 0l2.121-2.122zM47.048 25.864a9 9 0 0 1-12.728 0l2.121-2.121a6 6 0 0 0 8.485 0L40.684 19.5l6.364 6.364zm-33.942 0a6 6 0 0 0-8.485 0L2.5 23.742a9 9 0 0 1 12.728 0L19.47 19.5l-4.242 4.242a6 6 0 0 0 8.485 0l2.121 2.122a9 9 0 0 1-12.728 0l-4.242 4.242 4.242-4.242zm23.335-2.122a9 9 0 0 0-12.728 0l6.364 6.364-4.242-4.242a6 6 0 0 1 8.485 0l2.121-2.122zM13.106 36.364a6 6 0 0 0-8.485 0L2.5 34.243a9 9 0 0 1 12.728 0L19.47 30l-4.242 4.242a6 6 0 0 0 8.485 0l2.121 2.122a9 9 0 0 1-12.728 0l-4.242 4.242 4.242-4.242zm21.214 0l2.121-2.121a6 6 0 0 0 8.485 0L40.684 30l6.364 6.364a9 9 0 0 1-12.728 0zm2.121-2.121a9 9 0 0 0-12.728 0l6.364 6.363-4.242-4.242a6 6 0 0 1 8.485 0l2.121-2.121z" fill="#E8FEFB"/><path fill="url(#paint10_radial)" d="M50 150h50v50H50z"/><path fill-rule="evenodd" clip-rule="evenodd" d="M63.106 165.364a6 6 0 0 0-8.485 0l-2.121-2.121a9 9 0 0 1 12.728-.001L69.47 159l-4.242 4.242v.001a6 6 0 0 0 8.485 0l2.121 2.121a9 9 0 0 1-12.728 0l-4.242 4.242 4.242-4.242zm21.214 0l2.121-2.121a6 6 0 0 0 8.485 0L90.684 159l6.364 6.364a9 9 0 0 1-12.728 0zm2.121-2.121a9 9 0 0 0-12.728 0l6.364 6.363-4.242-4.242a6 6 0 0 1 8.485 0l2.121-2.121zM97.048 175.864a9 9 0 0 1-12.728 0l2.121-2.121a6 6 0 0 0 8.485 0l-4.242-4.243 6.364 6.364zm-33.942 0a6 6 0 0 0-8.485 0l-2.121-2.121a9 9 0 0 1 12.728-.001l4.242-4.242-4.242 4.242v.001a6 6 0 0 0 8.485 0l2.121 2.121a9 9 0 0 1-12.728 0l-4.242 4.242 4.242-4.242zm23.335-2.121a9 9 0 0 0-12.728 0l6.364 6.363-4.242-4.242a6 6 0 0 1 8.485 0l2.121-2.121zM63.106 186.364a6 6 0 0 0-8.485 0l-2.121-2.121a9 9 0 0 1 12.728-.001L69.47 180l-4.242 4.242v.001a6 6 0 0 0 8.485 0l2.121 2.121a9 9 0 0 1-12.728 0l-4.242 4.242 4.242-4.242zm21.214 0l2.121-2.121a6 6 0 0 0 8.485 0L90.684 180l6.364 6.364a9 9 0 0 1-12.728 0zm2.121-2.121a9 9 0 0 0-12.728 0l6.364 6.363-4.242-4.242a6 6 0 0 1 8.485 0l2.121-2.121z" fill="#E8FEFB"/><path fill="#FED766" d="M150 99h50v50h-50z"/><mask id="a" maskUnits="userSpaceOnUse" x="150" y="99" width="50" height="50"><path fill="#C4C4C4" d="M150 99h50v50h-50z"/></mask><g mask="url(#a)" fill="#81D2C7"><path d="M116 129.211l70.71-70.71 3.536 3.535-70.71 70.71zM123.071 136.282l70.71-70.71 3.536 3.535-70.71 70.71zM130.142 143.353l70.71-70.71 3.536 3.535-70.71 70.71zM137.213 150.424l70.71-70.71 3.536 3.535-70.71 70.71zM144.284 157.495l70.71-70.71 3.536 3.535-70.71 70.71zM151.355 164.566l70.71-70.71 3.536 3.535-70.71 70.71zM158.426 171.637l70.71-70.71 3.536 3.535-70.71 70.71zM165.498 178.708l70.71-70.71 3.536 3.535-70.71 70.71z"/></g><path fill="#FED766" d="M200 199h50v50h-50z"/><mask id="b" maskUnits="userSpaceOnUse" x="200" y="199" width="50" height="50"><path fill="#C4C4C4" d="M200 199h50v50h-50z"/></mask><g mask="url(#b)" fill="#81D2C7"><path d="M166 229.211l70.71-70.71 3.536 3.535-70.71 70.71zM173.071 236.282l70.71-70.71 3.536 3.535-70.71 70.71zM180.142 243.353l70.71-70.71 3.536 3.535-70.71 70.71zM187.213 250.424l70.71-70.71 3.536 3.535-70.71 70.71zM194.284 257.495l70.71-70.71 3.536 3.535-70.71 70.71zM201.355 264.566l70.71-70.71 3.536 3.535-70.71 70.71zM208.426 271.637l70.71-70.71 3.536 3.535-70.71 70.71zM215.498 278.708l70.71-70.71 3.536 3.535-70.71 70.71z"/></g><path fill="#FED766" d="M50 50h50v50H50z"/><mask id="c" maskUnits="userSpaceOnUse" x="50" y="50" width="50" height="50"><path fill="#C4C4C4" d="M50 50h50v50H50z"/></mask><g mask="url(#c)" fill="#81D2C7"><path d="M16 80.21L86.71 9.5l3.536 3.536-70.71 70.71zM23.071 87.282l70.711-70.71 3.536 3.535-70.711 70.71zM30.142 94.353l70.71-70.71 3.536 3.535-70.71 70.71zM37.213 101.424l70.71-70.71 3.536 3.535-70.71 70.71zM44.284 108.495l70.71-70.71 3.536 3.535-70.71 70.71zM51.355 115.566l70.71-70.71 3.536 3.535-70.71 70.71zM58.426 122.637l70.71-70.71 3.536 3.535-70.71 70.71zM65.498 129.708l70.71-70.711 3.536 3.536-70.71 70.71z"/></g><path fill="#FED766" d="M150 0h50v50h-50z"/><mask id="d" maskUnits="userSpaceOnUse" x="150" y="0" width="50" height="50"><path fill="#C4C4C4" d="M150 0h50v50h-50z"/></mask><g mask="url(#d)" fill="#81D2C7"><path d="M116 30.21l70.71-70.71 3.536 3.536-70.71 70.71zM123.071 37.282l70.71-70.71 3.536 3.535-70.71 70.71zM130.142 44.353l70.71-70.71 3.536 3.535-70.71 70.71zM137.213 51.424l70.71-70.71 3.536 3.535-70.71 70.71zM144.284 58.495l70.71-70.71 3.536 3.535-70.71 70.71zM151.355 65.566l70.71-70.71 3.536 3.535-70.71 70.71zM158.426 72.637l70.71-70.71 3.536 3.535-70.71 70.71zM165.498 79.708l70.71-70.71 3.536 3.535-70.71 70.71z"/></g><path fill="#FED766" d="M0 100h50v50H0z"/><mask id="e" maskUnits="userSpaceOnUse" x="0" y="100" width="50" height="50"><path fill="#C4C4C4" d="M0 100h50v50H0z"/></mask><g mask="url(#e)" fill="#81D2C7"><path d="M-34 130.211l70.71-70.71 3.536 3.535-70.71 70.71zM-26.929 137.282l70.71-70.71 3.536 3.535-70.71 70.71zM-19.858 144.353l70.71-70.71 3.536 3.535-70.71 70.71zM-12.787 151.424l70.71-70.71 3.536 3.535-70.71 70.71zM-5.716 158.495l70.71-70.71 3.536 3.535-70.71 70.71zM1.355 165.566l70.71-70.71 3.536 3.535-70.71 70.71zM8.426 172.637l70.71-70.71 3.536 3.535-70.71 70.71zM15.498 179.708l70.71-70.711 3.536 3.536-70.71 70.71z"/></g><path fill="#FED766" d="M0 150h50v50H0z"/><mask id="f" maskUnits="userSpaceOnUse" x="0" y="150" width="50" height="50"><path fill="#C4C4C4" d="M0 150h50v50H0z"/></mask><g mask="url(#f)" fill="#81D2C7"><path d="M-34 180.211l70.71-70.71 3.536 3.535-70.71 70.71zM-26.929 187.282l70.71-70.71 3.536 3.535-70.71 70.71zM-19.858 194.353l70.71-70.71 3.536 3.535-70.71 70.71zM-12.787 201.424l70.71-70.71 3.536 3.535-70.71 70.71zM-5.716 208.495l70.71-70.71 3.536 3.535-70.71 70.71zM1.355 215.566l70.71-70.71 3.536 3.535-70.71 70.71zM8.426 222.637l70.71-70.71 3.536 3.535-70.71 70.71zM15.498 229.708l70.71-70.711 3.536 3.536-70.71 70.71z"/></g><path fill="#FED766" d="M100 199h50v50h-50z"/><mask id="g" maskUnits="userSpaceOnUse" x="100" y="199" width="50" height="50"><path fill="#C4C4C4" d="M100 199h50v50h-50z"/></mask><g mask="url(#g)" fill="#81D2C7"><path d="M66 229.211l70.71-70.71 3.536 3.535-70.71 70.71zM73.071 236.282l70.71-70.71 3.536 3.535-70.71 70.71zM80.142 243.353l70.71-70.71 3.536 3.535-70.71 70.71zM87.213 250.424l70.71-70.71 3.536 3.535-70.71 70.71zM94.284 257.495l70.71-70.71 3.536 3.535-70.71 70.71zM101.355 264.566l70.71-70.71 3.536 3.535-70.71 70.71zM108.426 271.637l70.71-70.71 3.536 3.535-70.71 70.71zM115.498 278.708l70.71-70.71 3.536 3.535-70.71 70.71z"/></g><path fill="#FED766" d="M100 199h50v50h-50z"/><mask id="h" maskUnits="userSpaceOnUse" x="100" y="199" width="50" height="50"><path fill="#C4C4C4" d="M100 199h50v50h-50z"/></mask><g mask="url(#h)" fill="#81D2C7"><path d="M66 229.211l70.71-70.71 3.536 3.535-70.71 70.71zM73.071 236.282l70.71-70.71 3.536 3.535-70.71 70.71zM80.142 243.353l70.71-70.71 3.536 3.535-70.71 70.71zM87.213 250.424l70.71-70.71 3.536 3.535-70.71 70.71zM94.284 257.495l70.71-70.71 3.536 3.535-70.71 70.71zM101.355 264.566l70.71-70.71 3.536 3.535-70.71 70.71zM108.426 271.637l70.71-70.71 3.536 3.535-70.71 70.71zM115.498 278.708l70.71-70.71 3.536 3.535-70.71 70.71z"/></g><path fill="#FED766" d="M50 199h50v50H50z"/><mask id="i" maskUnits="userSpaceOnUse" x="50" y="199" width="50" height="50"><path fill="#C4C4C4" d="M50 199h50v50H50z"/></mask><g mask="url(#i)" fill="#81D2C7"><path d="M16 229.211l70.71-70.71 3.536 3.535-70.71 70.71zM23.071 236.282l70.71-70.71 3.536 3.535-70.71 70.71zM30.142 243.353l70.71-70.71 3.536 3.535-70.71 70.71zM37.213 250.424l70.71-70.71 3.536 3.535-70.71 70.71zM44.284 257.495l70.71-70.71 3.536 3.535-70.71 70.71zM51.355 264.566l70.71-70.71 3.536 3.535-70.71 70.71zM58.426 271.637l70.71-70.71 3.536 3.535-70.71 70.71zM65.498 278.708l70.71-70.711 3.536 3.536-70.71 70.71z"/></g><path fill="url(#paint11_radial)" d="M200 149h50v50h-50z"/><path d="M208.333 149L200 158.091v3.409l8.333-9.091 8.334 9.091 8.333-9.091 8.333 9.091 8.334-9.091L250 161.5v-3.409L241.667 149l-8.334 9.091L225 149l-8.333 9.091-8.334-9.091zM208.333 161.5L200 170.591V174l8.333-9.091 8.334 9.091 8.333-9.091 8.333 9.091 8.334-9.091L250 174v-3.409l-8.333-9.091-8.334 9.091L225 161.5l-8.333 9.091-8.334-9.091zM208.333 174L200 183.091v3.409l8.333-9.091 8.334 9.091 8.333-9.091 8.333 9.091 8.334-9.091L250 186.5v-3.409L241.667 174l-8.334 9.091L225 174l-8.333 9.091-8.334-9.091zM208.333 186.5L200 195.591V199l8.333-9.091 8.334 9.091 8.333-9.091 8.333 9.091 8.334-9.091L250 199v-3.409l-8.333-9.091-8.334 9.091L225 186.5l-8.333 9.091-8.334-9.091z" fill="#EFA00B" fill-opacity=".1"/><path fill="url(#paint12_radial)" d="M300 149h50v50h-50z"/><path d="M308.333 149L300 158.091v3.409l8.333-9.091 8.334 9.091 8.333-9.091 8.333 9.091 8.334-9.091L350 161.5v-3.409L341.667 149l-8.334 9.091L325 149l-8.333 9.091-8.334-9.091zM308.333 161.5L300 170.591V174l8.333-9.091 8.334 9.091 8.333-9.091 8.333 9.091 8.334-9.091L350 174v-3.409l-8.333-9.091-8.334 9.091L325 161.5l-8.333 9.091-8.334-9.091zM308.333 174L300 183.091v3.409l8.333-9.091 8.334 9.091 8.333-9.091 8.333 9.091 8.334-9.091L350 186.5v-3.409L341.667 174l-8.334 9.091L325 174l-8.333 9.091-8.334-9.091zM308.333 186.5L300 195.591V199l8.333-9.091 8.334 9.091 8.333-9.091 8.333 9.091 8.334-9.091L350 199v-3.409l-8.333-9.091-8.334 9.091L325 186.5l-8.333 9.091-8.334-9.091z" fill="#EFA00B" fill-opacity=".1"/><path fill="url(#paint13_radial)" d="M350 149h50v50h-50z"/><path d="M358.333 149L350 158.091v3.409l8.333-9.091 8.334 9.091 8.333-9.091 8.333 9.091 8.334-9.091L400 161.5v-3.409L391.667 149l-8.334 9.091L375 149l-8.333 9.091-8.334-9.091zM358.333 161.5L350 170.591V174l8.333-9.091 8.334 9.091 8.333-9.091 8.333 9.091 8.334-9.091L400 174v-3.409l-8.333-9.091-8.334 9.091L375 161.5l-8.333 9.091-8.334-9.091zM358.333 174L350 183.091v3.409l8.333-9.091 8.334 9.091 8.333-9.091 8.333 9.091 8.334-9.091L400 186.5v-3.409L391.667 174l-8.334 9.091L375 174l-8.333 9.091-8.334-9.091zM358.333 186.5L350 195.591V199l8.333-9.091 8.334 9.091 8.333-9.091 8.333 9.091 8.334-9.091L400 199v-3.409l-8.333-9.091-8.334 9.091L375 186.5l-8.333 9.091-8.334-9.091z" fill="#EFA00B" fill-opacity=".1"/><path fill="url(#paint14_radial)" d="M350 199h50v50h-50z"/><path d="M358.333 199L350 208.091v3.409l8.333-9.091 8.334 9.091 8.333-9.091 8.333 9.091 8.334-9.091L400 211.5v-3.409L391.667 199l-8.334 9.091L375 199l-8.333 9.091-8.334-9.091zM358.333 211.5L350 220.591V224l8.333-9.091 8.334 9.091 8.333-9.091 8.333 9.091 8.334-9.091L400 224v-3.409l-8.333-9.091-8.334 9.091L375 211.5l-8.333 9.091-8.334-9.091zM358.333 224L350 233.091v3.409l8.333-9.091 8.334 9.091 8.333-9.091 8.333 9.091 8.334-9.091L400 236.5v-3.409L391.667 224l-8.334 9.091L375 224l-8.333 9.091-8.334-9.091zM358.333 236.5L350 245.591V249l8.333-9.091 8.334 9.091 8.333-9.091 8.333 9.091 8.334-9.091L400 249v-3.409l-8.333-9.091-8.334 9.091L375 236.5l-8.333 9.091-8.334-9.091z" fill="#EFA00B" fill-opacity=".1"/><path fill="url(#paint15_radial)" d="M150 149h50v50h-50z"/><path d="M158.333 149L150 158.091v3.409l8.333-9.091 8.334 9.091 8.333-9.091 8.333 9.091 8.334-9.091L200 161.5v-3.409L191.667 149l-8.334 9.091L175 149l-8.333 9.091-8.334-9.091zM158.333 161.5L150 170.591V174l8.333-9.091 8.334 9.091 8.333-9.091 8.333 9.091 8.334-9.091L200 174v-3.409l-8.333-9.091-8.334 9.091L175 161.5l-8.333 9.091-8.334-9.091zM158.333 174L150 183.091v3.409l8.333-9.091 8.334 9.091 8.333-9.091 8.333 9.091 8.334-9.091L200 186.5v-3.409L191.667 174l-8.334 9.091L175 174l-8.333 9.091-8.334-9.091zM158.333 186.5L150 195.591V199l8.333-9.091 8.334 9.091 8.333-9.091 8.333 9.091 8.334-9.091L200 199v-3.409l-8.333-9.091-8.334 9.091L175 186.5l-8.333 9.091-8.334-9.091z" fill="#EFA00B" fill-opacity=".1"/><path fill="url(#paint16_radial)" d="M150 199h50v50h-50z"/><path d="M158.333 199L150 208.091v3.409l8.333-9.091 8.334 9.091 8.333-9.091 8.333 9.091 8.334-9.091L200 211.5v-3.409L191.667 199l-8.334 9.091L175 199l-8.333 9.091-8.334-9.091zM158.333 211.5L150 220.591V224l8.333-9.091 8.334 9.091 8.333-9.091 8.333 9.091 8.334-9.091L200 224v-3.409l-8.333-9.091-8.334 9.091L175 211.5l-8.333 9.091-8.334-9.091zM158.333 224L150 233.091v3.409l8.333-9.091 8.334 9.091 8.333-9.091 8.333 9.091 8.334-9.091L200 236.5v-3.409L191.667 224l-8.334 9.091L175 224l-8.333 9.091-8.334-9.091zM158.333 236.5L150 245.591V249l8.333-9.091 8.334 9.091 8.333-9.091 8.333 9.091 8.334-9.091L200 249v-3.409l-8.333-9.091-8.334 9.091L175 236.5l-8.333 9.091-8.334-9.091z" fill="#EFA00B" fill-opacity=".1"/><path fill="url(#paint17_radial)" d="M100 99h50v50h-50z"/><path d="M108.333 99L100 108.091v3.409l8.333-9.091 8.334 9.091 8.333-9.091 8.333 9.091 8.334-9.091L150 111.5v-3.409L141.667 99l-8.334 9.091L125 99l-8.333 9.091L108.333 99zM108.333 111.5L100 120.591V124l8.333-9.091 8.334 9.091 8.333-9.091 8.333 9.091 8.334-9.091L150 124v-3.409l-8.333-9.091-8.334 9.091L125 111.5l-8.333 9.091-8.334-9.091zM108.333 124L100 133.091v3.409l8.333-9.091 8.334 9.091 8.333-9.091 8.333 9.091 8.334-9.091L150 136.5v-3.409L141.667 124l-8.334 9.091L125 124l-8.333 9.091-8.334-9.091zM108.333 136.5L100 145.591V149l8.333-9.091 8.334 9.091 8.333-9.091 8.333 9.091 8.334-9.091L150 149v-3.409l-8.333-9.091-8.334 9.091L125 136.5l-8.333 9.091-8.334-9.091z" fill="#EFA00B" fill-opacity=".1"/><path fill="url(#paint18_radial)" d="M100 50h50v50h-50z"/><path d="M108.333 50L100 59.09v3.41l8.333-9.09 8.334 9.09L125 53.41l8.333 9.09 8.334-9.09L150 62.5v-3.41L141.667 50l-8.334 9.09L125 50l-8.333 9.09-8.334-9.09zM108.333 62.5L100 71.59V75l8.333-9.09 8.334 9.09L125 65.91l8.333 9.09 8.334-9.09L150 75v-3.41l-8.333-9.09-8.334 9.09L125 62.5l-8.333 9.09-8.334-9.09zM108.333 75L100 84.09v3.41l8.333-9.09 8.334 9.09L125 78.41l8.333 9.09 8.334-9.09L150 87.5v-3.41L141.667 75l-8.334 9.09L125 75l-8.333 9.09-8.334-9.09zM108.333 87.5L100 96.59V100l8.333-9.09 8.334 9.09L125 90.91l8.333 9.09 8.334-9.09L150 100v-3.41l-8.333-9.09-8.334 9.09L125 87.5l-8.333 9.09-8.334-9.09z" fill="#EFA00B" fill-opacity=".1"/><path fill="url(#paint19_radial)" d="M50 0h50v50H50z"/><path d="M58.333 0L50 9.09v3.41l8.333-9.09 8.334 9.09L75 3.41l8.333 9.09 8.334-9.09L100 12.5V9.09L91.667 0l-8.334 9.09L75 0l-8.333 9.09L58.333 0zM58.333 12.5L50 21.59V25l8.333-9.09L66.667 25 75 15.91 83.333 25l8.334-9.09L100 25v-3.41l-8.333-9.09-8.334 9.09L75 12.5l-8.333 9.09-8.334-9.09zM58.333 25L50 34.09v3.41l8.333-9.09 8.334 9.09L75 28.41l8.333 9.09 8.334-9.09L100 37.5v-3.41L91.667 25l-8.334 9.09L75 25l-8.333 9.09L58.333 25zM58.333 37.5L50 46.59V50l8.333-9.09L66.667 50 75 40.91 83.333 50l8.334-9.09L100 50v-3.41l-8.333-9.09-8.334 9.09L75 37.5l-8.333 9.09-8.334-9.09z" fill="#EFA00B" fill-opacity=".1"/><path fill="url(#paint20_radial)" d="M100 0h50v50h-50z"/><path d="M108.333 0L100 9.09v3.41l8.333-9.09 8.334 9.09L125 3.41l8.333 9.09 8.334-9.09L150 12.5V9.09L141.667 0l-8.334 9.09L125 0l-8.333 9.09L108.333 0zM108.333 12.5L100 21.59V25l8.333-9.09 8.334 9.09L125 15.91l8.333 9.09 8.334-9.09L150 25v-3.41l-8.333-9.09-8.334 9.09L125 12.5l-8.333 9.09-8.334-9.09zM108.333 25L100 34.09v3.41l8.333-9.09 8.334 9.09L125 28.41l8.333 9.09 8.334-9.09L150 37.5v-3.41L141.667 25l-8.334 9.09L125 25l-8.333 9.09-8.334-9.09zM108.333 37.5L100 46.59V50l8.333-9.09 8.334 9.09L125 40.91l8.333 9.09 8.334-9.09L150 50v-3.41l-8.333-9.09-8.334 9.09L125 37.5l-8.333 9.09-8.334-9.09z" fill="#EFA00B" fill-opacity=".1"/><path fill="url(#paint21_radial)" d="M150 50h50v50h-50z"/><path d="M158.333 50L150 59.09v3.41l8.333-9.09 8.334 9.09L175 53.41l8.333 9.09 8.334-9.09L200 62.5v-3.41L191.667 50l-8.334 9.09L175 50l-8.333 9.09-8.334-9.09zM158.333 62.5L150 71.59V75l8.333-9.09 8.334 9.09L175 65.91l8.333 9.09 8.334-9.09L200 75v-3.41l-8.333-9.09-8.334 9.09L175 62.5l-8.333 9.09-8.334-9.09zM158.333 75L150 84.09v3.41l8.333-9.09 8.334 9.09L175 78.41l8.333 9.09 8.334-9.09L200 87.5v-3.41L191.667 75l-8.334 9.09L175 75l-8.333 9.09-8.334-9.09zM158.333 87.5L150 96.59V100l8.333-9.09 8.334 9.09L175 90.91l8.333 9.09 8.334-9.09L200 100v-3.41l-8.333-9.09-8.334 9.09L175 87.5l-8.333 9.09-8.334-9.09z" fill="#EFA00B" fill-opacity=".1"/><path fill="url(#paint22_radial)" d="M200 50h50v50h-50z"/><path d="M208.333 50L200 59.09v3.41l8.333-9.09 8.334 9.09L225 53.41l8.333 9.09 8.334-9.09L250 62.5v-3.41L241.667 50l-8.334 9.09L225 50l-8.333 9.09-8.334-9.09zM208.333 62.5L200 71.59V75l8.333-9.09 8.334 9.09L225 65.91l8.333 9.09 8.334-9.09L250 75v-3.41l-8.333-9.09-8.334 9.09L225 62.5l-8.333 9.09-8.334-9.09zM208.333 75L200 84.09v3.41l8.333-9.09 8.334 9.09L225 78.41l8.333 9.09 8.334-9.09L250 87.5v-3.41L241.667 75l-8.334 9.09L225 75l-8.333 9.09-8.334-9.09zM208.333 87.5L200 96.59V100l8.333-9.09 8.334 9.09L225 90.91l8.333 9.09 8.334-9.09L250 100v-3.41l-8.333-9.09-8.334 9.09L225 87.5l-8.333 9.09-8.334-9.09z" fill="#EFA00B" fill-opacity=".1"/><path fill="url(#paint23_radial)" d="M200 0h50v50h-50z"/><path d="M208.333 0L200 9.09v3.41l8.333-9.09 8.334 9.09L225 3.41l8.333 9.09 8.334-9.09L250 12.5V9.09L241.667 0l-8.334 9.09L225 0l-8.333 9.09L208.333 0zM208.333 12.5L200 21.59V25l8.333-9.09 8.334 9.09L225 15.91l8.333 9.09 8.334-9.09L250 25v-3.41l-8.333-9.09-8.334 9.09L225 12.5l-8.333 9.09-8.334-9.09zM208.333 25L200 34.09v3.41l8.333-9.09 8.334 9.09L225 28.41l8.333 9.09 8.334-9.09L250 37.5v-3.41L241.667 25l-8.334 9.09L225 25l-8.333 9.09-8.334-9.09zM208.333 37.5L200 46.59V50l8.333-9.09 8.334 9.09L225 40.91l8.333 9.09 8.334-9.09L250 50v-3.41l-8.333-9.09-8.334 9.09L225 37.5l-8.333 9.09-8.334-9.09z" fill="#EFA00B" fill-opacity=".1"/><path fill="url(#paint24_radial)" d="M250 49h50v50h-50z"/><path d="M258.333 49L250 58.09v3.41l8.333-9.09 8.334 9.09L275 52.41l8.333 9.09 8.334-9.09L300 61.5v-3.41L291.667 49l-8.334 9.09L275 49l-8.333 9.09-8.334-9.09zM258.333 61.5L250 70.59V74l8.333-9.09 8.334 9.09L275 64.91l8.333 9.09 8.334-9.09L300 74v-3.41l-8.333-9.09-8.334 9.09L275 61.5l-8.333 9.09-8.334-9.09zM258.333 74L250 83.09v3.41l8.333-9.09 8.334 9.09L275 77.41l8.333 9.09 8.334-9.09L300 86.5v-3.41L291.667 74l-8.334 9.09L275 74l-8.333 9.09-8.334-9.09zM258.333 86.5L250 95.59V99l8.333-9.09 8.334 9.09L275 89.91l8.333 9.09 8.334-9.09L300 99v-3.41l-8.333-9.09-8.334 9.09L275 86.5l-8.333 9.09-8.334-9.09z" fill="#EFA00B" fill-opacity=".1"/><path fill="url(#paint25_radial)" d="M250 0h50v50h-50z"/><path d="M258.333 0L250 9.09v3.41l8.333-9.09 8.334 9.09L275 3.41l8.333 9.09 8.334-9.09L300 12.5V9.09L291.667 0l-8.334 9.09L275 0l-8.333 9.09L258.333 0zM258.333 12.5L250 21.59V25l8.333-9.09 8.334 9.09L275 15.91l8.333 9.09 8.334-9.09L300 25v-3.41l-8.333-9.09-8.334 9.09L275 12.5l-8.333 9.09-8.334-9.09zM258.333 25L250 34.09v3.41l8.333-9.09 8.334 9.09L275 28.41l8.333 9.09 8.334-9.09L300 37.5v-3.41L291.667 25l-8.334 9.09L275 25l-8.333 9.09-8.334-9.09zM258.333 37.5L250 46.59V50l8.333-9.09 8.334 9.09L275 40.91l8.333 9.09 8.334-9.09L300 50v-3.41l-8.333-9.09-8.334 9.09L275 37.5l-8.333 9.09-8.334-9.09z" fill="#EFA00B" fill-opacity=".1"/><path fill="url(#paint26_radial)" d="M250 99h50v50h-50z"/><path d="M258.333 99L250 108.091v3.409l8.333-9.091 8.334 9.091 8.333-9.091 8.333 9.091 8.334-9.091L300 111.5v-3.409L291.667 99l-8.334 9.091L275 99l-8.333 9.091L258.333 99zM258.333 111.5L250 120.591V124l8.333-9.091 8.334 9.091 8.333-9.091 8.333 9.091 8.334-9.091L300 124v-3.409l-8.333-9.091-8.334 9.091L275 111.5l-8.333 9.091-8.334-9.091zM258.333 124L250 133.091v3.409l8.333-9.091 8.334 9.091 8.333-9.091 8.333 9.091 8.334-9.091L300 136.5v-3.409L291.667 124l-8.334 9.091L275 124l-8.333 9.091-8.334-9.091zM258.333 136.5L250 145.591V149l8.333-9.091 8.334 9.091 8.333-9.091 8.333 9.091 8.334-9.091L300 149v-3.409l-8.333-9.091-8.334 9.091L275 136.5l-8.333 9.091-8.334-9.091z" fill="#EFA00B" fill-opacity=".1"/><path fill="url(#paint27_radial)" d="M300 50h50v50h-50z"/><path d="M308.333 50L300 59.09v3.41l8.333-9.09 8.334 9.09L325 53.41l8.333 9.09 8.334-9.09L350 62.5v-3.41L341.667 50l-8.334 9.09L325 50l-8.333 9.09-8.334-9.09zM308.333 62.5L300 71.59V75l8.333-9.09 8.334 9.09L325 65.91l8.333 9.09 8.334-9.09L350 75v-3.41l-8.333-9.09-8.334 9.09L325 62.5l-8.333 9.09-8.334-9.09zM308.333 75L300 84.09v3.41l8.333-9.09 8.334 9.09L325 78.41l8.333 9.09 8.334-9.09L350 87.5v-3.41L341.667 75l-8.334 9.09L325 75l-8.333 9.09-8.334-9.09zM308.333 87.5L300 96.59V100l8.333-9.09 8.334 9.09L325 90.91l8.333 9.09 8.334-9.09L350 100v-3.41l-8.333-9.09-8.334 9.09L325 87.5l-8.333 9.09-8.334-9.09z" fill="#EFA00B" fill-opacity=".1"/><path fill="url(#paint28_radial)" d="M350 50h50v50h-50z"/><path d="M358.333 50L350 59.09v3.41l8.333-9.09 8.334 9.09L375 53.41l8.333 9.09 8.334-9.09L400 62.5v-3.41L391.667 50l-8.334 9.09L375 50l-8.333 9.09-8.334-9.09zM358.333 62.5L350 71.59V75l8.333-9.09 8.334 9.09L375 65.91l8.333 9.09 8.334-9.09L400 75v-3.41l-8.333-9.09-8.334 9.09L375 62.5l-8.333 9.09-8.334-9.09zM358.333 75L350 84.09v3.41l8.333-9.09 8.334 9.09L375 78.41l8.333 9.09 8.334-9.09L400 87.5v-3.41L391.667 75l-8.334 9.09L375 75l-8.333 9.09-8.334-9.09zM358.333 87.5L350 96.59V100l8.333-9.09 8.334 9.09L375 90.91l8.333 9.09 8.334-9.09L400 100v-3.41l-8.333-9.09-8.334 9.09L375 87.5l-8.333 9.09-8.334-9.09z" fill="#EFA00B" fill-opacity=".1"/><path fill="url(#paint29_radial)" d="M350 0h50v50h-50z"/><path d="M358.333 0L350 9.09v3.41l8.333-9.09 8.334 9.09L375 3.41l8.333 9.09 8.334-9.09L400 12.5V9.09L391.667 0l-8.334 9.09L375 0l-8.333 9.09L358.333 0zM358.333 12.5L350 21.59V25l8.333-9.09 8.334 9.09L375 15.91l8.333 9.09 8.334-9.09L400 25v-3.41l-8.333-9.09-8.334 9.09L375 12.5l-8.333 9.09-8.334-9.09zM358.333 25L350 34.09v3.41l8.333-9.09 8.334 9.09L375 28.41l8.333 9.09 8.334-9.09L400 37.5v-3.41L391.667 25l-8.334 9.09L375 25l-8.333 9.09-8.334-9.09zM358.333 37.5L350 46.59V50l8.333-9.09 8.334 9.09L375 40.91l8.333 9.09 8.334-9.09L400 50v-3.41l-8.333-9.09-8.334 9.09L375 37.5l-8.333 9.09-8.334-9.09z" fill="#EFA00B" fill-opacity=".1"/><path fill="url(#paint30_radial)" d="M100 149h50v50h-50z"/><path d="M108.333 149L100 158.091v3.409l8.333-9.091 8.334 9.091 8.333-9.091 8.333 9.091 8.334-9.091L150 161.5v-3.409L141.667 149l-8.334 9.091L125 149l-8.333 9.091-8.334-9.091zM108.333 161.5L100 170.591V174l8.333-9.091 8.334 9.091 8.333-9.091 8.333 9.091 8.334-9.091L150 174v-3.409l-8.333-9.091-8.334 9.091L125 161.5l-8.333 9.091-8.334-9.091zM108.333 174L100 183.091v3.409l8.333-9.091 8.334 9.091 8.333-9.091 8.333 9.091 8.334-9.091L150 186.5v-3.409L141.667 174l-8.334 9.091L125 174l-8.333 9.091-8.334-9.091zM108.333 186.5L100 195.591V199l8.333-9.091 8.334 9.091 8.333-9.091 8.333 9.091 8.334-9.091L150 199v-3.409l-8.333-9.091-8.334 9.091L125 186.5l-8.333 9.091-8.334-9.091z" fill="#EFA00B" fill-opacity=".1"/><path fill="url(#paint31_radial)" d="M0 200h50v50H0z"/><path d="M8.333 200L0 209.091v3.409l8.333-9.091 8.334 9.091L25 203.409l8.333 9.091 8.334-9.091L50 212.5v-3.409L41.667 200l-8.334 9.091L25 200l-8.333 9.091L8.333 200zM8.333 212.5L0 221.591V225l8.333-9.091L16.667 225 25 215.909 33.333 225l8.334-9.091L50 225v-3.409l-8.333-9.091-8.334 9.091L25 212.5l-8.333 9.091-8.334-9.091zM8.333 225L0 234.091v3.409l8.333-9.091 8.334 9.091L25 228.409l8.333 9.091 8.334-9.091L50 237.5v-3.409L41.667 225l-8.334 9.091L25 225l-8.333 9.091L8.333 225zM8.333 237.5L0 246.591V250l8.333-9.091L16.667 250 25 240.909 33.333 250l8.334-9.091L50 250v-3.409l-8.333-9.091-8.334 9.091L25 237.5l-8.333 9.091-8.334-9.091z" fill="#EFA00B" fill-opacity=".1"/><g clip-path="url(#clip0)"><path d="M187.236 177.555c0-6.805-5.517-12.322-12.322-12.322-6.805 0-12.321 5.517-12.321 12.322 0 6.805 5.516 8.215 12.321 8.215s12.322-1.41 12.322-8.215z" fill="#0097A7"/><path d="M187.236 177.555h.622c-.001-7.149-5.795-12.944-12.944-12.944-7.149 0-12.943 5.795-12.944 12.944 0 1.784.364 3.264 1.051 4.464a6.886 6.886 0 0 0 2.025 2.211c1.231.871 2.736 1.404 4.408 1.728 1.674.322 3.522.434 5.46.434 3.445-.004 6.608-.343 9.008-1.63 1.197-.644 2.2-1.543 2.885-2.743.688-1.2 1.051-2.68 1.051-4.464h-1.245c0 1.619-.326 2.866-.886 3.845a5.614 5.614 0 0 1-1.665 1.814c-1.03.731-2.365 1.221-3.924 1.521-1.558.301-3.334.413-5.224.412-3.36.005-6.358-.362-8.417-1.481-1.033-.558-1.834-1.287-2.396-2.266-.56-.979-.886-2.226-.886-3.845 0-3.233 1.308-6.154 3.426-8.273a11.659 11.659 0 0 1 8.273-3.426c3.233 0 6.154 1.308 8.273 3.426a11.659 11.659 0 0 1 3.426 8.273h.623z" fill="#54596E"/><path d="M174.291 173.945a3.733 3.733 0 1 1-7.467 0 3.733 3.733 0 0 1 7.467 0z" fill="#fff"/><path d="M174.291 173.945h.623a4.358 4.358 0 0 0-4.356-4.356 4.358 4.358 0 0 0-4.357 4.356 4.358 4.358 0 0 0 4.357 4.357 4.358 4.358 0 0 0 4.356-4.357h-1.245c0 .862-.347 1.636-.912 2.201a3.093 3.093 0 0 1-2.199.911 3.098 3.098 0 0 1-2.201-.911 3.098 3.098 0 0 1-.911-2.201 3.1 3.1 0 0 1 .911-2.2 3.098 3.098 0 0 1 2.201-.911c.861 0 1.635.347 2.199.911.565.566.912 1.339.912 2.2h.622z" fill="#54596E"/><path d="M183.004 173.945a3.733 3.733 0 1 1-7.466.002 3.733 3.733 0 0 1 7.466-.002z" fill="#fff"/><path d="M183.004 173.945h.622a4.357 4.357 0 1 0-8.71.002 4.357 4.357 0 0 0 8.71-.002h-1.245c0 .862-.347 1.636-.911 2.201a3.097 3.097 0 0 1-2.2.911 3.097 3.097 0 0 1-2.2-.911 3.095 3.095 0 0 1-.912-2.201c0-.861.347-1.634.912-2.2a3.097 3.097 0 0 1 2.2-.911c.861 0 1.635.347 2.2.911a3.1 3.1 0 0 1 .911 2.2h.623zM156.081 178.101v-.001c.037-.039.574-.598 1.516-1.138a7.902 7.902 0 0 1 4.856-1.011.62.62 0 1 0 .138-1.236 9.154 9.154 0 0 0-5.718 1.228c-1.087.643-1.679 1.284-1.709 1.315a.624.624 0 0 0 .917.843zM156.581 182.531l-.202-.108.201.109.001-.001-.202-.108.201.109c.005-.01.44-.804 1.36-1.649a7.868 7.868 0 0 1 4.274-2.026.623.623 0 0 0-.176-1.232 9.135 9.135 0 0 0-4.991 2.388c-1.057.989-1.541 1.89-1.564 1.931a.622.622 0 0 0 1.098.587zM158.634 186.282l-.231-.044.231.045v-.001l-.231-.044.231.045c.001-.011.179-.898.803-1.98a7.883 7.883 0 0 1 3.471-3.213.621.621 0 1 0-.536-1.123 9.13 9.13 0 0 0-4.047 3.774c-.712 1.259-.905 2.264-.914 2.31a.622.622 0 1 0 1.223.231zM194.836 177.258c-.03-.031-.622-.672-1.709-1.315a9.144 9.144 0 0 0-5.718-1.228.622.622 0 1 0 .139 1.236 7.907 7.907 0 0 1 4.946 1.063c.472.279.836.558 1.078.764.121.103.212.188.27.245l.063.063.014.013v.001a.623.623 0 0 0 .917-.842zM194.517 181.944c-.023-.041-.507-.943-1.564-1.931a9.128 9.128 0 0 0-4.991-2.388.622.622 0 0 0-.176 1.232 7.88 7.88 0 0 1 4.317 2.066c.459.429.794.84 1.011 1.14.109.15.188.272.238.354l.055.091.011.021.002.003.2-.109-.201.107.001.002.2-.109-.201.107a.622.622 0 0 0 1.098-.586zM192.589 186.051c-.009-.047-.202-1.051-.914-2.311a9.118 9.118 0 0 0-4.047-3.773.622.622 0 1 0-.536 1.123 7.877 7.877 0 0 1 3.5 3.264c.31.546.506 1.039.623 1.391.059.175.097.315.121.408l.025.104.005.022v.004l.228-.045-.228.044v.001l.228-.045-.228.044a.623.623 0 0 0 1.223-.231z" fill="#54596E"/><path d="M171.802 173.945a1.244 1.244 0 1 1-2.489.001 1.244 1.244 0 0 1 2.489-.001zM180.515 173.945a1.244 1.244 0 1 1-2.489.001 1.244 1.244 0 0 1 2.489-.001z" fill="#55A6FF"/><path d="M163.712 160.877l3.083-6.68c-2.08-1.017-5.102.533-6.855 3.568-1.805 3.126-1.578 6.634.505 7.837 2.084 1.203 5.236-.355 7.04-3.48a9.09 9.09 0 0 0 1.125-3.129l-4.898 1.884z" fill="#0097A7"/><path d="M163.713 160.877l.565.261 3.083-6.68a.625.625 0 0 0-.292-.821 3.783 3.783 0 0 0-1.668-.374c-1.105.002-2.235.425-3.272 1.15-1.038.727-1.989 1.763-2.728 3.041-.867 1.505-1.3 3.097-1.301 4.545 0 .874.158 1.699.492 2.417.333.717.851 1.327 1.542 1.725a3.724 3.724 0 0 0 1.883.49c1.107-.002 2.238-.427 3.277-1.153 1.038-.729 1.991-1.766 2.73-3.045a9.729 9.729 0 0 0 1.201-3.344.621.621 0 0 0-.838-.677l-4.898 1.884.224.581.565.261-.565-.261.223.581 4.898-1.884-.224-.581-.615-.095a8.482 8.482 0 0 1-1.049 2.912c-.652 1.13-1.491 2.036-2.367 2.649-.876.615-1.783.929-2.562.928a2.507 2.507 0 0 1-1.261-.323c-.448-.261-.792-.653-1.036-1.174-.243-.52-.376-1.168-.376-1.891-.001-1.198.367-2.595 1.135-3.922.651-1.129 1.489-2.033 2.363-2.645.875-.613 1.781-.926 2.559-.924.408 0 .781.082 1.121.248l.274-.559-.566-.261-1.874 4.061-1.209 2.619a.624.624 0 0 0 .789.842l-.223-.581z" fill="#54596E"/><path d="M160.316 165.554c-.021.02-.276.258-.543.645-.261.387-.558.927-.564 1.603-.002.353.095.739.321 1.087.34.526.923.944 1.783 1.265.864.321 2.026.555 3.616.678a.622.622 0 0 0 .096-1.24c-2.018-.154-3.231-.508-3.864-.873-.319-.182-.491-.357-.584-.503a.736.736 0 0 1-.124-.414c-.006-.268.153-.623.345-.898a3.38 3.38 0 0 1 .263-.33l.083-.089.02-.02.003-.003-.149-.156.148.158.001-.002-.149-.156.148.158a.624.624 0 0 0-.85-.91z" fill="#54596E"/><path d="M186.023 160.877l-3.083-6.68c2.081-1.017 5.103.533 6.855 3.568 1.805 3.126 1.579 6.634-.505 7.837-2.084 1.203-5.235-.355-7.04-3.48a9.09 9.09 0 0 1-1.125-3.129l4.898 1.884z" fill="#0097A7"/><path d="M186.022 160.877l.566-.26-3.084-6.681-.565.261.274.559c.34-.166.713-.247 1.121-.248.778-.002 1.685.311 2.559.925.874.611 1.712 1.515 2.363 2.644.767 1.327 1.136 2.724 1.135 3.922 0 .723-.134 1.371-.376 1.891-.245.521-.588.913-1.037 1.174h.001a2.49 2.49 0 0 1-1.261.323c-.779.001-1.687-.313-2.563-.928-.875-.613-1.714-1.519-2.366-2.648a8.518 8.518 0 0 1-1.05-2.913l-.615.095-.223.581 4.898 1.884a.62.62 0 0 0 .789-.841l-.566.26.224-.581-4.898-1.883a.622.622 0 0 0-.838.676 9.722 9.722 0 0 0 1.201 3.344c.74 1.279 1.691 2.317 2.73 3.046 1.039.726 2.17 1.15 3.277 1.153.656 0 1.305-.156 1.883-.49.691-.398 1.209-1.009 1.542-1.726.334-.717.492-1.542.493-2.416-.002-1.449-.434-3.041-1.302-4.545-.739-1.279-1.69-2.315-2.727-3.042-1.038-.725-2.167-1.147-3.273-1.149a3.77 3.77 0 0 0-1.668.374.623.623 0 0 0-.292.82 5111.218 5111.218 0 0 1 3.083 6.68l.565-.261.224-.581-.224.581z" fill="#54596E"/><path d="M189.192 166.464l.147-.158-.149.156.002.002.147-.158-.149.156c.006.005.205.198.386.469.186.27.333.612.328.871a.742.742 0 0 1-.123.414c-.137.217-.464.509-1.171.772-.703.263-1.764.487-3.278.603a.623.623 0 0 0 .096 1.241c2.119-.166 3.48-.52 4.385-1.032.451-.256.79-.561 1.015-.911.226-.347.323-.734.321-1.087-.006-.675-.303-1.216-.565-1.603-.267-.386-.521-.625-.542-.645a.623.623 0 1 0-.85.91zM167.922 179.9a8.86 8.86 0 0 0 7.182 3.66 8.86 8.86 0 0 0 7.157-3.626.623.623 0 0 0-1.003-.736 7.618 7.618 0 0 1-6.154 3.118 7.62 7.62 0 0 1-6.175-3.148.622.622 0 1 0-1.007.732z" fill="#54596E"/></g><defs><radialGradient id="paint0_radial" cx="0" cy="0" r="1" gradientUnits="userSpaceOnUse" gradientTransform="rotate(90 63 162) scale(151.25)"><stop stop-color="#EBFFFC"/><stop offset="1" stop-color="#81D2C7"/></radialGradient><radialGradient id="paint1_radial" cx="0" cy="0" r="1" gradientUnits="userSpaceOnUse" gradientTransform="matrix(0 151.25 -151.25 0 325 0)"><stop stop-color="#EBFFFC"/><stop offset="1" stop-color="#81D2C7"/></radialGradient><radialGradient id="paint2_radial" cx="0" cy="0" r="1" gradientUnits="userSpaceOnUse" gradientTransform="rotate(90 63 212) scale(151.25)"><stop stop-color="#EBFFFC"/><stop offset="1" stop-color="#81D2C7"/></radialGradient><radialGradient id="paint3_radial" cx="0" cy="0" r="1" gradientUnits="userSpaceOnUse" gradientTransform="rotate(90 63 262) scale(151.25)"><stop stop-color="#EBFFFC"/><stop offset="1" stop-color="#81D2C7"/></radialGradient><radialGradient id="paint4_radial" cx="0" cy="0" r="1" gradientUnits="userSpaceOnUse" gradientTransform="rotate(90 38 237) scale(151.25)"><stop stop-color="#EBFFFC"/><stop offset="1" stop-color="#81D2C7"/></radialGradient><radialGradient id="paint5_radial" cx="0" cy="0" r="1" gradientUnits="userSpaceOnUse" gradientTransform="rotate(90 113 212) scale(151.25)"><stop stop-color="#EBFFFC"/><stop offset="1" stop-color="#81D2C7"/></radialGradient><radialGradient id="paint6_radial" cx="0" cy="0" r="1" gradientUnits="userSpaceOnUse" gradientTransform="rotate(90 138 237) scale(151.25)"><stop stop-color="#EBFFFC"/><stop offset="1" stop-color="#81D2C7"/></radialGradient><radialGradient id="paint7_radial" cx="0" cy="0" r="1" gradientUnits="userSpaceOnUse" gradientTransform="matrix(0 151.25 -151.25 0 75 100)"><stop stop-color="#EBFFFC"/><stop offset="1" stop-color="#81D2C7"/></radialGradient><radialGradient id="paint8_radial" cx="0" cy="0" r="1" gradientUnits="userSpaceOnUse" gradientTransform="matrix(0 151.25 -151.25 0 25 50)"><stop stop-color="#EBFFFC"/><stop offset="1" stop-color="#81D2C7"/></radialGradient><radialGradient id="paint9_radial" cx="0" cy="0" r="1" gradientUnits="userSpaceOnUse" gradientTransform="matrix(0 151.25 -151.25 0 25 0)"><stop stop-color="#EBFFFC"/><stop offset="1" stop-color="#81D2C7"/></radialGradient><radialGradient id="paint10_radial" cx="0" cy="0" r="1" gradientUnits="userSpaceOnUse" gradientTransform="matrix(0 151.25 -151.25 0 75 150)"><stop stop-color="#EBFFFC"/><stop offset="1" stop-color="#81D2C7"/></radialGradient><radialGradient id="paint11_radial" cx="0" cy="0" r="1" gradientUnits="userSpaceOnUse" gradientTransform="rotate(135 111.996 118.881) scale(106.42)"><stop stop-color="#FED766"/><stop offset="1" stop-color="#FFFD98"/></radialGradient><radialGradient id="paint12_radial" cx="0" cy="0" r="1" gradientUnits="userSpaceOnUse" gradientTransform="rotate(135 161.996 139.592) scale(106.42)"><stop stop-color="#FED766"/><stop offset="1" stop-color="#FFFD98"/></radialGradient><radialGradient id="paint13_radial" cx="0" cy="0" r="1" gradientUnits="userSpaceOnUse" gradientTransform="rotate(135 186.996 149.947) scale(106.42)"><stop stop-color="#FED766"/><stop offset="1" stop-color="#FFFD98"/></radialGradient><radialGradient id="paint14_radial" cx="0" cy="0" r="1" gradientUnits="userSpaceOnUse" gradientTransform="rotate(135 176.64 174.947) scale(106.42)"><stop stop-color="#FED766"/><stop offset="1" stop-color="#FFFD98"/></radialGradient><radialGradient id="paint15_radial" cx="0" cy="0" r="1" gradientUnits="userSpaceOnUse" gradientTransform="rotate(135 86.996 108.526) scale(106.42)"><stop stop-color="#FED766"/><stop offset="1" stop-color="#FFFD98"/></radialGradient><radialGradient id="paint16_radial" cx="0" cy="0" r="1" gradientUnits="userSpaceOnUse" gradientTransform="rotate(135 76.64 133.526) scale(106.42)"><stop stop-color="#FED766"/><stop offset="1" stop-color="#FFFD98"/></radialGradient><radialGradient id="paint17_radial" cx="0" cy="0" r="1" gradientUnits="userSpaceOnUse" gradientTransform="rotate(135 72.35 73.17) scale(106.42)"><stop stop-color="#FED766"/><stop offset="1" stop-color="#FFFD98"/></radialGradient><radialGradient id="paint18_radial" cx="0" cy="0" r="1" gradientUnits="userSpaceOnUse" gradientTransform="rotate(135 82.5 48.67) scale(106.42)"><stop stop-color="#FED766"/><stop offset="1" stop-color="#FFFD98"/></radialGradient><radialGradient id="paint19_radial" cx="0" cy="0" r="1" gradientUnits="userSpaceOnUse" gradientTransform="rotate(135 67.854 13.315) scale(106.42)"><stop stop-color="#FED766"/><stop offset="1" stop-color="#FFFD98"/></radialGradient><radialGradient id="paint20_radial" cx="0" cy="0" r="1" gradientUnits="userSpaceOnUse" gradientTransform="rotate(135 92.854 23.67) scale(106.42)"><stop stop-color="#FED766"/><stop offset="1" stop-color="#FFFD98"/></radialGradient><radialGradient id="paint21_radial" cx="0" cy="0" r="1" gradientUnits="userSpaceOnUse" gradientTransform="rotate(135 107.5 59.026) scale(106.42)"><stop stop-color="#FED766"/><stop offset="1" stop-color="#FFFD98"/></radialGradient><radialGradient id="paint22_radial" cx="0" cy="0" r="1" gradientUnits="userSpaceOnUse" gradientTransform="rotate(135 132.5 69.381) scale(106.42)"><stop stop-color="#FED766"/><stop offset="1" stop-color="#FFFD98"/></radialGradient><radialGradient id="paint23_radial" cx="0" cy="0" r="1" gradientUnits="userSpaceOnUse" gradientTransform="rotate(135 142.854 44.381) scale(106.42)"><stop stop-color="#FED766"/><stop offset="1" stop-color="#FFFD98"/></radialGradient><radialGradient id="paint24_radial" cx="0" cy="0" r="1" gradientUnits="userSpaceOnUse" gradientTransform="rotate(135 157.706 79.236) scale(106.42)"><stop stop-color="#FED766"/><stop offset="1" stop-color="#FFFD98"/></radialGradient><radialGradient id="paint25_radial" cx="0" cy="0" r="1" gradientUnits="userSpaceOnUse" gradientTransform="rotate(135 167.854 54.736) scale(106.42)"><stop stop-color="#FED766"/><stop offset="1" stop-color="#FFFD98"/></radialGradient><radialGradient id="paint26_radial" cx="0" cy="0" r="1" gradientUnits="userSpaceOnUse" gradientTransform="rotate(135 147.35 104.236) scale(106.42)"><stop stop-color="#FED766"/><stop offset="1" stop-color="#FFFD98"/></radialGradient><radialGradient id="paint27_radial" cx="0" cy="0" r="1" gradientUnits="userSpaceOnUse" gradientTransform="rotate(135 182.5 90.092) scale(106.42)"><stop stop-color="#FED766"/><stop offset="1" stop-color="#FFFD98"/></radialGradient><radialGradient id="paint28_radial" cx="0" cy="0" r="1" gradientUnits="userSpaceOnUse" gradientTransform="rotate(135 207.5 100.447) scale(106.42)"><stop stop-color="#FED766"/><stop offset="1" stop-color="#FFFD98"/></radialGradient><radialGradient id="paint29_radial" cx="0" cy="0" r="1" gradientUnits="userSpaceOnUse" gradientTransform="rotate(135 217.854 75.447) scale(106.42)"><stop stop-color="#FED766"/><stop offset="1" stop-color="#FFFD98"/></radialGradient><radialGradient id="paint30_radial" cx="0" cy="0" r="1" gradientUnits="userSpaceOnUse" gradientTransform="rotate(135 61.996 98.17) scale(106.42)"><stop stop-color="#FED766"/><stop offset="1" stop-color="#FFFD98"/></radialGradient><radialGradient id="paint31_radial" cx="0" cy="0" r="1" gradientUnits="userSpaceOnUse" gradientTransform="rotate(135 1.433 102.96) scale(106.42)"><stop stop-color="#FED766"/><stop offset="1" stop-color="#FFFD98"/></radialGradient><clipPath id="clip0"><path fill="#fff" transform="translate(155 150)" d="M0 0h40v40H0z"/></clipPath></defs></svg>