<svg width="378" height="240" viewBox="0 0 378 240" fill="none" xmlns="http://www.w3.org/2000/svg">
<g opacity="0.9">
<rect width="378" height="240" rx="5" fill="url(#paint0_linear)"/>
</g>
<rect x="271.5" y="78.5" width="83" height="83" rx="41.5" fill="#008287" stroke="#243555" stroke-width="3"/>
<g clip-path="url(#clip0)">
<path d="M316.115 118.986V117.357C316.115 115.666 314.739 114.291 313.048 114.291H312.061V110.66C312.061 109.975 312.618 109.419 313.302 109.419H318.434C320.928 109.419 322.956 107.39 322.956 104.896V101.724C322.956 100.818 322.222 100.083 321.316 100.083C320.41 100.083 319.675 100.818 319.675 101.724V104.896C319.675 105.581 319.118 106.137 318.434 106.137H313.302C310.809 106.137 308.78 108.166 308.78 110.66V114.291H307.793C306.102 114.291 304.726 115.666 304.726 117.357V118.986C302.185 120.02 299.99 121.719 298.329 123.95C296.385 126.563 295.357 129.669 295.356 132.934C295.356 136.953 296.905 140.728 299.718 143.561C302.531 146.395 306.294 147.972 310.313 148C310.349 148 310.385 148 310.422 148C314.426 148 318.191 146.449 321.035 143.626C323.904 140.776 325.484 136.98 325.484 132.937C325.484 129.671 324.457 126.564 322.512 123.951C320.851 121.72 318.656 120.02 316.115 118.986ZM310.336 144.719C303.775 144.673 298.637 139.497 298.638 132.934C298.639 127.771 301.944 123.257 306.862 121.701C307.544 121.485 308.007 120.852 308.007 120.137V117.572H312.833V120.137C312.833 120.852 313.297 121.485 313.979 121.701C318.898 123.257 322.203 127.772 322.203 132.936C322.203 136.099 320.967 139.069 318.722 141.297C316.478 143.526 313.503 144.738 310.336 144.719Z" fill="white"/>
<path d="M321.315 98.1674C322.221 98.1674 322.956 97.4329 322.956 96.5268V93.6406C322.956 92.7346 322.221 92 321.315 92C320.409 92 319.675 92.7346 319.675 93.6406V96.5268C319.675 97.4329 320.409 98.1674 321.315 98.1674Z" fill="white"/>
<path d="M314.508 100.026C314.828 100.346 315.248 100.507 315.668 100.507C316.088 100.507 316.508 100.346 316.828 100.026C317.469 99.3852 317.469 98.3465 316.828 97.7057L314.787 95.665C314.147 95.0244 313.108 95.0244 312.467 95.665C311.827 96.3057 311.827 97.3445 312.467 97.9852L314.508 100.026Z" fill="white"/>
<path d="M330.164 95.6651C329.523 95.0244 328.484 95.0244 327.844 95.6651L325.803 97.7058C325.162 98.3464 325.162 99.3852 325.803 100.026C326.123 100.346 326.543 100.507 326.963 100.507C327.383 100.507 327.803 100.346 328.123 100.026L330.164 97.9853C330.804 97.3446 330.804 96.3058 330.164 95.6651Z" fill="white"/>
</g>
<rect x="328" y="124" width="40" height="40" rx="20" fill="#243555"/>
<path d="M344.34 139.6C345.047 138.493 346.273 137.94 348.02 137.94C349.767 137.94 350.993 138.493 351.7 139.6C352.42 140.707 352.78 142.54 352.78 145.1C352.78 147.66 352.42 149.493 351.7 150.6C350.993 151.707 349.767 152.26 348.02 152.26C346.273 152.26 345.047 151.707 344.34 150.6C343.633 149.493 343.28 147.66 343.28 145.1C343.28 142.54 343.633 140.707 344.34 139.6ZM350.38 140.74C349.94 139.9 349.153 139.48 348.02 139.48C346.887 139.48 346.1 139.9 345.66 140.74C345.22 141.58 345 143.033 345 145.1C345 147.167 345.22 148.62 345.66 149.46C346.1 150.3 346.887 150.72 348.02 150.72C349.153 150.72 349.94 150.3 350.38 149.46C350.833 148.62 351.06 147.167 351.06 145.1C351.06 143.033 350.833 141.58 350.38 140.74Z" fill="white"/>
<rect x="142.5" y="78.5" width="83" height="83" rx="41.5" fill="#008287" stroke="#243555" stroke-width="3"/>
<path d="M199.791 115.539C200.519 115.05 201 114.219 201 113.278V110.723C201 109.462 200.134 108.408 198.968 108.1C198.744 104.744 197.262 104 196 104C195.09 104 194.459 104.337 194.018 104.841C193.034 104.147 191.828 103.954 190.756 104.384C190.042 101.257 187.736 99 185.001 99C182.685 99 180.607 100.666 179.622 103.187C179.105 102.97 178.559 102.858 178.001 102.858C176.518 102.858 175.163 103.64 174.232 104.971C173.581 104.439 172.806 104.143 172 104.143C169.906 104.143 168.202 106.114 168.033 108.605C167.408 109.104 167 109.863 167 110.723V113.278C167 114.219 167.481 115.05 168.209 115.539C168.083 116.352 168 117.175 168 118C168 122.301 169.714 126.202 172.484 129.08L173.754 138.288C173.967 139.834 175.305 141 176.865 141H191.134C192.695 141 194.032 139.834 194.245 138.288L195.515 129.08C198.286 126.203 200 122.301 200 118C200 117.175 199.917 116.352 199.791 115.539ZM193.626 128.139C191.114 130.525 187.729 132 184 132C180.271 132 176.885 130.525 174.374 128.139L172.699 116H195.301L193.626 128.139ZM170.404 114H169.723C169.324 114 169 113.676 169 113.278V110.723C169 110.325 169.324 110 169.723 110H198.278C198.676 110 199.001 110.324 199.001 110.723V113.278C199.001 113.676 198.677 114.001 198.278 114.001H197.596H170.404V114ZM196 106C196.643 106 196.874 107.062 196.956 108H195.032C195.171 106.001 195.739 106 196 106ZM172 106.143C172.594 106.143 173.16 106.54 173.552 107.235C173.742 107.572 174.111 107.776 174.497 107.74C174.883 107.712 175.218 107.462 175.357 107.1C175.886 105.717 176.899 104.858 178.001 104.858C178.544 104.858 179.083 105.071 179.556 105.474C179.824 105.703 180.193 105.771 180.524 105.66C180.857 105.548 181.107 105.268 181.181 104.925C181.681 102.614 183.252 101.001 185 101.001C187.103 101.001 188.888 103.333 188.98 106.199C188.993 106.612 189.26 106.974 189.65 107.111C190.041 107.246 190.474 107.13 190.742 106.813C191.001 106.507 191.429 106.143 191.999 106.143C192.516 106.143 192.909 106.44 193.176 106.732C193.088 107.169 193.042 107.606 193.021 108.001H170.138C170.429 106.929 171.162 106.143 172 106.143ZM170 118C170 117.329 170.065 116.661 170.159 116H170.68L171.929 125.058C170.711 122.983 170 120.576 170 118ZM192.264 138.015C192.187 138.577 191.701 139 191.134 139H176.866C176.299 139 175.813 138.576 175.736 138.015L174.775 131.051C177.385 132.902 180.564 134.001 184 134.001C187.436 134.001 190.615 132.902 193.225 131.051L192.264 138.015ZM196.07 125.058L197.319 116H197.84C197.935 116.661 197.999 117.329 197.999 118C198 120.576 197.289 122.983 196.07 125.058Z" fill="white"/>
<rect x="202" y="125" width="40" height="40" rx="20" fill="#243555"/>
<path d="M218.34 140.6C219.047 139.493 220.273 138.94 222.02 138.94C223.767 138.94 224.993 139.493 225.7 140.6C226.42 141.707 226.78 143.54 226.78 146.1C226.78 148.66 226.42 150.493 225.7 151.6C224.993 152.707 223.767 153.26 222.02 153.26C220.273 153.26 219.047 152.707 218.34 151.6C217.633 150.493 217.28 148.66 217.28 146.1C217.28 143.54 217.633 141.707 218.34 140.6ZM224.38 141.74C223.94 140.9 223.153 140.48 222.02 140.48C220.887 140.48 220.1 140.9 219.66 141.74C219.22 142.58 219 144.033 219 146.1C219 148.167 219.22 149.62 219.66 150.46C220.1 151.3 220.887 151.72 222.02 151.72C223.153 151.72 223.94 151.3 224.38 150.46C224.833 149.62 225.06 148.167 225.06 146.1C225.06 144.033 224.833 142.58 224.38 141.74Z" fill="white"/>
<rect x="13.5" y="78.5" width="83" height="83" rx="41.5" fill="#008287" stroke="#243555" stroke-width="3"/>
<g clip-path="url(#clip1)">
<path d="M73.398 112.403C72.9995 111.476 72.5316 110.578 72.0048 109.724L72.0918 109.637C72.7168 109.012 72.7168 107.998 72.0918 107.373L67.5636 102.845C67.2633 102.545 66.8563 102.376 66.4315 102.376C66.0071 102.376 65.5998 102.545 65.2995 102.845L65.18 102.965C59.5148 99.5387 52.5911 99.0457 46.4776 101.675C45.5867 102.058 44.7224 102.506 43.8979 103.008L43.7918 102.902C43.4916 102.601 43.0843 102.433 42.6598 102.433C42.235 102.433 41.828 102.601 41.5278 102.902L36.9999 107.43C36.3746 108.055 36.3746 109.068 36.9999 109.693L37.1003 109.794C35.5212 112.378 34.5221 115.301 34.1962 118.313C33.8193 121.8 34.3563 125.356 35.7499 128.595C36.1328 129.486 36.5804 130.35 37.0825 131.175L37.0562 131.201C36.4312 131.827 36.4312 132.84 37.0562 133.465L41.5844 137.993C41.8844 138.294 42.2916 138.462 42.7164 138.462C43.1409 138.462 43.5482 138.294 43.8485 137.993L43.8685 137.973C47.142 139.978 50.8381 141 54.5611 141C57.3029 141 60.0597 140.446 62.6703 139.323C63.5972 138.924 64.4937 138.457 65.3492 137.929L65.3561 137.937C65.6564 138.237 66.0637 138.406 66.4881 138.406C66.9129 138.406 67.3202 138.237 67.6202 137.937L72.1484 133.408C72.7734 132.783 72.7734 131.77 72.1484 131.145L65.2279 124.224C65.637 123.057 65.8603 121.804 65.8603 120.499C65.8603 119.119 65.6107 117.796 65.1553 116.573L69.6656 112.063C69.9556 112.583 70.2209 113.119 70.4567 113.668C71.8037 116.799 72.1834 120.248 71.555 123.641C71.3942 124.511 71.9682 125.346 72.8375 125.507C72.936 125.525 73.0343 125.534 73.1309 125.534C73.8876 125.534 74.5604 124.995 74.7034 124.224C75.4476 120.206 74.9962 116.118 73.398 112.403V112.403ZM47.7429 104.616C52.6555 102.503 58.1888 102.781 62.8346 105.31L58.2992 109.845C57.1321 109.436 55.8787 109.213 54.574 109.213C53.238 109.213 51.9558 109.447 50.7652 109.875L46.2408 105.35C46.7285 105.083 47.2302 104.837 47.7429 104.616ZM62.6585 120.499C62.6585 123.589 60.9161 126.278 58.363 127.639C58.211 127.687 58.0652 127.759 57.9301 127.853C56.9075 128.322 55.7708 128.584 54.574 128.584C50.1162 128.584 46.4895 124.957 46.4895 120.499C46.4895 116.041 50.1162 112.415 54.574 112.415C59.0318 112.415 62.6585 116.041 62.6585 120.499ZM42.6598 106.297L47.8227 111.46C46.9643 112.103 46.2008 112.865 45.5554 113.721L40.3957 108.561L42.6598 106.297ZM38.6912 127.33C36.5554 122.364 36.8547 116.801 39.4404 112.134L43.962 116.656C43.526 117.856 43.2876 119.15 43.2876 120.499C43.2876 121.835 43.5216 123.117 43.9498 124.308L39.4254 128.832C39.1576 128.344 38.9114 127.843 38.6912 127.33ZM40.4523 132.333L45.5351 127.251C46.1776 128.109 46.9396 128.872 47.7961 129.517L42.7164 134.597L40.4523 132.333ZM61.4054 136.382C56.4505 138.513 50.8769 138.214 46.2102 135.632L50.7305 131.111C51.9308 131.547 53.2252 131.785 54.574 131.785C55.9541 131.785 57.2769 131.536 58.5 131.081L63.011 135.592C62.4908 135.881 61.9543 136.146 61.4054 136.382V136.382ZM68.7522 132.277L66.4881 134.541L61.416 129.468C62.2675 128.817 63.0241 128.048 63.6607 127.185L68.7522 132.277ZM61.2599 111.413L66.4315 106.241L68.6956 108.505L63.5434 113.657C62.8921 112.805 62.1229 112.049 61.2599 111.413Z" fill="white"/>
</g>
<rect x="73" y="123" width="40" height="40" rx="20" fill="#243555"/>
<path d="M89.34 138.6C90.0467 137.493 91.2733 136.94 93.02 136.94C94.7667 136.94 95.9933 137.493 96.7 138.6C97.42 139.707 97.78 141.54 97.78 144.1C97.78 146.66 97.42 148.493 96.7 149.6C95.9933 150.707 94.7667 151.26 93.02 151.26C91.2733 151.26 90.0467 150.707 89.34 149.6C88.6333 148.493 88.28 146.66 88.28 144.1C88.28 141.54 88.6333 139.707 89.34 138.6ZM95.38 139.74C94.94 138.9 94.1533 138.48 93.02 138.48C91.8867 138.48 91.1 138.9 90.66 139.74C90.22 140.58 90 142.033 90 144.1C90 146.167 90.22 147.62 90.66 148.46C91.1 149.3 91.8867 149.72 93.02 149.72C94.1533 149.72 94.94 149.3 95.38 148.46C95.8333 147.62 96.06 146.167 96.06 144.1C96.06 142.033 95.8333 140.58 95.38 139.74Z" fill="white"/>
<defs>
<linearGradient id="paint0_linear" x1="189" y1="0" x2="189" y2="240" gradientUnits="userSpaceOnUse">
<stop stop-color="#006064"/>
<stop offset="1" stop-color="#243555"/>
</linearGradient>
<clipPath id="clip0">
<rect width="56" height="56" fill="white" transform="translate(285 92)"/>
</clipPath>
<clipPath id="clip1">
<rect width="41" height="41" fill="white" transform="translate(34 100)"/>
</clipPath>
</defs>
</svg>
