<svg width="400" height="240" fill="none" xmlns="http://www.w3.org/2000/svg"><path fill="#FFF3E0" d="M0 0h400v240H0z"/><rect x="130" y="97" width="140" height="46" rx="10" fill="#FDE679"/><path d="M166.12 114.7h-5.8l-.2 3.76 1.48.12c1.84.133 3.133.513 3.88 1.14.76.627 1.133 1.673 1.12 3.14 0 .48-.033.92-.1 1.32-.067.387-.2.78-.4 1.18-.187.387-.44.713-.76.98s-.753.487-1.3.66c-.533.16-1.167.24-1.9.24-1.28 0-2.647-.167-4.1-.5l.2-1.42c1.347.24 2.513.36 3.5.36 1.227 0 2.047-.22 2.46-.66.427-.44.653-1.16.68-2.16a4.342 4.342 0 0 0-.08-1.08 1.375 1.375 0 0 0-.38-.76 2.257 2.257 0 0 0-.56-.48c-.173-.12-.487-.22-.94-.3-.44-.08-.833-.133-1.18-.16-.347-.04-.873-.08-1.58-.12l-.92-.06a.846.846 0 0 1-.5-.24.75.75 0 0 1-.16-.54l.32-5.92h7.3l-.08 1.5zm13.036 2.56l.14 1.56c.533-.56 1.16-1 1.88-1.32.733-.32 1.453-.48 2.16-.48 1.173 0 2.026.427 2.56 1.28.533.853.8 2.147.8 3.88 0 1.84-.294 3.147-.88 3.92-.587.76-1.52 1.14-2.8 1.14a6.78 6.78 0 0 1-3.6-1c.053.56.066 1.213.04 1.96v2.82h-1.68v-13.76h1.38zm.3 2.74v5.16c1.36.4 2.4.6 3.12.6.88 0 1.493-.247 1.84-.74.346-.493.52-1.44.52-2.84 0-1.36-.167-2.313-.5-2.86-.32-.547-.867-.82-1.64-.82-.894 0-2.007.5-3.34 1.5zm12.02-1.28l-.16-1.26c1.813-.293 3.387-.44 4.72-.44 1.133 0 1.967.24 2.5.72.547.467.82 1.267.82 2.4V127h-1.34l-.2-1.6c-.467.48-1.053.9-1.76 1.26a4.978 4.978 0 0 1-2.26.52c-.893 0-1.6-.233-2.12-.7-.52-.48-.78-1.153-.78-2.02v-1.06c0-.76.233-1.347.7-1.76.48-.427 1.147-.64 2-.64h4.06v-.86c-.013-.613-.16-1.047-.44-1.3-.28-.253-.793-.38-1.54-.38-.947 0-2.347.087-4.2.26zm1.14 4.92v.62c0 .507.12.88.36 1.12.253.227.64.34 1.16.34.52.013 1.1-.107 1.74-.36a6.075 6.075 0 0 0 1.78-1.1v-1.96h-3.76c-.853.04-1.28.487-1.28 1.34zm20.475-6.38l-3.88 10.28c-.52 1.36-1.133 2.307-1.84 2.84-.853.64-2.06.853-3.62.64l.16-1.18c1.053.053 1.833-.093 2.34-.44.547-.387 1-1.047 1.36-1.98l.18-.42h-.38c-.307 0-.513-.147-.62-.44l-3.52-9.3h1.82l2.58 7.26c.147.44.267.833.36 1.18h.28c.093-.267.227-.66.4-1.18l2.56-7.26h1.82zm12.485 0V127h-1.68v-4.52h-5.12V127h-1.68v-9.74h1.68v3.92h5.12v-3.92h1.68zm14.56 8.38v4.24h-1.12l-.14-2.88h-7.88l-.16 2.88h-1.1v-4.24h1.12c.814-1.64 1.3-3.687 1.46-6.14.107-1.493.934-2.24 2.48-2.24h4v8.38h1.34zm-2.96 0v-7.04h-2.1c-.746 0-1.153.393-1.22 1.18-.173 2.427-.66 4.38-1.46 5.86h4.78z" fill="#0097A7"/></svg>