<svg width="378" height="240" viewBox="0 0 378 240" fill="none" xmlns="http://www.w3.org/2000/svg">
<rect width="378" height="240" rx="5" fill="url(#paint0_linear)"/>
<rect x="12" y="95" width="354" height="50" rx="5" fill="#243555"/>
<path d="M162.412 120.15C162.412 124.615 161.691 127.932 160.25 130.1C158.82 132.268 156.629 133.352 153.676 133.352C150.816 133.352 148.648 132.232 147.172 129.994C145.695 127.756 144.957 124.475 144.957 120.15C144.957 115.615 145.672 112.275 147.102 110.131C148.543 107.975 150.734 106.896 153.676 106.896C156.547 106.896 158.721 108.021 160.197 110.271C161.674 112.521 162.412 115.814 162.412 120.15ZM149.141 120.15C149.141 123.654 149.498 126.156 150.213 127.656C150.939 129.156 152.094 129.906 153.676 129.906C155.258 129.906 156.412 129.145 157.139 127.621C157.877 126.098 158.246 123.607 158.246 120.15C158.246 116.705 157.877 114.215 157.139 112.68C156.412 111.133 155.258 110.359 153.676 110.359C152.094 110.359 150.939 111.115 150.213 112.627C149.498 114.139 149.141 116.646 149.141 120.15ZM182.979 120.15C182.979 124.615 182.258 127.932 180.816 130.1C179.387 132.268 177.195 133.352 174.242 133.352C171.383 133.352 169.215 132.232 167.738 129.994C166.262 127.756 165.523 124.475 165.523 120.15C165.523 115.615 166.238 112.275 167.668 110.131C169.109 107.975 171.301 106.896 174.242 106.896C177.113 106.896 179.287 108.021 180.764 110.271C182.24 112.521 182.979 115.814 182.979 120.15ZM169.707 120.15C169.707 123.654 170.064 126.156 170.779 127.656C171.506 129.156 172.66 129.906 174.242 129.906C175.824 129.906 176.979 129.145 177.705 127.621C178.443 126.098 178.812 123.607 178.812 120.15C178.812 116.705 178.443 114.215 177.705 112.68C176.979 111.133 175.824 110.359 174.242 110.359C172.66 110.359 171.506 111.115 170.779 112.627C170.064 114.139 169.707 116.646 169.707 120.15ZM186.881 130.803C186.881 129.947 187.104 129.291 187.549 128.834C187.994 128.377 188.639 128.148 189.482 128.148C190.338 128.148 190.988 128.389 191.434 128.869C191.879 129.338 192.102 129.982 192.102 130.803C192.102 131.635 191.873 132.297 191.416 132.789C190.971 133.27 190.326 133.51 189.482 133.51C188.639 133.51 187.994 133.27 187.549 132.789C187.104 132.309 186.881 131.646 186.881 130.803ZM186.881 115.791C186.881 114.021 187.748 113.137 189.482 113.137C190.361 113.137 191.018 113.371 191.451 113.84C191.885 114.309 192.102 114.959 192.102 115.791C192.102 116.623 191.873 117.285 191.416 117.777C190.971 118.258 190.326 118.498 189.482 118.498C188.639 118.498 187.994 118.258 187.549 117.777C187.104 117.297 186.881 116.635 186.881 115.791ZM208.168 133H204.037V116.406C204.037 114.426 204.084 112.855 204.178 111.695C203.908 111.977 203.574 112.287 203.176 112.627C202.789 112.967 201.477 114.045 199.238 115.861L197.164 113.242L204.723 107.301H208.168V133ZM225.324 116.951C227.914 116.951 229.965 117.637 231.477 119.008C232.988 120.379 233.744 122.248 233.744 124.615C233.744 127.357 232.883 129.502 231.16 131.049C229.449 132.584 227.012 133.352 223.848 133.352C220.977 133.352 218.721 132.889 217.08 131.963V128.219C218.029 128.758 219.119 129.174 220.35 129.467C221.58 129.76 222.723 129.906 223.777 129.906C225.641 129.906 227.059 129.49 228.031 128.658C229.004 127.826 229.49 126.607 229.49 125.002C229.49 121.932 227.533 120.396 223.619 120.396C223.068 120.396 222.389 120.455 221.58 120.572C220.771 120.678 220.062 120.801 219.453 120.941L217.607 119.852L218.592 107.301H231.951V110.975H222.23L221.65 117.338C222.061 117.268 222.559 117.186 223.145 117.092C223.742 116.998 224.469 116.951 225.324 116.951Z" fill="white"/>
<rect x="323" y="103" width="34" height="34" rx="17" fill="#006064"/>
<rect x="323" y="103" width="34" height="34" rx="17" fill="#008287"/>
<rect x="336" y="114" width="3" height="13" fill="white"/>
<rect x="341.753" y="114" width="3" height="13" fill="white"/>
<path d="M33.3984 126H31.5625V118.625C31.5625 117.745 31.5833 117.047 31.625 116.531C31.5052 116.656 31.3568 116.794 31.1797 116.945C31.0078 117.096 30.4245 117.576 29.4297 118.383L28.5078 117.219L31.8672 114.578H33.3984V126ZM46.2969 126.156C45.2031 126.156 44.3542 125.763 43.75 124.977H43.6406C43.7135 125.706 43.75 126.148 43.75 126.305V129.844H41.9141V117.359H43.3984C43.4401 117.521 43.526 117.906 43.6562 118.516H43.75C44.3229 117.641 45.1823 117.203 46.3281 117.203C47.4062 117.203 48.2448 117.594 48.8438 118.375C49.4479 119.156 49.75 120.253 49.75 121.664C49.75 123.076 49.4427 124.177 48.8281 124.969C48.2188 125.76 47.375 126.156 46.2969 126.156ZM45.8516 118.703C45.1224 118.703 44.5885 118.917 44.25 119.344C43.9167 119.771 43.75 120.453 43.75 121.391V121.664C43.75 122.716 43.9167 123.479 44.25 123.953C44.5833 124.422 45.1276 124.656 45.8828 124.656C46.5182 124.656 47.0078 124.396 47.3516 123.875C47.6953 123.354 47.8672 122.612 47.8672 121.648C47.8672 120.68 47.6953 119.948 47.3516 119.453C47.013 118.953 46.513 118.703 45.8516 118.703ZM57.2891 126L56.9219 124.797H56.8594C56.4427 125.323 56.0234 125.682 55.6016 125.875C55.1797 126.062 54.638 126.156 53.9766 126.156C53.1276 126.156 52.4635 125.927 51.9844 125.469C51.5104 125.01 51.2734 124.362 51.2734 123.523C51.2734 122.633 51.6042 121.961 52.2656 121.508C52.9271 121.055 53.9349 120.807 55.2891 120.766L56.7812 120.719V120.258C56.7812 119.706 56.651 119.294 56.3906 119.023C56.1354 118.747 55.737 118.609 55.1953 118.609C54.7526 118.609 54.3281 118.674 53.9219 118.805C53.5156 118.935 53.125 119.089 52.75 119.266L52.1562 117.953C52.625 117.708 53.138 117.523 53.6953 117.398C54.2526 117.268 54.7786 117.203 55.2734 117.203C56.3724 117.203 57.2005 117.443 57.7578 117.922C58.3203 118.401 58.6016 119.154 58.6016 120.18V126H57.2891ZM54.5547 124.75C55.2214 124.75 55.7552 124.565 56.1562 124.195C56.5625 123.82 56.7656 123.297 56.7656 122.625V121.875L55.6562 121.922C54.7917 121.953 54.1615 122.099 53.7656 122.359C53.375 122.615 53.1797 123.008 53.1797 123.539C53.1797 123.924 53.2943 124.224 53.5234 124.438C53.7526 124.646 54.0964 124.75 54.5547 124.75ZM59.8516 117.359H61.8516L63.6094 122.258C63.875 122.956 64.0521 123.612 64.1406 124.227H64.2031C64.25 123.94 64.3359 123.594 64.4609 123.188C64.5859 122.776 65.2474 120.833 66.4453 117.359H68.4297L64.7344 127.148C64.0625 128.945 62.9427 129.844 61.375 129.844C60.9688 129.844 60.5729 129.799 60.1875 129.711V128.258C60.4635 128.32 60.7786 128.352 61.1328 128.352C62.0182 128.352 62.6406 127.839 63 126.812L63.3203 126L59.8516 117.359ZM71.5781 117.359V120.828H75.6484V117.359H77.4844V126H75.6484V122.273H71.5781V126H69.7422V117.359H71.5781ZM88.4062 129.055H86.6953V126H80.7734V129.055H79.0781V124.578H79.7812C80.3958 123.698 80.8828 122.635 81.2422 121.391C81.6068 120.141 81.8229 118.797 81.8906 117.359H87.1406V124.578H88.4062V129.055ZM85.3359 124.578V118.766H83.4766C83.3776 119.839 83.1693 120.896 82.8516 121.938C82.5391 122.979 82.1562 123.859 81.7031 124.578H85.3359Z" fill="white"/>
<defs>
<linearGradient id="paint0_linear" x1="189" y1="0" x2="189" y2="240" gradientUnits="userSpaceOnUse">
<stop stop-color="#006064"/>
<stop offset="1" stop-color="#243555"/>
</linearGradient>
</defs>
</svg>
