<svg width="400" height="240" fill="none" xmlns="http://www.w3.org/2000/svg"><path fill="#FFF3E0" d="M0 0h400v240H0z"/><path d="M128.85 100c1.767-2.767 4.833-4.15 9.2-4.15 4.367 0 7.433 1.383 9.2 4.15 1.8 2.767 2.7 7.35 2.7 13.75s-.9 10.983-2.7 13.75c-1.767 2.767-4.833 4.15-9.2 4.15-4.367 0-7.433-1.383-9.2-4.15-1.767-2.767-2.65-7.35-2.65-13.75s.883-10.983 2.65-13.75zm15.1 2.85c-1.1-2.1-3.067-3.15-5.9-3.15s-4.8 1.05-5.9 3.15c-1.1 2.1-1.65 5.733-1.65 10.9 0 5.167.55 8.8 1.65 10.9 1.1 2.1 3.067 3.15 5.9 3.15s4.8-1.05 5.9-3.15c1.133-2.1 1.7-5.733 1.7-10.9 0-5.167-.567-8.8-1.7-10.9zm20.027-2.85c1.767-2.767 4.833-4.15 9.2-4.15 4.367 0 7.433 1.383 9.2 4.15 1.8 2.767 2.7 7.35 2.7 13.75s-.9 10.983-2.7 13.75c-1.767 2.767-4.833 4.15-9.2 4.15-4.367 0-7.433-1.383-9.2-4.15-1.767-2.767-2.65-7.35-2.65-13.75s.883-10.983 2.65-13.75zm15.1 2.85c-1.1-2.1-3.067-3.15-5.9-3.15s-4.8 1.05-5.9 3.15c-1.1 2.1-1.65 5.733-1.65 10.9 0 5.167.55 8.8 1.65 10.9 1.1 2.1 3.067 3.15 5.9 3.15s4.8-1.05 5.9-3.15c1.133-2.1 1.7-5.733 1.7-10.9 0-5.167-.567-8.8-1.7-10.9zm19.227 6.15h1.4c.567 0 .967.117 1.2.35.267.233.4.633.4 1.2v2.75c0 .6-.133 1.017-.4 1.25-.233.233-.633.35-1.2.35h-1.4c-.567 0-.983-.117-1.25-.35-.233-.233-.35-.65-.35-1.25v-2.75c0-.567.117-.967.35-1.2.267-.233.683-.35 1.25-.35zm0 16.1h1.4c.567 0 .967.117 1.2.35.267.233.4.65.4 1.25v2.7c0 .6-.133 1.017-.4 1.25-.233.233-.633.35-1.2.35h-1.4c-.567 0-.983-.117-1.25-.35-.233-.233-.35-.65-.35-1.25v-2.7c0-.6.117-1.017.35-1.25.267-.233.683-.35 1.25-.35zM215.92 100c1.767-2.767 4.834-4.15 9.2-4.15 4.367 0 7.434 1.383 9.2 4.15 1.8 2.767 2.7 7.35 2.7 13.75s-.9 10.983-2.7 13.75c-1.766 2.767-4.833 4.15-9.2 4.15-4.366 0-7.433-1.383-9.2-4.15-1.766-2.767-2.65-7.35-2.65-13.75s.884-10.983 2.65-13.75zm15.1 2.85c-1.1-2.1-3.066-3.15-5.9-3.15-2.833 0-4.8 1.05-5.9 3.15-1.1 2.1-1.65 5.733-1.65 10.9 0 5.167.55 8.8 1.65 10.9 1.1 2.1 3.067 3.15 5.9 3.15 2.834 0 4.8-1.05 5.9-3.15 1.134-2.1 1.7-5.733 1.7-10.9 0-5.167-.566-8.8-1.7-10.9zm36.977-2.6h-14.5l-.5 9.4 3.7.3c4.6.333 7.834 1.283 9.7 2.85 1.9 1.567 2.834 4.183 2.8 7.85 0 1.2-.083 2.3-.25 3.3-.166.967-.5 1.95-1 2.95a7.24 7.24 0 0 1-1.9 2.45c-.8.667-1.883 1.217-3.25 1.65-1.333.4-2.916.6-4.75.6-3.2 0-6.616-.417-10.25-1.25l.5-3.55c3.367.6 6.284.9 8.75.9 3.067 0 5.117-.55 6.15-1.65 1.067-1.1 1.634-2.9 1.7-5.4.034-1.067-.033-1.967-.2-2.7-.133-.767-.45-1.4-.95-1.9-.466-.533-.933-.933-1.4-1.2-.433-.3-1.216-.55-2.35-.75-1.1-.2-2.083-.333-2.95-.4-.866-.1-2.183-.2-3.95-.3l-2.3-.15a2.114 2.114 0 0 1-1.25-.6c-.3-.367-.433-.817-.4-1.35l.8-14.8h18.25l-.2 3.75z" fill="#0097A7"/></svg>