<svg width="400" height="250" viewBox="0 0 400 250" fill="none" xmlns="http://www.w3.org/2000/svg">
<rect x="200" y="51" width="50" height="50" fill="url(#paint0_radial)"/>
<path fill-rule="evenodd" clip-rule="evenodd" d="M213.106 66.364L213.106 66.364L213.106 66.3639C210.763 64.0209 206.964 64.0208 204.621 66.3638L202.5 64.2425C206.015 60.7278 211.713 60.7278 215.228 64.2424L219.47 60L219.47 60L215.228 64.2425L215.228 64.2425L215.228 64.2425C217.571 66.5856 221.37 66.5856 223.713 64.2427L225.834 66.364C222.32 69.8787 216.621 69.8787 213.106 66.364L208.864 70.6065L208.864 70.6064L213.106 66.364ZM234.32 66.364L236.441 64.2427C238.785 66.5856 242.583 66.5856 244.926 64.2425L240.684 60L240.684 60L247.048 66.364C243.533 69.8787 237.835 69.8787 234.32 66.364ZM236.441 64.2425C232.926 60.7278 227.228 60.7278 223.713 64.2425L230.077 70.6065L230.077 70.6064L225.835 66.364C228.178 64.0209 231.977 64.0208 234.32 66.3638L236.441 64.2425Z" fill="#E8FEFB"/>
<path fill-rule="evenodd" clip-rule="evenodd" d="M247.048 76.864C243.533 80.3787 237.835 80.3787 234.32 76.864L236.441 74.7427C238.785 77.0856 242.583 77.0856 244.926 74.7425L240.684 70.5L240.684 70.5L247.048 76.864ZM213.106 76.864L213.106 76.864L213.106 76.8639C210.763 74.5209 206.964 74.5208 204.621 76.8638L202.5 74.7425C206.015 71.2278 211.713 71.2278 215.228 74.7424L219.47 70.5L219.47 70.5L215.228 74.7425L215.228 74.7425L215.228 74.7425C217.571 77.0856 221.37 77.0856 223.713 74.7427L225.834 76.864C222.32 80.3787 216.621 80.3787 213.106 76.864L208.864 81.1065L208.864 81.1064L213.106 76.864ZM236.441 74.7425C232.926 71.2278 227.228 71.2278 223.713 74.7425L230.077 81.1065L230.077 81.1064L225.835 76.864C228.178 74.5209 231.977 74.5208 234.32 76.8638L236.441 74.7425Z" fill="#E8FEFB"/>
<path fill-rule="evenodd" clip-rule="evenodd" d="M213.106 87.364L213.106 87.364L213.106 87.3639C210.763 85.0209 206.964 85.0208 204.621 87.3638L202.5 85.2425C206.015 81.7278 211.713 81.7278 215.228 85.2424L219.47 81L219.47 81L215.228 85.2425L215.228 85.2425L215.228 85.2425C217.571 87.5856 221.37 87.5856 223.713 85.2427L225.834 87.364C222.32 90.8787 216.621 90.8787 213.106 87.364L208.864 91.6065L208.864 91.6064L213.106 87.364ZM234.32 87.364L236.441 85.2427C238.785 87.5856 242.583 87.5856 244.926 85.2425L240.684 81L240.684 81L247.048 87.364C243.533 90.8787 237.835 90.8787 234.32 87.364ZM236.441 85.2425C232.926 81.7278 227.228 81.7278 223.713 85.2425L230.077 91.6065L230.077 91.6064L225.835 87.364C228.178 85.0209 231.977 85.0208 234.32 87.3638L236.441 85.2425Z" fill="#E8FEFB"/>
<rect x="250" y="150" width="50" height="50" fill="url(#paint1_radial)"/>
<path fill-rule="evenodd" clip-rule="evenodd" d="M263.106 165.364L263.106 165.364L263.106 165.364C260.763 163.021 256.964 163.021 254.621 165.364L252.5 163.243C256.015 159.728 261.713 159.728 265.228 163.242L269.47 159L269.47 159L265.228 163.242L265.228 163.243L265.228 163.243C267.571 165.586 271.37 165.586 273.713 163.243L275.834 165.364C272.32 168.879 266.621 168.879 263.106 165.364L258.864 169.606L258.864 169.606L263.106 165.364ZM284.32 165.364L286.441 163.243C288.785 165.586 292.583 165.586 294.926 163.243L290.684 159L290.684 159L297.048 165.364C293.533 168.879 287.835 168.879 284.32 165.364ZM286.441 163.243C282.926 159.728 277.228 159.728 273.713 163.243L280.077 169.606L280.077 169.606L275.835 165.364C278.178 163.021 281.977 163.021 284.32 165.364L286.441 163.243Z" fill="#E8FEFB"/>
<path fill-rule="evenodd" clip-rule="evenodd" d="M297.048 175.864C293.533 179.379 287.835 179.379 284.32 175.864L286.441 173.743C288.785 176.086 292.583 176.086 294.926 173.743L290.684 169.5L290.684 169.5L297.048 175.864ZM263.106 175.864L263.106 175.864L263.106 175.864C260.763 173.521 256.964 173.521 254.621 175.864L252.5 173.743C256.015 170.228 261.713 170.228 265.228 173.742L269.47 169.5L269.47 169.5L265.228 173.742L265.228 173.743L265.228 173.743C267.571 176.086 271.37 176.086 273.713 173.743L275.834 175.864C272.32 179.379 266.621 179.379 263.106 175.864L258.864 180.106L258.864 180.106L263.106 175.864ZM286.441 173.743C282.926 170.228 277.228 170.228 273.713 173.743L280.077 180.106L280.077 180.106L275.835 175.864C278.178 173.521 281.977 173.521 284.32 175.864L286.441 173.743Z" fill="#E8FEFB"/>
<path fill-rule="evenodd" clip-rule="evenodd" d="M263.106 186.364L263.106 186.364L263.106 186.364C260.763 184.021 256.964 184.021 254.621 186.364L252.5 184.243C256.015 180.728 261.713 180.728 265.228 184.242L269.47 180L269.47 180L265.228 184.242L265.228 184.243L265.228 184.243C267.571 186.586 271.37 186.586 273.713 184.243L275.834 186.364C272.32 189.879 266.621 189.879 263.106 186.364L258.864 190.606L258.864 190.606L263.106 186.364ZM284.32 186.364L286.441 184.243C288.785 186.586 292.583 186.586 294.926 184.243L290.684 180L290.684 180L297.048 186.364C293.533 189.879 287.835 189.879 284.32 186.364ZM286.441 184.243C282.926 180.728 277.228 180.728 273.713 184.243L280.077 190.606L280.077 190.606L275.835 186.364C278.178 184.021 281.977 184.021 284.32 186.364L286.441 184.243Z" fill="#E8FEFB"/>
<rect x="250" y="101" width="50" height="50" fill="url(#paint2_radial)"/>
<path fill-rule="evenodd" clip-rule="evenodd" d="M263.106 116.364L263.106 116.364L263.106 116.364C260.763 114.021 256.964 114.021 254.621 116.364L252.5 114.243C256.015 110.728 261.713 110.728 265.228 114.242L269.47 110L269.47 110L265.228 114.242L265.228 114.243L265.228 114.243C267.571 116.586 271.37 116.586 273.713 114.243L275.834 116.364C272.32 119.879 266.621 119.879 263.106 116.364L258.864 120.606L258.864 120.606L263.106 116.364ZM284.32 116.364L286.441 114.243C288.785 116.586 292.583 116.586 294.926 114.243L290.684 110L290.684 110L297.048 116.364C293.533 119.879 287.835 119.879 284.32 116.364ZM286.441 114.243C282.926 110.728 277.228 110.728 273.713 114.243L280.077 120.606L280.077 120.606L275.835 116.364C278.178 114.021 281.977 114.021 284.32 116.364L286.441 114.243Z" fill="#E8FEFB"/>
<path fill-rule="evenodd" clip-rule="evenodd" d="M297.048 126.864C293.533 130.379 287.835 130.379 284.32 126.864L286.441 124.743C288.785 127.086 292.583 127.086 294.926 124.743L290.684 120.5L290.684 120.5L297.048 126.864ZM263.106 126.864L263.106 126.864L263.106 126.864C260.763 124.521 256.964 124.521 254.621 126.864L252.5 124.743C256.015 121.228 261.713 121.228 265.228 124.742L269.47 120.5L269.47 120.5L265.228 124.742L265.228 124.743L265.228 124.743C267.571 127.086 271.37 127.086 273.713 124.743L275.834 126.864C272.32 130.379 266.621 130.379 263.106 126.864L258.864 131.106L258.864 131.106L263.106 126.864ZM286.441 124.743C282.926 121.228 277.228 121.228 273.713 124.743L280.077 131.106L280.077 131.106L275.835 126.864C278.178 124.521 281.977 124.521 284.32 126.864L286.441 124.743Z" fill="#E8FEFB"/>
<path fill-rule="evenodd" clip-rule="evenodd" d="M263.106 137.364L263.106 137.364L263.106 137.364C260.763 135.021 256.964 135.021 254.621 137.364L252.5 135.243C256.015 131.728 261.713 131.728 265.228 135.242L269.47 131L269.47 131L265.228 135.242L265.228 135.243L265.228 135.243C267.571 137.586 271.37 137.586 273.713 135.243L275.834 137.364C272.32 140.879 266.621 140.879 263.106 137.364L258.864 141.606L258.864 141.606L263.106 137.364ZM284.32 137.364L286.441 135.243C288.785 137.586 292.583 137.586 294.926 135.243L290.684 131L290.684 131L297.048 137.364C293.533 140.879 287.835 140.879 284.32 137.364ZM286.441 135.243C282.926 131.728 277.228 131.728 273.713 135.243L280.077 141.606L280.077 141.606L275.835 137.364C278.178 135.021 281.977 135.021 284.32 137.364L286.441 135.243Z" fill="#E8FEFB"/>
<rect x="250" y="51" width="50" height="50" fill="url(#paint3_radial)"/>
<path fill-rule="evenodd" clip-rule="evenodd" d="M263.106 66.364L263.106 66.364L263.106 66.3639C260.763 64.0209 256.964 64.0208 254.621 66.3638L252.5 64.2425C256.015 60.7278 261.713 60.7278 265.228 64.2424L269.47 60L269.47 60L265.228 64.2425L265.228 64.2425L265.228 64.2425C267.571 66.5856 271.37 66.5856 273.713 64.2427L275.834 66.364C272.32 69.8787 266.621 69.8787 263.106 66.364L258.864 70.6065L258.864 70.6064L263.106 66.364ZM284.32 66.364L286.441 64.2427C288.785 66.5856 292.583 66.5856 294.926 64.2425L290.684 60L290.684 60L297.048 66.364C293.533 69.8787 287.835 69.8787 284.32 66.364ZM286.441 64.2425C282.926 60.7278 277.228 60.7278 273.713 64.2425L280.077 70.6065L280.077 70.6064L275.835 66.364C278.178 64.0209 281.977 64.0208 284.32 66.3638L286.441 64.2425Z" fill="#E8FEFB"/>
<path fill-rule="evenodd" clip-rule="evenodd" d="M297.048 76.864C293.533 80.3787 287.835 80.3787 284.32 76.864L286.441 74.7427C288.785 77.0856 292.583 77.0856 294.926 74.7425L290.684 70.5L290.684 70.5L297.048 76.864ZM263.106 76.864L263.106 76.864L263.106 76.8639C260.763 74.5209 256.964 74.5208 254.621 76.8638L252.5 74.7425C256.015 71.2278 261.713 71.2278 265.228 74.7424L269.47 70.5L269.47 70.5L265.228 74.7425L265.228 74.7425L265.228 74.7425C267.571 77.0856 271.37 77.0856 273.713 74.7427L275.834 76.864C272.32 80.3787 266.621 80.3787 263.106 76.864L258.864 81.1065L258.864 81.1064L263.106 76.864ZM286.441 74.7425C282.926 71.2278 277.228 71.2278 273.713 74.7425L280.077 81.1065L280.077 81.1064L275.835 76.864C278.178 74.5209 281.977 74.5208 284.32 76.8638L286.441 74.7425Z" fill="#E8FEFB"/>
<path fill-rule="evenodd" clip-rule="evenodd" d="M263.106 87.364L263.106 87.364L263.106 87.3639C260.763 85.0209 256.964 85.0208 254.621 87.3638L252.5 85.2425C256.015 81.7278 261.713 81.7278 265.228 85.2424L269.47 81L269.47 81L265.228 85.2425L265.228 85.2425L265.228 85.2425C267.571 87.5856 271.37 87.5856 273.713 85.2427L275.834 87.364C272.32 90.8787 266.621 90.8787 263.106 87.364L258.864 91.6065L258.864 91.6064L263.106 87.364ZM284.32 87.364L286.441 85.2427C288.785 87.5856 292.583 87.5856 294.926 85.2425L290.684 81L290.684 81L297.048 87.364C293.533 90.8787 287.835 90.8787 284.32 87.364ZM286.441 85.2425C282.926 81.7278 277.228 81.7278 273.713 85.2425L280.077 91.6065L280.077 91.6064L275.835 87.364C278.178 85.0209 281.977 85.0208 284.32 87.3638L286.441 85.2425Z" fill="#E8FEFB"/>
<rect x="200" y="150" width="50" height="50" fill="url(#paint4_radial)"/>
<path fill-rule="evenodd" clip-rule="evenodd" d="M213.106 165.364L213.106 165.364L213.106 165.364C210.763 163.021 206.964 163.021 204.621 165.364L202.5 163.243C206.015 159.728 211.713 159.728 215.228 163.242L219.47 159L219.47 159L215.228 163.242L215.228 163.243L215.228 163.243C217.571 165.586 221.37 165.586 223.713 163.243L225.834 165.364C222.32 168.879 216.621 168.879 213.106 165.364L208.864 169.606L208.864 169.606L213.106 165.364ZM234.32 165.364L236.441 163.243C238.785 165.586 242.583 165.586 244.926 163.243L240.684 159L240.684 159L247.048 165.364C243.533 168.879 237.835 168.879 234.32 165.364ZM236.441 163.243C232.926 159.728 227.228 159.728 223.713 163.243L230.077 169.606L230.077 169.606L225.835 165.364C228.178 163.021 231.977 163.021 234.32 165.364L236.441 163.243Z" fill="#E8FEFB"/>
<path fill-rule="evenodd" clip-rule="evenodd" d="M247.048 175.864C243.533 179.379 237.835 179.379 234.32 175.864L236.441 173.743C238.785 176.086 242.583 176.086 244.926 173.743L240.684 169.5L240.684 169.5L247.048 175.864ZM213.106 175.864L213.106 175.864L213.106 175.864C210.763 173.521 206.964 173.521 204.621 175.864L202.5 173.743C206.015 170.228 211.713 170.228 215.228 173.742L219.47 169.5L219.47 169.5L215.228 173.742L215.228 173.743L215.228 173.743C217.571 176.086 221.37 176.086 223.713 173.743L225.834 175.864C222.32 179.379 216.621 179.379 213.106 175.864L208.864 180.106L208.864 180.106L213.106 175.864ZM236.441 173.743C232.926 170.228 227.228 170.228 223.713 173.743L230.077 180.106L230.077 180.106L225.835 175.864C228.178 173.521 231.977 173.521 234.32 175.864L236.441 173.743Z" fill="#E8FEFB"/>
<path fill-rule="evenodd" clip-rule="evenodd" d="M213.106 186.364L213.106 186.364L213.106 186.364C210.763 184.021 206.964 184.021 204.621 186.364L202.5 184.243C206.015 180.728 211.713 180.728 215.228 184.242L219.47 180L219.47 180L215.228 184.242L215.228 184.243L215.228 184.243C217.571 186.586 221.37 186.586 223.713 184.243L225.834 186.364C222.32 189.879 216.621 189.879 213.106 186.364L208.864 190.606L208.864 190.606L213.106 186.364ZM234.32 186.364L236.441 184.243C238.785 186.586 242.583 186.586 244.926 184.243L240.684 180L240.684 180L247.048 186.364C243.533 189.879 237.835 189.879 234.32 186.364ZM236.441 184.243C232.926 180.728 227.228 180.728 223.713 184.243L230.077 190.606L230.077 190.606L225.835 186.364C228.178 184.021 231.977 184.021 234.32 186.364L236.441 184.243Z" fill="#E8FEFB"/>
<rect x="150" y="150" width="50" height="50" fill="url(#paint5_radial)"/>
<path fill-rule="evenodd" clip-rule="evenodd" d="M163.106 165.364L163.106 165.364L163.106 165.364C160.763 163.021 156.964 163.021 154.621 165.364L152.5 163.243C156.015 159.728 161.713 159.728 165.228 163.242L169.47 159L169.47 159L165.228 163.242L165.228 163.243L165.228 163.243C167.571 165.586 171.37 165.586 173.713 163.243L175.834 165.364C172.32 168.879 166.621 168.879 163.106 165.364L158.864 169.606L158.864 169.606L163.106 165.364ZM184.32 165.364L186.441 163.243C188.785 165.586 192.583 165.586 194.926 163.243L190.684 159L190.684 159L197.048 165.364C193.533 168.879 187.835 168.879 184.32 165.364ZM186.441 163.243C182.926 159.728 177.228 159.728 173.713 163.243L180.077 169.606L180.077 169.606L175.835 165.364C178.178 163.021 181.977 163.021 184.32 165.364L186.441 163.243Z" fill="#E8FEFB"/>
<path fill-rule="evenodd" clip-rule="evenodd" d="M197.048 175.864C193.533 179.379 187.835 179.379 184.32 175.864L186.441 173.743C188.785 176.086 192.583 176.086 194.926 173.743L190.684 169.5L190.684 169.5L197.048 175.864ZM163.106 175.864L163.106 175.864L163.106 175.864C160.763 173.521 156.964 173.521 154.621 175.864L152.5 173.743C156.015 170.228 161.713 170.228 165.228 173.742L169.47 169.5L169.47 169.5L165.228 173.742L165.228 173.743L165.228 173.743C167.571 176.086 171.37 176.086 173.713 173.743L175.834 175.864C172.32 179.379 166.621 179.379 163.106 175.864L158.864 180.106L158.864 180.106L163.106 175.864ZM186.441 173.743C182.926 170.228 177.228 170.228 173.713 173.743L180.077 180.106L180.077 180.106L175.835 175.864C178.178 173.521 181.977 173.521 184.32 175.864L186.441 173.743Z" fill="#E8FEFB"/>
<path fill-rule="evenodd" clip-rule="evenodd" d="M163.106 186.364L163.106 186.364L163.106 186.364C160.763 184.021 156.964 184.021 154.621 186.364L152.5 184.243C156.015 180.728 161.713 180.728 165.228 184.242L169.47 180L169.47 180L165.228 184.242L165.228 184.243L165.228 184.243C167.571 186.586 171.37 186.586 173.713 184.243L175.834 186.364C172.32 189.879 166.621 189.879 163.106 186.364L158.864 190.606L158.864 190.606L163.106 186.364ZM184.32 186.364L186.441 184.243C188.785 186.586 192.583 186.586 194.926 184.243L190.684 180L190.684 180L197.048 186.364C193.533 189.879 187.835 189.879 184.32 186.364ZM186.441 184.243C182.926 180.728 177.228 180.728 173.713 184.243L180.077 190.606L180.077 190.606L175.835 186.364C178.178 184.021 181.977 184.021 184.32 186.364L186.441 184.243Z" fill="#E8FEFB"/>
<rect x="100" y="150" width="50" height="50" fill="url(#paint6_radial)"/>
<path fill-rule="evenodd" clip-rule="evenodd" d="M113.106 165.364L113.106 165.364L113.106 165.364C110.763 163.021 106.964 163.021 104.621 165.364L102.5 163.243C106.015 159.728 111.713 159.728 115.228 163.242L119.47 159L119.47 159L115.228 163.242L115.228 163.243L115.228 163.243C117.571 165.586 121.37 165.586 123.713 163.243L125.834 165.364C122.32 168.879 116.621 168.879 113.106 165.364L108.864 169.606L108.864 169.606L113.106 165.364ZM134.32 165.364L136.441 163.243C138.785 165.586 142.583 165.586 144.926 163.243L140.684 159L140.684 159L147.048 165.364C143.533 168.879 137.835 168.879 134.32 165.364ZM136.441 163.243C132.926 159.728 127.228 159.728 123.713 163.243L130.077 169.606L130.077 169.606L125.835 165.364C128.178 163.021 131.977 163.021 134.32 165.364L136.441 163.243Z" fill="#E8FEFB"/>
<path fill-rule="evenodd" clip-rule="evenodd" d="M147.048 175.864C143.533 179.379 137.835 179.379 134.32 175.864L136.441 173.743C138.785 176.086 142.583 176.086 144.926 173.743L140.684 169.5L140.684 169.5L147.048 175.864ZM113.106 175.864L113.106 175.864L113.106 175.864C110.763 173.521 106.964 173.521 104.621 175.864L102.5 173.743C106.015 170.228 111.713 170.228 115.228 173.742L119.47 169.5L119.47 169.5L115.228 173.742L115.228 173.743L115.228 173.743C117.571 176.086 121.37 176.086 123.713 173.743L125.834 175.864C122.32 179.379 116.621 179.379 113.106 175.864L108.864 180.106L108.864 180.106L113.106 175.864ZM136.441 173.743C132.926 170.228 127.228 170.228 123.713 173.743L130.077 180.106L130.077 180.106L125.835 175.864C128.178 173.521 131.977 173.521 134.32 175.864L136.441 173.743Z" fill="#E8FEFB"/>
<path fill-rule="evenodd" clip-rule="evenodd" d="M113.106 186.364L113.106 186.364L113.106 186.364C110.763 184.021 106.964 184.021 104.621 186.364L102.5 184.243C106.015 180.728 111.713 180.728 115.228 184.242L119.47 180L119.47 180L115.228 184.242L115.228 184.243L115.228 184.243C117.571 186.586 121.37 186.586 123.713 184.243L125.834 186.364C122.32 189.879 116.621 189.879 113.106 186.364L108.864 190.606L108.864 190.606L113.106 186.364ZM134.32 186.364L136.441 184.243C138.785 186.586 142.583 186.586 144.926 184.243L140.684 180L140.684 180L147.048 186.364C143.533 189.879 137.835 189.879 134.32 186.364ZM136.441 184.243C132.926 180.728 127.228 180.728 123.713 184.243L130.077 190.606L130.077 190.606L125.835 186.364C128.178 184.021 131.977 184.021 134.32 186.364L136.441 184.243Z" fill="#E8FEFB"/>
<rect x="100" y="101" width="50" height="50" fill="url(#paint7_radial)"/>
<path fill-rule="evenodd" clip-rule="evenodd" d="M113.106 116.364L113.106 116.364L113.106 116.364C110.763 114.021 106.964 114.021 104.621 116.364L102.5 114.243C106.015 110.728 111.713 110.728 115.228 114.242L119.47 110L119.47 110L115.228 114.242L115.228 114.243L115.228 114.243C117.571 116.586 121.37 116.586 123.713 114.243L125.834 116.364C122.32 119.879 116.621 119.879 113.106 116.364L108.864 120.606L108.864 120.606L113.106 116.364ZM134.32 116.364L136.441 114.243C138.785 116.586 142.583 116.586 144.926 114.243L140.684 110L140.684 110L147.048 116.364C143.533 119.879 137.835 119.879 134.32 116.364ZM136.441 114.243C132.926 110.728 127.228 110.728 123.713 114.243L130.077 120.606L130.077 120.606L125.835 116.364C128.178 114.021 131.977 114.021 134.32 116.364L136.441 114.243Z" fill="#E8FEFB"/>
<path fill-rule="evenodd" clip-rule="evenodd" d="M147.048 126.864C143.533 130.379 137.835 130.379 134.32 126.864L136.441 124.743C138.785 127.086 142.583 127.086 144.926 124.743L140.684 120.5L140.684 120.5L147.048 126.864ZM113.106 126.864L113.106 126.864L113.106 126.864C110.763 124.521 106.964 124.521 104.621 126.864L102.5 124.743C106.015 121.228 111.713 121.228 115.228 124.742L119.47 120.5L119.47 120.5L115.228 124.742L115.228 124.743L115.228 124.743C117.571 127.086 121.37 127.086 123.713 124.743L125.834 126.864C122.32 130.379 116.621 130.379 113.106 126.864L108.864 131.106L108.864 131.106L113.106 126.864ZM136.441 124.743C132.926 121.228 127.228 121.228 123.713 124.743L130.077 131.106L130.077 131.106L125.835 126.864C128.178 124.521 131.977 124.521 134.32 126.864L136.441 124.743Z" fill="#E8FEFB"/>
<path fill-rule="evenodd" clip-rule="evenodd" d="M113.106 137.364L113.106 137.364L113.106 137.364C110.763 135.021 106.964 135.021 104.621 137.364L102.5 135.243C106.015 131.728 111.713 131.728 115.228 135.242L119.47 131L119.47 131L115.228 135.242L115.228 135.243L115.228 135.243C117.571 137.586 121.37 137.586 123.713 135.243L125.834 137.364C122.32 140.879 116.621 140.879 113.106 137.364L108.864 141.606L108.864 141.606L113.106 137.364ZM134.32 137.364L136.441 135.243C138.785 137.586 142.583 137.586 144.926 135.243L140.684 131L140.684 131L147.048 137.364C143.533 140.879 137.835 140.879 134.32 137.364ZM136.441 135.243C132.926 131.728 127.228 131.728 123.713 135.243L130.077 141.606L130.077 141.606L125.835 137.364C128.178 135.021 131.977 135.021 134.32 137.364L136.441 135.243Z" fill="#E8FEFB"/>
<rect x="100" y="51" width="50" height="50" fill="url(#paint8_radial)"/>
<path fill-rule="evenodd" clip-rule="evenodd" d="M113.106 66.364L113.106 66.364L113.106 66.3639C110.763 64.0209 106.964 64.0208 104.621 66.3638L102.5 64.2425C106.015 60.7278 111.713 60.7278 115.228 64.2424L119.47 60L119.47 60L115.228 64.2425L115.228 64.2425L115.228 64.2425C117.571 66.5856 121.37 66.5856 123.713 64.2427L125.834 66.364C122.32 69.8787 116.621 69.8787 113.106 66.364L108.864 70.6065L108.864 70.6064L113.106 66.364ZM134.32 66.364L136.441 64.2427C138.785 66.5856 142.583 66.5856 144.926 64.2425L140.684 60L140.684 60L147.048 66.364C143.533 69.8787 137.835 69.8787 134.32 66.364ZM136.441 64.2425C132.926 60.7278 127.228 60.7278 123.713 64.2425L130.077 70.6065L130.077 70.6064L125.835 66.364C128.178 64.0209 131.977 64.0208 134.32 66.3638L136.441 64.2425Z" fill="#E8FEFB"/>
<path fill-rule="evenodd" clip-rule="evenodd" d="M147.048 76.864C143.533 80.3787 137.835 80.3787 134.32 76.864L136.441 74.7427C138.785 77.0856 142.583 77.0856 144.926 74.7425L140.684 70.5L140.684 70.5L147.048 76.864ZM113.106 76.864L113.106 76.864L113.106 76.8639C110.763 74.5209 106.964 74.5208 104.621 76.8638L102.5 74.7425C106.015 71.2278 111.713 71.2278 115.228 74.7424L119.47 70.5L119.47 70.5L115.228 74.7425L115.228 74.7425L115.228 74.7425C117.571 77.0856 121.37 77.0856 123.713 74.7427L125.834 76.864C122.32 80.3787 116.621 80.3787 113.106 76.864L108.864 81.1065L108.864 81.1064L113.106 76.864ZM136.441 74.7425C132.926 71.2278 127.228 71.2278 123.713 74.7425L130.077 81.1065L130.077 81.1064L125.835 76.864C128.178 74.5209 131.977 74.5208 134.32 76.8638L136.441 74.7425Z" fill="#E8FEFB"/>
<path fill-rule="evenodd" clip-rule="evenodd" d="M113.106 87.364L113.106 87.364L113.106 87.3639C110.763 85.0209 106.964 85.0208 104.621 87.3638L102.5 85.2425C106.015 81.7278 111.713 81.7278 115.228 85.2424L119.47 81L119.47 81L115.228 85.2425L115.228 85.2425L115.228 85.2425C117.571 87.5856 121.37 87.5856 123.713 85.2427L125.834 87.364C122.32 90.8787 116.621 90.8787 113.106 87.364L108.864 91.6065L108.864 91.6064L113.106 87.364ZM134.32 87.364L136.441 85.2427C138.785 87.5856 142.583 87.5856 144.926 85.2425L140.684 81L140.684 81L147.048 87.364C143.533 90.8787 137.835 90.8787 134.32 87.364ZM136.441 85.2425C132.926 81.7278 127.228 81.7278 123.713 85.2425L130.077 91.6065L130.077 91.6064L125.835 87.364C128.178 85.0209 131.977 85.0208 134.32 87.3638L136.441 85.2425Z" fill="#E8FEFB"/>
<rect x="150" y="51" width="50" height="50" fill="url(#paint9_radial)"/>
<path fill-rule="evenodd" clip-rule="evenodd" d="M163.106 66.364L163.106 66.364L163.106 66.3639C160.763 64.0209 156.964 64.0208 154.621 66.3638L152.5 64.2425C156.015 60.7278 161.713 60.7278 165.228 64.2424L169.47 60L169.47 60L165.228 64.2425L165.228 64.2425L165.228 64.2425C167.571 66.5856 171.37 66.5856 173.713 64.2427L175.834 66.364C172.32 69.8787 166.621 69.8787 163.106 66.364L158.864 70.6065L158.864 70.6064L163.106 66.364ZM184.32 66.364L186.441 64.2427C188.785 66.5856 192.583 66.5856 194.926 64.2425L190.684 60L190.684 60L197.048 66.364C193.533 69.8787 187.835 69.8787 184.32 66.364ZM186.441 64.2425C182.926 60.7278 177.228 60.7278 173.713 64.2425L180.077 70.6065L180.077 70.6064L175.835 66.364C178.178 64.0209 181.977 64.0208 184.32 66.3638L186.441 64.2425Z" fill="#E8FEFB"/>
<path fill-rule="evenodd" clip-rule="evenodd" d="M197.048 76.864C193.533 80.3787 187.835 80.3787 184.32 76.864L186.441 74.7427C188.785 77.0856 192.583 77.0856 194.926 74.7425L190.684 70.5L190.684 70.5L197.048 76.864ZM163.106 76.864L163.106 76.864L163.106 76.8639C160.763 74.5209 156.964 74.5208 154.621 76.8638L152.5 74.7425C156.015 71.2278 161.713 71.2278 165.228 74.7424L169.47 70.5L169.47 70.5L165.228 74.7425L165.228 74.7425L165.228 74.7425C167.571 77.0856 171.37 77.0856 173.713 74.7427L175.834 76.864C172.32 80.3787 166.621 80.3787 163.106 76.864L158.864 81.1065L158.864 81.1064L163.106 76.864ZM186.441 74.7425C182.926 71.2278 177.228 71.2278 173.713 74.7425L180.077 81.1065L180.077 81.1064L175.835 76.864C178.178 74.5209 181.977 74.5208 184.32 76.8638L186.441 74.7425Z" fill="#E8FEFB"/>
<path fill-rule="evenodd" clip-rule="evenodd" d="M163.106 87.364L163.106 87.364L163.106 87.3639C160.763 85.0209 156.964 85.0208 154.621 87.3638L152.5 85.2425C156.015 81.7278 161.713 81.7278 165.228 85.2424L169.47 81L169.47 81L165.228 85.2425L165.228 85.2425L165.228 85.2425C167.571 87.5856 171.37 87.5856 173.713 85.2427L175.834 87.364C172.32 90.8787 166.621 90.8787 163.106 87.364L158.864 91.6065L158.864 91.6064L163.106 87.364ZM184.32 87.364L186.441 85.2427C188.785 87.5856 192.583 87.5856 194.926 85.2425L190.684 81L190.684 81L197.048 87.364C193.533 90.8787 187.835 90.8787 184.32 87.364ZM186.441 85.2425C182.926 81.7278 177.228 81.7278 173.713 85.2425L180.077 91.6065L180.077 91.6064L175.835 87.364C178.178 85.0209 181.977 85.0208 184.32 87.3638L186.441 85.2425Z" fill="#E8FEFB"/>
<rect x="200" y="101" width="50" height="50" fill="#FED766"/>
<mask id="mask0" mask-type="alpha" maskUnits="userSpaceOnUse" x="200" y="101" width="50" height="50">
<rect x="200" y="101" width="50" height="50" fill="#C4C4C4"/>
</mask>
<g mask="url(#mask0)">
<rect x="166" y="131.211" width="100" height="5" transform="rotate(-45 166 131.211)" fill="#81D2C7"/>
<rect x="173.071" y="138.282" width="100" height="5" transform="rotate(-45 173.071 138.282)" fill="#81D2C7"/>
<rect x="180.142" y="145.353" width="100" height="5" transform="rotate(-45 180.142 145.353)" fill="#81D2C7"/>
<rect x="187.213" y="152.424" width="100" height="5" transform="rotate(-45 187.213 152.424)" fill="#81D2C7"/>
<rect x="194.284" y="159.495" width="100" height="5" transform="rotate(-45 194.284 159.495)" fill="#81D2C7"/>
<rect x="201.355" y="166.566" width="100" height="5" transform="rotate(-45 201.355 166.566)" fill="#81D2C7"/>
<rect x="208.426" y="173.637" width="100" height="5" transform="rotate(-45 208.426 173.637)" fill="#81D2C7"/>
<rect x="215.498" y="180.708" width="100" height="5" transform="rotate(-45 215.498 180.708)" fill="#81D2C7"/>
</g>
<rect x="150" y="101" width="50" height="50" fill="#FED766"/>
<mask id="mask1" mask-type="alpha" maskUnits="userSpaceOnUse" x="150" y="101" width="50" height="50">
<rect x="150" y="101" width="50" height="50" fill="#C4C4C4"/>
</mask>
<g mask="url(#mask1)">
<rect x="116" y="131.211" width="100" height="5" transform="rotate(-45 116 131.211)" fill="#81D2C7"/>
<rect x="123.071" y="138.282" width="100" height="5" transform="rotate(-45 123.071 138.282)" fill="#81D2C7"/>
<rect x="130.142" y="145.353" width="100" height="5" transform="rotate(-45 130.142 145.353)" fill="#81D2C7"/>
<rect x="137.213" y="152.424" width="100" height="5" transform="rotate(-45 137.213 152.424)" fill="#81D2C7"/>
<rect x="144.284" y="159.495" width="100" height="5" transform="rotate(-45 144.284 159.495)" fill="#81D2C7"/>
<rect x="151.355" y="166.566" width="100" height="5" transform="rotate(-45 151.355 166.566)" fill="#81D2C7"/>
<rect x="158.426" y="173.637" width="100" height="5" transform="rotate(-45 158.426 173.637)" fill="#81D2C7"/>
<rect x="165.498" y="180.708" width="100" height="5" transform="rotate(-45 165.498 180.708)" fill="#81D2C7"/>
</g>
<rect x="300" y="150" width="50" height="50" fill="url(#paint10_radial)"/>
<path d="M308.333 150L300 159.091V162.5L308.333 153.409L316.667 162.5L325 153.409L333.333 162.5L341.667 153.409L350 162.5V159.091L341.667 150L333.333 159.091L325 150L316.667 159.091L308.333 150Z" fill="#EFA00B" fill-opacity="0.1"/>
<path d="M308.333 162.5L300 171.591V175L308.333 165.909L316.667 175L325 165.909L333.333 175L341.667 165.909L350 175V171.591L341.667 162.5L333.333 171.591L325 162.5L316.667 171.591L308.333 162.5Z" fill="#EFA00B" fill-opacity="0.1"/>
<path d="M308.333 175L300 184.091V187.5L308.333 178.409L316.667 187.5L325 178.409L333.333 187.5L341.667 178.409L350 187.5V184.091L341.667 175L333.333 184.091L325 175L316.667 184.091L308.333 175Z" fill="#EFA00B" fill-opacity="0.1"/>
<path d="M308.333 187.5L300 196.591V200L308.333 190.909L316.667 200L325 190.909L333.333 200L341.667 190.909L350 200V196.591L341.667 187.5L333.333 196.591L325 187.5L316.667 196.591L308.333 187.5Z" fill="#EFA00B" fill-opacity="0.1"/>
<rect x="350" y="150" width="50" height="50" fill="url(#paint11_radial)"/>
<path d="M358.333 150L350 159.091V162.5L358.333 153.409L366.667 162.5L375 153.409L383.333 162.5L391.667 153.409L400 162.5V159.091L391.667 150L383.333 159.091L375 150L366.667 159.091L358.333 150Z" fill="#EFA00B" fill-opacity="0.1"/>
<path d="M358.333 162.5L350 171.591V175L358.333 165.909L366.667 175L375 165.909L383.333 175L391.667 165.909L400 175V171.591L391.667 162.5L383.333 171.591L375 162.5L366.667 171.591L358.333 162.5Z" fill="#EFA00B" fill-opacity="0.1"/>
<path d="M358.333 175L350 184.091V187.5L358.333 178.409L366.667 187.5L375 178.409L383.333 187.5L391.667 178.409L400 187.5V184.091L391.667 175L383.333 184.091L375 175L366.667 184.091L358.333 175Z" fill="#EFA00B" fill-opacity="0.1"/>
<path d="M358.333 187.5L350 196.591V200L358.333 190.909L366.667 200L375 190.909L383.333 200L391.667 190.909L400 200V196.591L391.667 187.5L383.333 196.591L375 187.5L366.667 196.591L358.333 187.5Z" fill="#EFA00B" fill-opacity="0.1"/>
<rect x="300" y="100" width="50" height="50" fill="url(#paint12_radial)"/>
<path d="M308.333 100L300 109.091V112.5L308.333 103.409L316.667 112.5L325 103.409L333.333 112.5L341.667 103.409L350 112.5V109.091L341.667 100L333.333 109.091L325 100L316.667 109.091L308.333 100Z" fill="#EFA00B" fill-opacity="0.1"/>
<path d="M308.333 112.5L300 121.591V125L308.333 115.909L316.667 125L325 115.909L333.333 125L341.667 115.909L350 125V121.591L341.667 112.5L333.333 121.591L325 112.5L316.667 121.591L308.333 112.5Z" fill="#EFA00B" fill-opacity="0.1"/>
<path d="M308.333 125L300 134.091V137.5L308.333 128.409L316.667 137.5L325 128.409L333.333 137.5L341.667 128.409L350 137.5V134.091L341.667 125L333.333 134.091L325 125L316.667 134.091L308.333 125Z" fill="#EFA00B" fill-opacity="0.1"/>
<path d="M308.333 137.5L300 146.591V150L308.333 140.909L316.667 150L325 140.909L333.333 150L341.667 140.909L350 150V146.591L341.667 137.5L333.333 146.591L325 137.5L316.667 146.591L308.333 137.5Z" fill="#EFA00B" fill-opacity="0.1"/>
<rect x="350" y="100" width="50" height="50" fill="url(#paint13_radial)"/>
<path d="M358.333 100L350 109.091V112.5L358.333 103.409L366.667 112.5L375 103.409L383.333 112.5L391.667 103.409L400 112.5V109.091L391.667 100L383.333 109.091L375 100L366.667 109.091L358.333 100Z" fill="#EFA00B" fill-opacity="0.1"/>
<path d="M358.333 112.5L350 121.591V125L358.333 115.909L366.667 125L375 115.909L383.333 125L391.667 115.909L400 125V121.591L391.667 112.5L383.333 121.591L375 112.5L366.667 121.591L358.333 112.5Z" fill="#EFA00B" fill-opacity="0.1"/>
<path d="M358.333 125L350 134.091V137.5L358.333 128.409L366.667 137.5L375 128.409L383.333 137.5L391.667 128.409L400 137.5V134.091L391.667 125L383.333 134.091L375 125L366.667 134.091L358.333 125Z" fill="#EFA00B" fill-opacity="0.1"/>
<path d="M358.333 137.5L350 146.591V150L358.333 140.909L366.667 150L375 140.909L383.333 150L391.667 140.909L400 150V146.591L391.667 137.5L383.333 146.591L375 137.5L366.667 146.591L358.333 137.5Z" fill="#EFA00B" fill-opacity="0.1"/>
<rect x="350" y="200" width="50" height="50" fill="url(#paint14_radial)"/>
<path d="M358.333 200L350 209.091V212.5L358.333 203.409L366.667 212.5L375 203.409L383.333 212.5L391.667 203.409L400 212.5V209.091L391.667 200L383.333 209.091L375 200L366.667 209.091L358.333 200Z" fill="#EFA00B" fill-opacity="0.1"/>
<path d="M358.333 212.5L350 221.591V225L358.333 215.909L366.667 225L375 215.909L383.333 225L391.667 215.909L400 225V221.591L391.667 212.5L383.333 221.591L375 212.5L366.667 221.591L358.333 212.5Z" fill="#EFA00B" fill-opacity="0.1"/>
<path d="M358.333 225L350 234.091V237.5L358.333 228.409L366.667 237.5L375 228.409L383.333 237.5L391.667 228.409L400 237.5V234.091L391.667 225L383.333 234.091L375 225L366.667 234.091L358.333 225Z" fill="#EFA00B" fill-opacity="0.1"/>
<path d="M358.333 237.5L350 246.591V250L358.333 240.909L366.667 250L375 240.909L383.333 250L391.667 240.909L400 250V246.591L391.667 237.5L383.333 246.591L375 237.5L366.667 246.591L358.333 237.5Z" fill="#EFA00B" fill-opacity="0.1"/>
<rect x="300" y="200" width="50" height="50" fill="url(#paint15_radial)"/>
<path d="M308.333 200L300 209.091V212.5L308.333 203.409L316.667 212.5L325 203.409L333.333 212.5L341.667 203.409L350 212.5V209.091L341.667 200L333.333 209.091L325 200L316.667 209.091L308.333 200Z" fill="#EFA00B" fill-opacity="0.1"/>
<path d="M308.333 212.5L300 221.591V225L308.333 215.909L316.667 225L325 215.909L333.333 225L341.667 215.909L350 225V221.591L341.667 212.5L333.333 221.591L325 212.5L316.667 221.591L308.333 212.5Z" fill="#EFA00B" fill-opacity="0.1"/>
<path d="M308.333 225L300 234.091V237.5L308.333 228.409L316.667 237.5L325 228.409L333.333 237.5L341.667 228.409L350 237.5V234.091L341.667 225L333.333 234.091L325 225L316.667 234.091L308.333 225Z" fill="#EFA00B" fill-opacity="0.1"/>
<path d="M308.333 237.5L300 246.591V250L308.333 240.909L316.667 250L325 240.909L333.333 250L341.667 240.909L350 250V246.591L341.667 237.5L333.333 246.591L325 237.5L316.667 246.591L308.333 237.5Z" fill="#EFA00B" fill-opacity="0.1"/>
<rect x="250" y="250" width="50" height="50" transform="rotate(-90 250 250)" fill="url(#paint16_radial)"/>
<path d="M250 241.667L259.091 250H262.5L253.409 241.667L262.5 233.333L253.409 225L262.5 216.667L253.409 208.333L262.5 200H259.091L250 208.333L259.091 216.667L250 225L259.091 233.333L250 241.667Z" fill="#EFA00B" fill-opacity="0.1"/>
<path d="M262.5 241.667L271.591 250H275L265.909 241.667L275 233.333L265.909 225L275 216.667L265.909 208.333L275 200H271.591L262.5 208.333L271.591 216.667L262.5 225L271.591 233.333L262.5 241.667Z" fill="#EFA00B" fill-opacity="0.1"/>
<path d="M275 241.667L284.091 250H287.5L278.409 241.667L287.5 233.333L278.409 225L287.5 216.667L278.409 208.333L287.5 200H284.091L275 208.333L284.091 216.667L275 225L284.091 233.333L275 241.667Z" fill="#EFA00B" fill-opacity="0.1"/>
<path d="M287.5 241.667L296.591 250H300L290.909 241.667L300 233.333L290.909 225L300 216.667L290.909 208.333L300 200H296.591L287.5 208.333L296.591 216.667L287.5 225L296.591 233.333L287.5 241.667Z" fill="#EFA00B" fill-opacity="0.1"/>
<rect x="200" y="250" width="50" height="50" transform="rotate(-90 200 250)" fill="url(#paint17_radial)"/>
<path d="M200 241.667L209.091 250H212.5L203.409 241.667L212.5 233.333L203.409 225L212.5 216.667L203.409 208.333L212.5 200H209.091L200 208.333L209.091 216.667L200 225L209.091 233.333L200 241.667Z" fill="#EFA00B" fill-opacity="0.1"/>
<path d="M212.5 241.667L221.591 250H225L215.909 241.667L225 233.333L215.909 225L225 216.667L215.909 208.333L225 200H221.591L212.5 208.333L221.591 216.667L212.5 225L221.591 233.333L212.5 241.667Z" fill="#EFA00B" fill-opacity="0.1"/>
<path d="M225 241.667L234.091 250H237.5L228.409 241.667L237.5 233.333L228.409 225L237.5 216.667L228.409 208.333L237.5 200H234.091L225 208.333L234.091 216.667L225 225L234.091 233.333L225 241.667Z" fill="#EFA00B" fill-opacity="0.1"/>
<path d="M237.5 241.667L246.591 250H250L240.909 241.667L250 233.333L240.909 225L250 216.667L240.909 208.333L250 200H246.591L237.5 208.333L246.591 216.667L237.5 225L246.591 233.333L237.5 241.667Z" fill="#EFA00B" fill-opacity="0.1"/>
<rect x="150" y="200" width="50" height="50" fill="url(#paint18_radial)"/>
<path d="M158.333 200L150 209.091V212.5L158.333 203.409L166.667 212.5L175 203.409L183.333 212.5L191.667 203.409L200 212.5V209.091L191.667 200L183.333 209.091L175 200L166.667 209.091L158.333 200Z" fill="#EFA00B" fill-opacity="0.1"/>
<path d="M158.333 212.5L150 221.591V225L158.333 215.909L166.667 225L175 215.909L183.333 225L191.667 215.909L200 225V221.591L191.667 212.5L183.333 221.591L175 212.5L166.667 221.591L158.333 212.5Z" fill="#EFA00B" fill-opacity="0.1"/>
<path d="M158.333 225L150 234.091V237.5L158.333 228.409L166.667 237.5L175 228.409L183.333 237.5L191.667 228.409L200 237.5V234.091L191.667 225L183.333 234.091L175 225L166.667 234.091L158.333 225Z" fill="#EFA00B" fill-opacity="0.1"/>
<path d="M158.333 237.5L150 246.591V250L158.333 240.909L166.667 250L175 240.909L183.333 250L191.667 240.909L200 250V246.591L191.667 237.5L183.333 246.591L175 237.5L166.667 246.591L158.333 237.5Z" fill="#EFA00B" fill-opacity="0.1"/>
<rect x="100" y="200" width="50" height="50" fill="url(#paint19_radial)"/>
<path d="M108.333 200L100 209.091V212.5L108.333 203.409L116.667 212.5L125 203.409L133.333 212.5L141.667 203.409L150 212.5V209.091L141.667 200L133.333 209.091L125 200L116.667 209.091L108.333 200Z" fill="#EFA00B" fill-opacity="0.1"/>
<path d="M108.333 212.5L100 221.591V225L108.333 215.909L116.667 225L125 215.909L133.333 225L141.667 215.909L150 225V221.591L141.667 212.5L133.333 221.591L125 212.5L116.667 221.591L108.333 212.5Z" fill="#EFA00B" fill-opacity="0.1"/>
<path d="M108.333 225L100 234.091V237.5L108.333 228.409L116.667 237.5L125 228.409L133.333 237.5L141.667 228.409L150 237.5V234.091L141.667 225L133.333 234.091L125 225L116.667 234.091L108.333 225Z" fill="#EFA00B" fill-opacity="0.1"/>
<path d="M108.333 237.5L100 246.591V250L108.333 240.909L116.667 250L125 240.909L133.333 250L141.667 240.909L150 250V246.591L141.667 237.5L133.333 246.591L125 237.5L116.667 246.591L108.333 237.5Z" fill="#EFA00B" fill-opacity="0.1"/>
<rect x="51" y="200" width="50" height="50" fill="url(#paint20_radial)"/>
<path d="M59.3333 200L51 209.091V212.5L59.3333 203.409L67.6667 212.5L76 203.409L84.3333 212.5L92.6667 203.409L101 212.5V209.091L92.6667 200L84.3333 209.091L76 200L67.6667 209.091L59.3333 200Z" fill="#EFA00B" fill-opacity="0.1"/>
<path d="M59.3333 212.5L51 221.591V225L59.3333 215.909L67.6667 225L76 215.909L84.3333 225L92.6667 215.909L101 225V221.591L92.6667 212.5L84.3333 221.591L76 212.5L67.6667 221.591L59.3333 212.5Z" fill="#EFA00B" fill-opacity="0.1"/>
<path d="M59.3333 225L51 234.091V237.5L59.3333 228.409L67.6667 237.5L76 228.409L84.3333 237.5L92.6667 228.409L101 237.5V234.091L92.6667 225L84.3333 234.091L76 225L67.6667 234.091L59.3333 225Z" fill="#EFA00B" fill-opacity="0.1"/>
<path d="M59.3333 237.5L51 246.591V250L59.3333 240.909L67.6667 250L76 240.909L84.3333 250L92.6667 240.909L101 250V246.591L92.6667 237.5L84.3333 246.591L76 237.5L67.6667 246.591L59.3333 237.5Z" fill="#EFA00B" fill-opacity="0.1"/>
<rect x="50" width="50" height="50" fill="url(#paint21_radial)"/>
<path d="M58.3333 0L50 9.09091V12.5L58.3333 3.40909L66.6667 12.5L75 3.40909L83.3333 12.5L91.6667 3.40909L100 12.5V9.09091L91.6667 0L83.3333 9.09091L75 0L66.6667 9.09091L58.3333 0Z" fill="#EFA00B" fill-opacity="0.1"/>
<path d="M58.3333 12.5L50 21.5909V25L58.3333 15.9091L66.6667 25L75 15.9091L83.3333 25L91.6667 15.9091L100 25V21.5909L91.6667 12.5L83.3333 21.5909L75 12.5L66.6667 21.5909L58.3333 12.5Z" fill="#EFA00B" fill-opacity="0.1"/>
<path d="M58.3333 25L50 34.0909V37.5L58.3333 28.4091L66.6667 37.5L75 28.4091L83.3333 37.5L91.6667 28.4091L100 37.5V34.0909L91.6667 25L83.3333 34.0909L75 25L66.6667 34.0909L58.3333 25Z" fill="#EFA00B" fill-opacity="0.1"/>
<path d="M58.3333 37.5L50 46.5909V50L58.3333 40.9091L66.6667 50L75 40.9091L83.3333 50L91.6667 40.9091L100 50V46.5909L91.6667 37.5L83.3333 46.5909L75 37.5L66.6667 46.5909L58.3333 37.5Z" fill="#EFA00B" fill-opacity="0.1"/>
<rect width="50" height="50" fill="url(#paint22_radial)"/>
<path d="M8.33333 0L0 9.09091V12.5L8.33333 3.40909L16.6667 12.5L25 3.40909L33.3333 12.5L41.6667 3.40909L50 12.5V9.09091L41.6667 0L33.3333 9.09091L25 0L16.6667 9.09091L8.33333 0Z" fill="#EFA00B" fill-opacity="0.1"/>
<path d="M8.33333 12.5L0 21.5909V25L8.33333 15.9091L16.6667 25L25 15.9091L33.3333 25L41.6667 15.9091L50 25V21.5909L41.6667 12.5L33.3333 21.5909L25 12.5L16.6667 21.5909L8.33333 12.5Z" fill="#EFA00B" fill-opacity="0.1"/>
<path d="M8.33333 25L0 34.0909V37.5L8.33333 28.4091L16.6667 37.5L25 28.4091L33.3333 37.5L41.6667 28.4091L50 37.5V34.0909L41.6667 25L33.3333 34.0909L25 25L16.6667 34.0909L8.33333 25Z" fill="#EFA00B" fill-opacity="0.1"/>
<path d="M8.33333 37.5L0 46.5909V50L8.33333 40.9091L16.6667 50L25 40.9091L33.3333 50L41.6667 40.9091L50 50V46.5909L41.6667 37.5L33.3333 46.5909L25 37.5L16.6667 46.5909L8.33333 37.5Z" fill="#EFA00B" fill-opacity="0.1"/>
<rect x="50" y="50" width="50" height="50" fill="url(#paint23_radial)"/>
<path d="M58.3333 50L50 59.0909V62.5L58.3333 53.4091L66.6667 62.5L75 53.4091L83.3333 62.5L91.6667 53.4091L100 62.5V59.0909L91.6667 50L83.3333 59.0909L75 50L66.6667 59.0909L58.3333 50Z" fill="#EFA00B" fill-opacity="0.1"/>
<path d="M58.3333 62.5L50 71.5909V75L58.3333 65.9091L66.6667 75L75 65.9091L83.3333 75L91.6667 65.9091L100 75V71.5909L91.6667 62.5L83.3333 71.5909L75 62.5L66.6667 71.5909L58.3333 62.5Z" fill="#EFA00B" fill-opacity="0.1"/>
<path d="M58.3333 75L50 84.0909V87.5L58.3333 78.4091L66.6667 87.5L75 78.4091L83.3333 87.5L91.6667 78.4091L100 87.5V84.0909L91.6667 75L83.3333 84.0909L75 75L66.6667 84.0909L58.3333 75Z" fill="#EFA00B" fill-opacity="0.1"/>
<path d="M58.3333 87.5L50 96.5909V100L58.3333 90.9091L66.6667 100L75 90.9091L83.3333 100L91.6667 90.9091L100 100V96.5909L91.6667 87.5L83.3333 96.5909L75 87.5L66.6667 96.5909L58.3333 87.5Z" fill="#EFA00B" fill-opacity="0.1"/>
<rect y="50" width="50" height="50" fill="url(#paint24_radial)"/>
<path d="M8.33333 50L0 59.0909V62.5L8.33333 53.4091L16.6667 62.5L25 53.4091L33.3333 62.5L41.6667 53.4091L50 62.5V59.0909L41.6667 50L33.3333 59.0909L25 50L16.6667 59.0909L8.33333 50Z" fill="#EFA00B" fill-opacity="0.1"/>
<path d="M8.33333 62.5L0 71.5909V75L8.33333 65.9091L16.6667 75L25 65.9091L33.3333 75L41.6667 65.9091L50 75V71.5909L41.6667 62.5L33.3333 71.5909L25 62.5L16.6667 71.5909L8.33333 62.5Z" fill="#EFA00B" fill-opacity="0.1"/>
<path d="M8.33333 75L0 84.0909V87.5L8.33333 78.4091L16.6667 87.5L25 78.4091L33.3333 87.5L41.6667 78.4091L50 87.5V84.0909L41.6667 75L33.3333 84.0909L25 75L16.6667 84.0909L8.33333 75Z" fill="#EFA00B" fill-opacity="0.1"/>
<path d="M8.33333 87.5L0 96.5909V100L8.33333 90.9091L16.6667 100L25 90.9091L33.3333 100L41.6667 90.9091L50 100V96.5909L41.6667 87.5L33.3333 96.5909L25 87.5L16.6667 96.5909L8.33333 87.5Z" fill="#EFA00B" fill-opacity="0.1"/>
<rect x="50" y="100" width="50" height="50" fill="url(#paint25_radial)"/>
<path d="M58.3333 100L50 109.091V112.5L58.3333 103.409L66.6667 112.5L75 103.409L83.3333 112.5L91.6667 103.409L100 112.5V109.091L91.6667 100L83.3333 109.091L75 100L66.6667 109.091L58.3333 100Z" fill="#EFA00B" fill-opacity="0.1"/>
<path d="M58.3333 112.5L50 121.591V125L58.3333 115.909L66.6667 125L75 115.909L83.3333 125L91.6667 115.909L100 125V121.591L91.6667 112.5L83.3333 121.591L75 112.5L66.6667 121.591L58.3333 112.5Z" fill="#EFA00B" fill-opacity="0.1"/>
<path d="M58.3333 125L50 134.091V137.5L58.3333 128.409L66.6667 137.5L75 128.409L83.3333 137.5L91.6667 128.409L100 137.5V134.091L91.6667 125L83.3333 134.091L75 125L66.6667 134.091L58.3333 125Z" fill="#EFA00B" fill-opacity="0.1"/>
<path d="M58.3333 137.5L50 146.591V150L58.3333 140.909L66.6667 150L75 140.909L83.3333 150L91.6667 140.909L100 150V146.591L91.6667 137.5L83.3333 146.591L75 137.5L66.6667 146.591L58.3333 137.5Z" fill="#EFA00B" fill-opacity="0.1"/>
<rect x="50" y="150" width="50" height="50" fill="url(#paint26_radial)"/>
<path d="M58.3333 150L50 159.091V162.5L58.3333 153.409L66.6667 162.5L75 153.409L83.3333 162.5L91.6667 153.409L100 162.5V159.091L91.6667 150L83.3333 159.091L75 150L66.6667 159.091L58.3333 150Z" fill="#EFA00B" fill-opacity="0.1"/>
<path d="M58.3333 162.5L50 171.591V175L58.3333 165.909L66.6667 175L75 165.909L83.3333 175L91.6667 165.909L100 175V171.591L91.6667 162.5L83.3333 171.591L75 162.5L66.6667 171.591L58.3333 162.5Z" fill="#EFA00B" fill-opacity="0.1"/>
<path d="M58.3333 175L50 184.091V187.5L58.3333 178.409L66.6667 187.5L75 178.409L83.3333 187.5L91.6667 178.409L100 187.5V184.091L91.6667 175L83.3333 184.091L75 175L66.6667 184.091L58.3333 175Z" fill="#EFA00B" fill-opacity="0.1"/>
<path d="M58.3333 187.5L50 196.591V200L58.3333 190.909L66.6667 200L75 190.909L83.3333 200L91.6667 190.909L100 200V196.591L91.6667 187.5L83.3333 196.591L75 187.5L66.6667 196.591L58.3333 187.5Z" fill="#EFA00B" fill-opacity="0.1"/>
<rect y="100" width="50" height="50" fill="url(#paint27_radial)"/>
<path d="M8.33333 100L0 109.091V112.5L8.33333 103.409L16.6667 112.5L25 103.409L33.3333 112.5L41.6667 103.409L50 112.5V109.091L41.6667 100L33.3333 109.091L25 100L16.6667 109.091L8.33333 100Z" fill="#EFA00B" fill-opacity="0.1"/>
<path d="M8.33333 112.5L0 121.591V125L8.33333 115.909L16.6667 125L25 115.909L33.3333 125L41.6667 115.909L50 125V121.591L41.6667 112.5L33.3333 121.591L25 112.5L16.6667 121.591L8.33333 112.5Z" fill="#EFA00B" fill-opacity="0.1"/>
<path d="M8.33333 125L0 134.091V137.5L8.33333 128.409L16.6667 137.5L25 128.409L33.3333 137.5L41.6667 128.409L50 137.5V134.091L41.6667 125L33.3333 134.091L25 125L16.6667 134.091L8.33333 125Z" fill="#EFA00B" fill-opacity="0.1"/>
<path d="M8.33333 137.5L0 146.591V150L8.33333 140.909L16.6667 150L25 140.909L33.3333 150L41.6667 140.909L50 150V146.591L41.6667 137.5L33.3333 146.591L25 137.5L16.6667 146.591L8.33333 137.5Z" fill="#EFA00B" fill-opacity="0.1"/>
<rect y="150" width="50" height="50" fill="url(#paint28_radial)"/>
<path d="M8.33333 150L0 159.091V162.5L8.33333 153.409L16.6667 162.5L25 153.409L33.3333 162.5L41.6667 153.409L50 162.5V159.091L41.6667 150L33.3333 159.091L25 150L16.6667 159.091L8.33333 150Z" fill="#EFA00B" fill-opacity="0.1"/>
<path d="M8.33333 162.5L0 171.591V175L8.33333 165.909L16.6667 175L25 165.909L33.3333 175L41.6667 165.909L50 175V171.591L41.6667 162.5L33.3333 171.591L25 162.5L16.6667 171.591L8.33333 162.5Z" fill="#EFA00B" fill-opacity="0.1"/>
<path d="M8.33333 175L0 184.091V187.5L8.33333 178.409L16.6667 187.5L25 178.409L33.3333 187.5L41.6667 178.409L50 187.5V184.091L41.6667 175L33.3333 184.091L25 175L16.6667 184.091L8.33333 175Z" fill="#EFA00B" fill-opacity="0.1"/>
<path d="M8.33333 187.5L0 196.591V200L8.33333 190.909L16.6667 200L25 190.909L33.3333 200L41.6667 190.909L50 200V196.591L41.6667 187.5L33.3333 196.591L25 187.5L16.6667 196.591L8.33333 187.5Z" fill="#EFA00B" fill-opacity="0.1"/>
<rect x="100" y="1" width="50" height="50" fill="url(#paint29_radial)"/>
<path d="M108.333 1L100 10.0909V13.5L108.333 4.40909L116.667 13.5L125 4.40909L133.333 13.5L141.667 4.40909L150 13.5V10.0909L141.667 1L133.333 10.0909L125 1L116.667 10.0909L108.333 1Z" fill="#EFA00B" fill-opacity="0.1"/>
<path d="M108.333 13.5L100 22.5909V26L108.333 16.9091L116.667 26L125 16.9091L133.333 26L141.667 16.9091L150 26V22.5909L141.667 13.5L133.333 22.5909L125 13.5L116.667 22.5909L108.333 13.5Z" fill="#EFA00B" fill-opacity="0.1"/>
<path d="M108.333 26L100 35.0909V38.5L108.333 29.4091L116.667 38.5L125 29.4091L133.333 38.5L141.667 29.4091L150 38.5V35.0909L141.667 26L133.333 35.0909L125 26L116.667 35.0909L108.333 26Z" fill="#EFA00B" fill-opacity="0.1"/>
<path d="M108.333 38.5L100 47.5909V51L108.333 41.9091L116.667 51L125 41.9091L133.333 51L141.667 41.9091L150 51V47.5909L141.667 38.5L133.333 47.5909L125 38.5L116.667 47.5909L108.333 38.5Z" fill="#EFA00B" fill-opacity="0.1"/>
<rect x="150" y="1" width="50" height="50" fill="url(#paint30_radial)"/>
<path d="M158.333 1L150 10.0909V13.5L158.333 4.40909L166.667 13.5L175 4.40909L183.333 13.5L191.667 4.40909L200 13.5V10.0909L191.667 1L183.333 10.0909L175 1L166.667 10.0909L158.333 1Z" fill="#EFA00B" fill-opacity="0.1"/>
<path d="M158.333 13.5L150 22.5909V26L158.333 16.9091L166.667 26L175 16.9091L183.333 26L191.667 16.9091L200 26V22.5909L191.667 13.5L183.333 22.5909L175 13.5L166.667 22.5909L158.333 13.5Z" fill="#EFA00B" fill-opacity="0.1"/>
<path d="M158.333 26L150 35.0909V38.5L158.333 29.4091L166.667 38.5L175 29.4091L183.333 38.5L191.667 29.4091L200 38.5V35.0909L191.667 26L183.333 35.0909L175 26L166.667 35.0909L158.333 26Z" fill="#EFA00B" fill-opacity="0.1"/>
<path d="M158.333 38.5L150 47.5909V51L158.333 41.9091L166.667 51L175 41.9091L183.333 51L191.667 41.9091L200 51V47.5909L191.667 38.5L183.333 47.5909L175 38.5L166.667 47.5909L158.333 38.5Z" fill="#EFA00B" fill-opacity="0.1"/>
<rect x="200" y="1" width="50" height="50" fill="url(#paint31_radial)"/>
<path d="M208.333 1L200 10.0909V13.5L208.333 4.40909L216.667 13.5L225 4.40909L233.333 13.5L241.667 4.40909L250 13.5V10.0909L241.667 1L233.333 10.0909L225 1L216.667 10.0909L208.333 1Z" fill="#EFA00B" fill-opacity="0.1"/>
<path d="M208.333 13.5L200 22.5909V26L208.333 16.9091L216.667 26L225 16.9091L233.333 26L241.667 16.9091L250 26V22.5909L241.667 13.5L233.333 22.5909L225 13.5L216.667 22.5909L208.333 13.5Z" fill="#EFA00B" fill-opacity="0.1"/>
<path d="M208.333 26L200 35.0909V38.5L208.333 29.4091L216.667 38.5L225 29.4091L233.333 38.5L241.667 29.4091L250 38.5V35.0909L241.667 26L233.333 35.0909L225 26L216.667 35.0909L208.333 26Z" fill="#EFA00B" fill-opacity="0.1"/>
<path d="M208.333 38.5L200 47.5909V51L208.333 41.9091L216.667 51L225 41.9091L233.333 51L241.667 41.9091L250 51V47.5909L241.667 38.5L233.333 47.5909L225 38.5L216.667 47.5909L208.333 38.5Z" fill="#EFA00B" fill-opacity="0.1"/>
<rect x="250" y="1" width="50" height="50" fill="url(#paint32_radial)"/>
<path d="M258.333 1L250 10.0909V13.5L258.333 4.40909L266.667 13.5L275 4.40909L283.333 13.5L291.667 4.40909L300 13.5V10.0909L291.667 1L283.333 10.0909L275 1L266.667 10.0909L258.333 1Z" fill="#EFA00B" fill-opacity="0.1"/>
<path d="M258.333 13.5L250 22.5909V26L258.333 16.9091L266.667 26L275 16.9091L283.333 26L291.667 16.9091L300 26V22.5909L291.667 13.5L283.333 22.5909L275 13.5L266.667 22.5909L258.333 13.5Z" fill="#EFA00B" fill-opacity="0.1"/>
<path d="M258.333 26L250 35.0909V38.5L258.333 29.4091L266.667 38.5L275 29.4091L283.333 38.5L291.667 29.4091L300 38.5V35.0909L291.667 26L283.333 35.0909L275 26L266.667 35.0909L258.333 26Z" fill="#EFA00B" fill-opacity="0.1"/>
<path d="M258.333 38.5L250 47.5909V51L258.333 41.9091L266.667 51L275 41.9091L283.333 51L291.667 41.9091L300 51V47.5909L291.667 38.5L283.333 47.5909L275 38.5L266.667 47.5909L258.333 38.5Z" fill="#EFA00B" fill-opacity="0.1"/>
<rect x="300" y="1" width="50" height="50" fill="url(#paint33_radial)"/>
<path d="M308.333 1L300 10.0909V13.5L308.333 4.40909L316.667 13.5L325 4.40909L333.333 13.5L341.667 4.40909L350 13.5V10.0909L341.667 1L333.333 10.0909L325 1L316.667 10.0909L308.333 1Z" fill="#EFA00B" fill-opacity="0.1"/>
<path d="M308.333 13.5L300 22.5909V26L308.333 16.9091L316.667 26L325 16.9091L333.333 26L341.667 16.9091L350 26V22.5909L341.667 13.5L333.333 22.5909L325 13.5L316.667 22.5909L308.333 13.5Z" fill="#EFA00B" fill-opacity="0.1"/>
<path d="M308.333 26L300 35.0909V38.5L308.333 29.4091L316.667 38.5L325 29.4091L333.333 38.5L341.667 29.4091L350 38.5V35.0909L341.667 26L333.333 35.0909L325 26L316.667 35.0909L308.333 26Z" fill="#EFA00B" fill-opacity="0.1"/>
<path d="M308.333 38.5L300 47.5909V51L308.333 41.9091L316.667 51L325 41.9091L333.333 51L341.667 41.9091L350 51V47.5909L341.667 38.5L333.333 47.5909L325 38.5L316.667 47.5909L308.333 38.5Z" fill="#EFA00B" fill-opacity="0.1"/>
<rect x="300" y="51" width="50" height="50" fill="url(#paint34_radial)"/>
<path d="M308.333 51L300 60.0909V63.5L308.333 54.4091L316.667 63.5L325 54.4091L333.333 63.5L341.667 54.4091L350 63.5V60.0909L341.667 51L333.333 60.0909L325 51L316.667 60.0909L308.333 51Z" fill="#EFA00B" fill-opacity="0.1"/>
<path d="M308.333 63.5L300 72.5909V76L308.333 66.9091L316.667 76L325 66.9091L333.333 76L341.667 66.9091L350 76V72.5909L341.667 63.5L333.333 72.5909L325 63.5L316.667 72.5909L308.333 63.5Z" fill="#EFA00B" fill-opacity="0.1"/>
<path d="M308.333 76L300 85.0909V88.5L308.333 79.4091L316.667 88.5L325 79.4091L333.333 88.5L341.667 79.4091L350 88.5V85.0909L341.667 76L333.333 85.0909L325 76L316.667 85.0909L308.333 76Z" fill="#EFA00B" fill-opacity="0.1"/>
<path d="M308.333 88.5L300 97.5909V101L308.333 91.9091L316.667 101L325 91.9091L333.333 101L341.667 91.9091L350 101V97.5909L341.667 88.5L333.333 97.5909L325 88.5L316.667 97.5909L308.333 88.5Z" fill="#EFA00B" fill-opacity="0.1"/>
<rect x="350" y="51" width="50" height="50" fill="url(#paint35_radial)"/>
<path d="M358.333 51L350 60.0909V63.5L358.333 54.4091L366.667 63.5L375 54.4091L383.333 63.5L391.667 54.4091L400 63.5V60.0909L391.667 51L383.333 60.0909L375 51L366.667 60.0909L358.333 51Z" fill="#EFA00B" fill-opacity="0.1"/>
<path d="M358.333 63.5L350 72.5909V76L358.333 66.9091L366.667 76L375 66.9091L383.333 76L391.667 66.9091L400 76V72.5909L391.667 63.5L383.333 72.5909L375 63.5L366.667 72.5909L358.333 63.5Z" fill="#EFA00B" fill-opacity="0.1"/>
<path d="M358.333 76L350 85.0909V88.5L358.333 79.4091L366.667 88.5L375 79.4091L383.333 88.5L391.667 79.4091L400 88.5V85.0909L391.667 76L383.333 85.0909L375 76L366.667 85.0909L358.333 76Z" fill="#EFA00B" fill-opacity="0.1"/>
<path d="M358.333 88.5L350 97.5909V101L358.333 91.9091L366.667 101L375 91.9091L383.333 101L391.667 91.9091L400 101V97.5909L391.667 88.5L383.333 97.5909L375 88.5L366.667 97.5909L358.333 88.5Z" fill="#EFA00B" fill-opacity="0.1"/>
<rect x="350" y="1" width="50" height="50" fill="url(#paint36_radial)"/>
<path d="M358.333 1L350 10.0909V13.5L358.333 4.40909L366.667 13.5L375 4.40909L383.333 13.5L391.667 4.40909L400 13.5V10.0909L391.667 1L383.333 10.0909L375 1L366.667 10.0909L358.333 1Z" fill="#EFA00B" fill-opacity="0.1"/>
<path d="M358.333 13.5L350 22.5909V26L358.333 16.9091L366.667 26L375 16.9091L383.333 26L391.667 16.9091L400 26V22.5909L391.667 13.5L383.333 22.5909L375 13.5L366.667 22.5909L358.333 13.5Z" fill="#EFA00B" fill-opacity="0.1"/>
<path d="M358.333 26L350 35.0909V38.5L358.333 29.4091L366.667 38.5L375 29.4091L383.333 38.5L391.667 29.4091L400 38.5V35.0909L391.667 26L383.333 35.0909L375 26L366.667 35.0909L358.333 26Z" fill="#EFA00B" fill-opacity="0.1"/>
<path d="M358.333 38.5L350 47.5909V51L358.333 41.9091L366.667 51L375 41.9091L383.333 51L391.667 41.9091L400 51V47.5909L391.667 38.5L383.333 47.5909L375 38.5L366.667 47.5909L358.333 38.5Z" fill="#EFA00B" fill-opacity="0.1"/>
<rect x="1" y="200" width="50" height="50" fill="url(#paint37_radial)"/>
<path d="M9.33333 200L1 209.091V212.5L9.33333 203.409L17.6667 212.5L26 203.409L34.3333 212.5L42.6667 203.409L51 212.5V209.091L42.6667 200L34.3333 209.091L26 200L17.6667 209.091L9.33333 200Z" fill="#EFA00B" fill-opacity="0.1"/>
<path d="M9.33333 212.5L1 221.591V225L9.33333 215.909L17.6667 225L26 215.909L34.3333 225L42.6667 215.909L51 225V221.591L42.6667 212.5L34.3333 221.591L26 212.5L17.6667 221.591L9.33333 212.5Z" fill="#EFA00B" fill-opacity="0.1"/>
<path d="M9.33333 225L1 234.091V237.5L9.33333 228.409L17.6667 237.5L26 228.409L34.3333 237.5L42.6667 228.409L51 237.5V234.091L42.6667 225L34.3333 234.091L26 225L17.6667 234.091L9.33333 225Z" fill="#EFA00B" fill-opacity="0.1"/>
<path d="M9.33333 237.5L1 246.591V250L9.33333 240.909L17.6667 250L26 240.909L34.3333 250L42.6667 240.909L51 250V246.591L42.6667 237.5L34.3333 246.591L26 237.5L17.6667 246.591L9.33333 237.5Z" fill="#EFA00B" fill-opacity="0.1"/>
<g clip-path="url(#clip0)">
<path d="M237.236 129.555C237.236 122.75 231.719 117.233 224.914 117.233C218.109 117.233 212.593 122.75 212.593 129.555C212.593 136.36 218.109 137.77 224.914 137.77C231.719 137.77 237.236 136.36 237.236 129.555V129.555Z" fill="#0097A7"/>
<path d="M237.236 129.555H237.858C237.857 122.406 232.063 116.611 224.914 116.611C217.765 116.611 211.971 122.406 211.97 129.555C211.97 131.339 212.334 132.819 213.021 134.019C213.535 134.918 214.227 135.65 215.046 136.23C216.277 137.101 217.782 137.634 219.454 137.958C221.128 138.28 222.976 138.392 224.914 138.392C228.359 138.388 231.522 138.049 233.922 136.762C235.119 136.118 236.122 135.219 236.807 134.019C237.495 132.819 237.858 131.339 237.858 129.555H236.613C236.613 131.174 236.287 132.421 235.727 133.4C235.306 134.135 234.75 134.727 234.062 135.214C233.032 135.945 231.697 136.435 230.138 136.735C228.58 137.036 226.804 137.148 224.914 137.147C221.554 137.152 218.556 136.785 216.497 135.666C215.464 135.108 214.663 134.379 214.101 133.4C213.541 132.421 213.215 131.174 213.215 129.555C213.215 126.322 214.523 123.401 216.641 121.282C218.76 119.164 221.681 117.856 224.914 117.856C228.147 117.856 231.068 119.164 233.187 121.282C235.305 123.401 236.613 126.322 236.613 129.555H237.236V129.555Z" fill="#54596E"/>
<path d="M224.291 125.945C224.291 128.008 222.62 129.679 220.558 129.679C218.496 129.679 216.824 128.008 216.824 125.945C216.824 123.883 218.496 122.212 220.558 122.212C222.62 122.212 224.291 123.883 224.291 125.945Z" fill="white"/>
<path d="M224.291 125.945H224.914C224.913 123.54 222.963 121.59 220.558 121.589C218.151 121.59 216.202 123.54 216.201 125.945C216.202 128.351 218.151 130.301 220.558 130.302C222.963 130.301 224.913 128.351 224.914 125.945H223.669C223.669 126.807 223.322 127.581 222.757 128.146C222.193 128.71 221.419 129.057 220.558 129.057C219.696 129.057 218.922 128.71 218.357 128.146C217.793 127.581 217.446 126.807 217.446 125.945C217.446 125.084 217.793 124.311 218.357 123.745C218.922 123.181 219.696 122.834 220.558 122.834C221.419 122.834 222.193 123.181 222.757 123.745C223.322 124.311 223.669 125.084 223.669 125.945H224.291Z" fill="#54596E"/>
<path d="M233.004 125.945C233.004 128.008 231.333 129.679 229.27 129.679C227.208 129.679 225.537 128.008 225.537 125.945C225.537 123.883 227.208 122.212 229.27 122.212C231.333 122.212 233.004 123.883 233.004 125.945Z" fill="white"/>
<path d="M233.004 125.945H233.626C233.625 123.54 231.676 121.59 229.27 121.589C226.864 121.59 224.914 123.54 224.914 125.945C224.914 128.351 226.864 130.301 229.27 130.302C231.676 130.301 233.625 128.351 233.626 125.945H232.381C232.381 126.807 232.034 127.581 231.47 128.146C230.905 128.71 230.131 129.057 229.27 129.057C228.409 129.057 227.635 128.71 227.07 128.146C226.505 127.581 226.158 126.807 226.158 125.945C226.158 125.084 226.505 124.311 227.07 123.745C227.635 123.181 228.409 122.834 229.27 122.834C230.131 122.834 230.905 123.181 231.47 123.745C232.034 124.311 232.381 125.084 232.381 125.945H233.004Z" fill="#54596E"/>
<path d="M206.081 130.101L206.081 130.1C206.118 130.061 206.655 129.502 207.597 128.962C208.54 128.422 209.877 127.9 211.544 127.9C211.837 127.9 212.14 127.916 212.453 127.951C212.794 127.99 213.102 127.744 213.14 127.402C213.179 127.061 212.933 126.753 212.591 126.715C212.231 126.674 211.882 126.656 211.544 126.656C209.55 126.656 207.959 127.301 206.873 127.943C205.786 128.586 205.194 129.227 205.164 129.258C204.932 129.511 204.948 129.905 205.201 130.138C205.454 130.37 205.848 130.354 206.081 130.101V130.101Z" fill="#54596E"/>
<path d="M206.581 134.531L206.379 134.423L206.58 134.532L206.581 134.531L206.379 134.423L206.58 134.532C206.585 134.522 207.02 133.728 207.94 132.883C208.862 132.035 210.252 131.137 212.214 130.857C212.554 130.808 212.79 130.494 212.742 130.153C212.693 129.813 212.378 129.576 212.038 129.625C209.745 129.951 208.102 131.027 207.047 132.013C205.99 133.002 205.506 133.903 205.483 133.944C205.321 134.247 205.436 134.624 205.739 134.786C206.042 134.948 206.419 134.834 206.581 134.531Z" fill="#54596E"/>
<path d="M208.634 138.282L208.403 138.238L208.634 138.283L208.634 138.282L208.403 138.238L208.634 138.283C208.635 138.272 208.813 137.385 209.437 136.303C210.064 135.218 211.121 133.945 212.908 133.09C213.219 132.942 213.35 132.57 213.201 132.26C213.053 131.95 212.682 131.819 212.372 131.967C210.282 132.965 209.036 134.483 208.325 135.741C207.613 137 207.42 138.005 207.411 138.051C207.347 138.389 207.569 138.714 207.907 138.778C208.245 138.841 208.57 138.62 208.634 138.282V138.282Z" fill="#54596E"/>
<path d="M244.836 129.258C244.806 129.227 244.214 128.586 243.127 127.943C242.041 127.301 240.45 126.655 238.456 126.656C238.118 126.656 237.769 126.674 237.409 126.715C237.068 126.753 236.821 127.061 236.86 127.402C236.898 127.744 237.206 127.99 237.548 127.951C237.861 127.916 238.164 127.9 238.456 127.9C240.177 127.9 241.547 128.455 242.494 129.014C242.966 129.293 243.33 129.572 243.572 129.778C243.693 129.881 243.784 129.966 243.842 130.023L243.905 130.086L243.919 130.099L243.919 130.1C244.152 130.353 244.546 130.37 244.799 130.137C245.052 129.905 245.068 129.511 244.836 129.258V129.258Z" fill="#54596E"/>
<path d="M244.517 133.944C244.494 133.903 244.01 133.001 242.953 132.013C241.898 131.026 240.255 129.951 237.962 129.625C237.622 129.576 237.307 129.813 237.258 130.153C237.209 130.493 237.446 130.808 237.786 130.857C239.778 131.142 241.182 132.064 242.103 132.923C242.562 133.352 242.897 133.763 243.114 134.063C243.223 134.213 243.302 134.335 243.352 134.417L243.407 134.508L243.418 134.529L243.42 134.532L243.62 134.423L243.419 134.53L243.42 134.532L243.62 134.423L243.419 134.53C243.581 134.833 243.958 134.948 244.261 134.786C244.564 134.624 244.679 134.247 244.517 133.944V133.944Z" fill="#54596E"/>
<path d="M242.589 138.051C242.58 138.004 242.387 137 241.675 135.74C240.965 134.483 239.719 132.964 237.628 131.967C237.318 131.819 236.947 131.95 236.799 132.26C236.651 132.57 236.782 132.942 237.092 133.09C238.907 133.958 239.97 135.258 240.592 136.354C240.902 136.9 241.098 137.393 241.215 137.745C241.274 137.92 241.312 138.06 241.336 138.153L241.361 138.257L241.366 138.279L241.366 138.283L241.594 138.238L241.366 138.282L241.366 138.283L241.594 138.238L241.366 138.282C241.43 138.619 241.755 138.841 242.093 138.778C242.431 138.714 242.653 138.388 242.589 138.051V138.051Z" fill="#54596E"/>
<path d="M221.802 125.945C221.802 126.633 221.245 127.19 220.558 127.19C219.87 127.19 219.313 126.633 219.313 125.945C219.313 125.258 219.87 124.701 220.558 124.701C221.245 124.701 221.802 125.258 221.802 125.945Z" fill="#55A6FF"/>
<path d="M230.515 125.945C230.515 126.633 229.958 127.19 229.27 127.19C228.583 127.19 228.025 126.633 228.025 125.945C228.025 125.258 228.583 124.701 229.27 124.701C229.958 124.701 230.515 125.258 230.515 125.945Z" fill="#55A6FF"/>
<path d="M213.712 112.877C213.712 112.877 215.909 108.119 216.795 106.197C214.715 105.18 211.693 106.73 209.94 109.765C208.135 112.891 208.362 116.399 210.445 117.602C212.529 118.805 215.681 117.247 217.485 114.122C218.082 113.088 218.452 112.013 218.61 110.993L213.712 112.877Z" fill="#0097A7"/>
<path d="M213.713 112.877L214.278 113.138C214.278 113.138 216.474 108.379 217.361 106.458C217.502 106.151 217.373 105.786 217.069 105.637C216.547 105.382 215.978 105.263 215.401 105.263C214.296 105.265 213.166 105.688 212.129 106.413C211.091 107.14 210.14 108.176 209.401 109.454C208.534 110.959 208.101 112.551 208.1 113.999C208.1 114.873 208.258 115.698 208.592 116.416C208.925 117.133 209.443 117.743 210.134 118.141C210.712 118.476 211.361 118.632 212.017 118.631C213.124 118.629 214.255 118.204 215.294 117.478C216.332 116.749 217.285 115.712 218.024 114.433C218.658 113.334 219.054 112.188 219.225 111.089C219.259 110.869 219.174 110.648 219.001 110.509C218.828 110.369 218.594 110.332 218.387 110.412L213.489 112.296L213.713 112.877L214.278 113.138L213.713 112.877L213.936 113.458L218.834 111.574L218.61 110.993L217.995 110.898C217.849 111.838 217.505 112.842 216.946 113.81C216.294 114.94 215.455 115.846 214.579 116.459C213.703 117.074 212.796 117.388 212.017 117.387C211.552 117.385 211.133 117.28 210.756 117.064C210.308 116.803 209.964 116.411 209.72 115.89C209.477 115.37 209.344 114.722 209.344 113.999C209.343 112.801 209.711 111.404 210.479 110.077C211.13 108.948 211.968 108.044 212.842 107.432C213.717 106.819 214.623 106.506 215.401 106.508C215.809 106.508 216.182 106.59 216.522 106.756L216.796 106.197L216.23 105.936C215.787 106.897 215.016 108.567 214.356 109.997C213.696 111.427 213.147 112.616 213.147 112.616C213.041 112.846 213.085 113.118 213.258 113.303C213.432 113.488 213.699 113.549 213.936 113.458L213.713 112.877Z" fill="#54596E"/>
<path d="M210.316 117.554C210.295 117.574 210.04 117.812 209.773 118.199C209.512 118.586 209.215 119.126 209.209 119.802C209.207 120.155 209.304 120.541 209.53 120.889C209.87 121.415 210.453 121.833 211.313 122.154C212.177 122.475 213.339 122.709 214.929 122.832C215.272 122.858 215.571 122.602 215.598 122.26C215.624 121.917 215.368 121.618 215.025 121.592C213.007 121.438 211.794 121.084 211.161 120.719C210.842 120.537 210.67 120.362 210.577 120.216C210.484 120.069 210.455 119.946 210.453 119.802C210.447 119.534 210.606 119.179 210.798 118.904C210.893 118.768 210.99 118.652 211.061 118.574L211.144 118.485L211.164 118.465L211.167 118.462L211.018 118.306L211.166 118.464L211.167 118.462L211.018 118.306L211.166 118.464C211.417 118.229 211.43 117.835 211.196 117.584C210.961 117.333 210.567 117.32 210.316 117.554Z" fill="#54596E"/>
<path d="M236.023 112.877C236.023 112.877 233.827 108.119 232.94 106.197C235.021 105.18 238.043 106.73 239.795 109.765C241.6 112.891 241.374 116.399 239.29 117.602C237.206 118.805 234.055 117.247 232.25 114.122C231.653 113.088 231.283 112.013 231.125 110.993L236.023 112.877Z" fill="#0097A7"/>
<path d="M236.022 112.877L236.588 112.617C236.588 112.617 234.392 107.858 233.504 105.936L232.939 106.197L233.213 106.756C233.553 106.59 233.926 106.509 234.334 106.508C235.112 106.506 236.019 106.819 236.893 107.433C237.767 108.044 238.605 108.948 239.256 110.077C240.023 111.404 240.392 112.801 240.391 113.999C240.391 114.722 240.257 115.37 240.015 115.89C239.77 116.411 239.427 116.803 238.978 117.064H238.979C238.602 117.281 238.182 117.386 237.718 117.387C236.939 117.388 236.031 117.074 235.155 116.459C234.28 115.846 233.441 114.94 232.789 113.811C232.23 112.842 231.886 111.838 231.739 110.898L231.124 110.993L230.901 111.574L235.799 113.458C236.036 113.549 236.303 113.488 236.476 113.303C236.65 113.118 236.694 112.847 236.588 112.617L236.022 112.877L236.246 112.296L231.348 110.413C231.141 110.333 230.907 110.37 230.734 110.509C230.561 110.649 230.476 110.869 230.51 111.089C230.681 112.189 231.077 113.334 231.711 114.433C232.451 115.712 233.402 116.75 234.441 117.479C235.48 118.205 236.611 118.629 237.718 118.632C238.374 118.632 239.023 118.476 239.601 118.142H239.601C240.292 117.744 240.81 117.133 241.143 116.416C241.477 115.699 241.635 114.874 241.636 114C241.634 112.551 241.202 110.959 240.334 109.455C239.595 108.176 238.644 107.14 237.607 106.413C236.569 105.688 235.44 105.266 234.334 105.264C233.757 105.263 233.188 105.383 232.666 105.638C232.362 105.786 232.233 106.151 232.374 106.458C232.818 107.419 233.589 109.089 234.248 110.519C234.909 111.948 235.457 113.138 235.457 113.138L236.022 112.877L236.246 112.296L236.022 112.877Z" fill="#54596E"/>
<path d="M239.192 118.464L239.339 118.306L239.19 118.462L239.192 118.464L239.339 118.306L239.19 118.462C239.196 118.467 239.395 118.66 239.576 118.931C239.762 119.201 239.909 119.543 239.904 119.802C239.902 119.946 239.873 120.069 239.781 120.216C239.644 120.433 239.317 120.725 238.61 120.988C237.907 121.251 236.846 121.475 235.332 121.591C234.99 121.618 234.733 121.917 234.76 122.26C234.786 122.603 235.085 122.859 235.428 122.832C237.547 122.666 238.908 122.312 239.813 121.8C240.264 121.544 240.603 121.239 240.828 120.889C241.054 120.542 241.151 120.155 241.149 119.802C241.143 119.127 240.846 118.586 240.584 118.199C240.317 117.813 240.063 117.574 240.042 117.554C239.79 117.319 239.396 117.333 239.162 117.584C238.927 117.835 238.94 118.229 239.192 118.464V118.464Z" fill="#54596E"/>
<path d="M217.922 131.9C219.533 134.117 222.152 135.561 225.104 135.56C228.041 135.561 230.648 134.132 232.261 131.934C232.464 131.657 232.405 131.268 232.128 131.064C231.851 130.861 231.461 130.92 231.258 131.198C229.867 133.09 227.631 134.316 225.104 134.316C222.564 134.316 220.318 133.076 218.929 131.168C218.727 130.89 218.338 130.828 218.06 131.031C217.782 131.233 217.72 131.622 217.922 131.9V131.9Z" fill="#54596E"/>
</g>
<defs>
<radialGradient id="paint0_radial" cx="0" cy="0" r="1" gradientUnits="userSpaceOnUse" gradientTransform="translate(225 51) rotate(90) scale(151.25)">
<stop stop-color="#EBFFFC"/>
<stop offset="1" stop-color="#81D2C7"/>
</radialGradient>
<radialGradient id="paint1_radial" cx="0" cy="0" r="1" gradientUnits="userSpaceOnUse" gradientTransform="translate(275 150) rotate(90) scale(151.25)">
<stop stop-color="#EBFFFC"/>
<stop offset="1" stop-color="#81D2C7"/>
</radialGradient>
<radialGradient id="paint2_radial" cx="0" cy="0" r="1" gradientUnits="userSpaceOnUse" gradientTransform="translate(275 101) rotate(90) scale(151.25)">
<stop stop-color="#EBFFFC"/>
<stop offset="1" stop-color="#81D2C7"/>
</radialGradient>
<radialGradient id="paint3_radial" cx="0" cy="0" r="1" gradientUnits="userSpaceOnUse" gradientTransform="translate(275 51) rotate(90) scale(151.25)">
<stop stop-color="#EBFFFC"/>
<stop offset="1" stop-color="#81D2C7"/>
</radialGradient>
<radialGradient id="paint4_radial" cx="0" cy="0" r="1" gradientUnits="userSpaceOnUse" gradientTransform="translate(225 150) rotate(90) scale(151.25)">
<stop stop-color="#EBFFFC"/>
<stop offset="1" stop-color="#81D2C7"/>
</radialGradient>
<radialGradient id="paint5_radial" cx="0" cy="0" r="1" gradientUnits="userSpaceOnUse" gradientTransform="translate(175 150) rotate(90) scale(151.25)">
<stop stop-color="#EBFFFC"/>
<stop offset="1" stop-color="#81D2C7"/>
</radialGradient>
<radialGradient id="paint6_radial" cx="0" cy="0" r="1" gradientUnits="userSpaceOnUse" gradientTransform="translate(125 150) rotate(90) scale(151.25)">
<stop stop-color="#EBFFFC"/>
<stop offset="1" stop-color="#81D2C7"/>
</radialGradient>
<radialGradient id="paint7_radial" cx="0" cy="0" r="1" gradientUnits="userSpaceOnUse" gradientTransform="translate(125 101) rotate(90) scale(151.25)">
<stop stop-color="#EBFFFC"/>
<stop offset="1" stop-color="#81D2C7"/>
</radialGradient>
<radialGradient id="paint8_radial" cx="0" cy="0" r="1" gradientUnits="userSpaceOnUse" gradientTransform="translate(125 51) rotate(90) scale(151.25)">
<stop stop-color="#EBFFFC"/>
<stop offset="1" stop-color="#81D2C7"/>
</radialGradient>
<radialGradient id="paint9_radial" cx="0" cy="0" r="1" gradientUnits="userSpaceOnUse" gradientTransform="translate(175 51) rotate(90) scale(151.25)">
<stop stop-color="#EBFFFC"/>
<stop offset="1" stop-color="#81D2C7"/>
</radialGradient>
<radialGradient id="paint10_radial" cx="0" cy="0" r="1" gradientUnits="userSpaceOnUse" gradientTransform="translate(375.25 124.75) rotate(135) scale(106.42)">
<stop stop-color="#FED766"/>
<stop offset="1" stop-color="#FFFD98"/>
</radialGradient>
<radialGradient id="paint11_radial" cx="0" cy="0" r="1" gradientUnits="userSpaceOnUse" gradientTransform="translate(425.25 124.75) rotate(135) scale(106.42)">
<stop stop-color="#FED766"/>
<stop offset="1" stop-color="#FFFD98"/>
</radialGradient>
<radialGradient id="paint12_radial" cx="0" cy="0" r="1" gradientUnits="userSpaceOnUse" gradientTransform="translate(375.25 74.75) rotate(135) scale(106.42)">
<stop stop-color="#FED766"/>
<stop offset="1" stop-color="#FFFD98"/>
</radialGradient>
<radialGradient id="paint13_radial" cx="0" cy="0" r="1" gradientUnits="userSpaceOnUse" gradientTransform="translate(425.25 74.75) rotate(135) scale(106.42)">
<stop stop-color="#FED766"/>
<stop offset="1" stop-color="#FFFD98"/>
</radialGradient>
<radialGradient id="paint14_radial" cx="0" cy="0" r="1" gradientUnits="userSpaceOnUse" gradientTransform="translate(425.25 174.75) rotate(135) scale(106.42)">
<stop stop-color="#FED766"/>
<stop offset="1" stop-color="#FFFD98"/>
</radialGradient>
<radialGradient id="paint15_radial" cx="0" cy="0" r="1" gradientUnits="userSpaceOnUse" gradientTransform="translate(375.25 174.75) rotate(135) scale(106.42)">
<stop stop-color="#FED766"/>
<stop offset="1" stop-color="#FFFD98"/>
</radialGradient>
<radialGradient id="paint16_radial" cx="0" cy="0" r="1" gradientUnits="userSpaceOnUse" gradientTransform="translate(325.25 224.75) rotate(135) scale(106.42)">
<stop stop-color="#FED766"/>
<stop offset="1" stop-color="#FFFD98"/>
</radialGradient>
<radialGradient id="paint17_radial" cx="0" cy="0" r="1" gradientUnits="userSpaceOnUse" gradientTransform="translate(275.25 224.75) rotate(135) scale(106.42)">
<stop stop-color="#FED766"/>
<stop offset="1" stop-color="#FFFD98"/>
</radialGradient>
<radialGradient id="paint18_radial" cx="0" cy="0" r="1" gradientUnits="userSpaceOnUse" gradientTransform="translate(225.25 174.75) rotate(135) scale(106.42)">
<stop stop-color="#FED766"/>
<stop offset="1" stop-color="#FFFD98"/>
</radialGradient>
<radialGradient id="paint19_radial" cx="0" cy="0" r="1" gradientUnits="userSpaceOnUse" gradientTransform="translate(175.25 174.75) rotate(135) scale(106.42)">
<stop stop-color="#FED766"/>
<stop offset="1" stop-color="#FFFD98"/>
</radialGradient>
<radialGradient id="paint20_radial" cx="0" cy="0" r="1" gradientUnits="userSpaceOnUse" gradientTransform="translate(126.25 174.75) rotate(135) scale(106.42)">
<stop stop-color="#FED766"/>
<stop offset="1" stop-color="#FFFD98"/>
</radialGradient>
<radialGradient id="paint21_radial" cx="0" cy="0" r="1" gradientUnits="userSpaceOnUse" gradientTransform="translate(125.25 -25.25) rotate(135) scale(106.42)">
<stop stop-color="#FED766"/>
<stop offset="1" stop-color="#FFFD98"/>
</radialGradient>
<radialGradient id="paint22_radial" cx="0" cy="0" r="1" gradientUnits="userSpaceOnUse" gradientTransform="translate(75.25 -25.25) rotate(135) scale(106.42)">
<stop stop-color="#FED766"/>
<stop offset="1" stop-color="#FFFD98"/>
</radialGradient>
<radialGradient id="paint23_radial" cx="0" cy="0" r="1" gradientUnits="userSpaceOnUse" gradientTransform="translate(125.25 24.75) rotate(135) scale(106.42)">
<stop stop-color="#FED766"/>
<stop offset="1" stop-color="#FFFD98"/>
</radialGradient>
<radialGradient id="paint24_radial" cx="0" cy="0" r="1" gradientUnits="userSpaceOnUse" gradientTransform="translate(75.25 24.75) rotate(135) scale(106.42)">
<stop stop-color="#FED766"/>
<stop offset="1" stop-color="#FFFD98"/>
</radialGradient>
<radialGradient id="paint25_radial" cx="0" cy="0" r="1" gradientUnits="userSpaceOnUse" gradientTransform="translate(125.25 74.75) rotate(135) scale(106.42)">
<stop stop-color="#FED766"/>
<stop offset="1" stop-color="#FFFD98"/>
</radialGradient>
<radialGradient id="paint26_radial" cx="0" cy="0" r="1" gradientUnits="userSpaceOnUse" gradientTransform="translate(125.25 124.75) rotate(135) scale(106.42)">
<stop stop-color="#FED766"/>
<stop offset="1" stop-color="#FFFD98"/>
</radialGradient>
<radialGradient id="paint27_radial" cx="0" cy="0" r="1" gradientUnits="userSpaceOnUse" gradientTransform="translate(75.25 74.75) rotate(135) scale(106.42)">
<stop stop-color="#FED766"/>
<stop offset="1" stop-color="#FFFD98"/>
</radialGradient>
<radialGradient id="paint28_radial" cx="0" cy="0" r="1" gradientUnits="userSpaceOnUse" gradientTransform="translate(75.25 124.75) rotate(135) scale(106.42)">
<stop stop-color="#FED766"/>
<stop offset="1" stop-color="#FFFD98"/>
</radialGradient>
<radialGradient id="paint29_radial" cx="0" cy="0" r="1" gradientUnits="userSpaceOnUse" gradientTransform="translate(175.25 -24.25) rotate(135) scale(106.42)">
<stop stop-color="#FED766"/>
<stop offset="1" stop-color="#FFFD98"/>
</radialGradient>
<radialGradient id="paint30_radial" cx="0" cy="0" r="1" gradientUnits="userSpaceOnUse" gradientTransform="translate(225.25 -24.25) rotate(135) scale(106.42)">
<stop stop-color="#FED766"/>
<stop offset="1" stop-color="#FFFD98"/>
</radialGradient>
<radialGradient id="paint31_radial" cx="0" cy="0" r="1" gradientUnits="userSpaceOnUse" gradientTransform="translate(275.25 -24.25) rotate(135) scale(106.42)">
<stop stop-color="#FED766"/>
<stop offset="1" stop-color="#FFFD98"/>
</radialGradient>
<radialGradient id="paint32_radial" cx="0" cy="0" r="1" gradientUnits="userSpaceOnUse" gradientTransform="translate(325.25 -24.25) rotate(135) scale(106.42)">
<stop stop-color="#FED766"/>
<stop offset="1" stop-color="#FFFD98"/>
</radialGradient>
<radialGradient id="paint33_radial" cx="0" cy="0" r="1" gradientUnits="userSpaceOnUse" gradientTransform="translate(375.25 -24.25) rotate(135) scale(106.42)">
<stop stop-color="#FED766"/>
<stop offset="1" stop-color="#FFFD98"/>
</radialGradient>
<radialGradient id="paint34_radial" cx="0" cy="0" r="1" gradientUnits="userSpaceOnUse" gradientTransform="translate(375.25 25.75) rotate(135) scale(106.42)">
<stop stop-color="#FED766"/>
<stop offset="1" stop-color="#FFFD98"/>
</radialGradient>
<radialGradient id="paint35_radial" cx="0" cy="0" r="1" gradientUnits="userSpaceOnUse" gradientTransform="translate(425.25 25.75) rotate(135) scale(106.42)">
<stop stop-color="#FED766"/>
<stop offset="1" stop-color="#FFFD98"/>
</radialGradient>
<radialGradient id="paint36_radial" cx="0" cy="0" r="1" gradientUnits="userSpaceOnUse" gradientTransform="translate(425.25 -24.25) rotate(135) scale(106.42)">
<stop stop-color="#FED766"/>
<stop offset="1" stop-color="#FFFD98"/>
</radialGradient>
<radialGradient id="paint37_radial" cx="0" cy="0" r="1" gradientUnits="userSpaceOnUse" gradientTransform="translate(76.25 174.75) rotate(135) scale(106.42)">
<stop stop-color="#FED766"/>
<stop offset="1" stop-color="#FFFD98"/>
</radialGradient>
<clipPath id="clip0">
<rect width="40" height="40" fill="white" transform="translate(205 102)"/>
</clipPath>
</defs>
</svg>
