<svg width="400" height="250" fill="none" xmlns="http://www.w3.org/2000/svg"><path fill="url(#paint0_radial)" d="M200 51h50v50h-50z"/><path fill-rule="evenodd" clip-rule="evenodd" d="M213.106 66.364a6 6 0 0 0-8.485 0l-2.121-2.121a9 9 0 0 1 12.728 0L219.47 60l-4.242 4.243a6 6 0 0 0 8.485 0l2.121 2.121a9 9 0 0 1-12.728 0l-4.242 4.242 4.242-4.242zm21.214 0l2.121-2.121a6 6 0 0 0 8.485 0L240.684 60l6.364 6.364a9 9 0 0 1-12.728 0zm2.121-2.121a9 9 0 0 0-12.728 0l6.364 6.364-4.242-4.243a6 6 0 0 1 8.485 0l2.121-2.121zM247.048 76.864a9 9 0 0 1-12.728 0l2.121-2.121a6 6 0 0 0 8.485 0l-4.242-4.243 6.364 6.364zm-33.942 0a6 6 0 0 0-8.485 0l-2.121-2.121a9 9 0 0 1 12.728 0l4.242-4.243-4.242 4.243a6 6 0 0 0 8.485 0l2.121 2.121a9 9 0 0 1-12.728 0l-4.242 4.242 4.242-4.242zm23.335-2.121a9 9 0 0 0-12.728 0l6.364 6.364-4.242-4.243a6 6 0 0 1 8.485 0l2.121-2.121zM213.106 87.364a6 6 0 0 0-8.485 0l-2.121-2.121a9 9 0 0 1 12.728 0L219.47 81l-4.242 4.243a6 6 0 0 0 8.485 0l2.121 2.121a9 9 0 0 1-12.728 0l-4.242 4.242 4.242-4.242zm21.214 0l2.121-2.121a6 6 0 0 0 8.485 0L240.684 81l6.364 6.364a9 9 0 0 1-12.728 0zm2.121-2.121a9 9 0 0 0-12.728 0l6.364 6.364-4.242-4.243a6 6 0 0 1 8.485 0l2.121-2.121z" fill="#E8FEFB"/><path fill="url(#paint1_radial)" d="M250 150h50v50h-50z"/><path fill-rule="evenodd" clip-rule="evenodd" d="M263.106 165.364a6 6 0 0 0-8.485 0l-2.121-2.121a9 9 0 0 1 12.728-.001L269.47 159l-4.242 4.242v.001a6 6 0 0 0 8.485 0l2.121 2.121a9 9 0 0 1-12.728 0l-4.242 4.242 4.242-4.242zm21.214 0l2.121-2.121a6 6 0 0 0 8.485 0L290.684 159l6.364 6.364a9 9 0 0 1-12.728 0zm2.121-2.121a9 9 0 0 0-12.728 0l6.364 6.363-4.242-4.242a6 6 0 0 1 8.485 0l2.121-2.121zM297.048 175.864a9 9 0 0 1-12.728 0l2.121-2.121a6 6 0 0 0 8.485 0l-4.242-4.243 6.364 6.364zm-33.942 0a6 6 0 0 0-8.485 0l-2.121-2.121a9 9 0 0 1 12.728-.001l4.242-4.242-4.242 4.242v.001a6 6 0 0 0 8.485 0l2.121 2.121a9 9 0 0 1-12.728 0l-4.242 4.242 4.242-4.242zm23.335-2.121a9 9 0 0 0-12.728 0l6.364 6.363-4.242-4.242a6 6 0 0 1 8.485 0l2.121-2.121zM263.106 186.364a6 6 0 0 0-8.485 0l-2.121-2.121a9 9 0 0 1 12.728-.001L269.47 180l-4.242 4.242v.001a6 6 0 0 0 8.485 0l2.121 2.121a9 9 0 0 1-12.728 0l-4.242 4.242 4.242-4.242zm21.214 0l2.121-2.121a6 6 0 0 0 8.485 0L290.684 180l6.364 6.364a9 9 0 0 1-12.728 0zm2.121-2.121a9 9 0 0 0-12.728 0l6.364 6.363-4.242-4.242a6 6 0 0 1 8.485 0l2.121-2.121z" fill="#E8FEFB"/><path fill="url(#paint2_radial)" d="M250 101h50v50h-50z"/><path fill-rule="evenodd" clip-rule="evenodd" d="M263.106 116.364a6 6 0 0 0-8.485 0l-2.121-2.121a9 9 0 0 1 12.728-.001L269.47 110l-4.242 4.242v.001a6 6 0 0 0 8.485 0l2.121 2.121a9 9 0 0 1-12.728 0l-4.242 4.242 4.242-4.242zm21.214 0l2.121-2.121a6 6 0 0 0 8.485 0L290.684 110l6.364 6.364a9 9 0 0 1-12.728 0zm2.121-2.121a9 9 0 0 0-12.728 0l6.364 6.363-4.242-4.242a6 6 0 0 1 8.485 0l2.121-2.121zM297.048 126.864a9 9 0 0 1-12.728 0l2.121-2.121a6 6 0 0 0 8.485 0l-4.242-4.243 6.364 6.364zm-33.942 0a6 6 0 0 0-8.485 0l-2.121-2.121a9 9 0 0 1 12.728-.001l4.242-4.242-4.242 4.242v.001a6 6 0 0 0 8.485 0l2.121 2.121a9 9 0 0 1-12.728 0l-4.242 4.242 4.242-4.242zm23.335-2.121a9 9 0 0 0-12.728 0l6.364 6.363-4.242-4.242a6 6 0 0 1 8.485 0l2.121-2.121zM263.106 137.364a6 6 0 0 0-8.485 0l-2.121-2.121a9 9 0 0 1 12.728-.001L269.47 131l-4.242 4.242v.001a6 6 0 0 0 8.485 0l2.121 2.121a9 9 0 0 1-12.728 0l-4.242 4.242 4.242-4.242zm21.214 0l2.121-2.121a6 6 0 0 0 8.485 0L290.684 131l6.364 6.364a9 9 0 0 1-12.728 0zm2.121-2.121a9 9 0 0 0-12.728 0l6.364 6.363-4.242-4.242a6 6 0 0 1 8.485 0l2.121-2.121z" fill="#E8FEFB"/><path fill="url(#paint3_radial)" d="M250 51h50v50h-50z"/><path fill-rule="evenodd" clip-rule="evenodd" d="M263.106 66.364a6 6 0 0 0-8.485 0l-2.121-2.121a9 9 0 0 1 12.728 0L269.47 60l-4.242 4.243a6 6 0 0 0 8.485 0l2.121 2.121a9 9 0 0 1-12.728 0l-4.242 4.242 4.242-4.242zm21.214 0l2.121-2.121a6 6 0 0 0 8.485 0L290.684 60l6.364 6.364a9 9 0 0 1-12.728 0zm2.121-2.121a9 9 0 0 0-12.728 0l6.364 6.364-4.242-4.243a6 6 0 0 1 8.485 0l2.121-2.121zM297.048 76.864a9 9 0 0 1-12.728 0l2.121-2.121a6 6 0 0 0 8.485 0l-4.242-4.243 6.364 6.364zm-33.942 0a6 6 0 0 0-8.485 0l-2.121-2.121a9 9 0 0 1 12.728 0l4.242-4.243-4.242 4.243a6 6 0 0 0 8.485 0l2.121 2.121a9 9 0 0 1-12.728 0l-4.242 4.242 4.242-4.242zm23.335-2.121a9 9 0 0 0-12.728 0l6.364 6.364-4.242-4.243a6 6 0 0 1 8.485 0l2.121-2.121zM263.106 87.364a6 6 0 0 0-8.485 0l-2.121-2.121a9 9 0 0 1 12.728 0L269.47 81l-4.242 4.243a6 6 0 0 0 8.485 0l2.121 2.121a9 9 0 0 1-12.728 0l-4.242 4.242 4.242-4.242zm21.214 0l2.121-2.121a6 6 0 0 0 8.485 0L290.684 81l6.364 6.364a9 9 0 0 1-12.728 0zm2.121-2.121a9 9 0 0 0-12.728 0l6.364 6.364-4.242-4.243a6 6 0 0 1 8.485 0l2.121-2.121z" fill="#E8FEFB"/><path fill="url(#paint4_radial)" d="M200 150h50v50h-50z"/><path fill-rule="evenodd" clip-rule="evenodd" d="M213.106 165.364a6 6 0 0 0-8.485 0l-2.121-2.121a9 9 0 0 1 12.728-.001L219.47 159l-4.242 4.242v.001a6 6 0 0 0 8.485 0l2.121 2.121a9 9 0 0 1-12.728 0l-4.242 4.242 4.242-4.242zm21.214 0l2.121-2.121a6 6 0 0 0 8.485 0L240.684 159l6.364 6.364a9 9 0 0 1-12.728 0zm2.121-2.121a9 9 0 0 0-12.728 0l6.364 6.363-4.242-4.242a6 6 0 0 1 8.485 0l2.121-2.121zM247.048 175.864a9 9 0 0 1-12.728 0l2.121-2.121a6 6 0 0 0 8.485 0l-4.242-4.243 6.364 6.364zm-33.942 0a6 6 0 0 0-8.485 0l-2.121-2.121a9 9 0 0 1 12.728-.001l4.242-4.242-4.242 4.242v.001a6 6 0 0 0 8.485 0l2.121 2.121a9 9 0 0 1-12.728 0l-4.242 4.242 4.242-4.242zm23.335-2.121a9 9 0 0 0-12.728 0l6.364 6.363-4.242-4.242a6 6 0 0 1 8.485 0l2.121-2.121zM213.106 186.364a6 6 0 0 0-8.485 0l-2.121-2.121a9 9 0 0 1 12.728-.001L219.47 180l-4.242 4.242v.001a6 6 0 0 0 8.485 0l2.121 2.121a9 9 0 0 1-12.728 0l-4.242 4.242 4.242-4.242zm21.214 0l2.121-2.121a6 6 0 0 0 8.485 0L240.684 180l6.364 6.364a9 9 0 0 1-12.728 0zm2.121-2.121a9 9 0 0 0-12.728 0l6.364 6.363-4.242-4.242a6 6 0 0 1 8.485 0l2.121-2.121z" fill="#E8FEFB"/><path fill="url(#paint5_radial)" d="M150 150h50v50h-50z"/><path fill-rule="evenodd" clip-rule="evenodd" d="M163.106 165.364a6 6 0 0 0-8.485 0l-2.121-2.121a9 9 0 0 1 12.728-.001L169.47 159l-4.242 4.242v.001a6 6 0 0 0 8.485 0l2.121 2.121a9 9 0 0 1-12.728 0l-4.242 4.242 4.242-4.242zm21.214 0l2.121-2.121a6 6 0 0 0 8.485 0L190.684 159l6.364 6.364a9 9 0 0 1-12.728 0zm2.121-2.121a9 9 0 0 0-12.728 0l6.364 6.363-4.242-4.242a6 6 0 0 1 8.485 0l2.121-2.121zM197.048 175.864a9 9 0 0 1-12.728 0l2.121-2.121a6 6 0 0 0 8.485 0l-4.242-4.243 6.364 6.364zm-33.942 0a6 6 0 0 0-8.485 0l-2.121-2.121a9 9 0 0 1 12.728-.001l4.242-4.242-4.242 4.242v.001a6 6 0 0 0 8.485 0l2.121 2.121a9 9 0 0 1-12.728 0l-4.242 4.242 4.242-4.242zm23.335-2.121a9 9 0 0 0-12.728 0l6.364 6.363-4.242-4.242a6 6 0 0 1 8.485 0l2.121-2.121zM163.106 186.364a6 6 0 0 0-8.485 0l-2.121-2.121a9 9 0 0 1 12.728-.001L169.47 180l-4.242 4.242v.001a6 6 0 0 0 8.485 0l2.121 2.121a9 9 0 0 1-12.728 0l-4.242 4.242 4.242-4.242zm21.214 0l2.121-2.121a6 6 0 0 0 8.485 0L190.684 180l6.364 6.364a9 9 0 0 1-12.728 0zm2.121-2.121a9 9 0 0 0-12.728 0l6.364 6.363-4.242-4.242a6 6 0 0 1 8.485 0l2.121-2.121z" fill="#E8FEFB"/><path fill="url(#paint6_radial)" d="M100 150h50v50h-50z"/><path fill-rule="evenodd" clip-rule="evenodd" d="M113.106 165.364a6 6 0 0 0-8.485 0l-2.121-2.121a9 9 0 0 1 12.728-.001L119.47 159l-4.242 4.242v.001a6 6 0 0 0 8.485 0l2.121 2.121a9 9 0 0 1-12.728 0l-4.242 4.242 4.242-4.242zm21.214 0l2.121-2.121a6 6 0 0 0 8.485 0L140.684 159l6.364 6.364a9 9 0 0 1-12.728 0zm2.121-2.121a9 9 0 0 0-12.728 0l6.364 6.363-4.242-4.242a6 6 0 0 1 8.485 0l2.121-2.121zM147.048 175.864a9 9 0 0 1-12.728 0l2.121-2.121a6 6 0 0 0 8.485 0l-4.242-4.243 6.364 6.364zm-33.942 0a6 6 0 0 0-8.485 0l-2.121-2.121a9 9 0 0 1 12.728-.001l4.242-4.242-4.242 4.242v.001a6 6 0 0 0 8.485 0l2.121 2.121a9 9 0 0 1-12.728 0l-4.242 4.242 4.242-4.242zm23.335-2.121a9 9 0 0 0-12.728 0l6.364 6.363-4.242-4.242a6 6 0 0 1 8.485 0l2.121-2.121zM113.106 186.364a6 6 0 0 0-8.485 0l-2.121-2.121a9 9 0 0 1 12.728-.001L119.47 180l-4.242 4.242v.001a6 6 0 0 0 8.485 0l2.121 2.121a9 9 0 0 1-12.728 0l-4.242 4.242 4.242-4.242zm21.214 0l2.121-2.121a6 6 0 0 0 8.485 0L140.684 180l6.364 6.364a9 9 0 0 1-12.728 0zm2.121-2.121a9 9 0 0 0-12.728 0l6.364 6.363-4.242-4.242a6 6 0 0 1 8.485 0l2.121-2.121z" fill="#E8FEFB"/><path fill="url(#paint7_radial)" d="M100 101h50v50h-50z"/><path fill-rule="evenodd" clip-rule="evenodd" d="M113.106 116.364a6 6 0 0 0-8.485 0l-2.121-2.121a9 9 0 0 1 12.728-.001L119.47 110l-4.242 4.242v.001a6 6 0 0 0 8.485 0l2.121 2.121a9 9 0 0 1-12.728 0l-4.242 4.242 4.242-4.242zm21.214 0l2.121-2.121a6 6 0 0 0 8.485 0L140.684 110l6.364 6.364a9 9 0 0 1-12.728 0zm2.121-2.121a9 9 0 0 0-12.728 0l6.364 6.363-4.242-4.242a6 6 0 0 1 8.485 0l2.121-2.121zM147.048 126.864a9 9 0 0 1-12.728 0l2.121-2.121a6 6 0 0 0 8.485 0l-4.242-4.243 6.364 6.364zm-33.942 0a6 6 0 0 0-8.485 0l-2.121-2.121a9 9 0 0 1 12.728-.001l4.242-4.242-4.242 4.242v.001a6 6 0 0 0 8.485 0l2.121 2.121a9 9 0 0 1-12.728 0l-4.242 4.242 4.242-4.242zm23.335-2.121a9 9 0 0 0-12.728 0l6.364 6.363-4.242-4.242a6 6 0 0 1 8.485 0l2.121-2.121zM113.106 137.364a6 6 0 0 0-8.485 0l-2.121-2.121a9 9 0 0 1 12.728-.001L119.47 131l-4.242 4.242v.001a6 6 0 0 0 8.485 0l2.121 2.121a9 9 0 0 1-12.728 0l-4.242 4.242 4.242-4.242zm21.214 0l2.121-2.121a6 6 0 0 0 8.485 0L140.684 131l6.364 6.364a9 9 0 0 1-12.728 0zm2.121-2.121a9 9 0 0 0-12.728 0l6.364 6.363-4.242-4.242a6 6 0 0 1 8.485 0l2.121-2.121z" fill="#E8FEFB"/><path fill="url(#paint8_radial)" d="M100 51h50v50h-50z"/><path fill-rule="evenodd" clip-rule="evenodd" d="M113.106 66.364a6 6 0 0 0-8.485 0l-2.121-2.121a9 9 0 0 1 12.728 0L119.47 60l-4.242 4.243a6 6 0 0 0 8.485 0l2.121 2.121a9 9 0 0 1-12.728 0l-4.242 4.242 4.242-4.242zm21.214 0l2.121-2.121a6 6 0 0 0 8.485 0L140.684 60l6.364 6.364a9 9 0 0 1-12.728 0zm2.121-2.121a9 9 0 0 0-12.728 0l6.364 6.364-4.242-4.243a6 6 0 0 1 8.485 0l2.121-2.121zM147.048 76.864a9 9 0 0 1-12.728 0l2.121-2.121a6 6 0 0 0 8.485 0l-4.242-4.243 6.364 6.364zm-33.942 0a6 6 0 0 0-8.485 0l-2.121-2.121a9 9 0 0 1 12.728 0l4.242-4.243-4.242 4.243a6 6 0 0 0 8.485 0l2.121 2.121a9 9 0 0 1-12.728 0l-4.242 4.242 4.242-4.242zm23.335-2.121a9 9 0 0 0-12.728 0l6.364 6.364-4.242-4.243a6 6 0 0 1 8.485 0l2.121-2.121zM113.106 87.364a6 6 0 0 0-8.485 0l-2.121-2.121a9 9 0 0 1 12.728 0L119.47 81l-4.242 4.243a6 6 0 0 0 8.485 0l2.121 2.121a9 9 0 0 1-12.728 0l-4.242 4.242 4.242-4.242zm21.214 0l2.121-2.121a6 6 0 0 0 8.485 0L140.684 81l6.364 6.364a9 9 0 0 1-12.728 0zm2.121-2.121a9 9 0 0 0-12.728 0l6.364 6.364-4.242-4.243a6 6 0 0 1 8.485 0l2.121-2.121z" fill="#E8FEFB"/><path fill="url(#paint9_radial)" d="M150 51h50v50h-50z"/><path fill-rule="evenodd" clip-rule="evenodd" d="M163.106 66.364a6 6 0 0 0-8.485 0l-2.121-2.121a9 9 0 0 1 12.728 0L169.47 60l-4.242 4.243a6 6 0 0 0 8.485 0l2.121 2.121a9 9 0 0 1-12.728 0l-4.242 4.242 4.242-4.242zm21.214 0l2.121-2.121a6 6 0 0 0 8.485 0L190.684 60l6.364 6.364a9 9 0 0 1-12.728 0zm2.121-2.121a9 9 0 0 0-12.728 0l6.364 6.364-4.242-4.243a6 6 0 0 1 8.485 0l2.121-2.121zM197.048 76.864a9 9 0 0 1-12.728 0l2.121-2.121a6 6 0 0 0 8.485 0l-4.242-4.243 6.364 6.364zm-33.942 0a6 6 0 0 0-8.485 0l-2.121-2.121a9 9 0 0 1 12.728 0l4.242-4.243-4.242 4.243a6 6 0 0 0 8.485 0l2.121 2.121a9 9 0 0 1-12.728 0l-4.242 4.242 4.242-4.242zm23.335-2.121a9 9 0 0 0-12.728 0l6.364 6.364-4.242-4.243a6 6 0 0 1 8.485 0l2.121-2.121zM163.106 87.364a6 6 0 0 0-8.485 0l-2.121-2.121a9 9 0 0 1 12.728 0L169.47 81l-4.242 4.243a6 6 0 0 0 8.485 0l2.121 2.121a9 9 0 0 1-12.728 0l-4.242 4.242 4.242-4.242zm21.214 0l2.121-2.121a6 6 0 0 0 8.485 0L190.684 81l6.364 6.364a9 9 0 0 1-12.728 0zm2.121-2.121a9 9 0 0 0-12.728 0l6.364 6.364-4.242-4.243a6 6 0 0 1 8.485 0l2.121-2.121z" fill="#E8FEFB"/><path fill="#FED766" d="M200 101h50v50h-50z"/><mask id="a" maskUnits="userSpaceOnUse" x="200" y="101" width="50" height="50"><path fill="#C4C4C4" d="M200 101h50v50h-50z"/></mask><g mask="url(#a)" fill="#81D2C7"><path d="M166 131.211l70.71-70.71 3.536 3.535-70.71 70.71zM173.071 138.282l70.71-70.71 3.536 3.535-70.71 70.71zM180.142 145.353l70.71-70.71 3.536 3.535-70.71 70.71zM187.213 152.424l70.71-70.71 3.536 3.535-70.71 70.71zM194.284 159.495l70.71-70.71 3.536 3.535-70.71 70.71zM201.355 166.566l70.71-70.71 3.536 3.535-70.71 70.71zM208.426 173.637l70.71-70.71 3.536 3.535-70.71 70.71zM215.498 180.708l70.71-70.71 3.536 3.535-70.71 70.71z"/></g><path fill="#FED766" d="M150 101h50v50h-50z"/><mask id="b" maskUnits="userSpaceOnUse" x="150" y="101" width="50" height="50"><path fill="#C4C4C4" d="M150 101h50v50h-50z"/></mask><g mask="url(#b)" fill="#81D2C7"><path d="M116 131.211l70.71-70.71 3.536 3.535-70.71 70.71zM123.071 138.282l70.71-70.71 3.536 3.535-70.71 70.71zM130.142 145.353l70.71-70.71 3.536 3.535-70.71 70.71zM137.213 152.424l70.71-70.71 3.536 3.535-70.71 70.71zM144.284 159.495l70.71-70.71 3.536 3.535-70.71 70.71zM151.355 166.566l70.71-70.71 3.536 3.535-70.71 70.71zM158.426 173.637l70.71-70.71 3.536 3.535-70.71 70.71zM165.498 180.708l70.71-70.71 3.536 3.535-70.71 70.71z"/></g><path fill="url(#paint10_radial)" d="M300 150h50v50h-50z"/><path d="M308.333 150L300 159.091v3.409l8.333-9.091 8.334 9.091 8.333-9.091 8.333 9.091 8.334-9.091L350 162.5v-3.409L341.667 150l-8.334 9.091L325 150l-8.333 9.091-8.334-9.091zM308.333 162.5L300 171.591V175l8.333-9.091 8.334 9.091 8.333-9.091 8.333 9.091 8.334-9.091L350 175v-3.409l-8.333-9.091-8.334 9.091L325 162.5l-8.333 9.091-8.334-9.091zM308.333 175L300 184.091v3.409l8.333-9.091 8.334 9.091 8.333-9.091 8.333 9.091 8.334-9.091L350 187.5v-3.409L341.667 175l-8.334 9.091L325 175l-8.333 9.091-8.334-9.091zM308.333 187.5L300 196.591V200l8.333-9.091 8.334 9.091 8.333-9.091 8.333 9.091 8.334-9.091L350 200v-3.409l-8.333-9.091-8.334 9.091L325 187.5l-8.333 9.091-8.334-9.091z" fill="#EFA00B" fill-opacity=".1"/><path fill="url(#paint11_radial)" d="M350 150h50v50h-50z"/><path d="M358.333 150L350 159.091v3.409l8.333-9.091 8.334 9.091 8.333-9.091 8.333 9.091 8.334-9.091L400 162.5v-3.409L391.667 150l-8.334 9.091L375 150l-8.333 9.091-8.334-9.091zM358.333 162.5L350 171.591V175l8.333-9.091 8.334 9.091 8.333-9.091 8.333 9.091 8.334-9.091L400 175v-3.409l-8.333-9.091-8.334 9.091L375 162.5l-8.333 9.091-8.334-9.091zM358.333 175L350 184.091v3.409l8.333-9.091 8.334 9.091 8.333-9.091 8.333 9.091 8.334-9.091L400 187.5v-3.409L391.667 175l-8.334 9.091L375 175l-8.333 9.091-8.334-9.091zM358.333 187.5L350 196.591V200l8.333-9.091 8.334 9.091 8.333-9.091 8.333 9.091 8.334-9.091L400 200v-3.409l-8.333-9.091-8.334 9.091L375 187.5l-8.333 9.091-8.334-9.091z" fill="#EFA00B" fill-opacity=".1"/><path fill="url(#paint12_radial)" d="M300 100h50v50h-50z"/><path d="M308.333 100L300 109.091v3.409l8.333-9.091 8.334 9.091 8.333-9.091 8.333 9.091 8.334-9.091L350 112.5v-3.409L341.667 100l-8.334 9.091L325 100l-8.333 9.091-8.334-9.091zM308.333 112.5L300 121.591V125l8.333-9.091 8.334 9.091 8.333-9.091 8.333 9.091 8.334-9.091L350 125v-3.409l-8.333-9.091-8.334 9.091L325 112.5l-8.333 9.091-8.334-9.091zM308.333 125L300 134.091v3.409l8.333-9.091 8.334 9.091 8.333-9.091 8.333 9.091 8.334-9.091L350 137.5v-3.409L341.667 125l-8.334 9.091L325 125l-8.333 9.091-8.334-9.091zM308.333 137.5L300 146.591V150l8.333-9.091 8.334 9.091 8.333-9.091 8.333 9.091 8.334-9.091L350 150v-3.409l-8.333-9.091-8.334 9.091L325 137.5l-8.333 9.091-8.334-9.091z" fill="#EFA00B" fill-opacity=".1"/><path fill="url(#paint13_radial)" d="M350 100h50v50h-50z"/><path d="M358.333 100L350 109.091v3.409l8.333-9.091 8.334 9.091 8.333-9.091 8.333 9.091 8.334-9.091L400 112.5v-3.409L391.667 100l-8.334 9.091L375 100l-8.333 9.091-8.334-9.091zM358.333 112.5L350 121.591V125l8.333-9.091 8.334 9.091 8.333-9.091 8.333 9.091 8.334-9.091L400 125v-3.409l-8.333-9.091-8.334 9.091L375 112.5l-8.333 9.091-8.334-9.091zM358.333 125L350 134.091v3.409l8.333-9.091 8.334 9.091 8.333-9.091 8.333 9.091 8.334-9.091L400 137.5v-3.409L391.667 125l-8.334 9.091L375 125l-8.333 9.091-8.334-9.091zM358.333 137.5L350 146.591V150l8.333-9.091 8.334 9.091 8.333-9.091 8.333 9.091 8.334-9.091L400 150v-3.409l-8.333-9.091-8.334 9.091L375 137.5l-8.333 9.091-8.334-9.091z" fill="#EFA00B" fill-opacity=".1"/><path fill="url(#paint14_radial)" d="M350 200h50v50h-50z"/><path d="M358.333 200L350 209.091v3.409l8.333-9.091 8.334 9.091 8.333-9.091 8.333 9.091 8.334-9.091L400 212.5v-3.409L391.667 200l-8.334 9.091L375 200l-8.333 9.091-8.334-9.091zM358.333 212.5L350 221.591V225l8.333-9.091 8.334 9.091 8.333-9.091 8.333 9.091 8.334-9.091L400 225v-3.409l-8.333-9.091-8.334 9.091L375 212.5l-8.333 9.091-8.334-9.091zM358.333 225L350 234.091v3.409l8.333-9.091 8.334 9.091 8.333-9.091 8.333 9.091 8.334-9.091L400 237.5v-3.409L391.667 225l-8.334 9.091L375 225l-8.333 9.091-8.334-9.091zM358.333 237.5L350 246.591V250l8.333-9.091 8.334 9.091 8.333-9.091 8.333 9.091 8.334-9.091L400 250v-3.409l-8.333-9.091-8.334 9.091L375 237.5l-8.333 9.091-8.334-9.091z" fill="#EFA00B" fill-opacity=".1"/><path fill="url(#paint15_radial)" d="M300 200h50v50h-50z"/><path d="M308.333 200L300 209.091v3.409l8.333-9.091 8.334 9.091 8.333-9.091 8.333 9.091 8.334-9.091L350 212.5v-3.409L341.667 200l-8.334 9.091L325 200l-8.333 9.091-8.334-9.091zM308.333 212.5L300 221.591V225l8.333-9.091 8.334 9.091 8.333-9.091 8.333 9.091 8.334-9.091L350 225v-3.409l-8.333-9.091-8.334 9.091L325 212.5l-8.333 9.091-8.334-9.091zM308.333 225L300 234.091v3.409l8.333-9.091 8.334 9.091 8.333-9.091 8.333 9.091 8.334-9.091L350 237.5v-3.409L341.667 225l-8.334 9.091L325 225l-8.333 9.091-8.334-9.091zM308.333 237.5L300 246.591V250l8.333-9.091 8.334 9.091 8.333-9.091 8.333 9.091 8.334-9.091L350 250v-3.409l-8.333-9.091-8.334 9.091L325 237.5l-8.333 9.091-8.334-9.091z" fill="#EFA00B" fill-opacity=".1"/><path transform="rotate(-90 250 250)" fill="url(#paint16_radial)" d="M250 250h50v50h-50z"/><path d="M250 241.667l9.091 8.333h3.409l-9.091-8.333 9.091-8.334-9.091-8.333 9.091-8.333-9.091-8.334L262.5 200h-3.409L250 208.333l9.091 8.334L250 225l9.091 8.333-9.091 8.334zM262.5 241.667l9.091 8.333H275l-9.091-8.333 9.091-8.334-9.091-8.333 9.091-8.333-9.091-8.334L275 200h-3.409l-9.091 8.333 9.091 8.334L262.5 225l9.091 8.333-9.091 8.334zM275 241.667l9.091 8.333h3.409l-9.091-8.333 9.091-8.334-9.091-8.333 9.091-8.333-9.091-8.334L287.5 200h-3.409L275 208.333l9.091 8.334L275 225l9.091 8.333-9.091 8.334zM287.5 241.667l9.091 8.333H300l-9.091-8.333 9.091-8.334-9.091-8.333 9.091-8.333-9.091-8.334L300 200h-3.409l-9.091 8.333 9.091 8.334L287.5 225l9.091 8.333-9.091 8.334z" fill="#EFA00B" fill-opacity=".1"/><path transform="rotate(-90 200 250)" fill="url(#paint17_radial)" d="M200 250h50v50h-50z"/><path d="M200 241.667l9.091 8.333h3.409l-9.091-8.333 9.091-8.334-9.091-8.333 9.091-8.333-9.091-8.334L212.5 200h-3.409L200 208.333l9.091 8.334L200 225l9.091 8.333-9.091 8.334zM212.5 241.667l9.091 8.333H225l-9.091-8.333 9.091-8.334-9.091-8.333 9.091-8.333-9.091-8.334L225 200h-3.409l-9.091 8.333 9.091 8.334L212.5 225l9.091 8.333-9.091 8.334zM225 241.667l9.091 8.333h3.409l-9.091-8.333 9.091-8.334-9.091-8.333 9.091-8.333-9.091-8.334L237.5 200h-3.409L225 208.333l9.091 8.334L225 225l9.091 8.333-9.091 8.334zM237.5 241.667l9.091 8.333H250l-9.091-8.333 9.091-8.334-9.091-8.333 9.091-8.333-9.091-8.334L250 200h-3.409l-9.091 8.333 9.091 8.334L237.5 225l9.091 8.333-9.091 8.334z" fill="#EFA00B" fill-opacity=".1"/><path fill="url(#paint18_radial)" d="M150 200h50v50h-50z"/><path d="M158.333 200L150 209.091v3.409l8.333-9.091 8.334 9.091 8.333-9.091 8.333 9.091 8.334-9.091L200 212.5v-3.409L191.667 200l-8.334 9.091L175 200l-8.333 9.091-8.334-9.091zM158.333 212.5L150 221.591V225l8.333-9.091 8.334 9.091 8.333-9.091 8.333 9.091 8.334-9.091L200 225v-3.409l-8.333-9.091-8.334 9.091L175 212.5l-8.333 9.091-8.334-9.091zM158.333 225L150 234.091v3.409l8.333-9.091 8.334 9.091 8.333-9.091 8.333 9.091 8.334-9.091L200 237.5v-3.409L191.667 225l-8.334 9.091L175 225l-8.333 9.091-8.334-9.091zM158.333 237.5L150 246.591V250l8.333-9.091 8.334 9.091 8.333-9.091 8.333 9.091 8.334-9.091L200 250v-3.409l-8.333-9.091-8.334 9.091L175 237.5l-8.333 9.091-8.334-9.091z" fill="#EFA00B" fill-opacity=".1"/><path fill="url(#paint19_radial)" d="M100 200h50v50h-50z"/><path d="M108.333 200L100 209.091v3.409l8.333-9.091 8.334 9.091 8.333-9.091 8.333 9.091 8.334-9.091L150 212.5v-3.409L141.667 200l-8.334 9.091L125 200l-8.333 9.091-8.334-9.091zM108.333 212.5L100 221.591V225l8.333-9.091 8.334 9.091 8.333-9.091 8.333 9.091 8.334-9.091L150 225v-3.409l-8.333-9.091-8.334 9.091L125 212.5l-8.333 9.091-8.334-9.091zM108.333 225L100 234.091v3.409l8.333-9.091 8.334 9.091 8.333-9.091 8.333 9.091 8.334-9.091L150 237.5v-3.409L141.667 225l-8.334 9.091L125 225l-8.333 9.091-8.334-9.091zM108.333 237.5L100 246.591V250l8.333-9.091 8.334 9.091 8.333-9.091 8.333 9.091 8.334-9.091L150 250v-3.409l-8.333-9.091-8.334 9.091L125 237.5l-8.333 9.091-8.334-9.091z" fill="#EFA00B" fill-opacity=".1"/><path fill="url(#paint20_radial)" d="M51 200h50v50H51z"/><path d="M59.333 200L51 209.091v3.409l8.333-9.091 8.334 9.091L76 203.409l8.333 9.091 8.334-9.091L101 212.5v-3.409L92.667 200l-8.334 9.091L76 200l-8.333 9.091L59.333 200zM59.333 212.5L51 221.591V225l8.333-9.091L67.667 225 76 215.909 84.333 225l8.334-9.091L101 225v-3.409l-8.333-9.091-8.334 9.091L76 212.5l-8.333 9.091-8.334-9.091zM59.333 225L51 234.091v3.409l8.333-9.091 8.334 9.091L76 228.409l8.333 9.091 8.334-9.091L101 237.5v-3.409L92.667 225l-8.334 9.091L76 225l-8.333 9.091L59.333 225zM59.333 237.5L51 246.591V250l8.333-9.091L67.667 250 76 240.909 84.333 250l8.334-9.091L101 250v-3.409l-8.333-9.091-8.334 9.091L76 237.5l-8.333 9.091-8.334-9.091z" fill="#EFA00B" fill-opacity=".1"/><path fill="url(#paint21_radial)" d="M50 0h50v50H50z"/><path d="M58.333 0L50 9.09v3.41l8.333-9.09 8.334 9.09L75 3.41l8.333 9.09 8.334-9.09L100 12.5V9.09L91.667 0l-8.334 9.09L75 0l-8.333 9.09L58.333 0zM58.333 12.5L50 21.59V25l8.333-9.09L66.667 25 75 15.91 83.333 25l8.334-9.09L100 25v-3.41l-8.333-9.09-8.334 9.09L75 12.5l-8.333 9.09-8.334-9.09zM58.333 25L50 34.09v3.41l8.333-9.09 8.334 9.09L75 28.41l8.333 9.09 8.334-9.09L100 37.5v-3.41L91.667 25l-8.334 9.09L75 25l-8.333 9.09L58.333 25zM58.333 37.5L50 46.59V50l8.333-9.09L66.667 50 75 40.91 83.333 50l8.334-9.09L100 50v-3.41l-8.333-9.09-8.334 9.09L75 37.5l-8.333 9.09-8.334-9.09z" fill="#EFA00B" fill-opacity=".1"/><path fill="url(#paint22_radial)" d="M0 0h50v50H0z"/><path d="M8.333 0L0 9.09v3.41l8.333-9.09 8.334 9.09L25 3.41l8.333 9.09 8.334-9.09L50 12.5V9.09L41.667 0l-8.334 9.09L25 0l-8.333 9.09L8.333 0zM8.333 12.5L0 21.59V25l8.333-9.09L16.667 25 25 15.91 33.333 25l8.334-9.09L50 25v-3.41l-8.333-9.09-8.334 9.09L25 12.5l-8.333 9.09-8.334-9.09zM8.333 25L0 34.09v3.41l8.333-9.09 8.334 9.09L25 28.41l8.333 9.09 8.334-9.09L50 37.5v-3.41L41.667 25l-8.334 9.09L25 25l-8.333 9.09L8.333 25zM8.333 37.5L0 46.59V50l8.333-9.09L16.667 50 25 40.91 33.333 50l8.334-9.09L50 50v-3.41l-8.333-9.09-8.334 9.09L25 37.5l-8.333 9.09-8.334-9.09z" fill="#EFA00B" fill-opacity=".1"/><path fill="url(#paint23_radial)" d="M50 50h50v50H50z"/><path d="M58.333 50L50 59.09v3.41l8.333-9.09 8.334 9.09L75 53.41l8.333 9.09 8.334-9.09L100 62.5v-3.41L91.667 50l-8.334 9.09L75 50l-8.333 9.09L58.333 50zM58.333 62.5L50 71.59V75l8.333-9.09L66.667 75 75 65.91 83.333 75l8.334-9.09L100 75v-3.41l-8.333-9.09-8.334 9.09L75 62.5l-8.333 9.09-8.334-9.09zM58.333 75L50 84.09v3.41l8.333-9.09 8.334 9.09L75 78.41l8.333 9.09 8.334-9.09L100 87.5v-3.41L91.667 75l-8.334 9.09L75 75l-8.333 9.09L58.333 75zM58.333 87.5L50 96.59V100l8.333-9.09 8.334 9.09L75 90.91l8.333 9.09 8.334-9.09L100 100v-3.41l-8.333-9.09-8.334 9.09L75 87.5l-8.333 9.09-8.334-9.09z" fill="#EFA00B" fill-opacity=".1"/><path fill="url(#paint24_radial)" d="M0 50h50v50H0z"/><path d="M8.333 50L0 59.09v3.41l8.333-9.09 8.334 9.09L25 53.41l8.333 9.09 8.334-9.09L50 62.5v-3.41L41.667 50l-8.334 9.09L25 50l-8.333 9.09L8.333 50zM8.333 62.5L0 71.59V75l8.333-9.09L16.667 75 25 65.91 33.333 75l8.334-9.09L50 75v-3.41l-8.333-9.09-8.334 9.09L25 62.5l-8.333 9.09-8.334-9.09zM8.333 75L0 84.09v3.41l8.333-9.09 8.334 9.09L25 78.41l8.333 9.09 8.334-9.09L50 87.5v-3.41L41.667 75l-8.334 9.09L25 75l-8.333 9.09L8.333 75zM8.333 87.5L0 96.59V100l8.333-9.09 8.334 9.09L25 90.91l8.333 9.09 8.334-9.09L50 100v-3.41l-8.333-9.09-8.334 9.09L25 87.5l-8.333 9.09-8.334-9.09z" fill="#EFA00B" fill-opacity=".1"/><path fill="url(#paint25_radial)" d="M50 100h50v50H50z"/><path d="M58.333 100L50 109.091v3.409l8.333-9.091 8.334 9.091L75 103.409l8.333 9.091 8.334-9.091L100 112.5v-3.409L91.667 100l-8.334 9.091L75 100l-8.333 9.091L58.333 100zM58.333 112.5L50 121.591V125l8.333-9.091L66.667 125 75 115.909 83.333 125l8.334-9.091L100 125v-3.409l-8.333-9.091-8.334 9.091L75 112.5l-8.333 9.091-8.334-9.091zM58.333 125L50 134.091v3.409l8.333-9.091 8.334 9.091L75 128.409l8.333 9.091 8.334-9.091L100 137.5v-3.409L91.667 125l-8.334 9.091L75 125l-8.333 9.091L58.333 125zM58.333 137.5L50 146.591V150l8.333-9.091L66.667 150 75 140.909 83.333 150l8.334-9.091L100 150v-3.409l-8.333-9.091-8.334 9.091L75 137.5l-8.333 9.091-8.334-9.091z" fill="#EFA00B" fill-opacity=".1"/><path fill="url(#paint26_radial)" d="M50 150h50v50H50z"/><path d="M58.333 150L50 159.091v3.409l8.333-9.091 8.334 9.091L75 153.409l8.333 9.091 8.334-9.091L100 162.5v-3.409L91.667 150l-8.334 9.091L75 150l-8.333 9.091L58.333 150zM58.333 162.5L50 171.591V175l8.333-9.091L66.667 175 75 165.909 83.333 175l8.334-9.091L100 175v-3.409l-8.333-9.091-8.334 9.091L75 162.5l-8.333 9.091-8.334-9.091zM58.333 175L50 184.091v3.409l8.333-9.091 8.334 9.091L75 178.409l8.333 9.091 8.334-9.091L100 187.5v-3.409L91.667 175l-8.334 9.091L75 175l-8.333 9.091L58.333 175zM58.333 187.5L50 196.591V200l8.333-9.091L66.667 200 75 190.909 83.333 200l8.334-9.091L100 200v-3.409l-8.333-9.091-8.334 9.091L75 187.5l-8.333 9.091-8.334-9.091z" fill="#EFA00B" fill-opacity=".1"/><path fill="url(#paint27_radial)" d="M0 100h50v50H0z"/><path d="M8.333 100L0 109.091v3.409l8.333-9.091 8.334 9.091L25 103.409l8.333 9.091 8.334-9.091L50 112.5v-3.409L41.667 100l-8.334 9.091L25 100l-8.333 9.091L8.333 100zM8.333 112.5L0 121.591V125l8.333-9.091L16.667 125 25 115.909 33.333 125l8.334-9.091L50 125v-3.409l-8.333-9.091-8.334 9.091L25 112.5l-8.333 9.091-8.334-9.091zM8.333 125L0 134.091v3.409l8.333-9.091 8.334 9.091L25 128.409l8.333 9.091 8.334-9.091L50 137.5v-3.409L41.667 125l-8.334 9.091L25 125l-8.333 9.091L8.333 125zM8.333 137.5L0 146.591V150l8.333-9.091L16.667 150 25 140.909 33.333 150l8.334-9.091L50 150v-3.409l-8.333-9.091-8.334 9.091L25 137.5l-8.333 9.091-8.334-9.091z" fill="#EFA00B" fill-opacity=".1"/><path fill="url(#paint28_radial)" d="M0 150h50v50H0z"/><path d="M8.333 150L0 159.091v3.409l8.333-9.091 8.334 9.091L25 153.409l8.333 9.091 8.334-9.091L50 162.5v-3.409L41.667 150l-8.334 9.091L25 150l-8.333 9.091L8.333 150zM8.333 162.5L0 171.591V175l8.333-9.091L16.667 175 25 165.909 33.333 175l8.334-9.091L50 175v-3.409l-8.333-9.091-8.334 9.091L25 162.5l-8.333 9.091-8.334-9.091zM8.333 175L0 184.091v3.409l8.333-9.091 8.334 9.091L25 178.409l8.333 9.091 8.334-9.091L50 187.5v-3.409L41.667 175l-8.334 9.091L25 175l-8.333 9.091L8.333 175zM8.333 187.5L0 196.591V200l8.333-9.091L16.667 200 25 190.909 33.333 200l8.334-9.091L50 200v-3.409l-8.333-9.091-8.334 9.091L25 187.5l-8.333 9.091-8.334-9.091z" fill="#EFA00B" fill-opacity=".1"/><path fill="url(#paint29_radial)" d="M100 1h50v50h-50z"/><path d="M108.333 1L100 10.09v3.41l8.333-9.09 8.334 9.09L125 4.41l8.333 9.09 8.334-9.09L150 13.5v-3.41L141.667 1l-8.334 9.09L125 1l-8.333 9.09L108.333 1zM108.333 13.5L100 22.59V26l8.333-9.09 8.334 9.09L125 16.91l8.333 9.09 8.334-9.09L150 26v-3.41l-8.333-9.09-8.334 9.09L125 13.5l-8.333 9.09-8.334-9.09zM108.333 26L100 35.09v3.41l8.333-9.09 8.334 9.09L125 29.41l8.333 9.09 8.334-9.09L150 38.5v-3.41L141.667 26l-8.334 9.09L125 26l-8.333 9.09-8.334-9.09zM108.333 38.5L100 47.59V51l8.333-9.09 8.334 9.09L125 41.91l8.333 9.09 8.334-9.09L150 51v-3.41l-8.333-9.09-8.334 9.09L125 38.5l-8.333 9.09-8.334-9.09z" fill="#EFA00B" fill-opacity=".1"/><path fill="url(#paint30_radial)" d="M150 1h50v50h-50z"/><path d="M158.333 1L150 10.09v3.41l8.333-9.09 8.334 9.09L175 4.41l8.333 9.09 8.334-9.09L200 13.5v-3.41L191.667 1l-8.334 9.09L175 1l-8.333 9.09L158.333 1zM158.333 13.5L150 22.59V26l8.333-9.09 8.334 9.09L175 16.91l8.333 9.09 8.334-9.09L200 26v-3.41l-8.333-9.09-8.334 9.09L175 13.5l-8.333 9.09-8.334-9.09zM158.333 26L150 35.09v3.41l8.333-9.09 8.334 9.09L175 29.41l8.333 9.09 8.334-9.09L200 38.5v-3.41L191.667 26l-8.334 9.09L175 26l-8.333 9.09-8.334-9.09zM158.333 38.5L150 47.59V51l8.333-9.09 8.334 9.09L175 41.91l8.333 9.09 8.334-9.09L200 51v-3.41l-8.333-9.09-8.334 9.09L175 38.5l-8.333 9.09-8.334-9.09z" fill="#EFA00B" fill-opacity=".1"/><path fill="url(#paint31_radial)" d="M200 1h50v50h-50z"/><path d="M208.333 1L200 10.09v3.41l8.333-9.09 8.334 9.09L225 4.41l8.333 9.09 8.334-9.09L250 13.5v-3.41L241.667 1l-8.334 9.09L225 1l-8.333 9.09L208.333 1zM208.333 13.5L200 22.59V26l8.333-9.09 8.334 9.09L225 16.91l8.333 9.09 8.334-9.09L250 26v-3.41l-8.333-9.09-8.334 9.09L225 13.5l-8.333 9.09-8.334-9.09zM208.333 26L200 35.09v3.41l8.333-9.09 8.334 9.09L225 29.41l8.333 9.09 8.334-9.09L250 38.5v-3.41L241.667 26l-8.334 9.09L225 26l-8.333 9.09-8.334-9.09zM208.333 38.5L200 47.59V51l8.333-9.09 8.334 9.09L225 41.91l8.333 9.09 8.334-9.09L250 51v-3.41l-8.333-9.09-8.334 9.09L225 38.5l-8.333 9.09-8.334-9.09z" fill="#EFA00B" fill-opacity=".1"/><path fill="url(#paint32_radial)" d="M250 1h50v50h-50z"/><path d="M258.333 1L250 10.09v3.41l8.333-9.09 8.334 9.09L275 4.41l8.333 9.09 8.334-9.09L300 13.5v-3.41L291.667 1l-8.334 9.09L275 1l-8.333 9.09L258.333 1zM258.333 13.5L250 22.59V26l8.333-9.09 8.334 9.09L275 16.91l8.333 9.09 8.334-9.09L300 26v-3.41l-8.333-9.09-8.334 9.09L275 13.5l-8.333 9.09-8.334-9.09zM258.333 26L250 35.09v3.41l8.333-9.09 8.334 9.09L275 29.41l8.333 9.09 8.334-9.09L300 38.5v-3.41L291.667 26l-8.334 9.09L275 26l-8.333 9.09-8.334-9.09zM258.333 38.5L250 47.59V51l8.333-9.09 8.334 9.09L275 41.91l8.333 9.09 8.334-9.09L300 51v-3.41l-8.333-9.09-8.334 9.09L275 38.5l-8.333 9.09-8.334-9.09z" fill="#EFA00B" fill-opacity=".1"/><path fill="url(#paint33_radial)" d="M300 1h50v50h-50z"/><path d="M308.333 1L300 10.09v3.41l8.333-9.09 8.334 9.09L325 4.41l8.333 9.09 8.334-9.09L350 13.5v-3.41L341.667 1l-8.334 9.09L325 1l-8.333 9.09L308.333 1zM308.333 13.5L300 22.59V26l8.333-9.09 8.334 9.09L325 16.91l8.333 9.09 8.334-9.09L350 26v-3.41l-8.333-9.09-8.334 9.09L325 13.5l-8.333 9.09-8.334-9.09zM308.333 26L300 35.09v3.41l8.333-9.09 8.334 9.09L325 29.41l8.333 9.09 8.334-9.09L350 38.5v-3.41L341.667 26l-8.334 9.09L325 26l-8.333 9.09-8.334-9.09zM308.333 38.5L300 47.59V51l8.333-9.09 8.334 9.09L325 41.91l8.333 9.09 8.334-9.09L350 51v-3.41l-8.333-9.09-8.334 9.09L325 38.5l-8.333 9.09-8.334-9.09z" fill="#EFA00B" fill-opacity=".1"/><path fill="url(#paint34_radial)" d="M300 51h50v50h-50z"/><path d="M308.333 51L300 60.09v3.41l8.333-9.09 8.334 9.09L325 54.41l8.333 9.09 8.334-9.09L350 63.5v-3.41L341.667 51l-8.334 9.09L325 51l-8.333 9.09-8.334-9.09zM308.333 63.5L300 72.59V76l8.333-9.09 8.334 9.09L325 66.91l8.333 9.09 8.334-9.09L350 76v-3.41l-8.333-9.09-8.334 9.09L325 63.5l-8.333 9.09-8.334-9.09zM308.333 76L300 85.09v3.41l8.333-9.09 8.334 9.09L325 79.41l8.333 9.09 8.334-9.09L350 88.5v-3.41L341.667 76l-8.334 9.09L325 76l-8.333 9.09-8.334-9.09zM308.333 88.5L300 97.59V101l8.333-9.09 8.334 9.09L325 91.91l8.333 9.09 8.334-9.09L350 101v-3.41l-8.333-9.09-8.334 9.09L325 88.5l-8.333 9.09-8.334-9.09z" fill="#EFA00B" fill-opacity=".1"/><path fill="url(#paint35_radial)" d="M350 51h50v50h-50z"/><path d="M358.333 51L350 60.09v3.41l8.333-9.09 8.334 9.09L375 54.41l8.333 9.09 8.334-9.09L400 63.5v-3.41L391.667 51l-8.334 9.09L375 51l-8.333 9.09-8.334-9.09zM358.333 63.5L350 72.59V76l8.333-9.09 8.334 9.09L375 66.91l8.333 9.09 8.334-9.09L400 76v-3.41l-8.333-9.09-8.334 9.09L375 63.5l-8.333 9.09-8.334-9.09zM358.333 76L350 85.09v3.41l8.333-9.09 8.334 9.09L375 79.41l8.333 9.09 8.334-9.09L400 88.5v-3.41L391.667 76l-8.334 9.09L375 76l-8.333 9.09-8.334-9.09zM358.333 88.5L350 97.59V101l8.333-9.09 8.334 9.09L375 91.91l8.333 9.09 8.334-9.09L400 101v-3.41l-8.333-9.09-8.334 9.09L375 88.5l-8.333 9.09-8.334-9.09z" fill="#EFA00B" fill-opacity=".1"/><path fill="url(#paint36_radial)" d="M350 1h50v50h-50z"/><path d="M358.333 1L350 10.09v3.41l8.333-9.09 8.334 9.09L375 4.41l8.333 9.09 8.334-9.09L400 13.5v-3.41L391.667 1l-8.334 9.09L375 1l-8.333 9.09L358.333 1zM358.333 13.5L350 22.59V26l8.333-9.09 8.334 9.09L375 16.91l8.333 9.09 8.334-9.09L400 26v-3.41l-8.333-9.09-8.334 9.09L375 13.5l-8.333 9.09-8.334-9.09zM358.333 26L350 35.09v3.41l8.333-9.09 8.334 9.09L375 29.41l8.333 9.09 8.334-9.09L400 38.5v-3.41L391.667 26l-8.334 9.09L375 26l-8.333 9.09-8.334-9.09zM358.333 38.5L350 47.59V51l8.333-9.09 8.334 9.09L375 41.91l8.333 9.09 8.334-9.09L400 51v-3.41l-8.333-9.09-8.334 9.09L375 38.5l-8.333 9.09-8.334-9.09z" fill="#EFA00B" fill-opacity=".1"/><path fill="url(#paint37_radial)" d="M1 200h50v50H1z"/><path d="M9.333 200L1 209.091v3.409l8.333-9.091 8.334 9.091L26 203.409l8.333 9.091 8.334-9.091L51 212.5v-3.409L42.667 200l-8.334 9.091L26 200l-8.333 9.091L9.333 200zM9.333 212.5L1 221.591V225l8.333-9.091L17.667 225 26 215.909 34.333 225l8.334-9.091L51 225v-3.409l-8.333-9.091-8.334 9.091L26 212.5l-8.333 9.091-8.334-9.091zM9.333 225L1 234.091v3.409l8.333-9.091 8.334 9.091L26 228.409l8.333 9.091 8.334-9.091L51 237.5v-3.409L42.667 225l-8.334 9.091L26 225l-8.333 9.091L9.333 225zM9.333 237.5L1 246.591V250l8.333-9.091L17.667 250 26 240.909 34.333 250l8.334-9.091L51 250v-3.409l-8.333-9.091-8.334 9.091L26 237.5l-8.333 9.091-8.334-9.091z" fill="#EFA00B" fill-opacity=".1"/><g clip-path="url(#clip0)"><path d="M237.236 129.555c0-6.805-5.517-12.322-12.322-12.322-6.805 0-12.321 5.517-12.321 12.322 0 6.805 5.516 8.215 12.321 8.215s12.322-1.41 12.322-8.215z" fill="#0097A7"/><path d="M237.236 129.555h.622c-.001-7.149-5.795-12.944-12.944-12.944-7.149 0-12.943 5.795-12.944 12.944 0 1.784.364 3.264 1.051 4.464a6.886 6.886 0 0 0 2.025 2.211c1.231.871 2.736 1.404 4.408 1.728 1.674.322 3.522.434 5.46.434 3.445-.004 6.608-.343 9.008-1.63 1.197-.644 2.2-1.543 2.885-2.743.688-1.2 1.051-2.68 1.051-4.464h-1.245c0 1.619-.326 2.866-.886 3.845a5.614 5.614 0 0 1-1.665 1.814c-1.03.731-2.365 1.221-3.924 1.521-1.558.301-3.334.413-5.224.412-3.36.005-6.358-.362-8.417-1.481-1.033-.558-1.834-1.287-2.396-2.266-.56-.979-.886-2.226-.886-3.845 0-3.233 1.308-6.154 3.426-8.273a11.659 11.659 0 0 1 8.273-3.426c3.233 0 6.154 1.308 8.273 3.426a11.659 11.659 0 0 1 3.426 8.273h.623z" fill="#54596E"/><path d="M224.291 125.945a3.733 3.733 0 1 1-7.467 0 3.733 3.733 0 0 1 7.467 0z" fill="#fff"/><path d="M224.291 125.945h.623a4.358 4.358 0 0 0-4.356-4.356 4.358 4.358 0 0 0-4.357 4.356 4.358 4.358 0 0 0 4.357 4.357 4.358 4.358 0 0 0 4.356-4.357h-1.245c0 .862-.347 1.636-.912 2.201a3.093 3.093 0 0 1-2.199.911 3.098 3.098 0 0 1-2.201-.911 3.098 3.098 0 0 1-.911-2.201 3.1 3.1 0 0 1 .911-2.2 3.098 3.098 0 0 1 2.201-.911c.861 0 1.635.347 2.199.911.565.566.912 1.339.912 2.2h.622z" fill="#54596E"/><path d="M233.004 125.945a3.733 3.733 0 1 1-7.466.002 3.733 3.733 0 0 1 7.466-.002z" fill="#fff"/><path d="M233.004 125.945h.622a4.357 4.357 0 1 0-8.71.002 4.357 4.357 0 0 0 8.71-.002h-1.245c0 .862-.347 1.636-.911 2.201a3.097 3.097 0 0 1-2.2.911 3.097 3.097 0 0 1-2.2-.911 3.095 3.095 0 0 1-.912-2.201c0-.861.347-1.634.912-2.2a3.097 3.097 0 0 1 2.2-.911c.861 0 1.635.347 2.2.911a3.1 3.1 0 0 1 .911 2.2h.623zM206.081 130.101v-.001c.037-.039.574-.598 1.516-1.138a7.902 7.902 0 0 1 4.856-1.011.62.62 0 1 0 .138-1.236 9.154 9.154 0 0 0-5.718 1.228c-1.087.643-1.679 1.284-1.709 1.315a.624.624 0 0 0 .917.843zM206.581 134.531l-.202-.108.201.109.001-.001-.202-.108.201.109c.005-.01.44-.804 1.36-1.649a7.868 7.868 0 0 1 4.274-2.026.623.623 0 0 0-.176-1.232 9.135 9.135 0 0 0-4.991 2.388c-1.057.989-1.541 1.89-1.564 1.931a.622.622 0 0 0 1.098.587zM208.634 138.282l-.231-.044.231.045v-.001l-.231-.044.231.045c.001-.011.179-.898.803-1.98a7.883 7.883 0 0 1 3.471-3.213.621.621 0 1 0-.536-1.123 9.13 9.13 0 0 0-4.047 3.774c-.712 1.259-.905 2.264-.914 2.31a.622.622 0 1 0 1.223.231zM244.836 129.258c-.03-.031-.622-.672-1.709-1.315a9.144 9.144 0 0 0-5.718-1.228.622.622 0 1 0 .139 1.236 7.907 7.907 0 0 1 4.946 1.063c.472.279.836.558 1.078.764.121.103.212.188.27.245l.063.063.014.013v.001a.623.623 0 0 0 .917-.842zM244.517 133.944c-.023-.041-.507-.943-1.564-1.931a9.128 9.128 0 0 0-4.991-2.388.622.622 0 0 0-.176 1.232 7.88 7.88 0 0 1 4.317 2.066c.459.429.794.84 1.011 1.14.109.15.188.272.238.354l.055.091.011.021.002.003.2-.109-.201.107.001.002.2-.109-.201.107a.622.622 0 0 0 1.098-.586zM242.589 138.051c-.009-.047-.202-1.051-.914-2.311a9.118 9.118 0 0 0-4.047-3.773.622.622 0 1 0-.536 1.123 7.877 7.877 0 0 1 3.5 3.264c.31.546.506 1.039.623 1.391.059.175.097.315.121.408l.025.104.005.022v.004l.228-.045-.228.044v.001l.228-.045-.228.044a.623.623 0 0 0 1.223-.231z" fill="#54596E"/><path d="M221.802 125.945a1.244 1.244 0 1 1-2.489.001 1.244 1.244 0 0 1 2.489-.001zM230.515 125.945a1.244 1.244 0 1 1-2.489.001 1.244 1.244 0 0 1 2.489-.001z" fill="#55A6FF"/><path d="M213.712 112.877l3.083-6.68c-2.08-1.017-5.102.533-6.855 3.568-1.805 3.126-1.578 6.634.505 7.837 2.084 1.203 5.236-.355 7.04-3.48a9.09 9.09 0 0 0 1.125-3.129l-4.898 1.884z" fill="#0097A7"/><path d="M213.713 112.877l.565.261 3.083-6.68a.625.625 0 0 0-.292-.821 3.783 3.783 0 0 0-1.668-.374c-1.105.002-2.235.425-3.272 1.15-1.038.727-1.989 1.763-2.728 3.041-.867 1.505-1.3 3.097-1.301 4.545 0 .874.158 1.699.492 2.417.333.717.851 1.327 1.542 1.725a3.724 3.724 0 0 0 1.883.49c1.107-.002 2.238-.427 3.277-1.153 1.038-.729 1.991-1.766 2.73-3.045a9.729 9.729 0 0 0 1.201-3.344.621.621 0 0 0-.838-.677l-4.898 1.884.224.581.565.261-.565-.261.223.581 4.898-1.884-.224-.581-.615-.095a8.482 8.482 0 0 1-1.049 2.912c-.652 1.13-1.491 2.036-2.367 2.649-.876.615-1.783.929-2.562.928a2.507 2.507 0 0 1-1.261-.323c-.448-.261-.792-.653-1.036-1.174-.243-.52-.376-1.168-.376-1.891-.001-1.198.367-2.595 1.135-3.922.651-1.129 1.489-2.033 2.363-2.645.875-.613 1.781-.926 2.559-.924.408 0 .781.082 1.121.248l.274-.559-.566-.261-1.874 4.061-1.209 2.619a.624.624 0 0 0 .789.842l-.223-.581z" fill="#54596E"/><path d="M210.316 117.554c-.021.02-.276.258-.543.645-.261.387-.558.927-.564 1.603-.002.353.095.739.321 1.087.34.526.923.944 1.783 1.265.864.321 2.026.555 3.616.678a.622.622 0 0 0 .096-1.24c-2.018-.154-3.231-.508-3.864-.873-.319-.182-.491-.357-.584-.503a.736.736 0 0 1-.124-.414c-.006-.268.153-.623.345-.898a3.38 3.38 0 0 1 .263-.33l.083-.089.02-.02.003-.003-.149-.156.148.158.001-.002-.149-.156.148.158a.624.624 0 0 0-.85-.91z" fill="#54596E"/><path d="M236.023 112.877l-3.083-6.68c2.081-1.017 5.103.533 6.855 3.568 1.805 3.126 1.579 6.634-.505 7.837-2.084 1.203-5.235-.355-7.04-3.48a9.09 9.09 0 0 1-1.125-3.129l4.898 1.884z" fill="#0097A7"/><path d="M236.022 112.877l.566-.26-3.084-6.681-.565.261.274.559c.34-.166.713-.247 1.121-.248.778-.002 1.685.311 2.559.925.874.611 1.712 1.515 2.363 2.644.767 1.327 1.136 2.724 1.135 3.922 0 .723-.134 1.371-.376 1.891-.245.521-.588.913-1.037 1.174h.001a2.49 2.49 0 0 1-1.261.323c-.779.001-1.687-.313-2.563-.928-.875-.613-1.714-1.519-2.366-2.648a8.518 8.518 0 0 1-1.05-2.913l-.615.095-.223.581 4.898 1.884a.62.62 0 0 0 .789-.841l-.566.26.224-.581-4.898-1.883a.622.622 0 0 0-.838.676 9.722 9.722 0 0 0 1.201 3.344c.74 1.279 1.691 2.317 2.73 3.046 1.039.726 2.17 1.15 3.277 1.153.656 0 1.305-.156 1.883-.49.691-.398 1.209-1.009 1.542-1.726.334-.717.492-1.542.493-2.416-.002-1.449-.434-3.041-1.302-4.545-.739-1.279-1.69-2.315-2.727-3.042-1.038-.725-2.167-1.147-3.273-1.149a3.77 3.77 0 0 0-1.668.374.623.623 0 0 0-.292.82 5111.218 5111.218 0 0 1 3.083 6.68l.565-.261.224-.581-.224.581z" fill="#54596E"/><path d="M239.192 118.464l.147-.158-.149.156.002.002.147-.158-.149.156c.006.005.205.198.386.469.186.27.333.612.328.871a.742.742 0 0 1-.123.414c-.137.217-.464.509-1.171.772-.703.263-1.764.487-3.278.603a.623.623 0 0 0 .096 1.241c2.119-.166 3.48-.52 4.385-1.032.451-.256.79-.561 1.015-.911.226-.347.323-.734.321-1.087-.006-.675-.303-1.216-.565-1.603-.267-.386-.521-.625-.542-.645a.623.623 0 1 0-.85.91zM217.922 131.9a8.86 8.86 0 0 0 7.182 3.66 8.86 8.86 0 0 0 7.157-3.626.623.623 0 0 0-1.003-.736 7.618 7.618 0 0 1-6.154 3.118 7.62 7.62 0 0 1-6.175-3.148.622.622 0 1 0-1.007.732z" fill="#54596E"/></g><defs><radialGradient id="paint0_radial" cx="0" cy="0" r="1" gradientUnits="userSpaceOnUse" gradientTransform="rotate(90 87 138) scale(151.25)"><stop stop-color="#EBFFFC"/><stop offset="1" stop-color="#81D2C7"/></radialGradient><radialGradient id="paint1_radial" cx="0" cy="0" r="1" gradientUnits="userSpaceOnUse" gradientTransform="matrix(0 151.25 -151.25 0 275 150)"><stop stop-color="#EBFFFC"/><stop offset="1" stop-color="#81D2C7"/></radialGradient><radialGradient id="paint2_radial" cx="0" cy="0" r="1" gradientUnits="userSpaceOnUse" gradientTransform="rotate(90 87 188) scale(151.25)"><stop stop-color="#EBFFFC"/><stop offset="1" stop-color="#81D2C7"/></radialGradient><radialGradient id="paint3_radial" cx="0" cy="0" r="1" gradientUnits="userSpaceOnUse" gradientTransform="rotate(90 112 163) scale(151.25)"><stop stop-color="#EBFFFC"/><stop offset="1" stop-color="#81D2C7"/></radialGradient><radialGradient id="paint4_radial" cx="0" cy="0" r="1" gradientUnits="userSpaceOnUse" gradientTransform="matrix(0 151.25 -151.25 0 225 150)"><stop stop-color="#EBFFFC"/><stop offset="1" stop-color="#81D2C7"/></radialGradient><radialGradient id="paint5_radial" cx="0" cy="0" r="1" gradientUnits="userSpaceOnUse" gradientTransform="matrix(0 151.25 -151.25 0 175 150)"><stop stop-color="#EBFFFC"/><stop offset="1" stop-color="#81D2C7"/></radialGradient><radialGradient id="paint6_radial" cx="0" cy="0" r="1" gradientUnits="userSpaceOnUse" gradientTransform="matrix(0 151.25 -151.25 0 125 150)"><stop stop-color="#EBFFFC"/><stop offset="1" stop-color="#81D2C7"/></radialGradient><radialGradient id="paint7_radial" cx="0" cy="0" r="1" gradientUnits="userSpaceOnUse" gradientTransform="rotate(90 12 113) scale(151.25)"><stop stop-color="#EBFFFC"/><stop offset="1" stop-color="#81D2C7"/></radialGradient><radialGradient id="paint8_radial" cx="0" cy="0" r="1" gradientUnits="userSpaceOnUse" gradientTransform="rotate(90 37 88) scale(151.25)"><stop stop-color="#EBFFFC"/><stop offset="1" stop-color="#81D2C7"/></radialGradient><radialGradient id="paint9_radial" cx="0" cy="0" r="1" gradientUnits="userSpaceOnUse" gradientTransform="rotate(90 62 113) scale(151.25)"><stop stop-color="#EBFFFC"/><stop offset="1" stop-color="#81D2C7"/></radialGradient><radialGradient id="paint10_radial" cx="0" cy="0" r="1" gradientUnits="userSpaceOnUse" gradientTransform="rotate(135 161.788 140.092) scale(106.42)"><stop stop-color="#FED766"/><stop offset="1" stop-color="#FFFD98"/></radialGradient><radialGradient id="paint11_radial" cx="0" cy="0" r="1" gradientUnits="userSpaceOnUse" gradientTransform="rotate(135 186.788 150.447) scale(106.42)"><stop stop-color="#FED766"/><stop offset="1" stop-color="#FFFD98"/></radialGradient><radialGradient id="paint12_radial" cx="0" cy="0" r="1" gradientUnits="userSpaceOnUse" gradientTransform="rotate(135 172.144 115.092) scale(106.42)"><stop stop-color="#FED766"/><stop offset="1" stop-color="#FFFD98"/></radialGradient><radialGradient id="paint13_radial" cx="0" cy="0" r="1" gradientUnits="userSpaceOnUse" gradientTransform="rotate(135 197.144 125.447) scale(106.42)"><stop stop-color="#FED766"/><stop offset="1" stop-color="#FFFD98"/></radialGradient><radialGradient id="paint14_radial" cx="0" cy="0" r="1" gradientUnits="userSpaceOnUse" gradientTransform="rotate(135 176.433 175.447) scale(106.42)"><stop stop-color="#FED766"/><stop offset="1" stop-color="#FFFD98"/></radialGradient><radialGradient id="paint15_radial" cx="0" cy="0" r="1" gradientUnits="userSpaceOnUse" gradientTransform="rotate(135 151.433 165.092) scale(106.42)"><stop stop-color="#FED766"/><stop offset="1" stop-color="#FFFD98"/></radialGradient><radialGradient id="paint16_radial" cx="0" cy="0" r="1" gradientUnits="userSpaceOnUse" gradientTransform="rotate(135 116.078 179.736) scale(106.42)"><stop stop-color="#FED766"/><stop offset="1" stop-color="#FFFD98"/></radialGradient><radialGradient id="paint17_radial" cx="0" cy="0" r="1" gradientUnits="userSpaceOnUse" gradientTransform="rotate(135 91.078 169.381) scale(106.42)"><stop stop-color="#FED766"/><stop offset="1" stop-color="#FFFD98"/></radialGradient><radialGradient id="paint18_radial" cx="0" cy="0" r="1" gradientUnits="userSpaceOnUse" gradientTransform="rotate(135 76.433 134.026) scale(106.42)"><stop stop-color="#FED766"/><stop offset="1" stop-color="#FFFD98"/></radialGradient><radialGradient id="paint19_radial" cx="0" cy="0" r="1" gradientUnits="userSpaceOnUse" gradientTransform="rotate(135 51.433 123.67) scale(106.42)"><stop stop-color="#FED766"/><stop offset="1" stop-color="#FFFD98"/></radialGradient><radialGradient id="paint20_radial" cx="0" cy="0" r="1" gradientUnits="userSpaceOnUse" gradientTransform="rotate(135 26.933 113.522) scale(106.42)"><stop stop-color="#FED766"/><stop offset="1" stop-color="#FFFD98"/></radialGradient><radialGradient id="paint21_radial" cx="0" cy="0" r="1" gradientUnits="userSpaceOnUse" gradientTransform="rotate(135 67.854 13.315) scale(106.42)"><stop stop-color="#FED766"/><stop offset="1" stop-color="#FFFD98"/></radialGradient><radialGradient id="paint22_radial" cx="0" cy="0" r="1" gradientUnits="userSpaceOnUse" gradientTransform="rotate(135 42.854 2.96) scale(106.42)"><stop stop-color="#FED766"/><stop offset="1" stop-color="#FFFD98"/></radialGradient><radialGradient id="paint23_radial" cx="0" cy="0" r="1" gradientUnits="userSpaceOnUse" gradientTransform="rotate(135 57.5 38.315) scale(106.42)"><stop stop-color="#FED766"/><stop offset="1" stop-color="#FFFD98"/></radialGradient><radialGradient id="paint24_radial" cx="0" cy="0" r="1" gradientUnits="userSpaceOnUse" gradientTransform="rotate(135 32.5 27.96) scale(106.42)"><stop stop-color="#FED766"/><stop offset="1" stop-color="#FFFD98"/></radialGradient><radialGradient id="paint25_radial" cx="0" cy="0" r="1" gradientUnits="userSpaceOnUse" gradientTransform="rotate(135 47.144 63.315) scale(106.42)"><stop stop-color="#FED766"/><stop offset="1" stop-color="#FFFD98"/></radialGradient><radialGradient id="paint26_radial" cx="0" cy="0" r="1" gradientUnits="userSpaceOnUse" gradientTransform="rotate(135 36.788 88.315) scale(106.42)"><stop stop-color="#FED766"/><stop offset="1" stop-color="#FFFD98"/></radialGradient><radialGradient id="paint27_radial" cx="0" cy="0" r="1" gradientUnits="userSpaceOnUse" gradientTransform="rotate(135 22.144 52.96) scale(106.42)"><stop stop-color="#FED766"/><stop offset="1" stop-color="#FFFD98"/></radialGradient><radialGradient id="paint28_radial" cx="0" cy="0" r="1" gradientUnits="userSpaceOnUse" gradientTransform="rotate(135 11.788 77.96) scale(106.42)"><stop stop-color="#FED766"/><stop offset="1" stop-color="#FFFD98"/></radialGradient><radialGradient id="paint29_radial" cx="0" cy="0" r="1" gradientUnits="userSpaceOnUse" gradientTransform="rotate(135 92.647 24.17) scale(106.42)"><stop stop-color="#FED766"/><stop offset="1" stop-color="#FFFD98"/></radialGradient><radialGradient id="paint30_radial" cx="0" cy="0" r="1" gradientUnits="userSpaceOnUse" gradientTransform="rotate(135 117.647 34.526) scale(106.42)"><stop stop-color="#FED766"/><stop offset="1" stop-color="#FFFD98"/></radialGradient><radialGradient id="paint31_radial" cx="0" cy="0" r="1" gradientUnits="userSpaceOnUse" gradientTransform="rotate(135 142.647 44.881) scale(106.42)"><stop stop-color="#FED766"/><stop offset="1" stop-color="#FFFD98"/></radialGradient><radialGradient id="paint32_radial" cx="0" cy="0" r="1" gradientUnits="userSpaceOnUse" gradientTransform="rotate(135 167.647 55.236) scale(106.42)"><stop stop-color="#FED766"/><stop offset="1" stop-color="#FFFD98"/></radialGradient><radialGradient id="paint33_radial" cx="0" cy="0" r="1" gradientUnits="userSpaceOnUse" gradientTransform="rotate(135 192.647 65.592) scale(106.42)"><stop stop-color="#FED766"/><stop offset="1" stop-color="#FFFD98"/></radialGradient><radialGradient id="paint34_radial" cx="0" cy="0" r="1" gradientUnits="userSpaceOnUse" gradientTransform="rotate(135 182.292 90.592) scale(106.42)"><stop stop-color="#FED766"/><stop offset="1" stop-color="#FFFD98"/></radialGradient><radialGradient id="paint35_radial" cx="0" cy="0" r="1" gradientUnits="userSpaceOnUse" gradientTransform="rotate(135 207.292 100.947) scale(106.42)"><stop stop-color="#FED766"/><stop offset="1" stop-color="#FFFD98"/></radialGradient><radialGradient id="paint36_radial" cx="0" cy="0" r="1" gradientUnits="userSpaceOnUse" gradientTransform="rotate(135 217.647 75.947) scale(106.42)"><stop stop-color="#FED766"/><stop offset="1" stop-color="#FFFD98"/></radialGradient><radialGradient id="paint37_radial" cx="0" cy="0" r="1" gradientUnits="userSpaceOnUse" gradientTransform="rotate(135 1.933 103.167) scale(106.42)"><stop stop-color="#FED766"/><stop offset="1" stop-color="#FFFD98"/></radialGradient><clipPath id="clip0"><path fill="#fff" transform="translate(205 102)" d="M0 0h40v40H0z"/></clipPath></defs></svg>