<svg width="179" height="187" viewBox="0 0 179 187" fill="none" xmlns="http://www.w3.org/2000/svg">
<g clip-path="url(#clip0)">
<path d="M178.904 116.522C178.458 105.865 176.674 94.0496 173.999 82.929C171.324 72.2718 167.979 62.3096 163.966 54.6642C148.359 26.1678 131.415 30.5697 111.126 36.13C104.661 37.7517 97.7493 39.6052 90.6148 40.3002H88.3853C81.2508 39.6052 74.3393 37.7517 67.8737 36.13C47.585 30.8014 30.6407 26.1678 15.034 54.8959C11.0209 62.5413 7.45364 72.5035 5.00116 83.1607C2.32573 94.2812 0.542116 106.097 0.0962111 116.754C-0.349693 128.57 0.765068 137.142 3.21754 143.165C5.67002 148.726 9.23725 152.201 13.9193 153.591C18.1553 154.749 23.0603 154.286 28.1882 151.969C36.8833 148.262 46.9162 140.385 56.7261 130.886C63.6376 123.936 76.5688 120.461 89.5001 120.461C102.431 120.461 115.363 123.936 122.274 130.886C132.084 140.385 142.117 148.262 150.812 151.969C155.94 154.054 160.845 154.749 165.081 153.591C169.54 152.201 173.33 148.957 175.783 142.934C178.235 137.142 179.35 128.57 178.904 116.522ZM168.202 139.69C166.865 142.934 165.081 144.787 162.851 145.482C160.399 146.177 157.278 145.714 153.71 144.324C145.907 141.08 136.766 133.898 127.848 125.094C119.376 116.291 104.438 111.889 89.5001 111.889C74.5623 111.889 59.6245 116.291 50.9293 124.631C41.7883 133.435 32.6472 140.849 25.0669 143.86C21.4996 145.25 18.3783 145.946 15.9258 145.019C13.6963 144.324 11.9127 142.47 10.575 139.227C8.79135 134.825 7.89954 127.643 8.34544 116.986C8.79135 107.024 10.352 95.6713 13.0274 85.0141C15.4799 75.0519 18.6012 65.7848 22.3914 58.8345C34.6538 35.8983 48.9227 39.6052 65.8671 44.2387C72.7786 46.0921 79.9131 47.9456 87.7164 48.6406C87.9394 48.6406 87.9394 48.6406 88.1624 48.6406H90.6148C90.8378 48.6406 90.8378 48.6406 91.0607 48.6406C99.087 47.9456 106.221 46.0921 113.133 44.2387C130.077 39.8368 144.346 35.8983 156.609 58.8345C160.399 65.7848 163.52 74.8203 165.973 85.0141C168.425 95.6713 170.209 106.792 170.655 116.986C171.101 127.643 170.209 134.825 168.202 139.69Z" fill="white"/>
<path d="M68.9887 71.3454C66.7592 69.2603 64.0838 67.6386 60.9624 67.4069C60.7395 64.3951 59.4018 61.3832 57.3952 59.2981L57.1722 59.0665C54.7198 56.518 51.5984 55.1279 48.0312 55.1279C44.464 55.1279 41.1197 56.7497 38.8902 59.0665C36.8836 61.1516 35.3229 64.1634 35.1 67.4069C31.9786 67.6386 29.3032 69.0286 27.0737 71.1137L26.8507 71.3454C24.3983 73.8939 23.0605 77.1374 23.0605 80.8442C23.0605 84.5511 24.6212 88.0263 26.8507 90.343C29.0803 92.6598 31.7557 94.0499 35.1 94.2816C35.3229 97.5251 36.6606 100.537 38.8902 102.622C41.3426 105.17 44.464 106.561 48.0312 106.561C51.5984 106.561 54.9427 104.939 57.1722 102.622C59.1788 100.305 60.7395 97.5251 60.9624 94.2816C64.0838 94.0499 66.9821 92.6598 68.9887 90.343C71.4412 87.7946 72.7789 84.5511 72.7789 80.8442C72.7789 77.1374 71.2182 73.6622 68.9887 71.3454ZM63.4149 84.3194C62.5231 85.2461 61.4083 85.7095 60.0706 85.7095H56.9493C54.7198 85.7095 52.7132 87.5629 52.7132 90.1114V93.1232C52.7132 94.5132 52.2673 95.6716 51.3755 96.5984C50.4837 97.5251 49.3689 97.9884 48.0312 97.9884C46.6935 97.9884 45.5787 97.5251 44.6869 96.5984C43.7951 95.6716 43.3492 94.5132 43.3492 93.1232V89.8797C43.3492 87.5629 41.5656 85.4778 39.1131 85.4778H35.9918C34.6541 85.4778 33.5393 85.0144 32.6475 84.0877C31.9786 83.3927 31.3098 82.2343 31.3098 80.8442C31.3098 79.4542 31.7557 78.2958 32.6475 77.369C32.6475 77.369 32.6475 77.3691 32.8704 77.1374C33.7623 76.4423 34.877 75.979 35.9918 75.979H39.1131C41.3426 75.979 43.3492 74.1256 43.3492 71.5771V68.3336C43.3492 66.9435 43.7951 65.7851 44.6869 64.8584C45.5787 63.9317 46.6935 63.4683 48.0312 63.4683C49.3689 63.4683 50.4837 63.9317 51.3755 64.8584C51.3755 64.8584 51.3755 64.8584 51.5984 65.0901C52.2673 66.0168 52.7132 67.1752 52.7132 68.3336V71.5771C52.7132 73.8939 54.4968 75.979 56.9493 75.979H60.0706C61.4083 75.979 62.5231 76.4423 63.4149 77.369C64.3067 78.2958 64.7526 79.4542 64.7526 80.8442C64.7526 82.2343 64.3067 83.3927 63.4149 84.3194Z" fill="white"/>
<path d="M128.294 72.5036C132.604 72.5036 136.097 68.8732 136.097 64.3949C136.097 59.9165 132.604 56.2861 128.294 56.2861C123.984 56.2861 120.491 59.9165 120.491 64.3949C120.491 68.8732 123.984 72.5036 128.294 72.5036Z" fill="white"/>
<path d="M128.294 105.402C132.604 105.402 136.097 101.772 136.097 97.2933C136.097 92.815 132.604 89.1846 128.294 89.1846C123.984 89.1846 120.491 92.815 120.491 97.2933C120.491 101.772 123.984 105.402 128.294 105.402Z" fill="white"/>
<path d="M112.464 88.9528C116.774 88.9528 120.268 85.3224 120.268 80.8441C120.268 76.3658 116.774 72.7354 112.464 72.7354C108.155 72.7354 104.661 76.3658 104.661 80.8441C104.661 85.3224 108.155 88.9528 112.464 88.9528Z" fill="white"/>
<path d="M144.124 88.9528C148.433 88.9528 151.927 85.3224 151.927 80.8441C151.927 76.3658 148.433 72.7354 144.124 72.7354C139.814 72.7354 136.32 76.3658 136.32 80.8441C136.32 85.3224 139.814 88.9528 144.124 88.9528Z" fill="white"/>
</g>
<defs>
<clipPath id="clip0">
<rect width="179" height="186.006" fill="white" transform="translate(0 0.115234)"/>
</clipPath>
</defs>
</svg>
