<svg width="74" height="74" viewBox="0 0 74 74" fill="none" xmlns="http://www.w3.org/2000/svg">
<path d="M23.6284 21.9923C34.274 23.5447 41.0249 19.4048 43.881 17.5937C45.4389 16.5587 47.7758 17.0762 48.8144 18.8874C50.3723 21.4748 53.4881 24.5797 58.4214 24.5797" stroke="white" stroke-miterlimit="10" stroke-linecap="round" stroke-linejoin="round"/>
<path d="M71.923 71.9297C71.923 71.9297 53.4879 67.5311 50.1125 63.65C48.2949 61.5801 49.5932 52.7829 49.5932 52.7829C52.709 50.1954 54.7862 46.5731 55.8248 42.4332C56.6037 38.8108 58.1616 31.3073 58.6809 27.4262C59.2002 23.0276 58.9406 21.2164 58.4213 18.1115C57.123 9.05559 47.7756 2.06958 36.3511 2.06958C25.1862 2.06958 15.5792 9.05559 14.2809 18.1115C13.7616 21.2164 13.502 23.0276 14.0213 27.4262C14.5406 31.3073 15.8388 38.8108 16.8774 42.4332C17.916 46.5731 20.2528 50.1954 23.109 52.7829C23.109 52.7829 24.6669 61.5801 22.5897 63.65C19.2142 67.5311 1.55811 71.9297 1.55811 71.9297" stroke="white" stroke-miterlimit="10" stroke-linecap="round" stroke-linejoin="round"/>
</svg>
