<svg width="32" height="32" viewBox="0 0 32 32" fill="none" xmlns="http://www.w3.org/2000/svg">
<rect x="1" y="1.00024" width="30" height="30" rx="4" fill="white" stroke="#243555" stroke-width="2"/>
<path d="M12.6981 11.1262H15.6649C17.0412 11.1262 18.0347 11.3267 18.6454 11.7278C19.2606 12.1288 19.5682 12.7623 19.5682 13.6282C19.5682 14.2115 19.4179 14.6969 19.1171 15.0842C18.8163 15.4716 18.3833 15.7154 17.8182 15.8157V15.884C18.5201 16.0162 19.035 16.2782 19.3632 16.6702C19.6958 17.0575 19.8622 17.5839 19.8622 18.2493C19.8622 19.1471 19.5477 19.8512 18.9188 20.3616C18.2945 20.8674 17.424 21.1204 16.3075 21.1204H12.6981V11.1262ZM14.3319 15.2551H15.9042C16.5878 15.2551 17.0868 15.148 17.4012 14.9338C17.7157 14.7151 17.8729 14.3459 17.8729 13.8264C17.8729 13.357 17.702 13.0175 17.3602 12.8079C17.023 12.5982 16.4852 12.4934 15.747 12.4934H14.3319V15.2551ZM14.3319 16.5813V19.7463H16.0682C16.7518 19.7463 17.2668 19.6165 17.6132 19.3567C17.9641 19.0924 18.1395 18.6777 18.1395 18.1125C18.1395 17.593 17.9618 17.2079 17.6063 16.9573C17.2509 16.7066 16.7108 16.5813 15.9862 16.5813H14.3319Z" fill="#243555"/>
</svg>
