<svg width="56" height="56" fill="none" xmlns="http://www.w3.org/2000/svg"><g clip-path="url(#clip0)" fill="#fff"><path d="M31.115 26.986v-1.629a3.07 3.07 0 0 0-3.067-3.066h-.987V18.66c0-.685.557-1.241 1.241-1.241h5.132a4.527 4.527 0 0 0 4.522-4.523V9.724a1.64 1.64 0 1 0-3.281 0v3.172c0 .685-.557 1.241-1.241 1.241h-5.132a4.527 4.527 0 0 0-4.522 4.523v3.63h-.987a3.07 3.07 0 0 0-3.067 3.067v1.629a14.989 14.989 0 0 0-6.396 4.964 14.941 14.941 0 0 0-2.974 8.984c0 4.02 1.549 7.794 4.362 10.627 2.813 2.834 6.576 4.41 10.595 4.439h.109c4.004 0 7.77-1.551 10.613-4.374a14.96 14.96 0 0 0 4.45-10.69 14.94 14.94 0 0 0-2.973-8.985 14.988 14.988 0 0 0-6.397-4.965zm-5.78 25.732c-6.56-.045-11.698-5.222-11.697-11.784 0-5.163 3.306-9.677 8.224-11.233a1.64 1.64 0 0 0 1.145-1.564v-2.565h4.826v2.565A1.64 1.64 0 0 0 28.98 29.7a11.738 11.738 0 0 1 8.224 11.235c0 3.163-1.236 6.132-3.48 8.361a11.708 11.708 0 0 1-8.387 3.422zM36.315 6.167a1.64 1.64 0 0 0 1.641-1.64V1.64a1.64 1.64 0 0 0-3.281 0v2.886c0 .906.734 1.64 1.64 1.64zM29.509 8.026c.32.32.74.48 1.16.48a1.64 1.64 0 0 0 1.16-2.8l-2.041-2.04a1.64 1.64 0 0 0-2.32 2.32l2.04 2.04zM45.164 3.665a1.64 1.64 0 0 0-2.32 0l-2.041 2.04a1.64 1.64 0 1 0 2.32 2.321l2.04-2.04c.641-.641.641-1.68 0-2.32z"/></g><defs><clipPath id="clip0"><path fill="#fff" d="M0 0h56v56H0z"/></clipPath></defs></svg>