<svg width="41" height="41" fill="none" xmlns="http://www.w3.org/2000/svg"><g clip-path="url(#clip0)"><path d="M39.398 12.403a20.682 20.682 0 0 0-1.393-2.68l.087-.086a1.601 1.601 0 0 0 0-2.264l-4.528-4.528a1.6 1.6 0 0 0-2.265 0l-.119.12a20.432 20.432 0 0 0-18.702-1.29c-.891.383-1.756.831-2.58 1.333l-.106-.106a1.601 1.601 0 0 0-2.264 0L3 7.43a1.6 1.6 0 0 0 0 2.263l.1.101a20.639 20.639 0 0 0-2.904 8.519 20.5 20.5 0 0 0 2.886 12.862l-.026.026a1.601 1.601 0 0 0 0 2.264l4.528 4.528a1.6 1.6 0 0 0 2.264 0l.02-.02A20.444 20.444 0 0 0 20.561 41c2.742 0 5.499-.554 8.11-1.677a20.737 20.737 0 0 0 2.678-1.394l.007.008a1.601 1.601 0 0 0 2.264 0l4.528-4.529a1.6 1.6 0 0 0 0-2.263l-6.92-6.92c.409-1.168.632-2.421.632-3.726 0-1.38-.25-2.703-.705-3.926l4.51-4.51a17.22 17.22 0 0 1 1.89 11.579 1.6 1.6 0 1 0 3.148.582 20.41 20.41 0 0 0-1.305-11.821zM13.743 4.616a17.237 17.237 0 0 1 15.092.694l-4.536 4.535a11.239 11.239 0 0 0-3.725-.632c-1.336 0-2.618.234-3.809.662L12.241 5.35c.488-.267.99-.513 1.502-.734zM28.658 20.5c0 3.09-1.742 5.78-4.295 7.14-.152.048-.298.12-.433.214a8.036 8.036 0 0 1-3.356.73c-4.458 0-8.085-3.626-8.085-8.084s3.627-8.084 8.085-8.084c4.458 0 8.084 3.626 8.084 8.084zM8.66 6.298l5.163 5.162a11.394 11.394 0 0 0-2.268 2.261l-5.16-5.16L8.66 6.298zM4.69 27.33a17.198 17.198 0 0 1 .75-15.196l4.521 4.522a11.233 11.233 0 0 0-.674 3.843c0 1.336.234 2.618.662 3.809l-4.525 4.524a17.45 17.45 0 0 1-.734-1.502zm1.761 5.003l5.083-5.082a11.37 11.37 0 0 0 2.261 2.266l-5.08 5.08-2.264-2.264zm20.953 4.049a17.225 17.225 0 0 1-15.195-.75l4.52-4.521c1.2.436 2.495.674 3.844.674 1.38 0 2.703-.249 3.926-.704l4.511 4.51c-.52.29-1.057.555-1.606.791zm7.347-4.105l-2.264 2.264-5.072-5.073c.851-.65 1.608-1.42 2.245-2.283l5.091 5.092zM27.26 11.413L32.43 6.24l2.265 2.264-5.153 5.152a11.385 11.385 0 0 0-2.283-2.245z" fill="#fff"/></g><defs><clipPath id="clip0"><path fill="#fff" d="M0 0h41v41H0z"/></clipPath></defs></svg>