<svg width="104" height="33" viewBox="0 0 104 33" fill="none" xmlns="http://www.w3.org/2000/svg">
<rect x="1" y="1.7959" width="102" height="30" rx="4" fill="white" stroke="#243555" stroke-width="2"/>
<path d="M39.3126 19.2019C39.3126 20.0906 38.9913 20.7878 38.3487 21.2937C37.7061 21.7996 36.8198 22.0525 35.6895 22.0525C34.5593 22.0525 33.6342 21.877 32.9142 21.5261V19.9812C33.3699 20.1954 33.853 20.364 34.3634 20.4871C34.8783 20.6101 35.3569 20.6716 35.7989 20.6716C36.4461 20.6716 36.9223 20.5486 37.2276 20.3025C37.5375 20.0564 37.6925 19.726 37.6925 19.3113C37.6925 18.9376 37.5512 18.6208 37.2686 18.3611C36.9861 18.1013 36.4028 17.7937 35.5186 17.4382C34.6072 17.0691 33.9646 16.6475 33.5909 16.1736C33.2172 15.6996 33.0304 15.13 33.0304 14.4646C33.0304 13.6306 33.3266 12.9744 33.919 12.4958C34.5115 12.0173 35.3067 11.7781 36.3048 11.7781C37.2618 11.7781 38.2143 11.9877 39.1622 12.407L38.6427 13.74C37.754 13.3663 36.961 13.1794 36.2638 13.1794C35.7351 13.1794 35.3341 13.2957 35.0606 13.5281C34.7872 13.7559 34.6505 14.059 34.6505 14.4373C34.6505 14.697 34.7052 14.9203 34.8145 15.1072C34.9239 15.2895 35.1039 15.4626 35.3546 15.6267C35.6052 15.7908 36.0564 16.0072 36.7081 16.2761C37.4418 16.5815 37.9796 16.8663 38.3214 17.1306C38.6632 17.3949 38.9138 17.6934 39.0733 18.0261C39.2328 18.3588 39.3126 18.7507 39.3126 19.2019ZM44.9112 22.0525C43.9542 22.0525 43.2114 21.7084 42.6827 21.0203H42.587C42.6508 21.6583 42.6827 22.0457 42.6827 22.1824V25.2791H41.0763V14.3552H42.3751C42.4115 14.4965 42.4867 14.8337 42.6007 15.3669H42.6827C43.184 14.6013 43.936 14.2185 44.9386 14.2185C45.8819 14.2185 46.6156 14.5603 47.1397 15.2439C47.6684 15.9275 47.9327 16.8868 47.9327 18.1218C47.9327 19.3569 47.6638 20.3207 47.1261 21.0134C46.5929 21.7061 45.8546 22.0525 44.9112 22.0525ZM44.5216 15.531C43.8836 15.531 43.4164 15.7179 43.1202 16.0916C42.8285 16.4653 42.6827 17.0623 42.6827 17.8826V18.1218C42.6827 19.0424 42.8285 19.71 43.1202 20.1248C43.4119 20.5349 43.8881 20.74 44.5489 20.74C45.1049 20.74 45.5333 20.5121 45.8341 20.0564C46.1349 19.6007 46.2852 18.9513 46.2852 18.1082C46.2852 17.2605 46.1349 16.6202 45.8341 16.1873C45.5379 15.7498 45.1004 15.531 44.5216 15.531ZM54.5294 21.9158L54.2081 20.863H54.1534C53.7888 21.3233 53.422 21.6378 53.0528 21.8064C52.6837 21.9705 52.2097 22.0525 51.6309 22.0525C50.8881 22.0525 50.3071 21.852 49.8878 21.4509C49.4731 21.0499 49.2657 20.4825 49.2657 19.7488C49.2657 18.9695 49.5551 18.3816 50.1339 17.9851C50.7127 17.5886 51.5945 17.3722 52.7794 17.3357L54.0851 17.2947V16.8914C54.0851 16.4083 53.9711 16.0483 53.7433 15.8113C53.5199 15.5697 53.1713 15.449 52.6974 15.449C52.31 15.449 51.9386 15.5059 51.5831 15.6199C51.2276 15.7338 50.8858 15.8682 50.5577 16.0232L50.0382 14.8748C50.4483 14.6606 50.8972 14.4988 51.3849 14.3894C51.8725 14.2755 52.3328 14.2185 52.7657 14.2185C53.7273 14.2185 54.4519 14.4281 54.9395 14.8474C55.4317 15.2667 55.6778 15.9252 55.6778 16.823V21.9158H54.5294ZM52.1368 20.822C52.7201 20.822 53.1873 20.6602 53.5382 20.3367C53.8936 20.0085 54.0714 19.5505 54.0714 18.9626V18.3064L53.1007 18.3474C52.3442 18.3748 51.7927 18.5024 51.4464 18.7302C51.1046 18.9535 50.9337 19.2976 50.9337 19.7625C50.9337 20.0997 51.0339 20.3617 51.2345 20.5486C51.435 20.7309 51.7358 20.822 52.1368 20.822ZM60.9688 22.0525C59.825 22.0525 58.9545 21.7198 58.3575 21.0544C57.7651 20.3845 57.4688 19.4252 57.4688 18.1765C57.4688 16.905 57.7787 15.9275 58.3985 15.2439C59.0229 14.5603 59.9229 14.2185 61.0987 14.2185C61.8962 14.2185 62.614 14.3666 63.252 14.6628L62.7667 15.9548C62.0877 15.6905 61.5271 15.5583 61.0851 15.5583C59.7771 15.5583 59.1231 16.4265 59.1231 18.1628C59.1231 19.0105 59.2849 19.6485 59.6085 20.0769C59.9366 20.5007 60.4151 20.7126 61.044 20.7126C61.7595 20.7126 62.4363 20.5349 63.0743 20.1794V21.5808C62.7872 21.7494 62.4796 21.8702 62.1515 21.9431C61.8279 22.016 61.4337 22.0525 60.9688 22.0525ZM68.1534 22.0525C66.9776 22.0525 66.0571 21.7107 65.3917 21.0271C64.7309 20.3389 64.4005 19.3933 64.4005 18.1902C64.4005 16.9552 64.7081 15.9845 65.3233 15.2781C65.9386 14.5717 66.7839 14.2185 67.8595 14.2185C68.8575 14.2185 69.6459 14.5216 70.2247 15.1277C70.8035 15.7338 71.0929 16.5678 71.0929 17.6296V18.4978H66.0548C66.0776 19.2315 66.2758 19.7966 66.6495 20.1931C67.0232 20.585 67.5496 20.781 68.2286 20.781C68.6752 20.781 69.0899 20.74 69.4727 20.658C69.8601 20.5714 70.2748 20.4301 70.7169 20.2341V21.5398C70.325 21.7266 69.9285 21.8588 69.5274 21.9363C69.1264 22.0138 68.6684 22.0525 68.1534 22.0525ZM67.8595 15.4353C67.349 15.4353 66.9389 15.5971 66.629 15.9207C66.3237 16.2442 66.1414 16.7159 66.0821 17.3357H69.5138C69.5046 16.7113 69.3543 16.2397 69.0626 15.9207C68.7709 15.5971 68.3699 15.4353 67.8595 15.4353Z" fill="#243555"/>
</svg>
