<svg width="34" height="42" fill="none" xmlns="http://www.w3.org/2000/svg"><path d="M32.791 16.539A2.722 2.722 0 0 0 34 14.278v-2.555A2.72 2.72 0 0 0 31.968 9.1C31.744 5.744 30.262 5 29 5c-.91 0-1.541.337-1.982.841-.984-.694-2.19-.887-3.262-.457C23.042 2.257 20.736 0 18.001 0c-2.316 0-4.394 1.666-5.379 4.187a4.171 4.171 0 0 0-1.621-.329c-1.483 0-2.838.782-3.769 2.113-.651-.532-1.426-.828-2.232-.828-2.094 0-3.798 1.971-3.967 4.462A2.705 2.705 0 0 0 0 11.723v2.555c0 .941.481 1.772 1.209 2.261A16.09 16.09 0 0 0 1 19c0 4.301 1.714 8.202 4.484 11.08l1.27 9.208A3.153 3.153 0 0 0 9.865 42h14.269a3.153 3.153 0 0 0 3.111-2.712l1.27-9.208C31.286 27.203 33 23.301 33 19c0-.825-.083-1.648-.209-2.461zm-6.165 12.6C24.114 31.525 20.729 33 17 33c-3.729 0-7.115-1.475-9.626-3.861L5.699 17h22.602l-1.675 12.139zM3.404 15h-.681A.723.723 0 0 1 2 14.278v-2.555c0-.398.324-.723.723-.723h28.555c.398 0 .723.324.723.723v2.555a.724.724 0 0 1-.723.723H3.404V15zM29 7c.643 0 .874 1.062.956 2h-1.924c.139-1.999.707-2 .968-2zM5 7.143c.594 0 1.16.397 1.552 1.092.19.337.559.541.945.505a1 1 0 0 0 .86-.64c.529-1.383 1.542-2.242 2.644-2.242.543 0 1.082.213 1.555.616a1.001 1.001 0 0 0 1.625-.549c.5-2.311 2.071-3.924 3.819-3.924 2.103 0 3.888 2.332 3.98 5.198a1.001 1.001 0 0 0 1.762.614c.259-.306.687-.67 1.257-.67.517 0 .91.297 1.177.589a8.875 8.875 0 0 0-.155 1.269H3.138C3.429 7.929 4.162 7.143 5 7.143zM3 19c0-.671.065-1.339.159-2h.521l1.249 9.058A13.895 13.895 0 0 1 3 19zm22.264 20.015a1.144 1.144 0 0 1-1.13.985H9.866a1.145 1.145 0 0 1-1.13-.985l-.961-6.964a15.894 15.894 0 0 0 18.45 0l-.961 6.964zm3.806-12.957L30.319 17h.521c.095.661.159 1.329.159 2a13.876 13.876 0 0 1-1.929 7.058z" fill="#fff"/></svg>