<svg width="32" height="32" viewBox="0 0 32 32" fill="none" xmlns="http://www.w3.org/2000/svg">
<rect x="1" y="1.00024" width="30" height="30" rx="4" fill="white" stroke="#243555" stroke-width="2"/>
<path d="M19.2334 18.4065C19.2334 19.2952 18.9121 19.9924 18.2696 20.4983C17.627 21.0042 16.7406 21.2571 15.6104 21.2571C14.4802 21.2571 13.555 21.0816 12.835 20.7307V19.1858C13.2907 19.4 13.7738 19.5686 14.2842 19.6917C14.7992 19.8147 15.2777 19.8762 15.7197 19.8762C16.3669 19.8762 16.8431 19.7532 17.1485 19.5071C17.4584 19.261 17.6133 18.9306 17.6133 18.5159C17.6133 18.1422 17.472 17.8254 17.1895 17.5657C16.9069 17.3059 16.3236 16.9983 15.4395 16.6428C14.528 16.2737 13.8854 15.8521 13.5117 15.3782C13.138 14.9042 12.9512 14.3346 12.9512 13.6692C12.9512 12.8352 13.2474 12.179 13.8399 11.7004C14.4323 11.2219 15.2276 10.9827 16.2256 10.9827C17.1826 10.9827 18.1351 11.1923 19.083 11.6116L18.5635 12.9446C17.6748 12.5709 16.8819 12.384 16.1846 12.384C15.6559 12.384 15.2549 12.5002 14.9815 12.7327C14.708 12.9605 14.5713 13.2636 14.5713 13.6418C14.5713 13.9016 14.626 14.1249 14.7354 14.3118C14.8447 14.4941 15.0248 14.6672 15.2754 14.8313C15.5261 14.9954 15.9772 15.2118 16.6289 15.4807C17.3626 15.7861 17.9004 16.0709 18.2422 16.3352C18.584 16.5995 18.8347 16.898 18.9942 17.2307C19.1537 17.5634 19.2334 17.9553 19.2334 18.4065Z" fill="#243555"/>
</svg>
