<svg width="56" height="69" fill="none" xmlns="http://www.w3.org/2000/svg"><path d="M54.447 4.155a3.223 3.223 0 0 0-3.164-.11c-2.554 1.322-5.068 2.416-9.92 2.416-5.34 0-7.853-1.324-10.768-2.858C27.386 1.915 23.75 0 16.82 0 12.023 0 8.818.918 6.23 2.038A3.23 3.23 0 0 0 0 3.23v62.461a3.23 3.23 0 1 0 6.462 0V39.256c2.744-1.439 5.274-2.64 10.358-2.64 5.337 0 7.852 1.324 10.764 2.858 3.21 1.688 6.843 3.603 13.778 3.603 6.296 0 9.822-1.55 12.891-3.138A3.23 3.23 0 0 0 56 37.068V6.914a3.229 3.229 0 0 0-1.553-2.76zm-4.909 30.892c-2.059.911-4.413 1.568-8.176 1.568-5.34 0-7.853-1.324-10.767-2.858-3.209-1.688-6.845-3.603-13.776-3.603-4.65 0-7.807.86-10.358 1.934V9.102c2.744-1.439 5.275-2.64 10.358-2.64 5.338 0 7.853 1.324 10.765 2.858 3.21 1.688 6.843 3.603 13.778 3.603 3.418 0 6.02-.457 8.176-1.129v23.253z" fill="#fff"/></svg>