<svg width="165" height="165" fill="none" xmlns="http://www.w3.org/2000/svg"><g clip-path="url(#clip0)" fill="#fff"><path d="M82.5 43.352L23.655 91.865c0 .069-.017.17-.052.306a1.401 1.401 0 0 0-.051.306V141.6c0 1.774.648 3.311 1.945 4.605 1.296 1.296 2.83 1.947 4.605 1.947h39.298v-39.3h26.203v39.302H134.9c1.774 0 3.311-.651 4.605-1.949 1.297-1.293 1.947-2.831 1.947-4.605V92.477c0-.273-.037-.478-.103-.612L82.501 43.352z"/><path d="M163.862 80.811L141.45 62.185V20.428c0-.954-.307-1.74-.923-2.354-.611-.613-1.396-.92-2.352-.92h-19.65c-.956 0-1.74.307-2.355.92-.613.615-.92 1.4-.92 2.354v19.957L90.279 19.507c-2.181-1.774-4.774-2.661-7.777-2.661-3.002 0-5.594.887-7.778 2.66L1.137 80.811c-.682.545-1.056 1.279-1.125 2.2-.07.92.169 1.725.716 2.406l6.345 7.574c.546.614 1.262.989 2.149 1.126.82.07 1.638-.17 2.457-.716L82.5 34.347 153.322 93.4c.547.476 1.262.713 2.149.713h.308c.886-.134 1.6-.512 2.149-1.124l6.346-7.573c.546-.683.785-1.486.714-2.407-.07-.92-.446-1.653-1.126-2.199z"/></g><defs><clipPath id="clip0"><path fill="#fff" d="M0 0h165v165H0z"/></clipPath></defs></svg>