<svg width="121" height="52" viewBox="0 0 121 52" fill="none" xmlns="http://www.w3.org/2000/svg">
<path d="M8.30376 41.4851C8.18844 41.4851 8.18844 41.4851 8.07312 41.4851C7.26585 41.3706 6.80456 40.6837 6.91988 39.8823C6.91988 39.7679 8.18844 32.2119 16.1458 33.1278C16.953 33.2423 17.4143 33.9292 17.4143 34.6161C17.299 35.4175 16.6071 35.8754 15.9151 35.8754C10.8409 35.303 9.9183 39.7679 9.80297 40.2258C9.457 40.9127 8.88038 41.4851 8.30376 41.4851Z" fill="#F8F8F5"/>
<path d="M12.9183 47.4388C12.3417 47.4388 11.7651 47.0953 11.6497 46.5229C11.6497 46.4084 9.22794 39.1959 16.6087 36.3338C17.3006 35.9903 18.1079 36.3338 18.4538 37.1352C18.6845 37.8221 18.3385 38.6235 17.6466 38.9669C12.9183 40.7987 14.1869 45.1491 14.3022 45.7215C14.5328 46.4084 14.1869 47.2098 13.3796 47.4388C13.2643 47.4388 13.149 47.4388 12.9183 47.4388Z" fill="#F8F8F5"/>
<path d="M20.1831 51.102C19.8371 51.102 19.4911 50.9875 19.2605 50.7586C19.1452 50.7586 13.6096 45.4923 18.6839 39.4246C19.1452 38.8522 20.0678 38.7377 20.6444 39.1957C21.221 39.6536 21.3363 40.5695 20.875 41.1419C17.5306 45.1488 21.1057 48.4689 21.221 48.5834C21.7976 49.1558 21.7976 49.9572 21.3363 50.5296C20.875 50.9875 20.5291 51.102 20.1831 51.102Z" fill="#F8F8F5"/>
<path d="M17.0677 30.2658C16.9524 30.2658 16.8371 30.2658 16.7218 30.2658C6.11197 27.5181 6.57326 18.5884 6.57326 18.5884C6.57326 17.787 7.26521 17.2146 8.07247 17.329C8.87974 17.329 9.45636 18.0159 9.34104 18.8173C9.34104 19.0463 9.11039 25.4574 17.4137 27.6326C18.1056 27.8616 18.5669 28.5485 18.4516 29.3499C18.3363 29.8078 17.7597 30.2658 17.0677 30.2658Z" fill="#F8F8F5"/>
<path d="M9.45654 19.2754C4.26698 19.2754 0 15.0395 0 9.88771C0 4.73592 4.26698 0.5 9.45654 0.5V19.2754Z" fill="#F8F8F5"/>
<path d="M16.4927 6.91211C19.9524 8.85834 21.2209 13.2087 19.2604 16.5288C17.2999 19.9633 12.9176 21.2226 9.57324 19.2764L16.4927 6.91211Z" fill="#F8F8F5"/>
<path d="M52.01 41.4856C52.1253 41.4856 52.1253 41.4856 52.2406 41.4856C53.0479 41.3711 53.5092 40.6842 53.3939 39.8828C53.3939 39.7683 52.1253 32.2124 44.168 33.1283C43.3607 33.2427 42.8994 33.9296 42.8994 34.6165C43.0147 35.4179 43.7067 35.8759 44.3986 35.8759C49.4729 35.3035 50.3955 39.7683 50.5108 40.2263C50.7414 40.9132 51.318 41.4856 52.01 41.4856Z" fill="#F8F8F5"/>
<path d="M47.2825 47.4383C47.8591 47.4383 48.4357 47.0949 48.551 46.5224C48.551 46.408 50.9728 39.1954 43.5921 36.3333C42.9002 36.1044 42.0929 36.4478 41.7469 37.1347C41.5163 37.8216 41.8623 38.623 42.5542 38.9665C47.2825 40.7982 46.0139 45.1486 45.8986 45.721C45.6679 46.408 46.0139 47.2093 46.8212 47.4383C46.9365 47.4383 47.1672 47.4383 47.2825 47.4383Z" fill="#F8F8F5"/>
<path d="M40.1325 51.1025C40.4785 51.1025 40.8244 50.988 41.0551 50.7591C41.1704 50.7591 46.7059 45.4928 41.6317 39.4251C41.1704 38.8527 40.2478 38.7382 39.6712 39.1961C39.0946 39.6541 38.9792 40.57 39.4405 41.1424C42.7849 45.1493 39.2099 48.4694 39.0946 48.5839C38.518 49.1563 38.5179 49.9577 38.9792 50.5301C39.3252 50.988 39.6712 51.1025 40.1325 51.1025Z" fill="#F8F8F5"/>
<path d="M43.1301 30.2658C43.2454 30.2658 43.3607 30.2658 43.476 30.2658C54.0858 27.5181 53.6245 18.5884 53.6245 18.5884C53.6245 17.787 52.9326 17.2146 52.1253 17.329C51.3181 17.329 50.7414 18.0159 50.8568 18.8173C50.8568 19.0463 51.0874 25.4574 42.7841 27.6326C42.0921 27.8616 41.6309 28.5485 41.7462 29.3499C41.9768 29.8078 42.5534 30.2658 43.1301 30.2658Z" fill="#F8F8F5"/>
<path d="M50.7422 19.2754C55.9318 19.2754 60.1987 15.0395 60.1987 9.88771C60.1987 4.73592 56.0471 0.5 50.7422 0.5V19.2754Z" fill="#F8F8F5"/>
<path d="M43.8228 6.91113C40.363 8.85737 39.0945 13.2078 41.055 16.5278C43.0155 19.9623 47.3978 21.2217 50.7422 19.2754L43.8228 6.91113Z" fill="#F8F8F5"/>
<path d="M30.1004 46.0643C47.7449 46.0643 57.4321 19.9619 30.1004 19.9619C2.76863 19.9619 12.4558 46.0643 30.1004 46.0643Z" fill="#F8F8F5"/>
<path d="M23.1808 23.7405C25.3463 23.7405 27.1018 21.9978 27.1018 19.848C27.1018 17.6983 25.3463 15.9556 23.1808 15.9556C21.0153 15.9556 19.2598 17.6983 19.2598 19.848C19.2598 21.9978 21.0153 23.7405 23.1808 23.7405Z" fill="#F8F8F5"/>
<path d="M23.1809 21.336C24.0088 21.336 24.6801 20.6696 24.6801 19.8477C24.6801 19.0257 24.0088 18.3594 23.1809 18.3594C22.3529 18.3594 21.6816 19.0257 21.6816 19.8477C21.6816 20.6696 22.3529 21.336 23.1809 21.336Z" fill="#243555"/>
<path d="M37.1349 23.7405C39.3004 23.7405 41.0559 21.9978 41.0559 19.848C41.0559 17.6983 39.3004 15.9556 37.1349 15.9556C34.9694 15.9556 33.2139 17.6983 33.2139 19.848C33.2139 21.9978 34.9694 23.7405 37.1349 23.7405Z" fill="#F8F8F5"/>
<path d="M37.135 21.336C37.9629 21.336 38.6342 20.6696 38.6342 19.8477C38.6342 19.0257 37.9629 18.3594 37.135 18.3594C36.307 18.3594 35.6357 19.0257 35.6357 19.8477C35.6357 20.6696 36.307 21.336 37.135 21.336Z" fill="#243555"/>
<path d="M111.896 10.116C112.012 10.116 112.012 10.116 112.127 10.116C112.934 10.2304 113.396 10.9173 113.28 11.7187C113.28 11.8332 112.012 19.3892 104.054 18.4733C103.247 18.3588 102.786 17.6719 102.786 16.985C102.901 16.1836 103.593 15.7257 104.285 15.7257C109.359 16.2981 110.282 11.8332 110.397 11.3753C110.743 10.6884 111.32 10.116 111.896 10.116Z" fill="#F8F8F5"/>
<path d="M107.283 4.16378C107.859 4.16378 108.436 4.50723 108.551 5.07965C108.551 5.19414 110.973 12.4066 103.593 15.2688C102.901 15.6122 102.093 15.2687 101.747 14.4674C101.517 13.7805 101.863 12.9791 102.555 12.6356C107.283 10.8039 106.014 6.45346 105.899 5.88104C105.668 5.19414 106.014 4.39275 106.822 4.16378C106.937 4.16378 107.052 4.16378 107.283 4.16378Z" fill="#F8F8F5"/>
<path d="M100.018 0.500033C100.364 0.500033 100.71 0.614517 100.941 0.843485C101.056 0.843485 106.592 6.10976 101.517 12.1774C101.056 12.7498 100.133 12.8643 99.5568 12.4064C98.9802 11.9485 98.8649 11.0326 99.3261 10.4602C102.671 6.45322 99.0955 3.13317 98.9802 3.01869C98.4036 2.44627 98.4036 1.64488 98.8649 1.07245C99.3261 0.614518 99.6721 0.500033 100.018 0.500033Z" fill="#F8F8F5"/>
<path d="M103.131 21.3363C103.247 21.3363 103.362 21.3363 103.477 21.3363C114.087 24.0839 113.626 33.0137 113.626 33.0137C113.626 33.8151 112.934 34.3875 112.127 34.273C111.319 34.273 110.743 33.5861 110.858 32.7847C110.858 32.5557 111.089 26.1446 102.786 23.9694C102.094 23.7405 101.632 23.0536 101.748 22.2522C101.863 21.7942 102.44 21.3363 103.131 21.3363Z" fill="#F8F8F5"/>
<path d="M110.744 32.3257C115.933 32.3257 120.2 36.5616 120.2 41.7134C120.2 46.8652 115.933 51.1011 110.744 51.1011L110.744 32.3257Z" fill="#F8F8F5"/>
<path d="M103.709 44.6909C100.249 42.7447 98.9802 38.3943 100.941 35.0742C102.901 31.6397 107.284 30.3804 110.628 32.3266L103.709 44.6909Z" fill="#F8F8F5"/>
<path d="M68.1912 10.1169C68.0759 10.1169 68.0759 10.1169 67.9605 10.1169C67.1533 10.2314 66.692 10.9183 66.8073 11.7197C66.8073 11.8342 68.0759 19.3902 76.0332 18.4743C76.8405 18.3598 77.3018 17.6729 77.3018 16.986C77.1864 16.1846 76.4945 15.7267 75.8026 15.7267C70.7283 16.2991 69.8057 11.8342 69.6904 11.3763C69.4597 10.6894 68.8831 10.1169 68.1912 10.1169Z" fill="#F8F8F5"/>
<path d="M72.9187 4.16423C72.3421 4.16423 71.7655 4.50768 71.6501 5.0801C71.6501 5.19458 69.2283 12.4071 76.6091 15.2692C77.301 15.4982 78.1083 15.1547 78.4542 14.4678C78.6849 13.7809 78.3389 12.9795 77.647 12.6361C72.9187 10.8043 74.1873 6.45391 74.3026 5.88149C74.5332 5.19458 74.1873 4.39319 73.38 4.16423C73.2647 4.16423 73.034 4.16423 72.9187 4.16423Z" fill="#F8F8F5"/>
<path d="M80.0687 0.500034C79.7227 0.500034 79.3767 0.614517 79.1461 0.843485C79.0308 0.843485 73.4952 6.10976 78.5695 12.1774C79.0308 12.7498 79.9534 12.8643 80.53 12.4064C81.1066 11.9485 81.2219 11.0326 80.7606 10.4602C77.4162 6.45322 80.9913 3.13317 81.1066 3.01869C81.6832 2.44627 81.6832 1.64488 81.2219 1.07245C80.876 0.614518 80.53 0.500034 80.0687 0.500034Z" fill="#F8F8F5"/>
<path d="M77.0692 21.3363C76.9538 21.3363 76.8385 21.3363 76.7232 21.3363C66.1134 24.0839 66.5747 33.0137 66.5747 33.0137C66.5747 33.8151 67.2666 34.3875 68.0739 34.273C68.8812 34.273 69.4578 33.5861 69.3425 32.7847C69.3425 32.5557 69.1118 26.1446 77.4151 23.9694C78.1071 23.7405 78.5684 23.0536 78.453 22.2522C78.2224 21.7942 77.6458 21.3363 77.0692 21.3363Z" fill="#F8F8F5"/>
<path d="M69.4561 32.3261C64.2665 32.3261 59.9995 36.5621 59.9995 41.7139C59.9995 46.8656 64.1512 51.1016 69.4561 51.1016L69.4561 32.3261Z" fill="#F8F8F5"/>
<path d="M76.3755 44.6904C79.8352 42.7442 81.1038 38.3938 79.1433 35.0738C77.1828 31.6392 72.8005 30.3799 69.4561 32.3261L76.3755 44.6904Z" fill="#F8F8F5"/>
<path d="M90.0998 5.53773C72.4553 5.53773 62.7681 31.6401 90.0998 31.6401C117.432 31.6401 107.744 5.53773 90.0998 5.53773Z" fill="#F8F8F5"/>
<path d="M97.0194 27.8616C94.8539 27.8616 93.0984 29.6043 93.0984 31.754C93.0984 33.9038 94.8539 35.6465 97.0194 35.6465C99.1849 35.6465 100.94 33.9038 100.94 31.754C100.94 29.6043 99.1849 27.8616 97.0194 27.8616Z" fill="#F8F8F5"/>
<path d="M97.0203 30.2656C96.1923 30.2656 95.5211 30.9319 95.5211 31.7539C95.5211 32.5759 96.1923 33.2422 97.0203 33.2422C97.8483 33.2422 98.5195 32.5759 98.5195 31.7539C98.5195 30.9319 97.8483 30.2656 97.0203 30.2656Z" fill="#243555"/>
<path d="M83.0653 27.8616C80.8998 27.8616 79.1443 29.6043 79.1443 31.754C79.1443 33.9038 80.8998 35.6465 83.0653 35.6465C85.2308 35.6465 86.9863 33.9038 86.9863 31.754C86.9863 29.6043 85.2308 27.8616 83.0653 27.8616Z" fill="#F8F8F5"/>
<path d="M83.0662 30.2656C82.2382 30.2656 81.567 30.9319 81.567 31.7539C81.567 32.5759 82.2382 33.2422 83.0662 33.2422C83.8942 33.2422 84.5654 32.5759 84.5654 31.7539C84.5654 30.9319 83.8942 30.2656 83.0662 30.2656Z" fill="#243555"/>
</svg>
