<svg width="161" height="68" fill="none" xmlns="http://www.w3.org/2000/svg"><path d="M11.071 54.647h-.307c-1.077-.152-1.692-1.068-1.538-2.137 0-.152 1.691-10.227 12.301-9.006 1.077.153 1.692 1.069 1.692 1.984-.154 1.069-1.077 1.68-2 1.68-6.765-.764-7.995 5.19-8.149 5.8-.461.916-1.23 1.68-1.999 1.68z" fill="#F8F8F5"/><path d="M17.222 62.585c-.769 0-1.538-.458-1.692-1.221 0-.153-3.229-9.77 6.612-13.586.923-.458 2 0 2.46 1.069.308.916-.153 1.984-1.076 2.442-6.304 2.442-4.613 8.243-4.459 9.006a1.775 1.775 0 0 1-1.23 2.29h-.615z" fill="#F8F8F5"/><path d="M26.91 67.47c-.462 0-.923-.153-1.231-.459-.154 0-7.534-7.021-.769-15.111.615-.764 1.845-.916 2.614-.306.769.61.923 1.832.308 2.595-4.46 5.343.307 9.77.461 9.922.769.763.769 1.832.154 2.595-.615.61-1.077.763-1.538.763zM22.757 39.688h-.461C8.15 36.024 8.765 24.118 8.765 24.118c0-1.069.922-1.832 1.999-1.68 1.076 0 1.845.917 1.691 1.985 0 .306-.307 8.854 10.764 11.754.922.305 1.537 1.221 1.383 2.29-.153.61-.922 1.22-1.845 1.22z" fill="#F8F8F5"/><path d="M12.609 25.034C5.689 25.034 0 19.386 0 12.517 0 5.647 5.69 0 12.609 0v25.034zM21.988 8.548c4.613 2.595 6.305 8.396 3.69 12.822-2.614 4.58-8.457 6.259-12.916 3.664l9.226-16.486zM69.348 54.647h.307c1.076-.152 1.692-1.068 1.538-2.137 0-.152-1.692-10.227-12.301-9.006-1.077.153-1.692 1.069-1.692 1.984.154 1.069 1.076 1.68 2 1.68 6.765-.764 7.995 5.19 8.149 5.8.307.916 1.076 1.68 1.999 1.68z" fill="#F8F8F5"/><path d="M63.044 62.585c.769 0 1.538-.458 1.691-1.221 0-.153 3.23-9.77-6.611-13.586-.923-.305-2 .153-2.46 1.069-.308.915.153 1.984 1.076 2.442 6.304 2.442 4.612 8.243 4.459 9.006a1.775 1.775 0 0 0 1.23 2.29h.615z" fill="#F8F8F5"/><path d="M53.51 67.47c.461 0 .923-.153 1.23-.459.154 0 7.535-7.021.77-15.111-.616-.764-1.846-.916-2.615-.306-.769.61-.923 1.832-.308 2.595 4.46 5.343-.307 9.77-.46 9.922-.77.763-.77 1.832-.155 2.595.462.61.923.763 1.538.763zM57.508 39.688h.461c14.147-3.664 13.532-15.57 13.532-15.57 0-1.069-.923-1.832-2-1.68-1.076 0-1.845.917-1.69 1.985 0 .306.307 8.854-10.764 11.754-.923.305-1.538 1.221-1.384 2.29.307.61 1.076 1.22 1.845 1.22z" fill="#F8F8F5"/><path d="M67.657 25.034c6.92 0 12.609-5.648 12.609-12.517C80.266 5.647 74.73 0 67.656 0v25.034z" fill="#F8F8F5"/><path d="M58.43 8.548c-4.612 2.595-6.303 8.396-3.69 12.822 2.614 4.58 8.457 6.259 12.917 3.664L58.43 8.548zM40.133 60.753c23.526 0 36.442-34.803 0-34.803s-23.526 34.803 0 34.803z" fill="#F8F8F5"/><path d="M30.907 30.987c2.887 0 5.228-2.323 5.228-5.19 0-2.866-2.34-5.19-5.228-5.19s-5.228 2.324-5.228 5.19c0 2.866 2.34 5.19 5.228 5.19zM49.512 30.987c2.888 0 5.228-2.323 5.228-5.19 0-2.866-2.34-5.19-5.228-5.19-2.887 0-5.228 2.324-5.228 5.19 0 2.866 2.34 5.19 5.228 5.19zM149.194 12.822h.307c1.077.153 1.692 1.069 1.538 2.137 0 .153-1.691 10.228-12.301 9.006-1.076-.152-1.691-1.068-1.691-1.984.153-1.068 1.076-1.679 1.998-1.679 6.766.763 7.996-5.19 8.15-5.8.461-.916 1.23-1.68 1.999-1.68z" fill="#F8F8F5"/><path d="M143.043 4.885c.769 0 1.538.458 1.692 1.22 0 .154 3.229 9.77-6.612 13.586-.923.458-1.999 0-2.46-1.068-.308-.916.153-1.985 1.076-2.443 6.304-2.442 4.613-8.242 4.459-9.006a1.775 1.775 0 0 1 1.23-2.29h.615z" fill="#F8F8F5"/><path d="M133.356 0c.461 0 .923.153 1.23.458.154 0 7.535 7.022.769 15.112-.615.763-1.845.916-2.614.305-.769-.61-.923-1.832-.308-2.595 4.46-5.342-.307-9.77-.461-9.922-.769-.763-.769-1.832-.154-2.595.615-.61 1.077-.763 1.538-.763zM137.508 27.782h.461c14.147 3.663 13.531 15.57 13.531 15.57 0 1.068-.922 1.831-1.998 1.679-1.077 0-1.846-.916-1.692-1.985 0-.305.308-8.853-10.763-11.753-.923-.306-1.538-1.222-1.384-2.29.153-.61.922-1.221 1.845-1.221z" fill="#F8F8F5"/><path d="M147.656 42.436c6.92 0 12.609 5.648 12.609 12.517s-5.689 12.516-12.609 12.516V42.436zM138.277 58.921c-4.613-2.595-6.304-8.395-3.69-12.822 2.614-4.58 8.457-6.258 12.916-3.663l-9.226 16.485zM90.918 12.822h-.308c-1.076.153-1.691 1.069-1.538 2.137 0 .153 1.692 10.228 12.302 9.006 1.076-.152 1.691-1.068 1.691-1.984-.154-1.068-1.076-1.679-1.999-1.679-6.766.763-7.996-5.19-8.15-5.8-.307-.916-1.076-1.68-1.998-1.68z" fill="#F8F8F5"/><path d="M97.221 4.885c-.769 0-1.538.458-1.691 1.221 0 .153-3.23 9.77 6.612 13.586.922.305 1.999-.153 2.46-1.07.307-.915-.154-1.983-1.076-2.441-6.305-2.443-4.613-8.243-4.46-9.007a1.775 1.775 0 0 0-1.23-2.29h-.615z" fill="#F8F8F5"/><path d="M106.755 0c-.461 0-.923.153-1.23.458-.154 0-7.535 7.022-.769 15.112.615.763 1.845.916 2.614.305.769-.61.923-1.832.308-2.595-4.46-5.342.307-9.77.461-9.922.769-.763.769-1.832.154-2.595-.462-.61-.923-.763-1.538-.763zM102.757 27.782h-.461c-14.146 3.663-13.531 15.57-13.531 15.57 0 1.068.922 1.831 1.999 1.679 1.076 0 1.845-.916 1.691-1.985 0-.305-.308-8.853 10.764-11.753.922-.306 1.537-1.222 1.383-2.29-.307-.61-1.076-1.221-1.845-1.221z" fill="#F8F8F5"/><path d="M92.608 42.436C85.69 42.436 80 48.084 80 54.953s5.535 12.516 12.608 12.516V42.436zM101.834 58.921c4.613-2.595 6.305-8.395 3.691-12.822-2.614-4.58-8.457-6.258-12.917-3.663l9.226 16.485zM120.132 6.717c-23.526 0-36.442 34.803 0 34.803 36.443 0 23.526-34.803 0-34.803z" fill="#F8F8F5"/><path d="M129.358 36.482c-2.887 0-5.228 2.324-5.228 5.19 0 2.867 2.341 5.19 5.228 5.19 2.888 0 5.228-2.323 5.228-5.19 0-2.866-2.34-5.19-5.228-5.19zM110.753 36.482c-2.887 0-5.228 2.324-5.228 5.19 0 2.867 2.341 5.19 5.228 5.19 2.887 0 5.228-2.323 5.228-5.19 0-2.866-2.341-5.19-5.228-5.19z" fill="#F8F8F5"/></svg>