<svg width="24" height="25" viewBox="0 0 24 25" fill="none" xmlns="http://www.w3.org/2000/svg">
<path d="M7.63037 7.28592C11.0757 7.79012 13.2606 6.44559 14.185 5.85735C14.6892 5.52122 15.4455 5.68928 15.7816 6.27752C16.2858 7.11786 17.2942 8.12626 18.8909 8.12626" stroke="white" stroke-miterlimit="10" stroke-linecap="round" stroke-linejoin="round"/>
<path d="M23.3449 23.5043C23.3449 23.5043 17.3785 22.0757 16.2861 20.8152C15.6978 20.1429 16.118 17.2858 16.118 17.2858C17.1264 16.4454 17.7987 15.269 18.1348 13.9244C18.3869 12.748 18.8911 10.311 19.0592 9.05048C19.2272 7.62191 19.1432 7.03367 18.9751 6.02527C18.555 3.08409 15.5298 0.815186 11.8323 0.815186C8.21884 0.815186 5.10959 3.08409 4.68942 6.02527C4.52136 7.03367 4.43732 7.62191 4.60539 9.05048C4.77346 10.311 5.19363 12.748 5.52976 13.9244C5.86589 15.269 6.6222 16.4454 7.54657 17.2858C7.54657 17.2858 8.05077 20.1429 7.3785 20.8152C6.28606 22.0757 0.571777 23.5043 0.571777 23.5043" stroke="white" stroke-miterlimit="10" stroke-linecap="round" stroke-linejoin="round"/>
</svg>
