<svg width="71" height="74" fill="none" xmlns="http://www.w3.org/2000/svg"><path d="M70.503 32.482a2.757 2.757 0 0 0-3.159-2.278 2.747 2.747 0 0 0-2.28 3.192c2.808 16.456-8.32 32.063-24.857 34.858C23.67 71.05 7.987 59.976 5.177 43.52 2.37 27.065 13.498 11.458 30.035 8.663c10.17-1.72 20.521 1.816 27.487 9.387L45.301 22.1a2.742 2.742 0 0 0-1.746 3.473 2.762 2.762 0 0 0 3.488 1.738h.001l16.552-5.49a2.747 2.747 0 0 0 1.887-2.606V2.745A2.752 2.752 0 0 0 62.724 0a2.752 2.752 0 0 0-2.759 2.745v10.028C45.76-.673 23.29-.113 9.777 14.023c-13.512 14.138-12.95 36.498 1.257 49.944 14.207 13.446 36.677 12.886 50.189-1.251a35.213 35.213 0 0 0 9.28-30.234z" fill="#fff"/></svg>