<svg width="81" height="68" fill="none" xmlns="http://www.w3.org/2000/svg"><path d="M11.071 54.647h-.307c-1.077-.152-1.692-1.068-1.538-2.137 0-.152 1.691-10.227 12.301-9.006 1.077.153 1.692 1.069 1.692 1.984-.154 1.069-1.077 1.68-2 1.68-6.765-.764-7.995 5.19-8.149 5.8-.461.916-1.23 1.68-1.999 1.68z" fill="#F8F8F5"/><path d="M17.222 62.585c-.769 0-1.538-.458-1.692-1.221 0-.153-3.229-9.77 6.612-13.586.923-.458 2 0 2.46 1.069.308.916-.153 1.984-1.076 2.442-6.304 2.442-4.613 8.243-4.459 9.006a1.775 1.775 0 0 1-1.23 2.29h-.615z" fill="#F8F8F5"/><path d="M26.91 67.47c-.462 0-.923-.153-1.231-.459-.154 0-7.534-7.021-.769-15.111.615-.764 1.845-.916 2.614-.306.769.61.923 1.832.308 2.595-4.46 5.343.307 9.77.461 9.922.769.763.769 1.832.154 2.595-.615.61-1.077.763-1.538.763zM22.757 39.688h-.461C8.15 36.024 8.765 24.118 8.765 24.118c0-1.069.922-1.832 1.999-1.68 1.076 0 1.845.917 1.691 1.985 0 .306-.307 8.854 10.764 11.754.922.305 1.537 1.221 1.383 2.29-.153.61-.922 1.22-1.845 1.22z" fill="#F8F8F5"/><path d="M12.609 25.034C5.689 25.034 0 19.386 0 12.517 0 5.647 5.69 0 12.609 0v25.034zM21.988 8.548c4.613 2.595 6.305 8.396 3.69 12.822-2.614 4.58-8.457 6.259-12.916 3.664l9.226-16.486zM69.348 54.647h.307c1.076-.152 1.692-1.068 1.538-2.137 0-.152-1.692-10.227-12.301-9.006-1.077.153-1.692 1.069-1.692 1.984.154 1.069 1.076 1.68 2 1.68 6.765-.764 7.995 5.19 8.149 5.8.307.916 1.076 1.68 1.999 1.68z" fill="#F8F8F5"/><path d="M63.044 62.585c.769 0 1.538-.458 1.691-1.221 0-.153 3.23-9.77-6.611-13.586-.923-.305-2 .153-2.46 1.069-.308.915.153 1.984 1.076 2.442 6.304 2.442 4.612 8.243 4.459 9.006a1.775 1.775 0 0 0 1.23 2.29h.615z" fill="#F8F8F5"/><path d="M53.51 67.47c.461 0 .923-.153 1.23-.459.154 0 7.535-7.021.77-15.111-.616-.764-1.846-.916-2.615-.306-.769.61-.923 1.832-.308 2.595 4.46 5.343-.307 9.77-.46 9.922-.77.763-.77 1.832-.155 2.595.462.61.923.763 1.538.763zM57.508 39.688h.461c14.147-3.664 13.532-15.57 13.532-15.57 0-1.069-.923-1.832-2-1.68-1.076 0-1.845.917-1.69 1.985 0 .306.307 8.854-10.764 11.754-.923.305-1.538 1.221-1.384 2.29.307.61 1.076 1.22 1.845 1.22z" fill="#F8F8F5"/><path d="M67.657 25.034c6.92 0 12.609-5.648 12.609-12.517C80.266 5.647 74.73 0 67.656 0v25.034z" fill="#F8F8F5"/><path d="M58.43 8.548c-4.612 2.595-6.303 8.396-3.69 12.822 2.614 4.58 8.457 6.259 12.917 3.664L58.43 8.548zM40.133 60.753c23.526 0 36.442-34.803 0-34.803s-23.526 34.803 0 34.803z" fill="#F8F8F5"/><path d="M30.907 30.987c2.887 0 5.228-2.323 5.228-5.19 0-2.866-2.34-5.19-5.228-5.19s-5.228 2.324-5.228 5.19c0 2.866 2.34 5.19 5.228 5.19zM49.512 30.987c2.888 0 5.228-2.323 5.228-5.19 0-2.866-2.34-5.19-5.228-5.19-2.887 0-5.228 2.324-5.228 5.19 0 2.866 2.34 5.19 5.228 5.19z" fill="#F8F8F5"/></svg>