<svg width="61" height="52" viewBox="0 0 61 52" fill="none" xmlns="http://www.w3.org/2000/svg">
<path d="M8.30376 41.4856C8.18844 41.4856 8.18844 41.4856 8.07312 41.4856C7.26585 41.3711 6.80456 40.6842 6.91988 39.8828C6.91988 39.7683 8.18844 32.2124 16.1458 33.1283C16.953 33.2427 17.4143 33.9296 17.4143 34.6165C17.299 35.4179 16.6071 35.8759 15.9151 35.8759C10.8409 35.3035 9.9183 39.7683 9.80297 40.2263C9.457 40.9132 8.88038 41.4856 8.30376 41.4856Z" fill="#F8F8F5"/>
<path d="M12.9173 47.4388C12.3407 47.4388 11.7641 47.0953 11.6488 46.5229C11.6488 46.4084 9.22697 39.1959 16.6077 36.3338C17.2996 35.9903 18.1069 36.3338 18.4529 37.1352C18.6835 37.8221 18.3375 38.6235 17.6456 38.9669C12.9173 40.7987 14.1859 45.1491 14.3012 45.7215C14.5319 46.4084 14.1859 47.2098 13.3786 47.4388C13.2633 47.4388 13.148 47.4388 12.9173 47.4388Z" fill="#F8F8F5"/>
<path d="M20.1831 51.1025C19.8371 51.1025 19.4911 50.988 19.2605 50.7591C19.1452 50.7591 13.6096 45.4928 18.6839 39.4251C19.1452 38.8527 20.0678 38.7382 20.6444 39.1961C21.221 39.6541 21.3363 40.57 20.875 41.1424C17.5306 45.1493 21.1057 48.4694 21.221 48.5839C21.7976 49.1563 21.7976 49.9577 21.3363 50.5301C20.875 50.988 20.5291 51.1025 20.1831 51.1025Z" fill="#F8F8F5"/>
<path d="M17.0677 30.2662C16.9524 30.2662 16.8371 30.2662 16.7218 30.2662C6.11197 27.5186 6.57326 18.5889 6.57326 18.5889C6.57326 17.7875 7.26521 17.215 8.07247 17.3295C8.87974 17.3295 9.45636 18.0164 9.34104 18.8178C9.34104 19.0468 9.11039 25.4579 17.4137 27.6331C18.1056 27.8621 18.5669 28.549 18.4516 29.3504C18.3363 29.8083 17.7597 30.2662 17.0677 30.2662Z" fill="#F8F8F5"/>
<path d="M9.45654 19.2759C4.26698 19.2759 0 15.04 0 9.8882C0 4.7364 4.26698 0.500488 9.45654 0.500488V19.2759Z" fill="#F8F8F5"/>
<path d="M16.4917 6.91211C19.9514 8.85834 21.22 13.2087 19.2595 16.5288C17.299 19.9633 12.9167 21.2226 9.57227 19.2764L16.4917 6.91211Z" fill="#F8F8F5"/>
<path d="M52.009 41.4856C52.1243 41.4856 52.1243 41.4856 52.2397 41.4856C53.0469 41.3711 53.5082 40.6842 53.3929 39.8828C53.3929 39.7683 52.1243 32.2124 44.167 33.1283C43.3597 33.2427 42.8984 33.9296 42.8984 34.6165C43.0138 35.4179 43.7057 35.8759 44.3976 35.8759C49.4719 35.3035 50.3945 39.7683 50.5098 40.2263C50.7405 40.9132 51.3171 41.4856 52.009 41.4856Z" fill="#F8F8F5"/>
<path d="M47.2815 47.4383C47.8581 47.4383 48.4347 47.0949 48.5501 46.5224C48.5501 46.408 50.9719 39.1954 43.5911 36.3333C42.8992 36.1044 42.0919 36.4478 41.746 37.1347C41.5153 37.8216 41.8613 38.623 42.5532 38.9665C47.2815 40.7982 46.0129 45.1486 45.8976 45.721C45.667 46.408 46.0129 47.2093 46.8202 47.4383C46.9355 47.4383 47.1662 47.4383 47.2815 47.4383Z" fill="#F8F8F5"/>
<path d="M40.1315 51.1025C40.4775 51.1025 40.8234 50.988 41.0541 50.7591C41.1694 50.7591 46.705 45.4928 41.6307 39.4251C41.1694 38.8527 40.2468 38.7382 39.6702 39.1961C39.0936 39.6541 38.9783 40.57 39.4396 41.1424C42.784 45.1493 39.2089 48.4694 39.0936 48.5839C38.517 49.1563 38.517 49.9577 38.9783 50.5301C39.3242 50.988 39.6702 51.1025 40.1315 51.1025Z" fill="#F8F8F5"/>
<path d="M43.1301 30.2662C43.2454 30.2662 43.3607 30.2662 43.476 30.2662C54.0858 27.5186 53.6245 18.5889 53.6245 18.5889C53.6245 17.7875 52.9326 17.215 52.1253 17.3295C51.3181 17.3295 50.7414 18.0164 50.8568 18.8178C50.8568 19.0468 51.0874 25.4579 42.7841 27.6331C42.0921 27.8621 41.6309 28.549 41.7462 29.3504C41.9768 29.8083 42.5534 30.2662 43.1301 30.2662Z" fill="#F8F8F5"/>
<path d="M50.7422 19.2754C55.9318 19.2754 60.1987 15.0395 60.1987 9.88771C60.1987 4.73592 56.0471 0.5 50.7422 0.5V19.2754Z" fill="#F8F8F5"/>
<path d="M43.8228 6.91113C40.363 8.85737 39.0945 13.2078 41.055 16.5278C43.0155 19.9623 47.3978 21.2217 50.7422 19.2754L43.8228 6.91113Z" fill="#F8F8F5"/>
<path d="M30.1004 46.0653C47.7449 46.0653 57.4321 19.9629 30.1004 19.9629C2.76863 19.9629 12.4558 46.0653 30.1004 46.0653Z" fill="#F8F8F5"/>
<path d="M23.1798 23.741C25.3453 23.741 27.1008 21.9983 27.1008 19.8485C27.1008 17.6988 25.3453 15.9561 23.1798 15.9561C21.0143 15.9561 19.2588 17.6988 19.2588 19.8485C19.2588 21.9983 21.0143 23.741 23.1798 23.741Z" fill="#F8F8F5"/>
<path d="M23.1799 21.336C24.0079 21.336 24.6791 20.6696 24.6791 19.8477C24.6791 19.0257 24.0079 18.3594 23.1799 18.3594C22.3519 18.3594 21.6807 19.0257 21.6807 19.8477C21.6807 20.6696 22.3519 21.336 23.1799 21.336Z" fill="#243555"/>
<path d="M37.1339 23.741C39.2994 23.741 41.0549 21.9983 41.0549 19.8485C41.0549 17.6988 39.2994 15.9561 37.1339 15.9561C34.9684 15.9561 33.2129 17.6988 33.2129 19.8485C33.2129 21.9983 34.9684 23.741 37.1339 23.741Z" fill="#F8F8F5"/>
<path d="M37.134 21.336C37.962 21.336 38.6332 20.6696 38.6332 19.8477C38.6332 19.0257 37.962 18.3594 37.134 18.3594C36.306 18.3594 35.6348 19.0257 35.6348 19.8477C35.6348 20.6696 36.306 21.336 37.134 21.336Z" fill="#243555"/>
</svg>
