<svg width="60" height="60" viewBox="0 0 60 60" fill="none" xmlns="http://www.w3.org/2000/svg">
<path d="M32.9871 56.1012C32.7469 56.1012 32.5075 56.0307 32.3012 55.8911C28.1027 53.0529 24.4538 50.3323 20.9251 47.7014C17.508 45.1536 13.9777 42.5214 9.95731 39.7912H1.22449C0.548204 39.7912 0 39.2428 0 38.5667V21.4333C0 20.7571 0.548204 20.2088 1.22449 20.2088H9.9578C18.2289 14.5931 32.114 4.24668 32.255 4.1415C32.6264 3.86452 33.1222 3.82117 33.5361 4.0286C33.9501 4.2364 34.2115 4.65995 34.2115 5.12305V54.8768C34.2115 55.3297 33.9615 55.7458 33.5613 55.9582C33.3811 56.054 33.1838 56.1012 32.9871 56.1012ZM2.44898 37.3423H10.3331C10.5775 37.3423 10.8164 37.4155 11.0189 37.5524C15.2151 40.3893 18.862 43.1084 22.3889 45.7381C25.3469 47.9437 28.3904 50.2128 31.7625 52.5535V7.55648C27.5451 10.6772 17.4622 18.0919 11.0193 22.4477C10.8169 22.5846 10.578 22.6579 10.3335 22.6579H2.44898V37.3423Z" fill="white"/>
</svg>
